<?xml version="1.0" encoding="UTF-8"?><svg id="Layer_1" xmlns="http://www.w3.org/2000/svg" viewBox="0 0 100 36"><defs><style>.cls-1{fill:#b2fce4;}</style></defs><rect class="cls-1" x=".5" y=".77" width="99" height="34.46" rx="17.23" ry="17.23"/><g><path d="M84.96,13.94l-2.19-1.25-2.22-1.27c-1.47-.84-3.3,.22-3.3,1.91v.29c0,.16,.08,.3,.22,.38l1.03,.59c.29,.16,.64-.04,.64-.37v-.68c0-.33,.36-.54,.65-.38l2.03,1.16,2.02,1.16c.29,.17,.29,.59,0,.76l-2.02,1.16-2.03,1.16c-.29,.17-.65-.04-.65-.38v-.34c0-1.69-1.83-2.75-3.3-1.91l-2.22,1.27-2.19,1.25c-1.48,.85-1.48,2.98,0,3.82l2.19,1.25,2.22,1.27c1.47,.84,3.3-.22,3.3-1.91v-.29c0-.16-.08-.3-.22-.38l-1.03-.59c-.29-.16-.64,.04-.64,.37v.68c0,.33-.36,.54-.65,.38l-2.03-1.16-2.02-1.16c-.29-.17-.29-.59,0-.76l2.02-1.16,2.03-1.16c.29-.17,.65,.04,.65,.38v.34c0,1.69,1.83,2.75,3.3,1.91l2.22-1.27,2.19-1.25c1.48-.85,1.48-2.98,0-3.82Z"/><path d="M70.61,14.36l-5.13,10.58h-2.13l1.92-3.95-3.01-6.63h2.18l1.93,4.44,2.11-4.44h2.12Z"/><g><path d="M19.4,18.12c0-1.26-.92-2.15-2.04-2.15s-2.04,.9-2.04,2.15,.92,2.15,2.04,2.15,2.04-.89,2.04-2.15m.02,3.76v-.98c-.56,.68-1.38,1.1-2.37,1.1-2.06,0-3.62-1.65-3.62-3.88s1.62-3.89,3.67-3.89c.96,0,1.77,.42,2.33,1.08v-.95h1.85v7.51h-1.85Z"/><path d="M30.24,20.2c-.65,0-.83-.24-.83-.87v-3.34h1.19v-1.64h-1.19v-1.83h-1.89v1.83h-2.44v-.75c0-.63,.24-.87,.9-.87h.42v-1.46h-.91c-1.56,0-2.3,.51-2.3,2.07v1h-1.05v1.64h1.05v5.87h1.89v-5.87h2.44v3.68c0,1.53,.59,2.19,2.12,2.19h.98v-1.67h-.38Z"/><path d="M37.03,17.44c-.14-.98-.93-1.56-1.86-1.56s-1.7,.57-1.89,1.56h3.76Zm-3.77,1.17c.14,1.11,.93,1.74,1.94,1.74,.8,0,1.41-.38,1.77-.98h1.94c-.45,1.59-1.88,2.61-3.76,2.61-2.27,0-3.86-1.59-3.86-3.86s1.68-3.91,3.91-3.91,3.86,1.65,3.86,3.91c0,.17-.02,.33-.05,.48h-5.75Z"/><path d="M51.1,18.12c0-1.22-.92-2.15-2.04-2.15s-2.04,.9-2.04,2.15,.92,2.15,2.04,2.15,2.04-.93,2.04-2.15m-5.95,6.82V14.36h1.85v.98c.56-.69,1.38-1.11,2.37-1.11,2.03,0,3.62,1.67,3.62,3.88s-1.62,3.89-3.67,3.89c-.95,0-1.73-.38-2.27-1.01v3.95h-1.91Z"/><path d="M59.65,18.12c0-1.26-.92-2.15-2.04-2.15s-2.04,.9-2.04,2.15,.92,2.15,2.04,2.15,2.04-.89,2.04-2.15m.02,3.76v-.98c-.56,.68-1.38,1.1-2.37,1.1-2.06,0-3.62-1.65-3.62-3.88s1.62-3.89,3.67-3.89c.96,0,1.77,.42,2.33,1.08v-.95h1.85v7.51h-1.85Z"/><path d="M41.82,15.1s.47-.87,1.62-.87c.49,0,.81,.17,.81,.17v1.92s-.7-.43-1.33-.34c-.64,.09-1.04,.67-1.04,1.46v4.45h-1.91v-7.51h1.85v.74Z"/></g></g></svg>