<?xml version="1.0" encoding="UTF-8"?><svg id="Layer_1" xmlns="http://www.w3.org/2000/svg" viewBox="0 0 50 50"><defs><style>.cls-1{fill:#0054a6;}</style></defs><path class="cls-1" d="M23.53,37.93c.81,.82,1.89,1.27,3.04,1.27h5.18l.04,.04,5.5,5.51c.17,.16,.39,.25,.62,.25h0c.24,0,.46-.1,.62-.27,.16-.17,.25-.38,.25-.62v-4.92h1.74c2.37,0,4.3-1.94,4.3-4.32v-13.01c0-2.37-1.93-4.31-4.3-4.31h-4.41v-7.63c0-2.71-2.2-4.92-4.9-4.92H10.08c-2.7,0-4.9,2.21-4.9,4.92V27.06c0,2.72,2.2,4.93,4.9,4.94h2.69v5.95c0,.24,.09,.46,.26,.63,.17,.17,.39,.26,.62,.26h0c.24,0,.46-.09,.62-.26l6.57-6.58h1.43v2.88c0,1.15,.44,2.24,1.25,3.06Zm11.16-7.38c.93-.93,1.43-2.17,1.43-3.49v-7.73h4.41c1.4,0,2.53,1.14,2.53,2.54v13c0,1.4-1.14,2.54-2.53,2.54h-2.62c-.49,0-.88,.4-.88,.89v3.67l-4.29-4.29c-.16-.17-.39-.26-.62-.26h-5.54c-1.4,0-2.53-1.14-2.53-2.54v-2.89h7.18c1.31,0,2.54-.52,3.47-1.45Zm-14.21-.34c-.24,0-.46,.09-.63,.26l-5.31,5.34v-4.7c0-.49-.4-.89-.88-.89h-3.57c-1.73,0-3.14-1.42-3.14-3.15V9.92c0-1.73,1.41-3.14,3.14-3.15H31.22c1.73,0,3.13,1.41,3.14,3.15V27.06c0,1.73-1.41,3.15-3.14,3.15h-10.75Z"/><path class="cls-1" d="M22.85,10.85c-.34-.59-.89-1.02-1.55-1.19-.22-.06-.44-.09-.66-.09-.44,0-.87,.12-1.27,.34-.39,.23-.71,.55-.94,.94l-7.2,12.52c-.7,1.22-.28,2.79,.93,3.49,.39,.22,.83,.34,1.27,.34h14.4c1.4,0,2.54-1.15,2.54-2.56,0-.45-.12-.89-.34-1.28l-7.2-12.52Zm5.39,14.47c-.12,.07-.25,.1-.39,.1H13.44c-.43,0-.78-.35-.78-.78,0-.14,.04-.27,.1-.39l7.19-12.52c.1-.18,.27-.31,.47-.37,.2-.06,.41-.03,.59,.08,.12,.07,.22,.17,.29,.29l7.21,12.52c.21,.37,.08,.85-.29,1.07Z"/><path class="cls-1" d="M20.65,15.21c-.49,0-.88,.4-.88,.89v3.64c0,.49,.4,.89,.88,.89s.88-.4,.88-.89v-3.64c0-.49-.4-.89-.88-.89Z"/><path class="cls-1" d="M20.65,22.15c-.49,0-.88,.4-.88,.89v.06c0,.49,.4,.89,.88,.89s.88-.4,.88-.89v-.06c0-.49-.4-.89-.88-.89Z"/></svg>