<?xml version="1.0" encoding="UTF-8"?><svg id="Layer_1" xmlns="http://www.w3.org/2000/svg" viewBox="0 0 50 50"><defs><style>.cls-1{fill:#0054a6;}</style></defs><path class="cls-1" d="M14.36,48.5c-1.09,0-2.15-.44-2.92-1.21L3.19,39.05c-.79-.79-1.23-1.89-1.21-3.02,.03-1.08,.46-2.05,1.24-2.76l8.4-7.64c2.32-2.11,4.79-2.93,7.39-3.8,3.23-1.08,6.56-2.19,10.33-5.88-.19-.67-.02-1.42,.47-1.97l2.87-3.25c.35-.4,.84-.62,1.38-.64,.57-.02,1.12,.2,1.52,.6l4.09,4.09c.4,.4,.62,.95,.6,1.52-.02,.54-.24,1.03-.64,1.38l-3.25,2.87c-.44,.39-1.01,.58-1.56,.54-4.01,4.06-5.24,7.62-6.32,10.76-.86,2.48-1.67,4.83-3.65,7l-1.35,1.48s-.01,.01-.02,.02l-6.28,6.9c-.7,.77-1.68,1.21-2.76,1.24-.03,0-.06,0-.1,0Zm-3.67-19.64l-6.28,5.72c-.41,.37-.64,.9-.66,1.49-.02,.65,.24,1.28,.69,1.73l8.25,8.25c.45,.45,1.09,.7,1.73,.69,.59-.01,1.12-.25,1.49-.66l5.72-6.28-2.36-2.37c-2.17,1.01-4.35,.83-5.69-.51-1.34-1.34-1.51-3.52-.51-5.69l-2.36-2.36Zm8.73,6.6c.23,0,.46,.09,.63,.26l2.76,2.76,.74-.81c.35-.38,.65-.77,.92-1.16l-2.62-2.59c-.28-.28-.34-.72-.15-1.06,.92-1.63,.96-3.31,.09-4.17-.87-.87-2.55-.83-4.17,.09-.35,.2-.78,.14-1.06-.14l-2.61-2.61c-.39,.27-.76,.58-1.14,.92l-.81,.73,2.76,2.76c.28,.28,.34,.72,.14,1.06-.92,1.63-.96,3.31-.09,4.17,.87,.87,2.55,.83,4.17-.09,.14-.08,.29-.12,.44-.12Zm4.13-2.34l1.84,1.82c.57-1.14,.98-2.35,1.43-3.66,1.12-3.25,2.39-6.92,6.46-11.15l-2.82-2.82c-4.02,3.89-7.67,5.11-10.9,6.19-1.46,.49-2.8,.93-4.06,1.58l1.85,1.85c2.17-1.01,4.35-.83,5.69,.51,1.34,1.34,1.51,3.52,.51,5.69Zm7.48-17.75l3.95,3.96c.08,0,.16-.04,.23-.1l3.25-2.87s.04-.06,.04-.11c0-.08-.03-.16-.08-.21l-4.09-4.09c-.05-.05-.14-.09-.21-.08-.05,0-.09,.02-.11,.04l-2.87,3.25c-.06,.07-.1,.15-.1,.23Zm10.36-1.39c-.37,0-.72-.24-.84-.61-.15-.46,.1-.96,.56-1.12l5.73-1.89c.46-.15,.96,.1,1.12,.56,.15,.46-.1,.96-.56,1.12l-5.73,1.89c-.09,.03-.18,.04-.28,.04Zm-2-2.58c-.23,0-.46-.09-.63-.27-.34-.35-.34-.91,.01-1.25l6.16-6.02c.35-.34,.91-.34,1.25,.01,.34,.35,.34,.91-.01,1.25l-6.16,6.02c-.17,.17-.4,.25-.62,.25Zm-2.39-2.28c-.07,0-.14,0-.21-.03-.47-.12-.76-.6-.65-1.07l1.44-5.86c.12-.47,.6-.76,1.07-.65,.47,.12,.76,.6,.65,1.07l-1.44,5.86c-.1,.4-.46,.67-.86,.67Z"/></svg>