<?xml version="1.0" encoding="UTF-8"?><svg id="Layer_1" xmlns="http://www.w3.org/2000/svg" viewBox="0 0 50 50"><defs><style>.cls-1{fill:#0054a6;}</style></defs><path class="cls-1" d="M38.25,47.5H21.52c-2.75,0-3.61-3.32-3.65-3.46-.07-.26,0-.54,.16-.76,.17-.22,.43-.34,.7-.34h3.7c-2.86-2.24-4.58-5.69-4.58-9.46v-4.29c0-.49,.4-.89,.88-.89h22.31c.49,0,.88,.4,.88,.89v1.04c.56-.34,1.21-.53,1.9-.53,2.03,0,3.67,1.65,3.67,3.67,0,1.34-.51,5.69-6.98,5.77-.78,1.47-1.86,2.77-3.18,3.81h3.7c.27,0,.53,.13,.7,.34,.17,.21,.23,.49,.16,.76-.04,.14-.9,3.46-3.65,3.46Zm-18.19-2.79c.31,.51,.79,1.02,1.46,1.02h16.73c.67,0,1.15-.5,1.46-1.02H20.06Zm5.83-1.77h7.99c3.82-1.61,6.27-5.31,6.27-9.46v-3.41H19.61v3.41c0,4.16,2.46,7.85,6.28,9.46Zm16.03-9.57v.11c0,1.34-.22,2.63-.62,3.85,3.83-.32,4.43-2.57,4.43-3.96,0-1.05-.85-1.9-1.9-1.9s-1.9,.85-1.9,1.9Zm-31.64-1.67h0c-.98,0-1.9-.38-2.6-1.08-3.08-3.08-3.28-4.3-3.47-7-.02-.24-.04-.5-.06-.77l-.07-.03c-1.93-.93-2.13-4.2-.48-7.6,.12-.25,.24-.49,.38-.72-.49-1.96,.69-4.81,3.2-7.32,1.41-1.41,3.03-2.47,4.55-2.98,1.04-.35,1.98-.42,2.76-.22,.23-.13,.47-.26,.71-.38,1.5-.73,3.06-1.08,4.42-1.11,1.57,.02,2.7,.58,3.19,1.59,.01,.02,.02,.04,.03,.06,.27,.02,.53,.04,.77,.06,2.7,.19,3.92,.39,6.99,3.47,.69,.69,1.08,1.62,1.08,2.6s-.38,1.9-1.08,2.6c-.93,.93-1.94,1.11-3.34,1.35l-.69,.11c-.86,.13-1.68,.25-2.61,1.14-.3,1.17-.82,2.21-1.71,2.64-.19,.09-.4,.16-.63,.19-.04,.98-.29,1.86-.87,2.45-.54,.54-1.4,.81-2.45,.86-.03,.23-.1,.45-.19,.64-.39,.8-1.35,1.36-2.64,1.7-.89,.94-1.01,1.75-1.14,2.62l-.11,.68c-.24,1.41-.42,2.42-1.36,3.35-.69,.69-1.62,1.08-2.6,1.08Zm-4.29-8.15c.16,2.25,.24,3.11,2.95,5.82,.36,.36,.84,.56,1.34,.56h0c.51,0,.99-.2,1.35-.56,.51-.51,.62-1.02,.86-2.4l.1-.64c.08-.56,.18-1.24,.52-1.98-2.28,.16-4.92-.12-7.13-.79Zm-.59-2.08c4.02,1.66,10.4,1.31,11.12,.06-3.69-.5-8.6-2.75-11.41-5.32-1.19,2.58-.95,4.69-.24,5.03,.13,.06,.27,.13,.41,.19,.04,.01,.08,.03,.12,.05Zm12.26-1.58c.88,.04,1.55-.07,1.86-.38,.28-.27,.42-.96,.35-1.97,0-.04,0-.08,0-.11-.07-.97-.32-2.21-.81-3.66-1.02-3.07-2.74-6.05-4.47-7.79h0c-.06-.06-.13-.11-.21-.15-.08-.02-.16-.05-.24-.1-.45-.13-1.1-.08-1.84,.16-1.27,.42-2.64,1.33-3.86,2.55-2.13,2.13-3.07,4.52-2.72,5.69,.05,.08,.08,.16,.1,.25,.04,.08,.09,.15,.15,.2,2.95,2.95,8.27,4.99,11.35,5.28,.11-.01,.22,0,.33,.02Zm-1.45-14.78c1.81,1.96,3.48,4.95,4.53,8.1,.25,.76,.62,2,.8,3.3,.41-.27,1.03-1.66,1.06-4.44,.03-2.41-.4-4.92-1.14-6.7,0-.02-.02-.04-.03-.06-.06-.15-.13-.3-.2-.44-.17-.36-.78-.58-1.61-.59-1.03-.06-2.24,.29-3.42,.83Zm7.35,.88c.55,1.81,.84,3.97,.82,6.1,0,.31-.01,.66-.04,1.03,.75-.34,1.44-.44,2-.53l.65-.11c1.38-.24,1.88-.35,2.39-.86,.36-.36,.56-.84,.56-1.35s-.2-.99-.56-1.35c-2.71-2.71-3.57-2.79-5.82-2.95Zm9.12,21.3c-.23,0-.45-.09-.63-.26-.34-.34-.35-.89-.01-1.24,.03-.04,.45-.52,.45-1.48,0-.29-.31-1.11-.6-1.69-.19-.37-.79-1.65-.79-2.49,0-1.71,.86-2.62,.95-2.72,.35-.35,.91-.35,1.25,0,.35,.35,.35,.91,0,1.25,0,0-.44,.49-.44,1.47,0,.29,.31,1.11,.6,1.7,.18,.37,.79,1.64,.79,2.49,0,1.71-.86,2.62-.96,2.72-.17,.17-.4,.26-.63,.26Zm-5.58,0c-.23,0-.45-.09-.63-.26-.34-.34-.35-.89-.01-1.24,.04-.04,.45-.52,.45-1.48,0-.29-.31-1.11-.6-1.7-.18-.37-.79-1.65-.79-2.49,0-1.71,.86-2.62,.96-2.72,.35-.34,.91-.35,1.25,0,.35,.35,.34,.91,0,1.25,0,0-.44,.49-.44,1.46,0,.29,.31,1.11,.6,1.7,.19,.37,.79,1.65,.79,2.49,0,1.71-.86,2.62-.95,2.72-.17,.17-.4,.26-.63,.26Z"/></svg>