<?xml version="1.0" encoding="UTF-8"?><svg id="Layer_1" xmlns="http://www.w3.org/2000/svg" viewBox="0 0 50 50"><defs><style>.cls-1{fill:#0054a6;}</style></defs><path class="cls-1" d="M38.87,43.6H11.13c-2.68,0-4.86-2.18-4.86-4.86V13.66c0-2.68,2.18-4.86,4.86-4.86h2.13v-1.54c0-.47,.38-.85,.85-.85s.85,.38,.85,.85v1.54h5.55v-1.54c0-.47,.38-.85,.85-.85s.85,.38,.85,.85v1.54h5.55v-1.54c0-.47,.38-.85,.85-.85s.85,.38,.85,.85v1.54h5.55v-1.54c0-.47,.38-.85,.85-.85s.85,.38,.85,.85v1.54h2.13c2.68,0,4.86,2.18,4.86,4.86v25.07c0,2.68-2.18,4.86-4.86,4.86ZM7.97,18.17v20.56c0,1.74,1.41,3.15,3.15,3.15h27.75c1.74,0,3.15-1.41,3.15-3.15V18.17H7.97Zm0-1.71H42.03v-2.8c0-1.74-1.41-3.15-3.15-3.15h-2.13v1.7c.46,.29,.77,.8,.77,1.38,0,.9-.73,1.62-1.63,1.62s-1.62-.73-1.62-1.62c0-.58,.31-1.1,.77-1.38v-1.7h-5.55v1.7c.46,.29,.77,.8,.77,1.38,0,.9-.73,1.62-1.63,1.62s-1.62-.73-1.62-1.62c0-.58,.31-1.1,.77-1.38v-1.7h-5.55v1.7c.46,.29,.77,.8,.77,1.38,0,.9-.73,1.62-1.63,1.62s-1.63-.73-1.63-1.62c0-.58,.31-1.1,.77-1.38v-1.7h-5.55v1.7c.46,.29,.77,.8,.77,1.38,0,.9-.73,1.62-1.63,1.62s-1.62-.73-1.62-1.62c0-.58,.31-1.1,.77-1.38v-1.7h-2.13c-1.74,0-3.15,1.41-3.15,3.15v2.8Zm27.92-2.95s-.08,.04-.08,.08,.04,.08,.08,.08,.08-.04,.08-.08-.04-.08-.08-.08Zm-7.26,0s-.08,.04-.08,.08,.04,.08,.08,.08,.08-.04,.08-.08-.04-.08-.08-.08Zm-7.26,0s-.08,.04-.08,.08,.04,.08,.08,.08,.08-.04,.08-.08-.04-.08-.08-.08Zm-7.26,0s-.08,.04-.08,.08,.04,.08,.08,.08,.08-.04,.08-.08-.04-.08-.08-.08Z"/><path class="cls-1" d="M37.02,27.23H12.98c-.47,0-.85-.38-.85-.85s.38-.85,.85-.85h24.03c.47,0,.85,.38,.85,.85s-.38,.85-.85,.85Z"/><path class="cls-1" d="M37.02,33.12H12.98c-.47,0-.85-.38-.85-.85s.38-.85,.85-.85h24.03c.47,0,.85,.38,.85,.85s-.38,.85-.85,.85Z"/></svg>