<?xml version="1.0" encoding="UTF-8"?><svg id="Layer_1" xmlns="http://www.w3.org/2000/svg" viewBox="0 0 50 50"><defs><style>.cls-1{fill:#0054a6;}</style></defs><path class="cls-1" d="M14.65,15.94h1.16v1.16c0,.49,.39,.88,.88,.88s.88-.39,.88-.88v-1.16h1.16c.48,0,.88-.39,.88-.88s-.39-.88-.88-.88h-1.16v-1.16c0-.49-.39-.88-.88-.88s-.88,.39-.88,.88v1.16h-1.16c-.49,0-.88,.39-.88,.88s.39,.88,.88,.88"/><path class="cls-1" d="M10.49,36.12h-1.16v-1.16c0-.49-.39-.88-.88-.88s-.88,.39-.88,.88v1.16h-1.16c-.48,0-.88,.39-.88,.88s.39,.88,.88,.88h1.16v1.16c0,.49,.39,.88,.88,.88s.88-.39,.88-.88v-1.16h1.16c.48,0,.88-.39,.88-.88s-.39-.88-.88-.88"/><path class="cls-1" d="M43.18,31.26h-1.16v-1.16c0-.49-.39-.88-.88-.88s-.88,.39-.88,.88v1.16h-1.16c-.48,0-.88,.39-.88,.88s.39,.88,.88,.88h1.16v1.16c0,.49,.39,.88,.88,.88s.88-.39,.88-.88v-1.16h1.16c.48,0,.88-.39,.88-.88s-.39-.88-.88-.88"/><path class="cls-1" d="M32.7,15.69c.57-.57,1.5-.57,2.07,0,.17,.17,.4,.26,.62,.26s.45-.09,.62-.26c.34-.34,.34-.9,0-1.24-.61-.61-1.42-.94-2.28-.94s-1.67,.33-2.28,.94c-.34,.34-.34,.9,0,1.24,.34,.34,.9,.34,1.24,0"/><path class="cls-1" d="M13.77,30.42c.34-.34,.34-.9,0-1.24-1.26-1.25-3.3-1.25-4.55,0-.34,.34-.34,.9,0,1.24,.34,.34,.9,.34,1.24,0,.57-.57,1.5-.57,2.07,0,.17,.17,.4,.26,.62,.26s.45-.09,.62-.26"/><path class="cls-1" d="M25.46,31.85c-.13-.07-.27-.1-.42-.1s-.29,.03-.42,.1l-5.41,2.91,1.09-6.04c.05-.29-.04-.59-.26-.79l-4.44-4.25,6.09-.83c.29-.04,.54-.22,.67-.49l2.67-5.53,2.67,5.53c.13,.26,.38,.45,.67,.49l6.09,.83-4.44,4.25c-.21,.2-.31,.5-.26,.79l1.09,6.04-5.41-2.91Zm6.13-2.98l5.41-5.18c.24-.23,.33-.59,.23-.91-.1-.32-.38-.55-.72-.6l-7.42-1.01-3.25-6.75c-.15-.3-.45-.5-.79-.5s-.65,.19-.79,.5l-3.25,6.75-7.42,1.01c-.33,.04-.61,.28-.72,.6-.1,.32-.02,.67,.23,.91l5.41,5.18-1.33,7.37c-.06,.33,.08,.67,.35,.87,.27,.2,.64,.22,.93,.06l6.6-3.55,6.6,3.55c.13,.07,.27,.1,.42,.1,.18,0,.36-.06,.52-.17,.27-.2,.41-.54,.35-.87l-1.33-7.37Z"/><path class="cls-1" d="M25.04,11.4c.48,0,.88-.39,.88-.88v-3.28c0-.48-.39-.88-.88-.88s-.88,.39-.88,.88v3.28c0,.49,.39,.88,.88,.88"/><path class="cls-1" d="M6.78,19.88c-.46-.15-.96,.1-1.11,.56-.15,.46,.1,.96,.56,1.11l3.11,1.01c.09,.03,.18,.04,.27,.04,.37,0,.71-.24,.84-.61,.15-.46-.1-.96-.56-1.11l-3.11-1.01Z"/><path class="cls-1" d="M16.03,39.15c-.39-.28-.94-.2-1.23,.19l-1.92,2.65c-.28,.39-.2,.94,.19,1.23,.16,.11,.34,.17,.51,.17,.27,0,.54-.13,.71-.36l1.92-2.65c.28-.39,.2-.94-.19-1.23"/><path class="cls-1" d="M35.28,39.34c-.29-.39-.83-.48-1.23-.19-.39,.28-.48,.83-.19,1.23l1.92,2.65c.17,.24,.44,.36,.71,.36,.18,0,.36-.05,.52-.17,.39-.28,.48-.84,.19-1.23l-1.92-2.65Z"/><path class="cls-1" d="M44.41,20.44c-.15-.46-.65-.71-1.11-.56l-3.11,1.01c-.46,.15-.71,.64-.56,1.11,.12,.37,.46,.61,.83,.61,.09,0,.18-.01,.27-.04l3.11-1.01c.46-.15,.71-.64,.56-1.11"/><path class="cls-1" d="M41.15,7.34c.81,0,1.46,.66,1.46,1.46s-.66,1.46-1.46,1.46-1.46-.66-1.46-1.46,.66-1.46,1.46-1.46m0,4.68c1.77,0,3.22-1.44,3.22-3.22s-1.44-3.22-3.22-3.22-3.22,1.44-3.22,3.22,1.44,3.22,3.22,3.22"/><path class="cls-1" d="M8.85,9.06c.81,0,1.46,.66,1.46,1.46s-.66,1.46-1.46,1.46-1.46-.66-1.46-1.46,.66-1.46,1.46-1.46m0,4.68c1.77,0,3.22-1.44,3.22-3.22s-1.44-3.22-3.22-3.22-3.22,1.44-3.22,3.22,1.44,3.22,3.22,3.22"/><path class="cls-1" d="M25.04,42.66c-.81,0-1.46-.66-1.46-1.46s.66-1.46,1.46-1.46,1.46,.66,1.46,1.46-.66,1.46-1.46,1.46m0-4.68c-1.78,0-3.22,1.44-3.22,3.22s1.44,3.22,3.22,3.22,3.22-1.44,3.22-3.22-1.44-3.22-3.22-3.22"/></svg>