<?xml version="1.0" encoding="UTF-8"?><svg id="Layer_1" xmlns="http://www.w3.org/2000/svg" viewBox="0 0 50 50"><defs><style>.cls-1{fill:#0054a6;}</style></defs><path class="cls-1" d="M28.55,39.5c.49,0,.88-.4,.88-.88v-.37h2.8l.05,.11c.26,.52,.78,.85,1.37,.87h.34c.62,.03,1.46,.05,2.17,0,1.02-.08,2.12-.37,2.13-.37,4.1-.96,6.48-4.2,6.73-9.13,.01-.25,.02-.48,.02-.7,0-.37-.01-.7-.03-1.09-.42-4.27-2.89-7.03-4.89-8.1L21.54,11.62c-6.87-2.83-11.45,.51-12.3,1.21h0c-5.05,3.9-4.29,11.9-4.18,12.8,.85,13.62,9.99,13.63,10.38,13.63,.84-.02,1.52-.71,1.52-1.55v-2.96s3.89,0,3.89,0v1.72h-1.69v1.76h1.69v.37c0,.49,.4,.88,.88,.88s.88-.4,.88-.88v-5.28h1.62v5.28c0,.49,.4,.88,.88,.88s.88-.4,.88-.88v-5.28h1.68v5.28c0,.49,.4,.88,.88,.88Zm.88-3.02v-1.72h2.69v1.72s-2.69,0-2.69,0Zm-14.46,1c-1.75-.17-7.52-1.54-8.16-11.98v-.06c-.04-.32-.86-7.85,3.53-11.23,.71-.59,4.59-3.41,10.51-.97h0s18.46,8.17,18.46,8.17c1.61,.87,3.59,3.13,3.94,6.66,.03,.53,.04,.98,.01,1.56-.2,4.19-2.02,6.71-5.39,7.5,0,0-.99,.26-1.85,.33-.63,.05-1.43,.03-1.95,0h-.19s0-3.83,0-3.83h.19c.41,0,1.03-.01,1.53-.01,.7,0,1.27-.15,1.55-.24,.9-.24,2.4-1.07,2.4-3.92,0-.33-.02-.6-.03-.72l-.03-.41c-.16-2.24-1.5-3.27-1.91-3.53l-18.2-8.04c-3.94-1.61-6.34,.18-6.6,.39l-.08,.07c-1.92,1.46-2.12,5.03-2.12,6.49,0,.51,.03,1.02,.07,1.37v.12c.42,6.82,3.21,8.17,4.39,8.43l.15,.03v3.84s-.2-.02-.2-.02Zm7.48-5.91c-.75,0-1.41,.53-1.57,1.27l-.03,.15h-3.97l-.05-.12c-.23-.55-.75-.93-1.33-.96-.12-.01-2.7-.4-3.09-6.85l-.02-.18c-.04-.3-.06-.74-.06-1.18,0-2.39,.58-4.45,1.45-5.11l.1-.08c.07-.06,1.77-1.38,4.8-.14l17.97,7.93c.31,.22,.98,.83,1.07,2.15l.04,.42c0,.11,.03,.32,.03,.58,0,1.6-.57,2.08-1.05,2.2l-.13,.04c-.07,.02-.49,.16-1,.16-.62,0-1.44,0-1.77,.01h-.1c-.44-.01-.87,.15-1.16,.43-.16,.15-.28,.34-.36,.56l-.05,.13h-2.74l-.03-.15c-.16-.74-.82-1.27-1.57-1.27h-5.38Z"/></svg>