<?xml version="1.0" encoding="UTF-8"?><svg id="Layer_1" xmlns="http://www.w3.org/2000/svg" viewBox="0 0 50 50"><defs><style>.cls-1{fill:#0054a6;}</style></defs><path class="cls-1" d="M31.4,30.92c-2.02,2.14-5.45,3.11-7.24,3.11h-.25c-1.79,0-5.23-.96-7.24-3.11-1.1-1.17-1.61-2.52-1.52-4,.02-.4,.07-.76,.11-1.1h17.54s0,0,.01,0c.05,.34,.09,.7,.11,1.1,.09,1.48-.42,2.83-1.52,4m-14.71-8.92c.49-.79,.95-1.54,1.04-2.67,.2-2.47-.2-4.59-.53-5.81h13.67c-.32,1.24-.73,3.36-.53,5.84,.09,1.14,.55,1.88,1.04,2.66,.37,.59,.76,1.23,1.06,2.16H15.62c.3-.94,.7-1.59,1.06-2.19m16.08-.84c-.43-.69-.74-1.19-.8-1.93-.28-3.45,.76-6.19,.77-6.22,.1-.25,.06-.54-.09-.76-.15-.22-.41-.36-.68-.36l-15.89-.02c-.27,0-.52,.13-.68,.36-.15,.22-.19,.51-.09,.76,.01,.03,1.05,2.74,.77,6.2-.06,.74-.37,1.24-.8,1.94-.71,1.15-1.6,2.59-1.79,5.68-.12,1.92,.56,3.73,1.96,5.22,1.97,2.09,5.07,3.31,7.48,3.57v6.62c0,.45,.37,.82,.82,.82,2.43,0,4.09,1.39,4.99,2.46h-10.06c.51-.64,1.29-1.41,2.36-1.92,.41-.19,.58-.68,.39-1.09-.19-.41-.68-.59-1.09-.39-2.68,1.26-3.86,3.77-3.9,3.88-.12,.25-.1,.55,.05,.79,.15,.24,.41,.38,.69,.38h13.13c.29,0,.55-.15,.7-.4,.15-.24,.16-.55,.03-.8-.09-.17-2.16-4.05-6.47-4.5v-5.81c2.48-.13,5.89-1.35,8.01-3.6,1.4-1.49,2.08-3.3,1.96-5.22-.19-3.1-1.08-4.52-1.79-5.67"/><path class="cls-1" d="M40.47,5.36l-6.56-2.46c-.4-.15-.83,.03-1.02,.4l-3.28,6.57c-.2,.4-.04,.9,.37,1.1,.12,.06,.24,.09,.37,.09,.3,0,.59-.17,.73-.45l2.95-5.9,5.87,2.2c.42,.16,.9-.05,1.06-.48,.16-.42-.06-.9-.48-1.06"/><path class="cls-1" d="M10.64,13.51c0-3.62,2.94-6.56,6.56-6.56,2.06,0,3.97,.94,5.22,2.59,.28,.36,.79,.43,1.15,.15,.36-.27,.43-.79,.15-1.15-1.57-2.05-3.95-3.23-6.53-3.23-4.52,0-8.2,3.68-8.2,8.21,0,2.54,1.15,4.9,3.15,6.47,.15,.12,.33,.18,.51,.18,.24,0,.48-.11,.65-.32,.28-.36,.22-.87-.14-1.15-1.6-1.26-2.52-3.14-2.52-5.17"/></svg>