<?xml version="1.0" encoding="UTF-8"?><svg id="Layer_1" xmlns="http://www.w3.org/2000/svg" viewBox="0 0 50 50"><defs><style>.cls-1{fill:#0054a6;}</style></defs><path class="cls-1" d="M45.41,23.61l-.84,10.44c-.08,.95-.45,1.86-1.08,2.64-.16,.2-.23,.46-.18,.72,.01,.05,.02,.1,.02,.16v4.33c0,.48-.37,.87-.83,.87h-4.16c-.46,0-.83-.39-.83-.87v-4.33c0-.48-.37-.87-.83-.87H13.34c-.46,0-.83,.39-.83,.87v4.33c0,.48-.37,.87-.83,.87H7.51c-.46,0-.83-.39-.83-.87v-4.33c0-.05,0-.11,.02-.16,.05-.26-.02-.52-.18-.72-.63-.78-1.01-1.69-1.08-2.64l-.84-10.43c-.17-2.09,1.19-3.89,3.16-4.19,.45-.07,.76-.5,.7-.98-.03-.24-.02-.46,.03-.68,1.49,1.58,3.9,1.6,4.02,1.6h25.82c.32,0,2.7-.04,4.13-1.23,.03,.18,.04,.37,.02,.56-.05,.4,.18,.78,.54,.92,1.58,.6,2.54,2.21,2.4,4M11.41,10.6c1.02-2.48,3.86-3.37,6.18-3.37h15.74c2.31,0,5.15,.89,6.15,3.4l2.29,5.71s-.01,.02-.02,.04c-.45,.94-2.5,1.25-3.42,1.25H12.51s-2.49-.02-3.27-1.74l2.18-5.29Zm32.73,7.63c-.02-.37-.1-.73-.24-1.07l-2.88-7.2c-1.32-3.29-4.84-4.47-7.69-4.47h-15.74c-2.85,0-6.37,1.16-7.71,4.42l-2.85,6.93c-.13,.32-.22,.67-.25,1.02-2.45,.73-4.07,3.14-3.85,5.89l.84,10.43c.1,1.19,.41,2.34,1.25,3.32v4.39c0,1.43,1.12,2.6,2.5,2.6h4.16c1.38,0,2.5-1.17,2.5-2.6v-3.47h21.66v3.47c0,1.43,1.12,2.6,2.5,2.6h4.16c1.38,0,2.5-1.17,2.5-2.6v-4.39c.72-.99,1.15-2.13,1.25-3.32l.84-10.43c.19-2.36-.97-4.5-2.93-5.52"/><path class="cls-1" d="M39.58,28.9c-1.15,0-2.08-.97-2.08-2.17s.93-2.17,2.08-2.17,2.08,.97,2.08,2.17-.93,2.17-2.08,2.17m0-6.07c-2.07,0-3.75,1.75-3.75,3.9s1.68,3.9,3.75,3.9,3.75-1.75,3.75-3.9-1.68-3.9-3.75-3.9"/><path class="cls-1" d="M10.42,28.9c-1.15,0-2.08-.97-2.08-2.17s.93-2.17,2.08-2.17,2.08,.97,2.08,2.17-.93,2.17-2.08,2.17m0-6.07c-2.07,0-3.75,1.75-3.75,3.9s1.68,3.9,3.75,3.9,3.75-1.75,3.75-3.9-1.68-3.9-3.75-3.9"/><path class="cls-1" d="M31.75,26.76l-.92,2.87c-.32,1-1.49,1.87-2.5,1.87h-6.66c-1.01,0-2.18-.88-2.5-1.87l-.92-2.87c-.12-.38-.1-.73,.06-.96,.16-.23,.47-.37,.86-.37h11.66c.39,0,.69,.13,.86,.37,.16,.23,.18,.58,.06,.96m-.92-3.06h-11.66c-.93,0-1.73,.4-2.21,1.08-.48,.69-.58,1.61-.29,2.52l.92,2.87c.55,1.72,2.34,3.06,4.08,3.06h6.66c1.74,0,3.53-1.34,4.08-3.06l.92-2.87c.29-.91,.19-1.83-.29-2.52s-1.28-1.08-2.21-1.08"/></svg>