<?xml version="1.0" encoding="UTF-8"?><svg id="Layer_1" xmlns="http://www.w3.org/2000/svg" viewBox="0 0 50 50"><defs><style>.cls-1{fill:#0054a6;}</style></defs><path class="cls-1" d="M39.29,15.18v19.64s-.04,.06-.05,.1c-.31,1.55-1.51,2.57-3.09,2.57-7.43,0-14.86,0-22.29,0-1.82,0-3.14-1.35-3.15-3.17,0-6.21,0-12.42,0-18.64,0-.27,.02-.54,.08-.8,.35-1.46,1.57-2.38,3.13-2.38,5.78,0,11.57,0,17.35,0,1.64,0,3.27-.02,4.91,0,1.29,.02,2.23,.63,2.8,1.78,.14,.28,.2,.59,.29,.89Zm-1.67,.28s-.06-.04-.09-.06c-.07,.09-.13,.18-.21,.26-3.33,3.33-6.65,6.66-9.99,9.98-.29,.29-.63,.56-1,.74-1.24,.61-2.59,.34-3.62-.7-3.35-3.35-6.69-6.69-10.04-10.04-.07-.07-.15-.14-.28-.26v.37c0,6.17,0,12.33,0,18.5,0,1,.57,1.57,1.58,1.57,7.36,0,14.71,0,22.07,0,1.02,0,1.58-.57,1.58-1.59,0-6.15,0-12.29,0-18.44v-.33Zm-1.22-1.26H13.61c.09,.1,.15,.17,.21,.23,3.36,3.36,6.72,6.72,10.08,10.08,.7,.7,1.5,.7,2.2,0,3.36-3.36,6.72-6.72,10.08-10.08,.06-.06,.12-.13,.21-.23Z"/></svg>