<?xml version="1.0" encoding="UTF-8"?><svg id="Layer_1" xmlns="http://www.w3.org/2000/svg" viewBox="0 0 50 50"><defs><style>.cls-1{fill:#0054a6;}</style></defs><path class="cls-1" d="M49,36.87v-3.41c0-1.28-.48-2.51-1.35-3.45-.87-.94-2.06-1.52-3.34-1.61l-7.01-.54-7.3-11.86v-1.04c0-.71-.35-1.37-.93-1.77-.58-.4-1.33-.49-1.99-.24l-6.65,2.55,.38-1.03c.62-1.67-.1-3.56-1.69-4.4l-5.21-2.73c-.38-.2-.85-.07-1.07,.29l-2.54,4.04s0,0,0,0l-1.81,2.88s0,0,0,0l-3.53,5.62-.18-.1c-.19-.1-.41-.13-.62-.07-.21,.06-.38,.2-.49,.39l-2.55,4.63c-.22,.4-.07,.89,.32,1.11l29.93,16.49s0,0,0,0c.03,.02,.06,.03,.09,.04,0,0,.01,0,.02,0,.02,0,.04,.02,.07,.02,.01,0,.02,0,.03,0,.02,0,.04,0,.06,.01,.01,0,.02,0,.03,0,.02,0,.05,0,.07,0,0,0,.01,0,.02,0,0,0,0,0,0,0h12.47c2.64,0,4.78-2.14,4.78-4.78v-1.1s0,0,0,0Zm-13.42-8.66l-1.13,.39-7.37-9.75,1.87-1.42,6.63,10.78ZM13.81,9.15l4.54,2.38c.85,.45,1.25,1.47,.91,2.38l-.67,1.8-6.47-3.87,1.69-2.69Zm-2.56,4.08l7.35,4.39s0,0,0,0c.02,.01,.04,.02,.07,.04,0,0,0,0,0,0,.05,.02,.11,.04,.16,.05,0,0,.01,0,.02,0,.02,0,.05,0,.07,.01,0,0,.01,0,.02,0,.02,0,.04,0,.07,0,0,0,.02,0,.02,0,.02,0,.04,0,.06,0,0,0,.02,0,.02,0,.02,0,.04,0,.06-.01,0,0,.02,0,.03,0,.02,0,.04-.01,.06-.02,0,0,.01,0,.02,0,0,0,0,0,0,0,0,0,0,0,.01,0l8.34-3.2c.23-.09,.41,.01,.48,.06,.07,.05,.22,.18,.22,.42v.86l-2.91,2.22c-.36,.27-.43,.79-.16,1.15l8.22,10.88c.16,.21,.4,.33,.65,.33,.09,0,.18-.01,.27-.05l2.5-.87,7.26,.56c1.78,.14,3.18,1.64,3.18,3.43v2.59h-13.63l-6.26-3.45,1.67-1.38c.35-.29,.4-.8,.11-1.15-.29-.35-.8-.4-1.15-.11l-2.17,1.8-3.14-1.73,2.72-2.25c.35-.29,.4-.8,.11-1.15-.29-.35-.8-.4-1.15-.11l-3.22,2.66-2.87-1.58,3.81-3.15c.35-.29,.4-.8,.11-1.15-.29-.35-.8-.4-1.15-.11l-4.31,3.57-1.28-.71,.16-3.11c.13-2.38-.93-4.67-2.83-6.12l-2.62-2.01,.99-1.57Zm-1.86,2.96l2.5,1.91c1.47,1.12,2.28,2.89,2.19,4.73l-.12,2.32-7.57-4.17,3.01-4.79Zm37.97,21.78c0,1.73-1.41,3.14-3.14,3.14h-12.26L2.93,25.12l1.76-3.19,20.75,11.43c.1,.1,.22,.16,.35,.19l7.33,4.04s0,0,0,0c.07,.04,.15,.07,.23,.08,.05,.01,.11,.02,.16,.02,0,0,0,0,0,0h13.84v.28Z"/><path class="cls-1" d="M21.67,41.11H1.82c-.45,0-.82,.37-.82,.82s.37,.82,.82,.82H21.67c.45,0,.82-.37,.82-.82s-.37-.82-.82-.82Z"/><path class="cls-1" d="M1.82,37.69H12.09c.45,0,.82-.37,.82-.82s-.37-.82-.82-.82H1.82c-.45,0-.82,.37-.82,.82s.37,.82,.82,.82Z"/><path class="cls-1" d="M1.82,32.64h3.93c.45,0,.82-.37,.82-.82s-.37-.82-.82-.82H1.82c-.45,0-.82,.37-.82,.82s.37,.82,.82,.82Z"/></svg>