<?xml version="1.0" encoding="UTF-8"?><svg id="Layer_1" xmlns="http://www.w3.org/2000/svg" viewBox="0 0 50 50"><defs><style>.cls-1{fill:#0054a6;}</style></defs><g><path class="cls-1" d="M19.92,30.18c.39-.23,.52-.73,.3-1.12h0s-1.13-1.95-1.13-1.95h0c-.23-.39-.73-.53-1.12-.3s-.52,.73-.3,1.12h0s1.13,1.95,1.13,1.95h0c.23,.39,.73,.53,1.12,.3Z"/><path class="cls-1" d="M21.86,34.17c.11-.01,.21-.05,.31-.1s.18-.13,.24-.21c.19-.25,.23-.61,.06-.9l-1.13-1.95c-.06-.1-.13-.18-.21-.24-.17-.13-.38-.19-.59-.16-.11,.01-.21,.05-.31,.1s-.18,.13-.24,.21c-.13,.17-.19,.38-.16,.59,.01,.11,.05,.21,.1,.31l1.13,1.95c.17,.29,.49,.44,.81,.4Z"/><path class="cls-1" d="M17.37,26.4c.11-.01,.21-.05,.31-.1s.18-.13,.24-.21c.19-.25,.23-.61,.06-.9l-1.13-1.95c-.06-.1-.13-.18-.21-.24-.17-.13-.38-.19-.59-.16-.11,.01-.21,.05-.31,.1s-.18,.13-.24,.21c-.13,.17-.19,.38-.16,.59,.01,.11,.05,.21,.1,.31l1.13,1.95c.17,.29,.49,.44,.81,.4Z"/><path class="cls-1" d="M13.38,40.31c1.27-.73,2.9-.3,3.63,.97,.06,.1,.14,.19,.23,.25,.03,.02,.07,.03,.1,.05,.07,.03,.13,.07,.2,.08,.19,.04,.4,.02,.58-.08l1.21-.7,6.06-3.5,1.73-1,6.7-3.87,7.57-4.37,1.4-.81c.39-.23,.52-.73,.3-1.12-.73-1.27-.3-2.9,.97-3.63,.39-.23,.52-.73,.3-1.12h0s-1.27-2.2-1.27-2.2l-.76-1.32-1.11-1.92-.34-.59-1.11-1.92-.76-1.32-1.27-2.2h0c-.23-.39-.73-.53-1.12-.3-1.27,.73-2.9,.3-3.63-.97-.06-.1-.13-.18-.21-.24-.08-.06-.18-.11-.28-.14-.2-.05-.42-.03-.62,.08l-1.4,.81-7.57,4.37-6.7,3.87-1.73,1-6.06,3.5-1.21,.7c-.18,.11-.3,.27-.36,.46-.02,.07-.03,.14-.03,.22,0,.04-.01,.07,0,.11,.01,.11,.04,.22,.1,.33,.73,1.27,.3,2.9-.97,3.63-.39,.23-.52,.73-.3,1.12h0s6.63,11.48,6.63,11.48h0c.23,.39,.73,.53,1.12,.3Zm.22-19.45l.72,1.25h0c.23,.39,.73,.53,1.12,.3s.53-.73,.3-1.12h0s-.62-1.07-.62-1.07l-.1-.18,.39-.23,.46-.26,.5-.29,15.69-9.06c1.14,1.32,2.99,1.81,4.64,1.24l5.89,10.2c-1.32,1.14-1.81,2.99-1.24,4.64l-15.69,9.06-.5,.29-.46,.26-.39,.23-.1-.18-.62-1.07h0c-.23-.39-.73-.53-1.12-.3s-.52,.73-.3,1.12h0s.72,1.25,.72,1.25l-4.94,2.85c-1.14-1.32-2.99-1.81-4.64-1.24l-5.89-10.2c1.32-1.14,1.81-2.99,1.24-4.64l4.94-2.85Z"/></g><path class="cls-1" d="M24.87,27.06c.24,.22,.59,.27,.89,.13l3.65-1.69,3.28,2.53c.26,.2,.62,.23,.91,.06s.45-.49,.4-.82l-.55-4.11,3.29-2.32c.27-.19,.4-.52,.33-.84-.07-.32-.32-.57-.63-.64l-4.01-.84-1.25-3.99c-.1-.32-.38-.54-.71-.57-.33-.03-.64,.14-.8,.43l-1.91,3.57-4.05-.13c-.16,0-.31,.03-.44,.11-.14,.08-.26,.21-.34,.37-.14,.3-.08,.65,.14,.9l2.83,3.07-1.28,3.9c-.1,.31,0,.65,.24,.87Zm2.75-4.71c.09-.28,.02-.59-.18-.81l-1.83-1.99,2.6,.08c.31,0,.6-.16,.75-.43l1.23-2.3,.81,2.58c.09,.28,.32,.5,.61,.56l2.64,.56-2.15,1.52c-.25,.18-.38,.48-.34,.78l.35,2.62-2.09-1.62c-.24-.19-.57-.22-.85-.1l-2.39,1.11,.84-2.56Z"/></svg>