<?xml version="1.0" encoding="UTF-8"?><svg id="Layer_1" xmlns="http://www.w3.org/2000/svg" viewBox="0 0 50 50"><defs><style>.cls-1{fill:#0054a6;}</style></defs><path class="cls-1" d="M28.41,17.65c1.36,0,2.72,0,4.08,0,.69,0,1.01-.32,1.01-1,0-1.67-.01-3.34,0-5.01,0-.53-.14-.92-.63-1.14h-7.14s-.09,.04-.13,.05c-2.85,.44-4.73,2.63-4.74,5.52,0,1.67,0,3.34,0,5.01v.35h-.35c-1.02,0-2.04,0-3.06,0-.63,0-.96,.33-.96,.96,0,1.74,0,3.47,0,5.21,0,.65,.32,.98,.97,.98,1.03,0,2.06,0,3.09,0h.31v.38c0,3.12,.01,6.25,0,9.37,0,.76,.3,1.2,1.19,1.18,1.62-.04,3.25-.01,4.87-.01,.82,0,1.11-.28,1.11-1.1,0-3.15,0-6.3,0-9.46,0-.12,.01-.23,.02-.37h.34c1.01,0,2.02,0,3.03,0,.58,0,.88-.24,.99-.8,.35-1.74,.69-3.48,1.04-5.21,.14-.71-.21-1.13-.93-1.14-1.39,0-2.77,0-4.16,0h-.3v-3.77h.35Zm-2.08,4.43c0,.72,.32,1.04,1.03,1.04,1.29,0,2.59,0,3.88,0h.35c-.09,.47-.17,.91-.26,1.35-.14,.71-.3,1.42-.42,2.14-.04,.24-.14,.28-.35,.27-1.05,0-2.1,0-3.14,0-.78,0-1.08,.3-1.08,1.07,0,3.15,0,6.31,0,9.46v.39h-3.77v-.33c0-3.18,0-6.36,0-9.54,0-.72-.31-1.04-1.03-1.04-1,0-2,0-3,0h-.32v-3.75c.11,0,.21,0,.31,0,1.02,0,2.04,0,3.06,0,.64,0,.98-.33,.98-.97,0-2.03,0-4.06,0-6.09,0-2.27,1.6-3.86,3.87-3.86,1.67,0,3.34,0,5.01,0h.32v3.76c-.11,0-.22,0-.33,0-1.36,0-2.72,0-4.08,0-.72,0-1.04,.31-1.04,1.03,0,1.7,0,3.4,0,5.1Z"/></svg>