<?xml version="1.0" encoding="UTF-8"?><svg id="Layer_1" xmlns="http://www.w3.org/2000/svg" viewBox="0 0 50 50"><defs><style>.cls-1{fill:#0054a6;}</style></defs><path class="cls-1" d="M20.71,19.54c-.95,5.42-3.99,9.66-6.9,9.66-.17,0-.33-.01-.49-.04-1.38-.24-2.54-1.52-3.26-3.58-.72-2.07-.89-4.65-.51-7.34l6.4,1.13s.1,.01,.15,.01c.4,0,.76-.29,.83-.7,.08-.46-.22-.89-.68-.98l-6.41-1.13,.57-3.21,11.05,1.95-.75,4.23ZM7.98,41.3l3.51-1.78,2.69,2.87-6.2-1.09ZM22.58,13.8l-12.71-2.24c-.46-.08-.89,.22-.98,.68l-.89,5.06c-.56,3.19-.4,6.32,.47,8.82,.8,2.3,2.11,3.85,3.74,4.46l-1.29,7.34-5.95,3.02c-.32,.16-.51,.52-.45,.88,.05,.36,.33,.64,.69,.71l11.18,1.97s.1,.01,.15,.01h.01c.46,0,.83-.38,.83-.84,0-.25-.11-.47-.28-.62l-4.52-4.82,1.29-7.34c3.75-.05,7.4-4.78,8.5-11.05l.89-5.06c.04-.22-.01-.45-.14-.63-.13-.18-.32-.31-.54-.35"/><path class="cls-1" d="M35.82,42.4l2.69-2.87,3.51,1.78-6.2,1.09Zm-6.41-22.22l6.4-1.13c.46-.08,.76-.52,.68-.98-.08-.46-.52-.76-.98-.68l-6.41,1.13-.57-3.21,11.06-1.95,.75,4.23c.51,2.91,.37,5.74-.41,7.98-.72,2.07-1.87,3.34-3.26,3.58-.16,.03-.33,.04-.49,.04-2.8,0-5.71-3.91-6.78-9.02m15.63,20.76l-5.95-3.01-1.29-7.34c1.63-.61,2.94-2.17,3.74-4.46,.87-2.5,1.03-5.63,.47-8.82l-.89-5.06c-.04-.22-.16-.42-.35-.54-.18-.13-.41-.18-.63-.14l-12.71,2.24c-.22,.04-.42,.16-.54,.35-.13,.18-.18,.41-.14,.63l.89,5.06c1.11,6.26,4.75,11,8.5,11.05l1.29,7.34-4.56,4.87c-.25,.26-.3,.66-.13,.98,.15,.27,.44,.44,.74,.44,.05,0,.1,0,.15-.01l11.18-1.97c.36-.06,.63-.35,.69-.71,.05-.36-.13-.71-.45-.88"/><path class="cls-1" d="M25,4.69c-.47,0-.84,.38-.84,.84v3.89c0,.47,.38,.84,.84,.84s.84-.38,.84-.84v-3.89c0-.47-.38-.84-.84-.84"/><path class="cls-1" d="M20.34,10.81c.15,.28,.44,.44,.74,.44,.14,0,.27-.03,.4-.1,.41-.22,.56-.74,.34-1.14l-1.24-2.28c-.22-.41-.73-.56-1.14-.34-.41,.22-.56,.73-.34,1.14l1.24,2.28Z"/><path class="cls-1" d="M28.51,11.15c.13,.07,.27,.1,.4,.1,.3,0,.59-.16,.74-.44l1.24-2.28c.22-.41,.07-.92-.34-1.14-.41-.22-.92-.07-1.14,.34l-1.25,2.28c-.22,.41-.07,.92,.34,1.14"/></svg>