<?xml version="1.0" encoding="UTF-8"?><svg id="Layer_1" xmlns="http://www.w3.org/2000/svg" viewBox="0 0 50 50"><defs><style>.cls-1{fill:#0054a6;}</style></defs><path class="cls-1" d="M16.39,33.8c-1.19,0-2.15-.97-2.15-2.15s.97-2.15,2.15-2.15,2.16,.97,2.16,2.15-.97,2.15-2.16,2.15m0-6.01c-2.13,0-3.85,1.73-3.85,3.85s1.73,3.86,3.85,3.86,3.86-1.73,3.86-3.86-1.73-3.85-3.86-3.85"/><path class="cls-1" d="M40.3,11.77c-.13-.05-.27-.09-.41-.11-5.56-.82-10.28-1.2-14.84-1.2s-9.32,.38-14.94,1.21c-.14,.02-.27,.06-.4,.11v-.13c0-2.37,1.86-4.81,4.05-5.33,1.83-.41,3.55-.62,5.3-.82l.41-.05,.22-.36c.52-.86,1.56-1.35,2.86-1.35h4.92c1.27,0,2.26,.48,2.79,1.35l.22,.35,.41,.05c.4,.05,.79,.09,1.19,.13,1.44,.15,2.79,.29,4.17,.6,2.2,.52,4.07,3,4.07,5.42v.12Zm-30.6,2.2c.07-.19,.4-.58,.66-.62,5.53-.81,10.19-1.19,14.69-1.19s9.12,.38,14.59,1.18c.26,.04,.59,.44,.66,.63-.16,3.06-2.06,5.07-4.93,8.09-.45,.47-.91,.97-1.4,1.49-.25,.27-.91,.6-1.32,.6h-15.3c-.41,0-1.06-.33-1.31-.6-.47-.5-.92-.98-1.35-1.44-2.9-3.07-4.83-5.1-4.98-8.15m30.6,20.54c0,2.16-1.61,4.85-3.99,5.42-7.46,1.66-15.11,1.66-22.54,0-2.21-.52-4.07-3-4.07-5.42v-15.61c.95,1.42,2.25,2.79,3.75,4.38,.43,.45,.88,.93,1.34,1.43,.52,.56,1.62,1.14,2.56,1.14h15.3c.93,0,2.03-.58,2.56-1.13,.48-.52,.95-1.01,1.39-1.48,1.48-1.56,2.76-2.91,3.7-4.31v15.59Zm-3.68-29.94c-1.48-.33-2.95-.49-4.37-.64-.26-.03-.52-.05-.79-.08-.88-1.15-2.31-1.81-4-1.81h-4.92c-1.73,0-3.19,.65-4.07,1.81-1.66,.19-3.31,.41-5.1,.81-2.96,.7-5.37,3.84-5.37,6.99v22.86c0,3.2,2.41,6.37,5.38,7.08,3.85,.86,7.77,1.29,11.65,1.29s7.8-.44,11.66-1.3c2.93-.69,5.31-3.87,5.31-7.07V11.65c0-3.2-2.41-6.37-5.38-7.08"/><path class="cls-1" d="M33.61,33.8c-1.19,0-2.16-.97-2.16-2.15s.97-2.15,2.16-2.15,2.15,.97,2.15,2.15-.97,2.15-2.15,2.15m0-6.01c-2.13,0-3.86,1.73-3.86,3.85s1.73,3.86,3.86,3.86,3.85-1.73,3.85-3.86-1.73-3.85-3.85-3.85"/><path class="cls-1" d="M34.1,43.95c-.33-.33-.87-.33-1.2,0-.33,.33-.33,.87,0,1.2l2.55,2.55c.17,.17,.38,.25,.6,.25s.44-.08,.6-.25c.33-.33,.33-.87,0-1.2l-2.55-2.55Z"/><path class="cls-1" d="M15.9,43.95l-2.55,2.55c-.33,.33-.33,.87,0,1.2,.17,.17,.38,.25,.6,.25s.43-.08,.6-.25l2.55-2.55c.33-.33,.33-.87,0-1.2-.33-.33-.87-.33-1.2,0"/></svg>