<?xml version="1.0" encoding="UTF-8"?><svg id="Layer_1" xmlns="http://www.w3.org/2000/svg" viewBox="0 0 50 50"><defs><style>.cls-1{fill:#0054a6;}</style></defs><path class="cls-1" d="M30.14,38.5c-2.93,0-6.47-1.26-10.56-3.76-1.02-.63-1.97-1.14-2.85-1.55-1.63,1.18-8.3,5.7-10.95,2.24-.99-1.29-.87-2.4-.59-3.1,.57-1.46,2.32-2.67,5.36-3.7,1.35-.46,2.63-.76,3.39-.92,.34-3,2.38-14.05,14.23-15.3,.32-.38,.88-.87,1.65-.92,.49-.03,1.21,.12,1.93,.95,1.6,.33,7.9,1.94,11.23,7.3,2.34,3.77,2.64,8.5,.92,14.07-.24,.72-1.37,2.14-6.73,.64-1.09,1.86-2.65,3.13-4.55,3.69-.77,.23-1.6,.34-2.48,.34ZM12.82,29.9c2.05,.38,4.61,1.34,7.74,3.25,4.84,2.96,8.73,4.04,11.53,3.22,1.4-.41,2.53-1.31,3.37-2.68-4.85-2.94-16.02-8.41-20-4.52-.02,.02-.03,.03-.05,.04-.13,.11-.29,.18-.46,.21-.66,.12-1.39,.28-2.14,.48Zm-5.84,3.01s-.03,.07-.05,.11c-.09,.24-.16,.64,.33,1.29,1.15,1.5,4.93-.34,7.41-1.96-2.27-.8-3.91-.87-5.02-.72-1.83,.26-2.56,1.15-2.59,1.19-.03,.03-.06,.07-.09,.1Zm30.11-.41c3.68,1.11,4.83,.73,5.08,.6,1.5-4.94,1.24-9.1-.78-12.36-1.36-2.19-3.33-3.68-5.18-4.67,2.05,2.94,4.25,7.87,2.38,14.14-.15,.49-.67,.78-1.16,.63-.49-.15-.78-.67-.63-1.16,2.6-8.74-3.66-14.51-4.37-15.13-.8-.23-1.32-.32-1.33-.32-.24-.04-.46-.17-.6-.37-.3-.41-.51-.49-.56-.49-.1,0-.32,.21-.44,.41-.1,.17-.25,.31-.44,.39h0c-.23,.1-5.66,2.54-6.97,9.69-.09,.51-.58,.84-1.09,.75-.51-.09-.84-.58-.75-1.09,.72-3.93,2.56-6.62,4.3-8.36-3.07,1.17-5.41,3.37-6.98,6.57-.89,1.82-1.34,3.6-1.58,4.88,6.78-2.93,19.67,4.98,21.11,5.89Z"/></svg>