<?xml version="1.0" encoding="UTF-8"?><svg id="Layer_1" xmlns="http://www.w3.org/2000/svg" viewBox="0 0 50 50"><defs><style>.cls-1{fill:#0054a6;}</style></defs><path class="cls-1" d="M19.55,10c3.63,0,7.27,0,10.9,0,.23,.03,.46,.07,.69,.1,4.14,.56,7.65,3.75,8.57,7.81,.12,.54,.19,1.09,.29,1.64v10.9c-.07,.42-.11,.85-.2,1.27-1.01,4.86-5.18,8.27-10.14,8.28-3.1,0-6.21,0-9.31,0-1.05,0-2.08-.14-3.08-.46-4.38-1.39-7.25-5.32-7.26-9.91,0-3.08-.02-6.17,0-9.25,0-.76,.06-1.53,.24-2.26,1.02-4.11,3.6-6.73,7.69-7.82,.52-.14,1.07-.19,1.61-.28Zm-7.79,14.98c0,1.54,0,3.08,0,4.63,0,.42,.02,.84,.08,1.26,.64,4.3,4.18,7.37,8.53,7.37,3.08,0,6.17,0,9.25,0,.55,0,1.12-.04,1.66-.15,4.1-.8,6.95-4.26,6.96-8.44,0-3.09,0-6.19,0-9.28,0-.4-.02-.8-.07-1.2-.6-4.27-4.16-7.39-8.48-7.4-3.12-.01-6.25-.02-9.37,.01-.72,0-1.47,.09-2.17,.28-3.81,1-6.37,4.34-6.39,8.28,0,1.55,0,3.1,0,4.66Z"/><path class="cls-1" d="M32.94,25.01c-.02,4.39-3.57,7.94-7.95,7.92-4.38-.01-7.94-3.58-7.92-7.95,.02-4.39,3.57-7.93,7.95-7.92,4.38,.01,7.94,3.58,7.92,7.95Zm-1.76-.01c0-3.41-2.77-6.18-6.19-6.18-3.4,0-6.16,2.75-6.17,6.16-.01,3.4,2.76,6.19,6.17,6.19,3.41,0,6.19-2.77,6.19-6.18Z"/><path class="cls-1" d="M33.18,15.95c.48,0,.87,.4,.87,.88,0,.48-.4,.87-.88,.86-.49,0-.87-.39-.86-.88,0-.49,.39-.87,.88-.86Z"/></svg>