<?xml version="1.0" encoding="UTF-8"?><svg id="Layer_1" xmlns="http://www.w3.org/2000/svg" viewBox="0 0 50 50"><defs><style>.cls-1{fill:#0054a6;}</style></defs><path class="cls-1" d="M25,44.62l-.68-.82c-.56-.68-13.76-16.81-13.76-24.34s6.48-14.09,14.44-14.09,14.44,6.32,14.44,14.09-13.2,23.65-13.76,24.34l-.68,.82Zm0-37.49c-7,0-12.69,5.53-12.69,12.34,0,5.99,9.97,18.96,12.69,22.38,2.72-3.42,12.69-16.39,12.69-22.38,0-6.8-5.69-12.34-12.69-12.34Z"/><path class="cls-1" d="M25,27.41c-4.55,0-8.26-3.59-8.26-8.01s3.7-8.01,8.26-8.01,8.25,3.6,8.25,8.01-3.7,8.01-8.25,8.01Zm0-14.28c-3.59,0-6.51,2.81-6.51,6.26s2.92,6.26,6.51,6.26,6.5-2.81,6.5-6.26-2.92-6.26-6.5-6.26Z"/></svg>