<?xml version="1.0" encoding="UTF-8"?><svg id="Layer_1" xmlns="http://www.w3.org/2000/svg" viewBox="0 0 50 50"><defs><style>.cls-1{fill:#0054a6;}</style></defs><path class="cls-1" d="M32.69,33.15h.06c4.64,.75,9.14-1.94,10.69-6.38,.92-2.55,.7-5.37-.6-7.75-.11-.21-.29-.36-.52-.42-.23-.07-.46-.04-.67,.07-.42,.23-.58,.76-.35,1.19,1.07,1.94,1.25,4.24,.5,6.32-1.32,3.86-5.32,6.09-9.31,5.18-.34-.09-.7,.06-.91,.35l-1.06,1.55h-.04s-2.3,.44-2.3,.44c-.61,.11-1.02,.69-.91,1.3l.32,1.86-1.86,.31c-.6,.11-1.02,.68-.91,1.29l.4,2.38-.53,.72h-.04s-3.38,.59-3.38,.59l-.02-.1-.58-3.32,.03-.04,6.91-9.8c.21-.29,.21-.67,.02-.97-2.37-3.67-1.3-8.58,2.37-10.95,2.42-1.56,5.49-1.68,8.03-.33l.11,.06-.08,.1-1.56,1.98-.07-.02c-.74-.23-1.52-.15-2.2,.21-.68,.36-1.18,.96-1.41,1.7-.47,1.52,.39,3.14,1.91,3.61,.44,.14,.92,.16,1.35,.08,1.57-.26,2.64-1.74,2.38-3.31-.07-.43-.24-.85-.49-1.21l-.05-.06,.05-.06,2.86-3.64c1.01-1.33,1.44-2.97,1.22-4.62-.22-1.65-1.08-3.12-2.41-4.13-2.43-1.85-5.81-1.68-8.05,.4l-1.34,1.28-.06-.02c-2.41-.92-5.04-.84-7.39,.22-2.35,1.06-4.16,2.97-5.07,5.38-.56,1.48-.75,3.09-.55,4.66v.06s-9.68,6.35-9.68,6.35c-.32,.2-.54,.53-.62,.9l-.83,4.01c-.14,.67,.29,1.34,.97,1.48l4.23,.88c.23,.05,.46,0,.66-.13l1.37-.88c.18-.13,.3-.32,.35-.54l.45-2.1,1.27,.26c.95,.2,1.85-.41,2.05-1.34l.26-1.27,2.11,.41c.23,.04,.45,0,.64-.13l1.38-.91,.06,.03c.68,.4,1.4,.72,2.16,.94,.45,.13,.93,.22,1.4,.25h.06s.03,.06,.03,.06c.12,.28,.24,.51,.36,.72l.03,.06-.04,.05-6.63,9.42c-.22,.31-.31,.69-.24,1.07l.71,4.04c.1,.6,.61,1.04,1.22,1.04h.01c.07,0,.13,0,.2-.02l4.26-.76c.23-.04,.43-.16,.57-.35l.93-1.32c.13-.19,.18-.42,.14-.64l-.35-2.12,1.27-.22c.94-.16,1.57-1.06,1.4-2l-.22-1.27,2.1-.41c.23-.04,.42-.16,.56-.35l.95-1.36Zm3.81-10.98c-.18,.25-.44,.41-.74,.47-.07,.01-.13,.02-.2,.02-.24,0-.46-.07-.66-.21-.25-.18-.42-.44-.47-.74-.05-.3,.02-.6,.19-.85,.18-.25,.44-.42,.74-.47,.31-.05,.61,.02,.85,.19,.25,.18,.42,.44,.47,.74,.05,.3-.02,.61-.2,.86Zm-3.73-13.2c1.8-1.71,4.67-1.62,6.37,.18,1.54,1.63,1.66,4.09,.28,5.86l-.23,.29-.08-.05c-1.08-.63-2.26-1.04-3.5-1.21h-.06s-.02-.06-.02-.06c-.78-1.67-2-3.09-3.55-4.09l-.11-.07,.89-.85Zm-8.03,16.32c.01,.08,.03,.16,.04,.24l.03,.12h-.13c-.07,0-.14-.02-.2-.04h-.03c-.79-.25-1.54-.61-2.22-1.08-.29-.2-.68-.2-.97,0l-1.56,1.02h-.04s-2.3-.46-2.3-.46c-.29-.06-.59,0-.84,.16s-.42,.42-.48,.71l-.38,1.86-1.84-.41c-.61-.13-1.2,.26-1.32,.86l-.51,2.35-.75,.5h-.04s-3.35-.69-3.35-.69l.02-.1,.68-3.3,.04-.02,10.02-6.57c.3-.2,.45-.55,.38-.9-.41-2.08,.02-4.19,1.19-5.95,1.18-1.76,2.97-2.95,5.05-3.36,3.23-.64,6.55,.82,8.28,3.61l.09,.14h-.17c-.27,.04-.53,.07-.8,.12-2.55,.44-4.77,1.85-6.25,3.96-1.49,2.11-2.06,4.68-1.62,7.22Z"/></svg>