<?xml version="1.0" encoding="UTF-8"?><svg id="Layer_1" xmlns="http://www.w3.org/2000/svg" viewBox="0 0 50 50"><defs><style>.cls-1{fill:#0054a6;}</style></defs><path class="cls-1" d="M41.7,38.7l-6.54-18.88c-.23-.68-.89-1.16-1.62-1.16h-3.15c.61-1.01,.94-2.2,.94-3.44-.09-3.29-2.82-6.07-6.07-6.21-.11,0-.22,0-.33,0-1.64,0-3.14,.61-4.34,1.78-1.26,1.21-1.95,2.84-1.95,4.58,0,1.16,.33,2.31,.94,3.3h-3.15c-.74,0-1.39,.47-1.62,1.16l-6.51,18.84c-.18,.54-.1,1.1,.24,1.61,.35,.47,.87,.73,1.43,.73h30.18c.55-.06,1.02-.32,1.33-.73,.33-.45,.42-1.02,.24-1.57Zm-31.72,.56l6.49-18.81h5.02c.39,0,.74-.27,.83-.65,.08-.33,0-.67-.29-.95-1.02-.83-1.63-2.12-1.63-3.45s.5-2.44,1.41-3.31c.86-.83,1.92-1.26,3.07-1.26,.09,0,.18,0,.28,0,2.33,.08,4.33,2.11,4.37,4.45,.04,1.39-.54,2.68-1.66,3.64-.24,.24-.33,.58-.25,.91,.09,.38,.44,.65,.83,.65l5.01-.07,6.57,18.76-30.06,.08Z"/><path class="cls-1" d="M28.18,15.35c0-1.76-1.44-3.2-3.2-3.2s-3.2,1.43-3.2,3.2,1.43,3.2,3.2,3.2,3.2-1.43,3.2-3.2Zm-3.2,1.46c-.79,0-1.42-.62-1.42-1.42s.62-1.42,1.42-1.42,1.42,.62,1.42,1.42-.62,1.42-1.42,1.42Z"/><polygon class="cls-1" points="24.57 29.05 23.45 29.05 20.72 32.07 20.71 32.07 20.71 26.21 19.79 26.21 19.79 34.59 20.71 34.59 20.71 33.34 21.87 32.05 21.88 32.05 23.53 34.59 24.58 34.59 22.5 31.34 24.57 29.05"/><path class="cls-1" d="M29.63,29.81h-.02c-.24-.27-.52-.48-.85-.62s-.68-.21-1.06-.21c-.5,0-.95,.12-1.35,.36-.4,.24-.71,.57-.94,.99-.23,.42-.34,.89-.34,1.4,0,.4,.07,.78,.21,1.13s.33,.64,.58,.87,.53,.42,.85,.55,.67,.2,1.04,.2c.79,0,1.42-.28,1.88-.85h.03v.77c0,.23-.04,.44-.12,.64s-.19,.37-.34,.51-.35,.26-.59,.35-.51,.13-.82,.13c-.37,0-.71-.05-1.01-.14s-.63-.24-.98-.44l-.22,.85c.66,.4,1.41,.6,2.26,.6,.47,0,.88-.07,1.24-.2s.64-.32,.85-.57c.21-.25,.37-.53,.48-.86,.1-.33,.16-.7,.16-1.1v-5.12h-.92v.77Zm-.48,3.26c-.34,.36-.79,.54-1.34,.54-.2,0-.39-.03-.57-.08-.19-.06-.35-.14-.5-.25-.15-.11-.28-.24-.39-.39s-.2-.33-.26-.53-.09-.42-.09-.65c0-.54,.17-.98,.51-1.34s.77-.53,1.3-.53,.97,.17,1.32,.52c.35,.34,.53,.79,.53,1.34s-.17,1.02-.51,1.38Z"/></svg>