<?xml version="1.0" encoding="UTF-8"?><svg id="Layer_1" xmlns="http://www.w3.org/2000/svg" viewBox="0 0 50 50"><defs><style>.cls-1{fill:#0054a6;}</style></defs><path class="cls-1" d="M25.8,16.24c-6.59,0-11.95,5.36-11.95,11.95s5.36,11.94,11.95,11.94,11.95-5.36,11.95-11.94-5.36-11.95-11.95-11.95m0,25.48c-7.46,0-13.54-6.07-13.54-13.54s6.07-13.54,13.54-13.54,13.54,6.07,13.54,13.54-6.07,13.54-13.54,13.54"/><path class="cls-1" d="M25.8,37.74c-2.55,0-4.95-.99-6.76-2.8-.31-.31-.31-.82,0-1.13,.31-.31,.82-.31,1.13,0,1.5,1.5,3.5,2.33,5.63,2.33,4.39,0,7.96-3.57,7.96-7.96,0-2.33-1.02-4.54-2.79-6.06-.33-.29-.37-.79-.09-1.12,.29-.33,.79-.37,1.12-.09,2.13,1.82,3.35,4.47,3.35,7.27,0,5.27-4.29,9.56-9.56,9.56"/><path class="cls-1" d="M17.04,28.98c-.44,0-.8-.36-.8-.8,0-5.27,4.29-9.56,9.56-9.56,.44,0,.8,.36,.8,.8s-.36,.8-.8,.8c-4.39,0-7.96,3.57-7.96,7.96,0,.44-.36,.8-.8,.8"/><path class="cls-1" d="M8.28,17.83c-.65,0-1.79-.4-2.58-.8l-.34-.17c-1.05-.52-1.86-1.85-1.86-3.02V5.89c0-.44,.36-.8,.8-.8s.8,.36,.8,.8v7.96c0,.58,.47,1.34,.98,1.59l.34,.17c.75,.38,1.62,.63,1.86,.63s1.11-.25,1.86-.63l.34-.17c.51-.26,.98-1.02,.98-1.59V5.89c0-.44,.36-.8,.8-.8s.8,.36,.8,.8v7.96c0,1.17-.82,2.49-1.86,3.02l-.34,.17c-.79,.4-1.93,.8-2.58,.8"/><path class="cls-1" d="M8.28,17.83c-.44,0-.8-.36-.8-.8V5.89c0-.44,.36-.8,.8-.8s.8,.36,.8,.8v11.15c0,.44-.36,.8-.8,.8"/><path class="cls-1" d="M8.34,30.33c-.12,.64-.25,1.3-.38,1.97-.63,3.24-1.28,6.6-1.28,8.63,0,2.74,1.28,3.93,1.61,3.98,.29-.06,1.57-1.24,1.57-3.98,0-2.31-.87-7.04-1.53-10.59m-.07,16.17c-1.3,0-3.19-1.98-3.19-5.57,0-2.18,.67-5.61,1.31-8.93,.56-2.87,1.08-5.57,1.08-7v-7.17c0-.44,.36-.8,.8-.8s.8,.36,.8,.8v7.17c0,.54,.38,2.6,.78,4.77,.71,3.85,1.61,8.64,1.61,11.16,0,3.59-1.88,5.57-3.19,5.57"/><path class="cls-1" d="M44.91,5.7c-1.22,1.12-3.19,4.16-3.19,12.13,0,6.21,1.54,8.92,2.03,9.62,.35-.04,.74-.06,1.16-.06V5.7Zm0,23.28c-1.7,0-2.21,.39-2.32,.51-.08,.08-.08,.14-.08,.15,.05,.1,.01,.02,.01,.14v4.78c0,1.77-.24,3.31-.45,4.68-.18,1.15-.35,2.24-.35,3.28,0,1.97,1.3,2.39,2.39,2.39,.75,0,.8-1.58,.8-1.59v-14.33Zm-.8,17.52c-1.92,0-3.98-1.05-3.98-3.98,0-1.17,.18-2.32,.36-3.53,.21-1.37,.43-2.79,.43-4.44v-4.71c-.03-.25-.04-.77,.37-1.3,.21-.27,.49-.49,.84-.66-.77-1.33-2.01-4.36-2.01-10.04,0-13.04,5.19-14.27,5.41-14.32,.24-.05,.48,0,.66,.16s.29,.38,.29,.62V43.31c0,1.1-.5,3.19-2.39,3.19"/></svg>