<?xml version="1.0" encoding="UTF-8"?><svg id="Layer_1" xmlns="http://www.w3.org/2000/svg" viewBox="0 0 50 50"><defs><style>.cls-1{fill:#0054a6;}</style></defs><g><path class="cls-1" d="M35.53,22.15c-.26,0-.52-.12-.69-.34-.3-.38-.23-.93,.16-1.23l.81-.63c.38-.3,.93-.23,1.23,.16,.3,.38,.23,.93-.16,1.23l-.81,.63c-.16,.12-.35,.18-.54,.18Z"/><path class="cls-1" d="M29.57,13.22c-2.72,0-4.85-2.24-4.85-5.09v-1.49c0-2.86,2.13-5.09,4.85-5.09s4.85,2.24,4.85,5.09v1.49c0,2.86-2.13,5.09-4.85,5.09Zm0-9.92c-1.73,0-3.09,1.47-3.09,3.34v1.49c0,1.87,1.36,3.34,3.09,3.34s3.09-1.47,3.09-3.34v-1.49c0-1.87-1.36-3.34-3.09-3.34Z"/><g><path class="cls-1" d="M31.56,33.3c-.48,0-.88,.39-.88,.88v13.4c0,.48,.39,.88,.88,.88s.88-.39,.88-.88v-13.4c0-.48-.39-.88-.88-.88Z"/><path class="cls-1" d="M42.68,23.46c-.52-1.48-2.09-5.07-2.15-5.2-1.15-2.81-2.6-3.77-5.78-3.81h-10.14c-1.3,0-2.6,.6-3.38,1.57-.28,.34-.53,.71-.61,1.12-.15,.77,.09,2.36,.29,3.11,.11,.42,.3,.82,.44,1.2,.15,.39,.29,.75,.39,1.07,.66,1.97,1.13,2.58,1.43,2.87l1.53,1.46s.01,.01,.02,.02v20.72c0,.48,.39,.88,.88,.88s.88-.39,.88-.88V27.92c.86,.27,1.79,.23,2.78-.12l2.46-1.18c.46,.22,1.22,.59,1.61,.78,.07,.03,.14,.08,.22,.12,.4,.23,1.01,.58,1.97,.58h.11v19.47c0,.48,.39,.88,.88,.88s.88-.39,.88-.88V28.11h2.1c1.07,0,2.04-.52,2.68-1.41,.68-.96,.87-2.2,.51-3.23Zm-1.94,2.22c-.18,.25-.58,.67-1.25,.67h-3.97c-.5,0-.78-.16-1.1-.35-.12-.07-.23-.13-.34-.18-.1-.05-.22-.1-.35-.17l.26-.12c1.13-.53,2.4-1.14,2.4-3.01v-1.25c0-.48-.39-.88-.88-.88h-6.38l-.42-.93c-.2-.44-.72-.64-1.16-.44-.44,.2-.64,.72-.44,1.16l.65,1.45c.14,.32,.45,.52,.8,.52h6.07v.37c0,.66-.17,.84-1.4,1.42l-4.66,2.23c-.9,.32-1.67,.2-2.4-.38-.02-.02-.04-.04-.07-.05-.07-.06-.14-.12-.2-.18l-1.53-1.46c-.06-.06-.41-.45-.98-2.15-.11-.33-.26-.72-.42-1.14-.28-.74-.6-1.58-.74-2.25-.12-.54,0-1.04,.35-1.47,.46-.56,1.23-.91,2.01-.91h10.13c2.47,.03,3.29,.57,4.18,2.74,.02,.04,1.61,3.68,2.11,5.1,.18,.5,.07,1.15-.28,1.64Z"/></g></g><path class="cls-1" d="M15.85,1.55h-6.45c-1.25,0-2.26,1.02-2.26,2.26V47.72c0,.41,.33,.74,.74,.74s.74-.33,.74-.74V29.42h0V3.81c0-.44,.35-.79,.79-.79h6.45c.43,0,.79,.35,.79,.79v4.63s-4.02,0-4.02,0c-.41,0-.74,.33-.74,.74s.33,.74,.74,.74h4.02v5.3s-4.02,0-4.02,0c-.41,0-.74,.33-.74,.74s.33,.74,.74,.74h4.02v5.3s-4.02,0-4.02,0c-.41,0-.74,.33-.74,.74s.33,.74,.74,.74h4.02v5.29s-4.02,0-4.02,0c-.41,0-.74,.33-.74,.74s.33,.74,.74,.74h4.02v5.29h-4.02c-.41,0-.74,.33-.74,.74s.33,.74,.74,.74h4.02v5.3h-4.02c-.41,0-.74,.33-.74,.74s.33,.74,.74,.74h4.02v3.98c0,.41,.33,.74,.74,.74s.74-.33,.74-.74V3.81c0-1.25-1.02-2.26-2.26-2.26Z"/></svg>