<?xml version="1.0" encoding="UTF-8"?><svg id="Layer_1" xmlns="http://www.w3.org/2000/svg" viewBox="0 0 50 50"><defs><style>.cls-1{fill:#0054a6;}</style></defs><path class="cls-1" d="M30.94,13.01c-3.81,0-5.23-2.18-5.23-3.55V5.28c1.19,1.34,3.09,2.79,5.96,3.28,4.59,.78,5.83,4.18,6.14,9.14-1.3-2.3-3.39-4.69-6.87-4.69M15.23,46.75c-4.78,0-8.83-2.2-8.83-4.81s4.04-4.81,8.83-4.81c2.69,0,5.21,.68,6.92,1.87,.54,.38,1.23,.43,1.83,.17v2.76s0,.01,0,.02c0,2.6-4,4.8-8.74,4.8M31.96,6.81c-4.64-.79-6.23-4.61-6.31-4.78,0,0,0,0,0,0-.04-.1-.1-.2-.18-.28,0,0,0,0,0-.01-.09-.09-.21-.16-.33-.2-.09-.03-.19-.06-.28-.06,0,0,0,0,0,0-.04,0-.08,.02-.12,.03-.07,0-.14,.01-.2,.04,0,0,0,0,0,0-.08,.04-.16,.09-.23,.15-.02,.02-.04,.02-.06,.04-.05,.05-.08,.11-.11,.17-.02,.04-.06,.07-.07,.11-.01,.03,0,.06-.02,.08-.03,.08-.05,.17-.05,.26,0,0,0,0,0,0V35.35s-.02,.05-.02,.08c-.07,1.44-.44,2-.65,2.11-.08,.04-.15,.01-.18-.01-1.99-1.38-4.87-2.18-7.9-2.18-5.93,0-10.57,2.89-10.57,6.59s4.64,6.59,10.57,6.59c5.54,0,9.95-2.57,10.44-5.95,.03-.09,.05-.17,.05-.27V13.04c1.11,1,2.8,1.75,5.23,1.75,3.93,0,5.68,4.22,6.62,6.49,.17,.41,.31,.75,.44,1.01,.15,.31,.46,.49,.78,.49,.07,0,.13,0,.2-.02,.39-.1,.67-.45,.67-.86,0-6.14,0-13.77-7.7-15.08"/></svg>