<?xml version="1.0" encoding="UTF-8"?><svg id="Layer_1" xmlns="http://www.w3.org/2000/svg" viewBox="0 0 50 50"><defs><style>.cls-1{fill:#0054a6;}</style></defs><path class="cls-1" d="M41.36,44.5H12.74c-.45,0-.82-.37-.82-.82,0-1.47-1.2-2.67-2.67-2.67-.45,0-.82-.37-.82-.82v-6.31l-3.96-5.82s0,0,0-.01c0,0,0,0,0,0-.04-.07-.08-.14-.1-.21,0,0,0,0,0,0,0,0,0,0,0,0,0,0,0,0,0,0,0,0,0,0,0,0,0,0,0,0,0,0,0,0,0,0,0,0,0,0,0,0,0,0,0,0,0,0,0,0,0,0,0,0,0,0h0c-.04-.13-.04-.27-.01-.4h0s0,0,0,0h0s0,0,0,0h0s0,0,0,0c0,0,0,0,0,0,0,0,0,0,0,0,0,0,0,0,0,0,0,0,0,0,0,0s0,0,0,0,0,0,0,0c0,0,0,0,0,0h0s0,0,0,0h0s0,0,0,0c0,0,0,0,0,0,.02-.09,.06-.17,.1-.24h0s0,0,0,0t0,0s0,0,0,0c0,0,0,0,0,0,0,0,0,0,0,0,0,0,0,0,0,0,0,0,0,0,0,0,0,0,0,0,0,0,0,0,0,0,0,0,0,0,0,0,0,0t0,0s0,0,0,0h0c.06-.09,.13-.16,.22-.22,.58-.41,.97-1.02,1.09-1.72,.12-.7-.03-1.41-.44-1.99-.07-.1-.11-.21-.13-.32h0s0,0,0,0c0,0,0,0,0,0,0,0,0,0,0,0,0,0,0,0,0,0,0,0,0,0,0,0,0,0,0,0,0,0h0c-.03-.17,0-.35,.07-.51,0,0,0,0,0,0,0,0,0,0,0,0h0s0,0,0,0c0,0,0,0,0,0,0,0,0,0,0,0,0,0,0,0,0,0h0s0,0,0,0c0,0,0,0,0,0,0,0,0,0,0,0,0,0,0,0,0,0,0,0,0,0,0,0,0,0,0,0,0,0,0,0,0,0,0,0,0,0,0,0,0,0t0,0s0,0,0,0h0s0,0,0-.01h0c.03-.06,.08-.12,.13-.18h0s0,0,0,0c0,0,0,0,0,0h0s0,0,0,0h0s0,0,0,0c0,0,0,0,0,0,0,0,0,0,0,0h0s0,0,0,0c0,0,0,0,0,0,0,0,0,0,0,0,0,0,0,0,0,0,0,0,0,0,0,0h0s0,0,0,0c0,0,0,0,0,0,.03-.03,.06-.06,.1-.08L28.98,5.65c.37-.26,.88-.17,1.14,.2,.84,1.2,2.51,1.5,3.71,.66,.37-.26,.88-.17,1.14,.2l7.64,10.91c.12,.18,.17,.4,.14,.61-.04,.21-.16,.41-.34,.53-1.2,.84-1.5,2.51-.66,3.71,.06,.09,.11,.19,.13,.29,.18,.15,.29,.38,.29,.63,0,1.47,1.2,2.67,2.67,2.67,.45,0,.82,.37,.82,.82v13.32c0,.45-.37,.82-.82,.82-1.47,0-2.67,1.2-2.67,2.67,0,.45-.37,.82-.82,.82Zm-27.8-.82h0Zm21.33-.82h5.73c.33-1.72,1.69-3.08,3.41-3.41v-11.83c-1.72-.33-3.08-1.69-3.41-3.41h-5.73v1.45c0,.45-.37,.82-.82,.82s-.82-.37-.82-.82v-1.45h-.45c-.17,.06-.36,.06-.53,0H13.49c-.33,1.72-1.69,3.08-3.41,3.41v11.83c1.72,.33,3.08,1.69,3.41,3.41h19.76v-1.45c0-.45,.37-.82,.82-.82s.82,.37,.82,.82v1.45ZM6.24,27.74l2.19,3.22v-4.08c0-.45,.37-.82,.82-.82,1.47,0,2.67-1.2,2.67-2.67,0-.45,.37-.82,.82-.82h1.62l-.35-1.55c-.07-.32,.06-.66,.33-.85,.27-.19,.63-.2,.91-.02l3.49,2.24,3.49-2c.28-.16,.64-.14,.9,.05,.26,.19,.38,.53,.31,.85l-.3,1.29h7.77l-.36-.52c-.26-.37-.17-.88,.2-1.14,.37-.26,.88-.17,1.14,.2l1.02,1.46h7.03c-.64-1.57-.29-3.4,.89-4.62l-6.79-9.69c-1.6,.71-3.49,.38-4.75-.84l-4.69,3.29,.83,1.18c.26,.37,.17,.88-.2,1.14-.37,.26-.88,.17-1.14-.2l-.83-1.18L7.09,22.98c.35,.78,.45,1.64,.3,2.5-.15,.86-.55,1.64-1.15,2.25Zm19.74,12.96c-.15,0-.3-.04-.43-.12l-3.44-2.13-3.44,2.13c-.28,.17-.64,.16-.91-.03-.27-.19-.4-.53-.33-.85l.91-4.08-3.05-2.74c-.24-.22-.33-.56-.23-.87,.1-.31,.38-.53,.71-.56l4.01-.36,1.58-3.83c.13-.31,.43-.51,.76-.51s.63,.2,.76,.51l1.58,3.83,4.01,.36c.33,.03,.6,.25,.71,.56,.1,.31,.01,.65-.23,.87l-3.05,2.74,.91,4.08c.07,.32-.06,.66-.33,.85-.14,.1-.31,.15-.48,.15Zm-8.19-7.78l2.01,1.8c.22,.2,.32,.5,.25,.79l-.59,2.64,2.21-1.37c.26-.16,.6-.16,.87,0l2.21,1.37-.59-2.64c-.06-.29,.03-.59,.25-.79l2.01-1.8-2.62-.24c-.3-.03-.57-.22-.69-.51l-1.01-2.45-1.01,2.45c-.12,.28-.38,.48-.69,.51l-2.62,.24Zm16.27,7.07c-.45,0-.82-.37-.82-.82v-2.27c0-.45,.37-.82,.82-.82s.82,.37,.82,.82v2.27c0,.45-.37,.82-.82,.82Zm0-4.51c-.45,0-.82-.37-.82-.82v-2.27c0-.45,.37-.82,.82-.82s.82,.37,.82,.82v2.27c0,.45-.37,.82-.82,.82Zm0-4.51c-.45,0-.82-.37-.82-.82v-2.27c0-.45,.37-.82,.82-.82s.82,.37,.82,.82v2.27c0,.45-.37,.82-.82,.82Zm-4.12-10.42c-.26,0-.51-.12-.67-.35l-1.3-1.86c-.26-.37-.17-.88,.2-1.14,.37-.26,.88-.17,1.14,.2l1.3,1.86c.26,.37,.17,.88-.2,1.14-.14,.1-.31,.15-.47,.15Zm-2.58-3.69c-.26,0-.51-.12-.67-.35l-1.3-1.86c-.26-.37-.17-.88,.2-1.14,.37-.26,.88-.17,1.14,.2l1.3,1.86c.26,.37,.17,.88-.2,1.14-.14,.1-.31,.15-.47,.15Z"/></svg>