<?xml version="1.0" encoding="UTF-8"?><svg id="Layer_1" xmlns="http://www.w3.org/2000/svg" viewBox="0 0 50 50"><defs><style>.cls-1{fill:#0054a6;}</style></defs><path class="cls-1" d="M40.97,37.66s0-.03,0-.04c0-.03,0-.06,0-.09V13.79c0-.48-.39-.87-.87-.87h-3.08v-3.08c0-.48-.39-.87-.87-.87h-3.08v-3.08c0-.48-.39-.87-.87-.87H9.77c-.48,0-.87,.39-.87,.87v30.34c0,.48,.39,.87,.87,.87h3.08v3.08c0,.48,.39,.87,.87,.87h3.08v3.08c0,.48,.39,.87,.87,.87h15.83s.06,0,.09,0c.02,0,.04,0,.06,0,.05,0,.07-.01,.1-.02l.09-.03s.05-.02,.07-.03c.03-.02,.04-.02,.06-.03l.03-.02s.03-.02,.05-.04c.04-.03,.06-.05,.08-.07l6.6-6.6s.04-.04,.06-.06l.06-.08s.03-.05,.04-.07c.02-.03,.03-.05,.04-.08v-.03s.02-.03,.03-.05c.01-.04,.02-.06,.02-.09l.14-.02h0s-.13-.02-.13-.02ZM12.85,9.83v25.51h-2.21V6.75H31.32v2.21H13.73c-.48,0-.87,.39-.87,.87Zm3.96,3.96v25.51h-2.21V10.7h20.68v2.21H17.68c-.48,0-.87,.39-.87,.87Zm17.57,28.23v-3.61h3.61l-3.61,3.61Zm4.85-5.36h-5.72c-.48,0-.87,.39-.87,.87v5.72h-14.08V14.66h20.68v22Z"/><path class="cls-1" d="M22.86,21.37h12.08c.48,0,.87-.39,.87-.87s-.39-.87-.87-.87h-12.08c-.48,0-.87,.39-.87,.87s.39,.87,.87,.87Z"/><path class="cls-1" d="M22.86,25.4h6.71c.48,0,.87-.39,.87-.87s-.39-.87-.87-.87h-6.71c-.48,0-.87,.39-.87,.87s.39,.87,.87,.87Z"/><path class="cls-1" d="M31.16,28.46l-2.74,4-1.95-1.56c-.16-.13-.35-.19-.55-.19-.26,0-.51,.11-.68,.33-.15,.18-.21,.41-.19,.64s.14,.44,.32,.59l2.68,2.15c.19,.15,.44,.22,.67,.18,.24-.04,.46-.17,.59-.37l3.27-4.77c.27-.4,.17-.94-.23-1.22-.4-.27-.94-.17-1.21,.23Z"/></svg>