<?xml version="1.0" encoding="UTF-8"?><svg id="Layer_1" xmlns="http://www.w3.org/2000/svg" viewBox="0 0 50 50"><defs><style>.cls-1{fill:#0054a6;}</style></defs><path class="cls-1" d="M43.23,10.09H10.67c-.98,0-1.78,.8-1.78,1.77v.74c0,.47,.38,.85,.85,.85s.85-.38,.85-.85v-.74s.03-.07,.07-.07H43.23s.07,.03,.07,.07v22.37s-.03,.07-.07,.07h-.74c-.47,0-.85,.38-.85,.85s.38,.85,.85,.85h.74c.98,0,1.77-.8,1.77-1.78V11.87c0-.98-.8-1.77-1.77-1.77Z"/><path class="cls-1" d="M39.33,13.99H6.77c-.98,0-1.77,.8-1.77,1.78v22.37c0,.98,.8,1.78,1.77,1.78H39.33c.98,0,1.78-.8,1.78-1.78V15.76c0-.98-.8-1.78-1.78-1.78ZM6.7,33.08l10.59-9.29c.09-.08,.23-.07,.31,.01l8.43,8.84c.69,.72,1.8,.8,2.58,.19l5.14-4.02c.08-.07,.2-.06,.28,0l5.37,4.39v4.93s-.03,.07-.07,.07H6.77s-.07-.03-.07-.07v-5.05Zm26-5.61l-5.14,4.02c-.09,.07-.22,.06-.3-.02l-8.43-8.84c-.38-.4-.89-.6-1.4-.6-.45,0-.9,.16-1.27,.48L6.7,30.82V15.76s.03-.07,.07-.07H39.33s.07,.03,.07,.07v15.25l-4.3-3.51c-.7-.57-1.69-.58-2.41-.03Z"/><path class="cls-1" d="M28.77,17.38c-2.07,0-3.75,1.68-3.75,3.75s1.68,3.75,3.75,3.75,3.75-1.68,3.75-3.75-1.68-3.75-3.75-3.75Zm2.05,3.75c0,1.13-.92,2.05-2.05,2.05s-2.05-.92-2.05-2.05,.92-2.05,2.05-2.05,2.05,.92,2.05,2.05Z"/></svg>