<?xml version="1.0" encoding="UTF-8"?><svg id="Layer_1" xmlns="http://www.w3.org/2000/svg" viewBox="0 0 50 50"><defs><style>.cls-1{fill:#0054a6;}</style></defs><path class="cls-1" d="M28.79,17.22c-.48,0-.88-.39-.88-.88v-3.95l-8.32-4.97c-.41-.25-.55-.79-.3-1.2,.25-.41,.78-.55,1.2-.3l8.75,5.22c.26,.16,.43,.44,.43,.75v4.45c0,.48-.39,.88-.88,.88Z"/><path class="cls-1" d="M31.1,48.91c-.48,0-.88-.39-.88-.88V18.39l-4.4-2.35V48.04c0,.48-.39,.88-.88,.88s-.88-.39-.88-.88V14.58c0-.31,.16-.59,.43-.75,.26-.16,.59-.17,.86-.02l6.15,3.29c.28,.15,.46,.45,.46,.77v30.17c0,.48-.39,.88-.88,.88Z"/><path class="cls-1" d="M19.83,48.91c-.48,0-.88-.39-.88-.88V.98c0-.48,.39-.88,.88-.88s.88,.39,.88,.88V48.04c0,.48-.39,.88-.88,.88Z"/><path class="cls-1" d="M40.71,49.9H9.29c-.48,0-.88-.39-.88-.88s.39-.88,.88-.88h31.42c.48,0,.88,.39,.88,.88s-.39,.88-.88,.88Z"/></svg>