<?xml version="1.0" encoding="UTF-8"?><svg id="Layer_1" xmlns="http://www.w3.org/2000/svg" viewBox="0 0 50 50"><defs><style>.cls-1{fill:#0054a6;}</style></defs><path class="cls-1" d="M23.83,45c-1.03,0-1.9-.16-2.43-.43-1.7-.44-3.06-.88-4.26-1.26-3.04-.97-4.88-1.55-8.52-1.09-.45,.06-.87-.26-.92-.71-.06-.45,.26-.87,.71-.92,4-.51,6.08,.15,9.23,1.15,1.2,.38,2.57,.82,4.27,1.26,.08,.02,.15,.05,.22,.09,.77,.46,4.27,.48,6.93-1.2l13.74-8.68s.04-.03,.07-.04c.33-.17,.38-.46,.38-.62,0-.24-.12-.56-.45-.73-.65-.33-1.78,.01-3.03,.92-.3,.22-.7,.21-.99-.02-.29-.23-.4-.61-.26-.96,.25-.63,.24-1.15-.02-1.36-.31-.25-1.12-.2-2.15,.51l-.87,.6c-.25,.17-.58,.19-.85,.05-.27-.14-.44-.42-.44-.73,0-.35-.07-.62-.18-.68-.19-.11-.87-.11-2.21,.61l-3.42,1.82c.64,.01,1.35,.04,2.18,.09,1,.06,1.85,.85,2,1.87,.13,.86-.25,1.99-1.73,2.57-5.72,2.61-9.37,1.17-13.9-1.15-.41-.21-.57-.71-.36-1.11,.21-.41,.7-.57,1.11-.36,4.95,2.54,7.78,3.25,12.48,1.1,.02,0,.03-.01,.05-.02,.3-.11,.78-.37,.72-.78-.04-.25-.25-.47-.47-.48-1.13-.07-2.04-.08-2.83-.1-3.16-.06-4.35-.08-8.33-3.03l-3.42-2.53c-.38-.28-1.85-.5-3.29,.09l-6.31,2.57c-.42,.17-.9-.03-1.08-.45-.17-.42,.03-.9,.45-1.08l6.31-2.57c1.71-.7,3.87-.65,4.9,.12l3.42,2.53c2.53,1.87,3.67,2.42,5.19,2.61,.07-.17,.2-.31,.37-.4l5.18-2.75c1.68-.89,2.97-1.08,3.84-.57,.24,.14,.5,.37,.69,.73,1.51-.99,3.03-1.13,3.99-.36,.43,.35,.7,.82,.79,1.38,1.59-.72,2.67-.44,3.23-.16,.83,.43,1.35,1.27,1.35,2.2,0,.89-.46,1.66-1.24,2.07l-13.71,8.66c-1.94,1.23-4.28,1.72-6.1,1.72Zm1.5-16.44c-.21,0-.41-.08-.57-.23l-9.23-8.89c-2.84-2.57-3.84-6.41-2.54-9.79,1.1-2.87,3.56-4.65,6.41-4.65,2.15,0,4.38,1.55,5.74,3.33,1.33-1.78,3.54-3.33,5.7-3.33,2.83,0,5.3,1.73,6.44,4.51,1.08,2.63,1.03,6.62-2.32,9.91l-9.05,8.9c-.16,.16-.37,.24-.58,.24ZM19.39,6.65c-2.15,0-4.01,1.38-4.87,3.59-.84,2.18-.72,5.42,2.12,7.98,0,0,.01,.01,.02,.02l8.66,8.34,8.48-8.33c2.77-2.72,2.82-5.97,1.95-8.11-.88-2.15-2.76-3.49-4.91-3.49-1.89,0-4.09,1.86-4.95,3.59-.14,.28-.42,.46-.73,.46-.32,0-.6-.17-.74-.45-.9-1.74-3.13-3.6-5.02-3.6Z"/></svg>