<?xml version="1.0" encoding="UTF-8"?><svg id="Layer_1" xmlns="http://www.w3.org/2000/svg" viewBox="0 0 50 50"><defs><style>.cls-1{fill:#0054a6;}</style></defs><path class="cls-1" d="M1.97,42.5H48.03v-6.98c-2.81,1.16-6.05,1.05-8.77-.34-2.97,1.51-6.54,1.51-9.51,0-2.97,1.51-6.54,1.51-9.51,0-1.47,.75-3.1,1.14-4.75,1.14s-3.29-.39-4.75-1.14c-2.72,1.39-5.96,1.5-8.77,.34v6.99Zm46.79,1.47H1.24c-.41,0-.74-.33-.74-.74v-8.89c0-.3,.18-.57,.45-.68,.22-.09,.47-.07,.66,.05,2.7,1.5,6.05,1.5,8.75,0,.22-.13,.5-.14,.73,0,1.34,.75,2.86,1.15,4.39,1.15s3.05-.4,4.39-1.15c.23-.13,.52-.12,.74,.01,2.7,1.51,6.05,1.5,8.76,0,.21-.12,.47-.13,.7-.02,.01,0,.02,.01,.03,.02,2.71,1.52,6.07,1.52,8.77,0,.23-.13,.52-.14,.75,0,2.7,1.51,6.05,1.51,8.76,0,.19-.11,.43-.13,.64-.05,.28,.11,.46,.38,.46,.68v8.89c0,.41-.33,.74-.74,.74"/><path class="cls-1" d="M1.97,33.9c2.51,1.25,5.52,1.25,8.03,0V8.29c0-.44-.36-.79-.79-.79H2.76c-.44,0-.79,.35-.79,.79v25.61Zm4.02,2.41c-1.77,0-3.54-.44-5.11-1.32-.23-.13-.38-.38-.38-.64V8.29c0-1.25,1.01-2.26,2.26-2.26h6.45c1.25,0,2.26,1.02,2.26,2.26v26.05c0,.2-.08,.38-.21,.52h0s-.1,.09-.16,.12c-1.58,.88-3.34,1.32-5.11,1.32"/><path class="cls-1" d="M10.74,14.39H5.99c-.41,0-.74-.33-.74-.74s.33-.74,.74-.74h4.75c.41,0,.74,.33,.74,.74s-.33,.74-.74,.74"/><path class="cls-1" d="M10.74,21.29H5.99c-.41,0-.74-.33-.74-.74s.33-.74,.74-.74h4.75c.41,0,.74,.33,.74,.74s-.33,.74-.74,.74"/><path class="cls-1" d="M10.74,28.18H5.99c-.41,0-.74-.33-.74-.74s.33-.74,.74-.74h4.75c.41,0,.74,.33,.74,.74s-.33,.74-.74,.74"/><g><path class="cls-1" d="M25,28.66c-.41,0-.74-.33-.74-.74V13.66c0-.41,.33-.74,.74-.74s.74,.33,.74,.74v14.27c0,.41-.33,.74-.74,.74"/><path class="cls-1" d="M21.48,18.14c-.18,0-.36-.07-.5-.2-.3-.28-.31-.74-.03-1.04l3.52-3.74c.28-.3,.74-.31,1.04-.03,.3,.28,.31,.74,.03,1.04l-3.52,3.74c-.14,.15-.34,.23-.54,.23"/><path class="cls-1" d="M28.52,18.14c-.2,0-.39-.08-.54-.23l-3.52-3.74c-.28-.3-.26-.76,.03-1.04,.3-.28,.76-.26,1.04,.03l3.52,3.74c.28,.3,.26,.76-.03,1.04-.14,.13-.32,.2-.5,.2"/></g></svg>