<svg xmlns="http://www.w3.org/2000/svg" version="1.1" id="Layer_1" viewBox="0 0 141.73 76.32">
<style type="text/css">
	.st3{fill:#0054A6;}
</style>
				<path class="st3" d="M91.1,68.28c0,3.54-2.73,6.64-6.87,6.64c-4.13,0-6.87-3.11-6.87-6.64c0-3.54,2.74-6.64,6.87-6.64      C88.36,61.64,91.1,64.74,91.1,68.28 M75.96,68.28c0,4.65,3.52,8.04,8.27,8.04c4.75,0,8.27-3.39,8.27-8.04      c0-4.65-3.5-8.04-8.27-8.04C79.48,60.24,75.96,63.63,75.96,68.28"/>
				<path class="st3" d="M10.02,66.62l-3.76-0.06C4.4,66.54,2.61,66,2.61,64.06c0-1.32,1.52-3.29,5.51-3.29      c2.69,0,4.14,1.03,5.6,1.92l0.9-1.09c-0.83-0.56-2.76-2.29-6.6-2.29c-4.96,0-6.86,2.63-6.86,4.72c0,3.14,2.8,3.95,5.11,3.98      l3.67,0.06c2.8,0.06,4.14,1.6,4.14,3.06c0,2.37-2.84,3.44-6.15,3.44c-4.34,0-5.83-2.01-6.92-2.86l-1,1.05      c1.13,1.07,3.1,3.27,7.93,3.27c5.68,0,7.61-2.61,7.61-4.89C15.53,68.76,13.57,66.69,10.02,66.62"/>

			<polygon class="st3" points="52.04,60 45.99,67.63 39.95,60 38.07,60 45.27,69.04 45.27,76.02 46.72,76.02 46.72,69.04 53.92,60         "/>
			<polygon class="st3" points="128.14,60 128.14,61.45 134.21,61.45 134.21,76.02 135.66,76.02 135.66,61.45 141.73,61.45      141.73,60    "/>

				<path class="st3" d="M70.33,64.55c0,2.56-1.69,3.12-3.91,3.12h-7.07v-6.22h7.07C68.64,61.45,70.33,61.99,70.33,64.55 M59.41,60      l-1.52,1.22l0,14.8h1.45v-6.9h7.07c4.34,0,5.36-2.2,5.36-4.57c0-2.35-1.03-4.55-5.36-4.55H59.41z"/>

			<polygon class="st3" points="32.64,60 22.86,69.81 22.86,60.01 21.4,61.18 21.4,76.02 22.86,76.02 22.86,71.86 27.71,67.01      33.77,76.02 35.53,76.02 28.8,65.9 34.67,60    "/>
			<polygon class="st3" points="98.71,61.22 98.71,76.02 100.17,76.02 100.17,60.07    "/>
			<polygon class="st3" points="120.72,61.22 120.72,73.91 120.68,73.91 109.53,60.05 108.03,61.26 108.03,76.02 109.49,76.02      109.49,62.18 109.53,62.18 120.72,76.02 122.18,76.02 122.17,60.05    "/>

				<path class="st3" d="M52.71,30.87c0.11,3.24,0.53,6.15,1.23,8.65h12.05L52.71,30.87z"/>
				<path class="st3" d="M65.92,40.21H54.14c0.7,2.25,1.63,4.14,2.77,5.6L65.92,40.21z"/>
				<path class="st3" d="M60.37,48.61l10.14-3.13v-1.93l-13.1,2.86C58.3,47.39,59.29,48.13,60.37,48.61"/>
				<path class="st3" d="M54.06,22.27c-0.86,2.52-1.38,5.13-1.37,7.76l13.1,8.53L54.06,22.27z"/>
			
			<polygon class="st3" points="70.52,46.2 61.53,48.97 70.52,48.97    "/>
			
				<path class="st3" d="M87.39,21.48c-1.01-2.69-2.39-5.27-3.94-7.66L75.6,37.85L87.39,21.48z"/>
				<path class="st3" d="M89.01,30.05l0.03-0.02c0.01-2.63-0.5-5.24-1.37-7.76L75.94,38.56L89.01,30.05z"/>
				<path class="st3" d="M70.52,0c-1.45,1.23-7.17,6.29-11.75,13.09l11.75,19.24V0z"/>
				<path class="st3" d="M58.28,13.82c-1.55,2.38-2.93,4.96-3.94,7.66l11.79,16.38L58.28,13.82z"/>
				<path class="st3" d="M71.22,0v32.33l11.75-19.24C78.39,6.29,72.66,1.23,71.22,0"/>
				<path class="st3" d="M84.31,46.41l-13.1-2.86v1.93l10.14,3.13C82.45,48.13,83.43,47.39,84.31,46.41"/>
			
			<polygon class="st3" points="70.52,33.66 59.71,15.97 67.41,39.52 70.52,39.52    "/>
			<polygon class="st3" points="70.52,42.84 70.52,40.21 67.23,40.21 58.93,45.37    "/>
			
				<path class="st3" d="M89.02,30.87l-13.28,8.65H87.8C88.49,37.02,88.92,34.11,89.02,30.87"/>
			
			<polygon class="st3" points="82.02,15.97 71.21,33.65 71.21,39.52 74.33,39.52    "/>
			<polygon class="st3" points="71.22,46.2 71.22,48.97 80.2,48.97    "/>
			<polygon class="st3" points="74.5,40.21 71.22,40.21 71.22,42.84 82.8,45.37    "/>
			
				<path class="st3" d="M87.59,40.21H75.81l9,5.6C85.96,44.35,86.89,42.46,87.59,40.21"/>
</svg>