<?xml version="1.0" encoding="UTF-8"?><svg id="Layer_1" xmlns="http://www.w3.org/2000/svg" viewBox="0 0 50 50"><defs><style>.cls-1{fill:#0054a6;}</style></defs><path class="cls-1" d="M17.27,11.31c-1.92,0-3.61-1.37-4.02-3.26-.49-2.23,.91-4.44,3.12-4.93,.29-.06,.59-.1,.88-.1,1.92,0,3.61,1.37,4.02,3.26,.24,1.08,.04,2.18-.54,3.12-.59,.93-1.5,1.58-2.58,1.81-.29,.06-.59,.1-.88,.1m-.02-6.59c-.17,0-.35,.02-.52,.06-1.3,.29-2.12,1.59-1.83,2.91,.25,1.12,1.24,1.93,2.37,1.93,.17,0,.35-.02,.52-.06,.63-.14,1.17-.52,1.51-1.07,.35-.55,.46-1.21,.32-1.85-.25-1.12-1.24-1.93-2.37-1.93"/><path class="cls-1" d="M16.2,43.63s-.07,0-.1,0c-.46-.05-.8-.47-.74-.94l1.63-14.08c.03-.27,.19-.51,.43-.64,.24-.13,.53-.14,.78-.02,5.72,2.8,5.73,3.01,5.76,3.58,0,.04-.51,6.47-.51,6.47,.08,.56,.22,.92,.37,.96,.86,.26,1.02-1,1.02-1.18,0-.2,.48-7.08,.53-7.94-.6-.56-6.18-5.09-6.16-5.56,.02-.69,.03-6.03,.03-6.03,0-.32,.18-.61,.47-.75,.29-.14,.63-.11,.88,.08l2.78,2.07,5.5,1.27c.23,.05,.47-.06,.58-.28,.1-.21,.06-.37,.02-.45-.03-.08-.12-.22-.31-.29l-5.38-1.77c-.09-.03-.18-.08-.25-.13l-5.59-4.34c-.48-.33-1.55-.38-1.8-.25-.55,.4-5.1,4.44-5.97,5.38l-.06,6.12c0,.21,.17,.37,.37,.37h0c.22,0,.37-.15,.39-.34l.43-5.61c.02-.28,.18-.54,.43-.68l2.42-1.33c.26-.14,.57-.14,.83,0,.26,.15,.42,.42,.43,.71,.08,2.88-.21,5.67-.4,7.52-.07,.69-.13,1.24-.14,1.53-.02,.65-.19,4.05-.37,7.65-.18,3.64-.39,7.76-.39,8.05,0,.46-.38,.84-.85,.84h0c-.47,0-.84-.38-.84-.84,0-.27,.15-3.26,.4-8.13,.17-3.44,.35-6.99,.37-7.62,.01-.35,.53-5.28,.55-7.55l-.78,.43-.4,5.16c-.08,1.07-.96,1.89-2.03,1.9-1.25,.01-2.12-.98-2.11-2.08l.07-6.39c0-.42,0-.58,3.26-3.51,1.36-1.22,3.1-2.74,3.43-2.98,.93-.65,2.82-.38,3.76,.28l5.51,4.28,5.24,1.73c.61,.2,1.09,.65,1.34,1.24,.25,.59,.23,1.25-.05,1.82-.46,.95-1.48,1.44-2.49,1.21l-5.67-1.31c-.11-.03-.22-.07-.31-.14l-1.58-1.17s0,3.14-.02,4c.38,.32,6.07,5.01,6.15,5.43,.04,.18-.51,8.29-.52,8.47-.05,1.5-.95,2.64-2.24,2.83-.58,.08-1.09-.04-1.5-.36-.55-.42-.91-1.18-1.02-2.18,0-.06,.48-6.17,.48-6.17-.63-.38-2.14-1.17-3.71-1.95l-1.49,12.89c-.05,.43-.42,.75-.84,.75"/><path class="cls-1" d="M42.05,3.55c-.12-.32-.43-.55-.8-.55h-13.12c-.34,0-.65,.21-.78,.52-.13,.31-.07,.69,.17,.93l3.44,3.61-3.49,4.31c-.21,.25-.25,.62-.11,.91,.14,.29,.44,.52,.76,.52h12.48v19.58h-5.28c-.47,0-.88,.46-.88,.92v3.18h-5.33c-.47,0-.83,.3-.83,.77v3.15h-5.94c-.47,0-.77,.33-.77,.8v3.11H8.55c-.47,0-.85,.37-.85,.84s.38,.84,.85,.84h13.81c.47,0,.91-.38,.91-.85v-3.07h5.86c.47,0,.85-.41,.85-.88v-3.04h5.35c.47,0,.8-.44,.8-.91v-3.19h5.4c.47,0,.75-.29,.75-.75V4.15c0-.23-.09-.44-.24-.59m-12.14,8.4l2.84-3.46c.27-.33,.25-.77-.05-1.08l-2.59-2.73h10.5v7.27h-10.7Z"/></svg>