<?xml version="1.0" encoding="UTF-8"?><svg id="Layer_1" xmlns="http://www.w3.org/2000/svg" viewBox="0 0 50 50"><defs><style>.cls-1{fill:#0054a6;}</style></defs><path class="cls-1" d="M47.5,29.39c-.24,.5-.64,.65-1.18,.65-14.22,0-28.44,0-42.66,0-.15,0-.29,0-.44-.02-.41-.07-.71-.42-.72-.82,0-.4,.28-.77,.69-.85,.2-.04,.41-.04,.61-.04,3.34,0,6.68,0,10.02,0,.37,0,.52-.07,.57-.49,.54-4.73,4.41-8.64,9.11-9.25,5.39-.69,10.22,2.42,11.79,7.62,.16,.52,.29,1.05,.32,1.59,.03,.47,.23,.53,.63,.52,3.35-.01,6.71,0,10.06-.01,.54,0,.98,.12,1.21,.66v.44Zm-13.63-1.11c-.21-3.92-3.8-8.19-9.02-8.07-5.66,.12-8.69,4.95-8.7,8.07h17.72Z"/><path class="cls-1" d="M24.99,34.41c-5.56,0-11.13,0-16.69,0-.18,0-.35,0-.53-.02-.42-.07-.71-.4-.72-.81-.01-.43,.23-.75,.66-.85,.17-.04,.35-.05,.52-.05,11.17,0,22.34,0,33.52,0,.19,0,.38,.02,.56,.06,.41,.1,.65,.42,.64,.83,0,.4-.26,.74-.66,.82-.18,.04-.38,.03-.57,.03-5.58,0-11.16,0-16.74,0Z"/><path class="cls-1" d="M25.01,37.04c3.97,0,7.94,0,11.91,0,.13,0,.26,0,.4,0,.55,.03,.93,.37,.94,.85,.01,.47-.36,.84-.9,.89-.12,.01-.23,0-.35,0-8,0-15.99,0-23.99,0-.22,0-.44-.01-.65-.07-.41-.1-.61-.42-.61-.81,0-.4,.21-.7,.62-.81,.19-.05,.4-.06,.61-.06,4.01,0,8.03,0,12.04,0Z"/><path class="cls-1" d="M25.87,13.78c0,.5,0,.99,0,1.49-.01,.65-.35,1.03-.89,1.03-.52,0-.86-.38-.86-1.01,0-1.02,0-2.05,0-3.07,0-.61,.36-1.01,.86-1.02,.52,0,.88,.4,.89,1.04,0,.51,0,1.02,0,1.53Z"/><path class="cls-1" d="M12.62,25.35c0,.75-.47,1.17-1.03,1.03-1.11-.27-2.2-.58-3.3-.9-.5-.15-.73-.61-.6-1.07,.12-.45,.57-.71,1.07-.58,1.06,.27,2.12,.56,3.17,.86,.41,.12,.68,.39,.68,.66Z"/><path class="cls-1" d="M42.33,24.64c0,.44-.23,.73-.63,.85-1.08,.31-2.16,.61-3.25,.89-.47,.12-.92-.16-1.04-.59-.13-.45,.07-.91,.55-1.06,1.13-.34,2.27-.66,3.42-.93,.51-.12,.95,.31,.96,.83Z"/><path class="cls-1" d="M11.01,18.17c.11-.69,.74-1.08,1.31-.81,.12,.06,.23,.13,.33,.22,.77,.65,1.55,1.3,2.31,1.95,.49,.42,.57,.94,.22,1.34-.34,.38-.85,.39-1.33,0-.79-.65-1.58-1.31-2.34-1.99-.21-.19-.33-.48-.5-.72Z"/><path class="cls-1" d="M39.03,18.12c-.21,.31-.34,.59-.54,.77-.76,.68-1.55,1.33-2.34,1.99-.48,.4-1.03,.38-1.36-.03-.32-.4-.23-.9,.24-1.31,.79-.68,1.58-1.34,2.38-2.01,.3-.25,.67-.39,1.01-.15,.24,.16,.38,.46,.61,.74Z"/><path class="cls-1" d="M20.08,16.73c-.03,.4-.22,.68-.62,.81-.4,.13-.77,.02-.95-.34-.54-1.09-1.04-2.19-1.52-3.3-.17-.39,.05-.81,.41-1,.37-.19,.86-.13,1.05,.24,.56,1.12,1.07,2.27,1.6,3.41,.02,.05,.02,.12,.02,.18Z"/><path class="cls-1" d="M33.05,13.74c-.04,.12-.08,.31-.16,.48-.41,.9-.83,1.81-1.25,2.71-.28,.6-.73,.8-1.23,.59-.48-.21-.63-.72-.36-1.31,.43-.94,.86-1.89,1.31-2.82,.22-.47,.61-.65,1.03-.53,.39,.1,.66,.44,.66,.9Z"/></svg>