<?xml version="1.0" encoding="UTF-8"?><svg id="Layer_1" xmlns="http://www.w3.org/2000/svg" viewBox="0 0 50 50"><defs><style>.cls-1{fill:#0054a6;}</style></defs><path class="cls-1" d="M48.93,30.09c.02,.24,.04,.48,.06,.72,.13,1.94-1.02,3.82-2.84,4.54-.98,.39-1.98,.74-2.97,1.1-6.37,2.32-12.74,4.64-19.11,6.96-3.67,1.33-7.33,2.67-11,4-2.18,.79-4.35,.12-5.57-1.73-.26-.39-.45-.84-.62-1.28-.38-.98-.73-1.98-1.09-2.97-.27-.75-.08-1.17,.68-1.44,.75-.27,1.48-.56,2.05-1.16,1.11-1.16,1.37-2.95,.62-4.29-.85-1.52-2.46-2.26-4.1-1.87-.45,.11-.88,.28-1.32,.42-.48,.15-.97,0-1.13-.46-.53-1.44-1.12-2.86-1.49-4.34-.48-1.93,.63-4.03,2.41-4.93,.28-.14,.55-.32,.79-.52,7.73-6.59,15.46-13.18,23.19-19.78,1.4-1.19,3.12-1.04,4.26,.39,1.9,2.36,3.8,4.72,5.68,7.09,.21,.26,.39,.36,.75,.33,1.93-.16,3.42,.6,4.47,2.24,.04,.07,.11,.13,.16,.2l1.57,4.32c-.09,.56-.42,.87-.96,1.03-.34,.1-.68,.24-1,.41-1.29,.7-1.97,1.8-1.98,3.26,0,1.47,.68,2.57,1.97,3.27,1.16,.63,2.34,.53,3.5,.02,.53-.23,.99-.23,1.44,.15,.52,1.44,1.05,2.88,1.57,4.32Zm-2.9-2.52c-3.45,1.06-6.06-.91-6.94-2.95-.56-1.3-.67-2.62-.24-3.97,.55-1.71,1.71-2.87,3.39-3.57-.29-.8-.57-1.58-.85-2.35-.65-1.77-2.12-2.46-3.88-1.82-7.02,2.56-14.05,5.11-21.07,7.67l-.45,.16c.12,.32,.22,.57,.3,.83,.17,.54-.04,1.02-.53,1.21-.5,.19-.97-.03-1.19-.56-.11-.26-.2-.54-.29-.8-.09,0-.13,0-.17,0-3.21,1.17-6.42,2.31-9.61,3.51-1.12,.42-1.87,1.74-1.59,2.89,.27,1.07,.73,2.09,1.11,3.13,3.49-1.08,6.27,1.12,7.08,3.39,.81,2.27,.09,5.69-3.32,7.14,.28,.78,.57,1.57,.86,2.35,.64,1.73,2.12,2.43,3.85,1.8,2.98-1.08,5.95-2.17,8.92-3.25,.13-.05,.26-.1,.44-.16-.11-.31-.22-.58-.31-.85-.17-.54,.04-1.02,.54-1.19,.49-.18,.97,.05,1.19,.58,.11,.26,.2,.53,.31,.84l.48-.18c2.57-.93,5.13-1.87,7.7-2.8,4.48-1.63,8.97-3.26,13.45-4.9,1.46-.53,2.22-1.87,1.83-3.34-.26-.96-.67-1.87-1.02-2.84ZM9.08,21.21s.03,.04,.05,.05c8.89-3.24,17.78-6.47,26.72-9.72-.11-.15-.19-.28-.29-.4-1.71-2.14-3.43-4.28-5.15-6.41-.64-.8-1.05-.83-1.84-.17-6.39,5.45-12.77,10.9-19.15,16.36-.12,.1-.23,.2-.34,.3Z"/><path class="cls-1" d="M16.71,28.13c-.17-.46-.34-.92-.5-1.39-.19-.56,.02-1.07,.51-1.26,.5-.19,1.01,.07,1.23,.65,.34,.92,.68,1.84,1.01,2.77,.2,.56-.02,1.07-.52,1.25-.49,.19-.99-.06-1.21-.61-.18-.47-.35-.95-.52-1.42Z"/><path class="cls-1" d="M19.39,35.48c-.17-.47-.36-.95-.52-1.43-.18-.53,.05-1.03,.53-1.2,.49-.18,.99,.05,1.19,.57,.36,.96,.71,1.92,1.05,2.89,.18,.52-.06,1.03-.54,1.21-.47,.17-.98-.07-1.19-.58-.19-.48-.36-.98-.54-1.46Z"/></svg>