<?xml version="1.0" encoding="UTF-8"?><svg id="Layer_1" xmlns="http://www.w3.org/2000/svg" viewBox="0 0 50 50"><defs><style>.cls-1{fill:#0054a6;}</style></defs><g><path class="cls-1" d="M25,42.41c-9.48,0-17.2-7.81-17.2-17.41S15.52,7.59,25,7.59s17.2,7.81,17.2,17.4-7.72,17.41-17.2,17.41Zm0-33.06c-8.52,0-15.45,7.02-15.45,15.65s6.93,15.66,15.45,15.66,15.45-7.02,15.45-15.66-6.93-15.65-15.45-15.65Zm-1.56,15.83c-.15,0-.3-.04-.44-.12l-6.08-3.55c-.42-.24-.56-.78-.31-1.2,.24-.42,.78-.56,1.2-.31l6.08,3.55c.42,.24,.56,.78,.31,1.2-.16,.28-.46,.43-.76,.43Zm3.05-.43c-.22,0-.44-.08-.61-.25-.34-.34-.35-.89,0-1.24l7.85-7.95c.34-.34,.89-.35,1.24,0s.35,.89,0,1.24l-7.85,7.95c-.17,.17-.4,.26-.62,.26Z"/><path class="cls-1" d="M25,27.55c-1.39,0-2.52-1.14-2.52-2.55s1.13-2.55,2.52-2.55,2.52,1.14,2.52,2.55-1.13,2.55-2.52,2.55Zm0-3.35c-.42,0-.77,.36-.77,.8s.35,.8,.77,.8,.77-.36,.77-.8-.35-.8-.77-.8Z"/></g><path class="cls-1" d="M25,38.38c-.48,0-.88-.39-.88-.88v-1.16c0-.48,.39-.88,.88-.88s.88,.39,.88,.88v1.16c0,.48-.39,.88-.88,.88Zm12.35-12.51h-1.14c-.48,0-.88-.39-.88-.88s.39-.88,.88-.88h1.14c.48,0,.88,.39,.88,.88s-.39,.88-.88,.88Zm-23.55,0h-1.14c-.48,0-.88-.39-.88-.88s.39-.88,.88-.88h1.14c.48,0,.88,.39,.88,.88s-.39,.88-.88,.88Zm11.21-11.35c-.48,0-.88-.39-.88-.88v-1.16c0-.48,.39-.88,.88-.88s.88,.39,.88,.88v1.16c0,.48-.39,.88-.88,.88Z"/></svg>