<?xml version="1.0" encoding="UTF-8"?><svg id="Layer_1" xmlns="http://www.w3.org/2000/svg" viewBox="0 0 50 50"><defs><style>.cls-1{fill:#0054a6;}</style></defs><path class="cls-1" d="M22.77,43.62c-10.27,0-18.62-8.35-18.62-18.62S12.5,6.38,22.77,6.38c8.16,0,15.49,5.45,17.84,13.26,.15,.5-.13,1.02-.63,1.17-.5,.15-1.02-.13-1.17-.63-2.11-7.02-8.7-11.92-16.04-11.92-9.23,0-16.74,7.51-16.74,16.74s7.51,16.74,16.74,16.74,16.74-7.51,16.74-16.74c0-.52,.42-.94,.94-.94s.94,.42,.94,.94c0,10.27-8.35,18.62-18.62,18.62Z"/><path class="cls-1" d="M40.32,26.87c-.52,0-.94-.42-.94-.94v-1.55c0-.52,.42-.94,.94-.94s.94,.42,.94,.94v1.55c0,.52-.42,.94-.94,.94Z"/><path class="cls-1" d="M44.91,30.27c-.25,0-.5-.1-.69-.3l-3.91-4.21-3.91,4.21c-.35,.38-.95,.4-1.32,.05-.38-.35-.4-.95-.05-1.33l5.29-5.68,5.28,5.68c.35,.38,.33,.97-.05,1.33-.18,.17-.41,.25-.64,.25Z"/><g><path class="cls-1" d="M16.35,25.93c.22,.33,.33,.71,.33,1.16s-.11,.83-.34,1.17-.54,.6-.95,.78c-.4,.18-.86,.27-1.36,.27-.68,0-1.27-.16-1.76-.48-.5-.32-.85-.74-1.05-1.25l1.35-.56c.22,.59,.68,.89,1.36,.89,.32,0,.6-.09,.82-.29,.23-.19,.34-.44,.34-.76s-.11-.55-.34-.75c-.23-.2-.54-.3-.96-.3h-.56v-1.26h.69c.33,0,.59-.09,.76-.26,.17-.17,.26-.4,.26-.67s-.1-.51-.3-.69-.45-.27-.74-.27c-.51,0-.9,.22-1.14,.66l-1.24-.66c.18-.42,.49-.75,.92-1.01,.43-.26,.93-.39,1.5-.39,.35,0,.68,.05,.99,.14,.31,.09,.57,.23,.8,.4s.41,.4,.54,.66c.13,.27,.2,.57,.2,.89,0,.38-.09,.72-.27,1.02-.18,.31-.43,.55-.75,.74v.03c.39,.18,.69,.43,.91,.76Z"/><path class="cls-1" d="M21.92,24.36c.29,.11,.55,.27,.77,.48,.22,.21,.39,.48,.52,.8,.13,.32,.19,.68,.19,1.08,0,.5-.12,.95-.37,1.35s-.59,.7-1.02,.92-.91,.33-1.44,.33c-.4,0-.77-.08-1.12-.23-.35-.15-.65-.36-.9-.63-.25-.27-.45-.6-.59-1-.14-.39-.22-.82-.22-1.28,0-.63,.1-1.23,.3-1.8,.2-.57,.48-1.08,.84-1.52s.8-.82,1.32-1.12c.52-.31,1.08-.52,1.68-.63l.45,1.25c-.72,.21-1.32,.49-1.78,.84s-.81,.81-1.03,1.35h.02c.43-.23,.91-.35,1.44-.35,.33,0,.64,.06,.93,.17Zm-.4,3.2c.24-.24,.36-.53,.36-.88s-.12-.63-.35-.85c-.24-.22-.55-.33-.94-.33-.26,0-.51,.06-.75,.2-.24,.13-.45,.3-.61,.5v.11c0,.48,.13,.87,.4,1.17s.6,.45,.98,.45,.67-.12,.91-.36Z"/><path class="cls-1" d="M26.19,29.04c-.38-.18-.7-.44-.97-.78s-.48-.76-.63-1.27c-.15-.51-.22-1.07-.22-1.7s.07-1.14,.21-1.64c.14-.5,.34-.92,.6-1.27,.26-.35,.58-.62,.97-.82,.38-.19,.81-.29,1.28-.29s.87,.09,1.25,.27c.38,.18,.7,.44,.97,.78s.48,.76,.63,1.27c.15,.51,.22,1.07,.22,1.7,0,.8-.12,1.5-.37,2.11-.24,.6-.6,1.07-1.06,1.41s-1.01,.5-1.64,.5c-.45,0-.87-.09-1.25-.27Zm2.33-1.84c.26-.45,.39-1.08,.39-1.9s-.13-1.43-.39-1.89-.62-.69-1.08-.69-.82,.22-1.08,.67c-.26,.45-.39,1.08-.39,1.9,0,.52,.06,.98,.17,1.37,.12,.39,.28,.68,.51,.89,.22,.21,.49,.31,.79,.31,.46,0,.82-.22,1.08-.67Z"/><path class="cls-1" d="M32.13,23.72c-.32-.31-.48-.69-.48-1.12,0-.28,.08-.55,.23-.8,.15-.25,.35-.44,.6-.59s.51-.21,.79-.21,.55,.07,.8,.21,.45,.34,.6,.59c.15,.25,.23,.52,.23,.81,0,.43-.16,.8-.48,1.11-.32,.31-.7,.47-1.15,.47s-.82-.16-1.14-.47Zm1.64-.63c.13-.13,.2-.29,.2-.48s-.07-.36-.2-.5c-.14-.14-.3-.21-.48-.21s-.35,.07-.48,.21-.2,.3-.2,.49,.07,.35,.2,.48c.13,.13,.3,.2,.49,.2s.36-.07,.49-.2Z"/></g></svg>