<?xml version="1.0" encoding="UTF-8"?><svg id="Layer_1" xmlns="http://www.w3.org/2000/svg" viewBox="0 0 50 50"><defs><style>.cls-1{fill:#0054a6;}</style></defs><path class="cls-1" d="M15.41,42.9c-1.9,0-3.72-.66-5.2-1.89-1.67-1.39-2.7-3.35-2.9-5.52-.12-1.28,.07-2.55,.53-3.71l3.93-15.15c.42-1.6,1.26-2.87,2.39-3.71,0-.05,.01-.1,.02-.14l.65-2.51c.51-1.95,1.94-3.17,3.74-3.17,2.11,0,3.82,1.49,3.83,3.31v3.28s0,.05,0,.08c.77,.85,1.23,1.92,1.23,3.08v1.03c.81-.41,1.89-.42,2.7-.02v-1.01c0-1.16,.46-2.22,1.23-3.08,0-.03,0-.05,0-.08v-3.28c0-1.83,1.72-3.31,3.83-3.31,1.8,0,3.23,1.21,3.74,3.17l.65,2.51s.02,.1,.02,.14c1.13,.84,1.97,2.11,2.39,3.71l3.87,14.89c.34,.78,.55,1.62,.63,2.5,.41,4.47-2.9,8.44-7.37,8.84-2.16,.2-4.28-.46-5.95-1.85-1.67-1.39-2.7-3.35-2.89-5.52-.01-.13-.02-.26-.03-.39-.86,.47-2.03,.47-2.89,0-.17,4.01-3.29,7.39-7.4,7.76-.25,.02-.5,.03-.75,.03Zm-6.18-9.71c-.17,.69-.23,1.42-.17,2.15,.15,1.7,.96,3.24,2.27,4.33,1.31,1.09,2.97,1.61,4.67,1.46,3.51-.32,6.11-3.43,5.79-6.94-.15-1.7-.96-3.24-2.27-4.33-1.31-1.09-2.97-1.61-4.67-1.46h0c-1.7,.15-3.24,.96-4.33,2.27-.42,.51-.76,1.07-1.01,1.67l-.15,.57c-.03,.11-.07,.2-.14,.29Zm25.37-4.82c-.2,0-.39,0-.59,.03h0c-1.7,.15-3.24,.96-4.33,2.27-1.09,1.31-1.61,2.97-1.45,4.67,.15,1.7,.96,3.24,2.27,4.33,1.31,1.09,2.97,1.61,4.67,1.46,3.51-.32,6.11-3.43,5.79-6.94-.03-.31-.08-.62-.15-.92-.09-.1-.15-.22-.19-.36l-.21-.79c-.39-.86-.98-1.63-1.73-2.26-1.16-.97-2.59-1.48-4.08-1.48Zm-9.59,2.81c-.7,0-1.28,.57-1.28,1.28s.57,1.27,1.28,1.27,1.27-.57,1.27-1.27-.57-1.28-1.27-1.28Zm7.27-17.64c-2.31,0-4.19,1.49-4.19,3.32l-.02,13.03c.09-.11,.17-.23,.27-.34,1.39-1.67,3.35-2.7,5.52-2.89,1.99-.19,3.94,.36,5.54,1.53l-2.88-11.11c-.21-.83-1.16-3.54-4.22-3.54ZM15.44,26.62c1.9,0,3.72,.66,5.2,1.89,.48,.4,.9,.84,1.27,1.32l-.02-12.97c0-1.83-1.88-3.32-4.19-3.32-3.06,0-4.01,2.71-4.22,3.54l-2.89,11.14c1.19-.88,2.6-1.43,4.11-1.56,.25-.02,.5-.03,.75-.03Zm8.2-5.65l.02,8.78c.8-.4,1.85-.41,2.66-.02l.02-8.85c-.03-.09-.05-.19-.05-.3,0-.7-.57-1.27-1.27-1.27s-1.28,.57-1.28,1.27c0,.14-.03,.27-.09,.39Zm10.29,6.56h0Zm-19.16,0h0ZM31.39,8.85c-1.12,0-2.07,.72-2.07,1.57v2.05c1.29-.64,2.99-.86,4.44-.5l-.33-1.26c-.18-.69-.69-1.86-2.04-1.86Zm-13.7,2.94c1.08,0,2.09,.25,2.96,.68v-2.05c0-.85-.96-1.57-2.08-1.57-1.36,0-1.86,1.16-2.04,1.86l-.33,1.26c.47-.12,.97-.18,1.48-.18Zm2.27,23.44c-.45,0-.83-.34-.87-.8-.09-.98-.55-1.86-1.31-2.49s-1.71-.92-2.69-.84c-.49,.05-.91-.31-.95-.79-.04-.48,.31-.91,.79-.95,1.44-.14,2.85,.31,3.97,1.24,1.11,.93,1.8,2.24,1.93,3.68,.04,.48-.31,.91-.79,.95-.03,0-.05,0-.08,0Zm19.16,0c-.45,0-.83-.34-.87-.8-.18-2.02-1.97-3.5-3.99-3.33-.48,.05-.91-.31-.95-.79-.04-.48,.31-.91,.79-.95,2.98-.29,5.62,1.93,5.9,4.91,.04,.48-.31,.91-.79,.95-.03,0-.05,0-.08,0Z"/></svg>