<?xml version="1.0" encoding="UTF-8"?><svg id="Layer_1" xmlns="http://www.w3.org/2000/svg" viewBox="0 0 50 50"><defs><style>.cls-1{fill:#0054a6;}</style></defs><path class="cls-1" d="M34.48,44.69c-.07,.11-.28,.16-.41,.18-1.46,.27-2.02-1.11-2.07-1.23l-3-6.48c-.03-.07-.08-.14-.13-.2l-6.17-6.86s-.04-.04-.07-.07c-.4-.35-.87-1.48-.82-1.95l1.42-11.02c.08-.82,.76-1.44,1.58-1.44,.05,0,.11,0,.16,0,.84,.08,1.45,.35,1.81,.81,.42,.53,.57,1.36,.44,2.42l-1.66,9.08c-.04,.24,.03,.49,.19,.68l5.63,6.31s.04,.05,.07,.07c.23,.21,.4,.47,.49,.81l2.26,7.03,.06,.22c.15,.55,.38,1.37,.21,1.64m-1-9.35c-.16-.58-.48-1.11-.93-1.52l-5.35-5.98,1.6-8.74c.19-1.55-.07-2.78-.77-3.66-.64-.8-1.62-1.27-2.9-1.4-1.77-.17-3.31,1.12-3.48,2.84l-1.42,11.02c-.09,.97,.55,2.58,1.31,3.28l6.06,6.75,2.92,6.31c.03,.09,.85,2.25,3.14,2.25,.22,0,.45-.02,.68-.07,.68-.12,1.17-.43,1.47-.9,.54-.86,.24-1.95-.03-2.91l-2.32-7.28Z"/><path class="cls-1" d="M24,35.16c-.39-.21-.87-.06-1.08,.33l-1.38,2.57-4.52,5.63s-1.17,1.45-2.03,.83c-.53-.38-.63-.85-.33-1.33l4.88-6.52c.05-.06,.08-.13,.11-.2l1.26-3.44c.15-.41-.06-.87-.47-1.02-.41-.15-.87,.06-1.02,.47l-1.22,3.33-4.85,6.48c-.6,.96-.77,2.46,.72,3.53,.46,.33,.94,.47,1.39,.47,1.21,0,2.3-.93,2.82-1.59l4.56-5.69s.06-.08,.08-.12l1.41-2.64c.21-.39,.06-.87-.33-1.08"/><path class="cls-1" d="M37.08,27.03c-.08-.91-.84-1.65-1.61-2.29l-4.05-3.79-.95-.91c-.32-.3-.82-.29-1.13,.03-.3,.32-.29,.82,.03,1.13l5.05,4.74c.69,.57,1.05,.98,1.07,1.23,0,.02,0,.1-.12,.25-.45,.52-.99,.2-1.23,.02l-4.36-3.16c-.36-.26-.86-.18-1.11,.18-.26,.36-.18,.85,.18,1.11l4.33,3.14c.4,.31,1.01,.58,1.66,.58,.59,0,1.22-.22,1.74-.84,.47-.55,.53-1.08,.5-1.43"/><path class="cls-1" d="M25.13,5.41c.39-.21,.81-.32,1.26-.32,1.15,0,2.28,.72,2.89,1.83,.88,1.61,.44,3.54-.96,4.31-.38,.21-.81,.32-1.26,.32-1.15,0-2.28-.72-2.89-1.83-.88-1.61-.44-3.54,.96-4.31m1.93,7.73c.72,0,1.4-.17,2.02-.51,2.18-1.19,2.9-4.09,1.6-6.47-.9-1.64-2.54-2.66-4.29-2.66-.72,0-1.4,.17-2.02,.51-2.18,1.19-2.9,4.09-1.6,6.47,.9,1.64,2.54,2.66,4.29,2.66"/></svg>