<?xml version="1.0" encoding="UTF-8"?><svg id="Layer_1" xmlns="http://www.w3.org/2000/svg" viewBox="0 0 50 50"><defs><style>.cls-1{fill:#0054a6;}</style></defs><path class="cls-1" d="M42.28,42.47H7.72v-1.71c.73-1.34,2.11-2.17,3.65-2.17,1.05,0,2.05,.39,2.82,1.11,.33,.31,.84,.31,1.17,0,.77-.72,1.77-1.11,2.82-1.11s2.05,.39,2.82,1.11c.33,.31,.84,.31,1.17,0,.77-.72,1.77-1.11,2.82-1.11s2.05,.39,2.82,1.11c.33,.31,.84,.31,1.17,0,.77-.72,1.77-1.11,2.82-1.11s2.05,.39,2.82,1.11c.33,.31,.84,.31,1.17,0,.77-.72,1.77-1.11,2.82-1.11,1.54,0,2.92,.83,3.65,2.17v1.71Zm-31.57-7.65h8.09c.47,0,.86-.38,.86-.86s-.38-.86-.86-.86H10.71v-2.33h28.58v6.14c-.22-.02-.44-.04-.66-.04-1.23,0-2.42,.38-3.41,1.09-.99-.71-2.18-1.09-3.41-1.09s-2.42,.38-3.41,1.09c-.99-.71-2.18-1.09-3.41-1.09s-2.42,.38-3.41,1.09c-.99-.71-2.18-1.09-3.41-1.09s-2.42,.38-3.41,1.09c-.99-.71-2.18-1.09-3.41-1.09-.22,0-.44,.02-.66,.04v-2.09Zm-1.07-7.16c.64-1.16,1.84-1.87,3.17-1.87,.92,0,1.79,.34,2.46,.97,.33,.31,.84,.31,1.17,0,.67-.62,1.55-.97,2.46-.97s1.79,.34,2.46,.97c.33,.31,.84,.31,1.17,0,.67-.62,1.55-.97,2.46-.97s1.79,.34,2.46,.97c.33,.31,.84,.31,1.17,0,.67-.62,1.55-.97,2.46-.97s1.79,.34,2.46,.97c.33,.31,.84,.31,1.17,0,.67-.62,1.55-.97,2.46-.97,1.34,0,2.53,.71,3.17,1.87v1.39H9.64v-1.39Zm5.95-5.54h6.4c.47,0,.86-.38,.86-.86s-.38-.86-.86-.86h-6.4v-2.14h18.83v6.58c-.09,.06-.18,.11-.27,.17-.89-.62-1.95-.96-3.05-.96s-2.16,.34-3.05,.96c-.89-.62-1.95-.96-3.05-.96s-2.16,.33-3.05,.96c-.89-.62-1.95-.96-3.05-.96s-2.16,.33-3.05,.96c-.09-.06-.18-.12-.27-.17v-2.73Zm-1.65-6.67c.77-1.43,2.25-2.32,3.89-2.32,1.11,0,2.18,.42,3,1.18,.33,.31,.84,.31,1.17,0,.82-.76,1.89-1.18,3-1.18s2.18,.42,3,1.18c.33,.31,.84,.31,1.17,0,.82-.76,1.89-1.18,3-1.18,1.64,0,3.11,.88,3.89,2.32v1.1H13.94v-1.1Zm8.37-7.05c.78-.57,1.72-.87,2.7-.87s1.92,.31,2.7,.87l-1.4,3.16c-.42-.09-.86-.14-1.3-.14s-.87,.05-1.3,.14l-1.4-3.16Zm21.61,31.78c-.63-1.28-1.66-2.26-2.91-2.81v-6.6h.22c.47,0,.86-.38,.86-.86v-2.46c0-.13-.03-.26-.09-.38-.9-1.85-2.74-3.01-4.81-3.01-.36,0-.71,.04-1.06,.11v-5.91h.79c.47,0,.86-.38,.86-.86v-2.17c0-.13-.03-.26-.09-.38-1.04-2.13-3.15-3.45-5.52-3.45-1.3,0-2.55,.41-3.59,1.16-.22-.16-.44-.29-.68-.42l1.62-3.66c.15-.33,.07-.72-.2-.97-1.18-1.11-2.72-1.72-4.34-1.72s-3.16,.61-4.34,1.72c-.27,.25-.35,.64-.2,.97l1.62,3.66c-.23,.13-.46,.26-.68,.42-1.04-.75-2.29-1.16-3.59-1.16-2.37,0-4.48,1.32-5.52,3.45-.06,.12-.09,.25-.09,.38v2.17c0,.47,.39,.86,.86,.86h.79v5.91c-.35-.07-.7-.11-1.06-.11-2.06,0-3.9,1.15-4.81,3.01-.06,.12-.09,.25-.09,.38v2.46c0,.48,.38,.86,.86,.86h.21v6.6c-1.25,.55-2.28,1.52-2.91,2.81-.06,.12-.09,.25-.09,.38v2.78c0,.47,.38,.86,.86,.86H43.14c.47,0,.86-.38,.86-.86v-2.78c0-.13-.03-.26-.09-.38"/></svg>