<?xml version="1.0" encoding="UTF-8"?><svg id="Layer_2" xmlns="http://www.w3.org/2000/svg" viewBox="0 0 959.43 733.95"><defs><style>.cls-1{opacity:.2;}.cls-1,.cls-2{fill:#0054a6;}</style></defs><g id="Layer_1-2"><g><path class="cls-2" d="M199.44,112.77C90.62,121.81,0,136.38,0,157.46c4.93,1.3,4.93-.57,2.27,3.68,2.93,.69,5.88,1.32,8.81,2-4.89-5.13,.91-2-1.59,1.86,0-21.44,85.78-39.69,189.95-52.22Zm557.3,.03c105.54,12.72,192.63,31.17,192.63,52.19,.94-2.97-4.97-4.44-.39,.91,3.01-.68,6.02-1.33,9.03-2.03-2.08-3.46-.75-1.38,1.38-6.42,0-20.69-92.24-35.45-202.66-44.65Z"/><path class="cls-2" d="M771.64,268.93c6.77-11.46,16.68-23.81,38.92-28.53,3.2-.34,6.38-.69,9.53-1.04,3.14-.35,6.25-.7,9.33-1.06,3.07-.36,6.11-.72,9.12-1.09,3-.37,5.98-.73,8.92-1.11l1-34.84,.62-21.7c23.68-.66,25.61-.72,32.79,4.87l.5,.46c6,7.28,11.66,14.16,11.67,29.73l-1,30.81,2.3-3.62,.16-.24c7.49-9.1,11.93-12.93,21.94-16.24,.02,0,.04,0,.04,0,0,0,.05,0,.07-.01,0,0,.04,0,.06,0,.02,0,.04,0,.05,0l1.84-53.72c2.24-.36,4.45-.72,6.63-1.09,2.17-.36,4.31-.73,6.41-1.1,2.1-.37,4.17-.74,6.21-1.11,2.03-.37,4.03-.75,6-1.12,.85-.16,1.7-.32,2.54-.49,.84-.17,1.67-.33,2.51-.49,.83-.17,1.65-.33,2.46-.5,.81-.16,1.62-.33,2.42-.5l-5.92,160.37c-2.25,31.09-16.71,47.25-28.41,51.64-.68,.19-1.37,.38-2.05,.57-.69,.19-1.38,.37-2.07,.56-.7,.19-1.39,.37-2.09,.56-.7,.19-1.41,.38-2.12,.56-8.83,1.04-11.03,.33-19.62-6.32l-.38-.34-2.96-3.73-.52,16.15c-3.53,.81-7.13,1.6-10.78,2.39-3.67,.79-7.4,1.57-11.2,2.34-3.81,.77-7.68,1.53-11.61,2.29-3.94,.75-7.95,1.49-12.02,2.22l2.25-78.4c-2.04,.31-4.09,.63-6.16,.93-2.07,.31-4.15,.62-6.26,.92-2.1,.3-4.22,.6-6.36,.9-2.13,.3-4.28,.6-6.45,.89l-2.11,78.98c-4.34,.69-8.74,1.36-13.19,2.03-4.47,.67-8.99,1.32-13.57,1.95-4.59,.64-9.24,1.27-13.95,1.88-4.71,.61-9.48,1.21-14.3,1.8l.35-15.87-2.78,3.26-.46,.52c-9.41,8.65-17.32,13.76-32.08,15.99-1.18,.12-2.36,.24-3.55,.36-1.18,.12-2.37,.24-3.56,.35-1.19,.12-2.38,.23-3.58,.35-1.2,.12-2.4,.24-3.6,.34-12.15,.14-25.2-1.12-39.34-17.79q-3.98,2.04-10.08,8.45l-.9,.9c-15.27,11.84-24.94,13.69-36.02,14.88-11.66,.65-23.48,1.22-35.45,1.72-11.99,.49-24.12,.91-36.38,1.25-12.27,.33-24.66,.59-37.16,.76-12.51,.17-25.11,.25-37.8,.25-18.54,0-36.9-.19-55.03-.55-18.11-.36-35.96-.9-53.52-1.61-17.51-.71-34.72-1.58-51.57-2.61-16.79-1.03-33.21-2.2-49.22-3.54-21.34-3.05-32.39-13.99-40.38-24.28-12.44,11.34-19.28,17.59-39.06,16.07-1.08-.13-2.16-.27-3.24-.4-1.08-.14-2.15-.28-3.22-.41-1.07-.14-2.14-.28-3.2-.42-1.06-.14-2.12-.28-3.18-.42-8.27-1.85-17.64-3.95-29.98-18.88l-.2-.28c-10.75-16.03-11.55-25.07-12.4-34.63l-.85-31.18c-1.97-.27-3.94-.55-5.89-.83-1.95-.28-3.88-.56-5.81-.85-1.92-.28-3.83-.57-5.73-.86-1.89-.29-3.77-.58-5.64-.87l2.27,78.31c-4.03-.73-7.99-1.48-11.9-2.24-3.9-.75-7.73-1.52-11.49-2.29-3.76-.77-7.45-1.56-11.08-2.36-3.62-.79-7.18-1.59-10.67-2.41l-.47-14.34c-3.75,3.91-10.74,11.19-21.98,8.75-3.15-.84-6.24-1.69-9.27-2.55-3.02-.85-5.96-1.71-8.84-2.58-2.87-.87-5.68-1.74-8.42-2.62-2.73-.88-5.39-1.77-7.99-2.66L4.93,164.89c2.63,.55,5.32,1.1,8.08,1.64,2.77,.55,5.61,1.08,8.52,1.62,2.92,.54,5.9,1.07,8.95,1.6,3.06,.53,6.19,1.05,9.39,1.57,21.74,6.84,32.85,31.13,33.97,50.82l.71,22.39c9.05-9.03,14.78-10.41,25-10.24,3.97,.54,8,1.08,12.1,1.6,4.11,.53,8.27,1.05,12.51,1.56,4.24,.51,8.54,1.01,12.91,1.51,4.38,.49,8.81,.98,13.3,1.46l.24,9.43c9.25-5.32,13.96-6.96,25.42-6.86,1.03,.1,2.06,.2,3.09,.29,1.03,.1,2.07,.19,3.11,.29,1.04,.1,2.08,.19,3.13,.29,1.04,.09,2.09,.18,3.14,.28,7.96,1.28,26.61,4.28,41.57,29.09q7.3-11.43,13-16.44l1.04-.82c7.9-3.97,13.78-6.35,34.45-5.4,14.01,.78,28.32,1.48,42.9,2.1,14.62,.62,29.51,1.16,44.62,1.61,15.15,.45,30.53,.81,46.1,1.08,15.59,.27,31.37,.45,47.3,.53,17.48,.75,27.68,4.06,40.41,13.15l.02-17.98c39.06,7.56,41.39,8.02,54.53,16.79l3.33,2.82,.13-20.5c38.38,7.06,39.12,7.2,52.66,15.96l3.64,3.16,.22-20.6c37.07,6.47,40.1,7,50.74,13.26l.91,.63c2.23,2.1,5.05,5.06,6.99,7.43q4.31-.35,9.99-6.12l.27-.25c14.48-11.78,24.96-14,34.43-15.26,1.17-.08,2.33-.16,3.49-.24,1.16-.08,2.31-.16,3.47-.24,1.15-.08,2.31-.16,3.46-.24,1.15-.08,2.29-.17,3.44-.25,6.89-.02,27.86-.07,40.03,21.54m70.63-98.87l-.29,10.25-1.33,47.1c-2.4,.29-4.83,.57-7.27,.86-2.45,.29-4.92,.56-7.4,.84-2.49,.28-5,.55-7.53,.83-2.53,.27-5.08,.54-7.66,.81-15.84,2.7-29.86,11.19-41.05,20.84-8.71-7.8-19.35-14.9-37.96-14.01-1.14,.08-2.29,.16-3.44,.24-1.15,.08-2.3,.16-3.46,.24-1.15,.08-2.31,.16-3.47,.24-1.16,.07-2.33,.15-3.49,.23-6.43,.83-23.51,3.04-40.16,17.56l-.4,.36-4.14-.91-1.24-1.1c-5.97-3.72-12.75-7.92-30.23-11.15l-37.23-6.58-.14,14.29c-6.84-2.88-10.39-4.21-17.96-5.8l-38.86-7.22-.08,14.36c-6.93-2.86-10.51-4.18-18.16-5.86l-40.1-7.78v12.75c-6.79-2.38-15.23-5.35-29.78-5.59-15.94-.08-31.73-.26-47.33-.52-15.58-.27-30.97-.62-46.13-1.06-15.13-.44-30.02-.96-44.65-1.57-14.59-.6-28.9-1.29-42.92-2.05-21.85-.95-27.67,1.22-37.75,5.81l-1.7,.96c-2.34,1.95-5.33,4.71-7.46,6.88-11.15-12.03-26.61-18.08-43.23-19.92-1.05-.09-2.1-.18-3.14-.27-1.04-.09-2.09-.18-3.13-.28-1.04-.09-2.08-.18-3.11-.28-1.04-.1-2.07-.19-3.1-.28-5.47-.16-9.8-.29-17.85,2.27l-.1-3.99c-5.22-.52-10.36-1.05-15.42-1.6-5.05-.55-10.02-1.1-14.91-1.67-4.87-.56-9.67-1.14-14.39-1.72-4.7-.59-9.32-1.18-13.86-1.79-7.12-.3-10.38-.44-18.96,3.7l-.17-5.4c-2.98-37.11-23.72-56.12-40.59-61.12-3.65-.58-7.21-1.16-10.69-1.74-3.46-.59-6.83-1.18-10.12-1.77-3.28-.6-6.46-1.2-9.56-1.8-3.08-.6-6.08-1.21-8.99-1.82l8.25,221.01c2.87,1.04,5.84,2.08,8.88,3.1,3.06,1.03,6.21,2.05,9.44,3.06,3.24,1.01,6.57,2.02,10,3.01,3.43,1,6.94,1.99,10.54,2.96,4.66,.61,9.48,1.23,16.35-2.18l.21,6.45c4.38,1.07,8.87,2.13,13.47,3.17,4.61,1.04,9.33,2.07,14.15,3.08,4.84,1.01,9.78,2.01,14.83,2.99,5.07,.98,10.23,1.94,15.49,2.89l-2.22-78.34c.72,.11,1.45,.22,2.18,.33,.73,.11,1.46,.22,2.19,.34,.73,.11,1.47,.22,2.21,.33,.73,.11,1.47,.22,2.22,.33l.6,21.66c1.09,16.16,4.69,26.56,14.28,41.19l.3,.41c11.39,14.01,20.35,19.74,35.48,22.7,1.06,.15,2.12,.29,3.19,.43,1.06,.14,2.13,.29,3.2,.43,1.07,.14,2.14,.28,3.22,.42,1.08,.14,2.16,.28,3.24,.41,15.63,1.22,24.95-1.45,36.92-10.58,15.05,4.28,26.52,16.61,42.44,18.92,16,1.35,32.41,2.56,49.19,3.6,16.84,1.05,34.03,1.93,51.53,2.65,17.55,.72,35.39,1.27,53.48,1.63,18.12,.37,36.46,.56,54.99,.56,12.68,0,25.27-.09,37.77-.27,12.49-.17,24.87-.43,37.13-.77,12.25-.34,24.37-.77,36.35-1.27,11.96-.5,23.78-1.08,35.43-1.75,8.64-.93,23.11-2.49,40.54-16.3l1.43-1.16,3.36-3.65c13.3,11.45,24.01,15.27,40.93,14.58,1.2-.11,2.4-.23,3.6-.35,1.19-.12,2.39-.23,3.58-.35,1.19-.12,2.38-.24,3.56-.36,1.18-.12,2.37-.24,3.55-.37,6.61-1.04,14.82-2.34,26.82-10.21l-.15,7.25c6.27-.75,12.46-1.51,18.56-2.31,6.08-.79,12.06-1.6,17.96-2.44,5.87-.83,11.66-1.69,17.34-2.56,5.67-.87,11.24-1.77,16.72-2.69l2.15-78.67c.91-.13,1.82-.27,2.74-.4,.91-.13,1.81-.26,2.71-.4,.9-.13,1.8-.27,2.7-.4,.9-.14,1.79-.27,2.68-.41l-2.2,78.43c5.31-.94,10.52-1.89,15.63-2.87,5.09-.97,10.08-1.96,14.96-2.96,4.87-1.01,9.63-2.03,14.3-3.07,4.64-1.03,9.18-2.08,13.61-3.15l.24-7.24c5.31,2.45,9.9,4.57,17.29,2.79,.71-.19,1.41-.38,2.12-.57,.7-.19,1.4-.38,2.1-.57,.7-.19,1.38-.38,2.08-.57,.69-.19,1.37-.39,2.05-.58,27.66-11.9,32.34-50.49,33.12-62.04l6.29-169.06c-3.29,.69-6.7,1.37-10.23,2.05-3.54,.68-7.19,1.35-10.95,2.01-3.78,.67-7.66,1.32-11.67,1.98-4.02,.66-8.14,1.31-12.38,1.94l-1.85,54.72c-3.7,1.89-7.52,3.85-12.75,8.59l.42-12.69c-.29-10.53-.6-21.42-12.77-35.87l-.65-.75-.2-.22c-7.11-5.52-9.71-6.76-21.13-7.27l-23.02,.51"/><path class="cls-2" d="M863.09,199.49l-5.15,172.52c1.55-.29,3.09-.58,4.63-.87,1.53-.29,3.05-.59,4.56-.88,1.51-.3,3.01-.59,4.5-.89,1.49-.29,2.97-.59,4.43-.89l4.75-151.88c0-.17-.55-17.26-17.72-17.1"/><path class="cls-2" d="M274.7,378.31c-5.59-.72-9.36-4.86-9.84-10.81l-.51-29.82c.3-5.87,3.95-9.45,9.51-9.36h.03c1.31,.09,2.62,.18,3.94,.27,1.32,.09,2.64,.18,3.96,.27,1.32,.09,2.64,.17,3.97,.25,1.33,.09,2.66,.17,3.99,.26l.75,50.1c-1.33-.09-2.65-.18-3.98-.28-1.32-.1-2.64-.19-3.96-.29-1.31-.09-2.62-.19-3.94-.29-1.31-.1-2.62-.2-3.92-.29m40.25-104.92c-3.06-.15-6.11-.29-9.14-.44-3.03-.15-6.05-.3-9.06-.46-3-.16-6-.32-8.98-.49-2.97-.17-5.94-.34-8.89-.51-20.2-1.1-27.12,.62-31.08,13.44,3.33,.24,6.69,.48,10.07,.71,3.38,.23,6.78,.45,10.2,.68,3.42,.22,6.86,.44,10.32,.64,3.46,.21,6.94,.42,10.44,.62l.38,25.63c-1.64-.1-3.28-.2-4.91-.3-1.63-.1-3.27-.21-4.89-.31-1.62-.11-3.24-.21-4.86-.32-1.62-.11-3.23-.22-4.84-.33-13.58-.54-30.19,9.62-30.46,23.04l.55,29.18c.88,15.35,16.72,27.43,30.95,29.07,4.77,.38,9.57,.75,14.41,1.1,4.84,.36,9.72,.7,14.63,1.03,4.92,.33,9.88,.65,14.86,.96,4.99,.3,10.02,.6,15.07,.87l-.18-15.38c-1.11-.06-2.21-.12-3.32-.18-1.1-.06-2.2-.12-3.3-.18-1.1-.06-2.2-.13-3.29-.19-1.1-.06-2.19-.13-3.29-.19l-1.39-107.72"/><path class="cls-2" d="M134.94,258.98c-3.03-.37-6.03-.74-9-1.11-2.96-.37-5.89-.75-8.8-1.14-2.89-.38-5.76-.77-8.6-1.16-2.83-.39-5.63-.78-8.4-1.18-8.59-.83-21.33,4.43-21.27,22.35l2.87,91.1c1.45,.3,2.91,.61,4.38,.9,1.47,.3,2.96,.6,4.45,.9,1.5,.3,3,.6,4.52,.89,1.52,.29,3.04,.58,4.58,.88l-2.79-92.79h.01c.03-5.61,2.55-9.02,6.56-8.89,.98,.15,1.97,.29,2.96,.43,.99,.15,1.99,.29,2.98,.43,1,.15,2,.29,3.01,.43,1.01,.14,2.02,.28,3.04,.42l.7,24.71c1.62,.24,3.24,.47,4.87,.7,1.63,.23,3.28,.47,4.93,.7,1.66,.23,3.32,.46,4.99,.69,1.67,.23,3.36,.45,5.05,.68l-1.08-39.93"/><path class="cls-2" d="M846.13,256.41c-2.88,.38-5.8,.76-8.74,1.14-2.95,.37-5.93,.75-8.93,1.12-3.01,.37-6.06,.73-9.13,1.09-3.08,.36-6.18,.72-9.32,1.07-9.98,1.53-26.22,10.84-27.3,29.3l-2.23,93.85c1.86-.24,3.71-.48,5.56-.72,1.84-.24,3.68-.49,5.51-.73,1.82-.25,3.64-.49,5.44-.74,1.8-.25,3.6-.5,5.38-.75l2.41-94.5c.39-5.7,3.6-10,8.15-10.96,1.09-.13,2.18-.26,3.27-.39,1.09-.13,2.17-.26,3.24-.39,1.08-.13,2.15-.27,3.22-.4,1.06-.13,2.13-.27,3.19-.4l-.67,24.85c1.69-.23,3.37-.45,5.04-.68,1.67-.23,3.33-.46,4.99-.69,1.65-.23,3.29-.46,4.92-.7,1.62-.23,3.25-.47,4.86-.7l1.14-39.69"/><path class="cls-2" d="M34.62,342.41l-4.85-138.05c.74,.15,1.49,.29,2.25,.43,.75,.15,1.51,.29,2.28,.43,.76,.15,1.53,.29,2.3,.43,.77,.14,1.55,.28,2.33,.43,4.84,1.7,5.92,7.53,6.13,10.85,0,0,0,0,0,0h.01l4.07,119.65h0s0,0,0,0h0c.02,5.42-2.14,8.72-5.37,8.2-.78-.2-1.55-.4-2.32-.6-.77-.19-1.54-.39-2.3-.59-.76-.2-1.52-.4-2.27-.6-.75-.2-1.5-.4-2.25-.6m5.93-151.28c-2.22-.38-4.42-.77-6.58-1.16-2.15-.39-4.28-.78-6.37-1.17-2.09-.39-4.14-.78-6.16-1.18-2.02-.4-4-.8-5.95-1.19l6.02,166.29c1.94,.59,3.9,1.18,5.89,1.76,2,.58,4.04,1.17,6.1,1.75,2.07,.58,4.17,1.15,6.31,1.73,2.14,.57,4.31,1.14,6.51,1.71,8.79,1.76,18.57-6.63,18.51-20.5l-3.9-119.09c-1.03-16.73-13.63-27.58-20.39-28.96"/><path class="cls-2" d="M172.42,313.16l-.61-24.78c.13-5.86,3.24-9.42,8.13-9.29,.47,.04,.93,.09,1.4,.14,.46,.04,.93,.09,1.4,.14,.47,.05,.93,.1,1.4,.14,.47,.05,.94,.09,1.41,.14v.02c5.02,.79,8.52,5.13,8.94,11.05l.56,24.88c-1.92-.2-3.84-.4-5.74-.6-1.9-.2-3.8-.4-5.69-.61-1.89-.2-3.76-.41-5.63-.61-1.87-.21-3.72-.42-5.57-.63m16.56-48.42c-1.05-.1-2.1-.2-3.14-.3-1.04-.1-2.08-.2-3.12-.3-1.04-.1-2.07-.2-3.1-.3-1.03-.1-2.06-.2-3.09-.3-15.03-.89-26.04,8.98-26.18,23.48l1.7,65.33c.72,13.43,10.75,28.84,26.29,31.38,1.06,.14,2.12,.28,3.18,.41,1.06,.14,2.13,.27,3.21,.41,1.07,.13,2.15,.26,3.22,.39,1.08,.13,2.16,.27,3.24,.4,15.68,1.51,28.01-8.64,28.07-23.1l-.18-8.62c-1.97-.19-3.93-.39-5.88-.59-1.95-.2-3.89-.4-5.83-.6-1.94-.2-3.86-.41-5.78-.61-1.92-.2-3.83-.41-5.73-.62l.22,9.62c-.13,5.82-3.42,9.37-8.4,9.07-.46-.05-.92-.1-1.38-.16-.46-.06-.92-.11-1.38-.17-.46-.05-.92-.11-1.37-.16-.46-.06-.92-.11-1.37-.17-4.93-.9-8.24-5.13-8.66-11.04l-.71-29.27c3.68,.43,7.39,.86,11.13,1.28,3.75,.42,7.54,.83,11.36,1.23,3.83,.4,7.69,.8,11.58,1.19,3.9,.39,7.83,.77,11.8,1.15l-.81-39.18c-.77-14.35-14.26-28.32-28.88-29.87"/><path class="cls-2" d="M719.15,375.56c-7.12,.26-9.03-5.91-9.17-8.31-.08-1.33,1.2-71.39,1.23-71.88,.06-1.09,.23-4.42,2.93-7.5,2.61-2.98,5.49-3.35,6.71-3.51h.02s0,0,0,0c.53-.04,1.07-.08,1.6-.12,.53-.04,1.06-.08,1.6-.12,.53-.04,1.06-.08,1.6-.12,.53-.04,1.06-.08,1.58-.12,5.16,.11,8.48,3.75,8.69,9.49l-1.42,70.67c-.4,5.87-3.94,10.06-9.21,10.96-.51,.05-1.02,.1-1.53,.14-.51,.05-1.02,.1-1.53,.14-.51,.05-1.03,.1-1.54,.14-.52,.05-1.03,.1-1.54,.14m12.05-107.37c-1.15,.08-2.29,.17-3.43,.26-1.15,.08-2.3,.17-3.45,.26-1.15,.08-2.31,.17-3.47,.25-1.15,.08-2.32,.17-3.48,.25-14.5,1.56-30.42,12.24-31.35,28.99l-1.08,66.94c.22,15.3,13.23,27.01,28.99,26.08,1.21-.11,2.41-.22,3.6-.34,1.2-.11,2.4-.22,3.59-.33,1.19-.11,2.38-.23,3.57-.34,1.19-.11,2.37-.23,3.55-.34,16.27-2.06,29.06-14.67,29.74-29.33l1.48-67.4c-.17-15.99-14.75-25.81-28.26-24.94"/><path class="cls-2" d="M915.61,345.16c-3.32,.53-5.45-2.7-5.44-8.22l2.27-66.95c.39-5.63,2.71-9.81,6.05-10.91,.79-.16,1.58-.33,2.36-.49,.79-.16,1.56-.33,2.34-.49,.77-.17,1.55-.33,2.31-.5,.76-.17,1.52-.34,2.28-.5l-2.67,76.13c-.36,5.67-2.6,9.88-5.85,11-.3,.08-.61,.15-.91,.23-.3,.08-.61,.15-.91,.23-.3,.08-.61,.16-.91,.23-.31,.08-.61,.15-.92,.23m28.4-158.47c-1.11,.22-2.23,.45-3.36,.67-1.13,.22-2.27,.44-3.43,.67-1.15,.22-2.32,.45-3.49,.67-1.18,.22-2.36,.44-3.56,.66l-1.87,53.25c-.94,.2-1.88,.4-2.82,.6-.95,.2-1.9,.4-2.87,.59-.96,.2-1.93,.39-2.9,.59-.98,.19-1.96,.39-2.95,.59-9.24,2.33-19.35,13.87-20.26,29.17l-2.09,64.12c-.13,15.38,9.33,23.72,18.26,21.87,.71-.18,1.41-.35,2.12-.54,.7-.18,1.4-.36,2.09-.54,.7-.18,1.39-.36,2.08-.54,.69-.18,1.37-.37,2.05-.55,9.09-2.96,17.12-16.19,17.9-29.49l5.12-141.77"/><path class="cls-2" d="M459.51,277.09c-10.23-.06-20.39-.15-30.48-.3-10.08-.14-20.1-.32-30.03-.54-9.92-.22-19.76-.48-29.5-.77-9.73-.3-19.36-.63-28.9-1l.17,15.63c.9,.04,1.81,.07,2.71,.11,.9,.04,1.81,.08,2.72,.11,.91,.03,1.81,.07,2.73,.1,.91,.04,1.82,.07,2.73,.1l1.09,107.85c2.28,.1,4.56,.2,6.85,.31,2.29,.1,4.59,.19,6.89,.29,2.3,.09,4.61,.18,6.92,.27,2.31,.09,4.63,.18,6.96,.26l-.86-108.06c2.37,.07,4.74,.13,7.12,.19,2.38,.07,4.76,.12,7.15,.18,2.39,.06,4.79,.11,7.19,.17,2.4,.05,4.8,.1,7.21,.15l.62,108.23c2.36,.06,4.73,.12,7.1,.17,2.37,.05,4.75,.1,7.13,.15,2.39,.05,4.77,.09,7.16,.14,2.39,.04,4.79,.08,7.18,.11l-.37-108.33c1.5,.02,3,.03,4.5,.05,1.5,.02,3,.03,4.5,.05,1.5,.01,3.01,.02,4.51,.04,1.51,.01,3.02,.02,4.52,.04,6.42,.37,10.72,4.33,11.22,10.35l.11,98.1c1.17,0,2.33,.01,3.5,.02,1.17,0,2.34,0,3.51,0,1.17,0,2.34,0,3.51,.01h3.52c1.3,0,2.6,0,3.9,0,1.3,0,2.6,0,3.9,0,1.3,0,2.6,0,3.89-.01,1.3,0,2.6-.01,3.89-.01q.04-100.23-1-103.74c-1.24-4.21-10.9-20.03-35.51-20.4"/><path class="cls-2" d="M635.09,273.87l-1.18,97.56c-.39,5.97-4.32,10.11-10.25,10.81-1.4,.07-2.81,.14-4.22,.21-1.41,.07-2.81,.14-4.23,.2-1.41,.06-2.82,.13-4.24,.2-1.42,.06-2.84,.13-4.26,.19l.81-81.6c-1.82-13.78-11.23-22.4-27.97-25.62l-.84,108.32c-2.29,.08-4.58,.15-6.88,.22-2.3,.07-4.6,.14-6.91,.21-2.32,.07-4.63,.13-6.95,.19-2.32,.06-4.64,.12-6.98,.18l.46-81.7c-1.93-13.88-11.71-22.67-29.08-26.15-.16,41.3-.33,82.58-.49,123.87,9.08-.13,18.09-.3,27.05-.52,8.95-.22,17.83-.48,26.64-.77,8.81-.29,17.54-.63,26.2-1.01,8.64-.37,17.2-.79,25.68-1.24,15.44-1.23,32.22-11.67,32.92-28.61l1-69.85c-.06-20.52-14.6-23.05-26.29-25.09"/><path class="cls-2" d="M692.74,249.06c-2.66-14.92-6.1-29.58-10.23-43.6-33.22,7.73-75.85,13.4-123.45,16.42,.53,6.86,.98,13.94,1.37,21.21l.08,1.52-5.81-1.08-.05-.94c-.38-6.98-.81-13.78-1.31-20.37-24.99,1.47-50.85,2.21-76.9,2.21s-50.92-.72-75.48-2.13c-.7,8.28-1.3,16.88-1.84,25.75l-.06,1.15-5.76-.13,.08-1.24c.53-8.91,1.14-17.55,1.83-25.87-49.69-3.1-93.85-9.05-127.88-17.24-4,12.85-7.39,26.25-10.09,39.86l-.16,.81-.81,.14c-1.23,.21-2.38,.47-3.48,.76l-1.85,.49,.37-1.87c2.76-14.11,6.28-28.08,10.47-41.55-7.13-1.83-13.81-3.78-19.89-5.81-8.63,15.85-15.72,32.98-21.08,50.95l-.46,1.55-1.35-.9c-1.27-.85-2.07-1.39-2.91-1.88l-.82-.48,.27-.9c5.34-17.69,12.34-34.6,20.82-50.29-8.08-2.94-14.93-6.03-20.4-9.18-7.24,16.59-13.26,34.31-17.9,52.7l-.29,1.13-1.13-.25c-1.07-.23-2.15-.47-3.26-.66l-1.27-.22,.32-1.26c4.78-19.02,11.04-37.37,18.6-54.56-5.39-3.74-9.09-7.66-11.04-11.69-11.23,20.51-20.21,42.33-26.69,64.9l-.25,.86h-.9c-1.46,0-2.9,.09-4.41,.26l-1.76,.19,.48-1.71c7.68-27.22,18.91-53.37,33.39-77.72,.74-1.66,1.68-3.22,2.82-4.61C261.99,57.54,364.52,0,476.81,0c146.55,0,274.86,99.58,312.03,242.17l.23,.89-.79,.46c-1.27,.72-2.53,1.5-3.78,2.3l-1.39,.89-.41-1.6c-6.66-25.88-16.55-50.82-29.43-74.18-1.98,4.53-6.22,8.96-12.65,13.2,8.76,20.06,15.66,41.38,20.54,63.39l.64,2.87-2.46-1.62c-1.24-.82-2.56-1.59-3.94-2.31l-.48-.26-.13-.54c-4.73-20.45-11.16-40.13-19.13-58.51-5.88,3.25-13.24,6.42-21.94,9.44,7.45,13.92,13.71,28.59,18.61,43.64l.47,1.45-5.96,.41-.29-.88c-4.89-14.81-11.07-29.19-18.39-42.74-6.16,1.96-12.9,3.86-20.09,5.64,4.1,13.95,7.51,28.39,10.15,42.94l.16,.92-.85,.39c-.72,.33-1.48,.72-2.23,1.11l-2.28,1.18-.29-1.59Zm-291.3-32.59c24.6,1.47,49.82,2.21,74.99,2.21s51.44-.77,76.47-2.3c-4.18-50.86-12.29-94.48-24.12-129.69-17.01,1.12-34.46,1.69-51.87,1.69s-35.14-.58-52.33-1.72c-10.81,35.18-18.6,78.84-23.14,129.81Zm-132.34-17.41c33.98,8.01,77.68,13.9,126.57,17.06,4.5-50.85,12.2-94.54,22.9-129.9-17.44-1.31-33.76-3.22-48.55-5.68-22.99,9.92-44.42,23.02-63.71,38.94-15.29,24.32-27.89,51.18-37.21,79.58Zm265.55-112.79c11.73,35.45,19.79,79.09,23.96,129.76,46.8-3.08,89-8.71,122.22-16.3-8.51-27.38-19.99-53.37-34.13-77.28-19.78-16.86-42.09-30.89-66.07-41.38-14.11,2.23-29.57,3.98-45.98,5.2Zm125.38,48.41c10.68,20.25,19.54,41.66,26.39,63.75,6.75-1.65,13.06-3.37,18.81-5.15-12.28-21.57-27.46-41.25-45.2-58.61Zm-415.22,57.72c5.68,1.83,11.97,3.61,18.74,5.31,7.51-22.94,17.25-45.1,29-65.99-18.78,17.8-34.82,38.17-47.74,60.68Zm413.9-66.97c20.72,19.2,38.24,41.4,52.13,66.04,9.07-3.04,16.62-6.21,22.47-9.45-7.04-15.49-15.3-30.46-24.56-44.53-13.72-4.44-30.54-8.5-50.04-12.06Zm-440.43,55.88c5.43,3.13,12.47,6.22,20.95,9.19,13.63-23.96,30.67-45.57,50.69-64.29-18.64,3.55-34.72,7.56-47.85,11.95-8.94,13.65-16.94,28.16-23.79,43.15Zm499.3-40.74c7.72,12.33,14.68,25.24,20.72,38.45,7-4.72,10.54-9.49,10.54-14.19,0-.72-.12-1.5-.36-2.45-1.31-2.12-2.79-4.53-4.29-6.91-4.86-5.05-13.85-10.1-26.61-14.9Zm-484.4,.81c-10.17,3.97-17.79,8.12-22.69,12.36-2.09,3.37-4.33,7.04-6.5,10.77,.03,4.7,3.18,9.19,9.39,13.66,5.83-12.67,12.48-25.03,19.81-36.78Zm479.31-8.73c9.23,3.15,17.05,6.51,23.32,10.01-24.41-35.06-56.2-65.39-92.31-88.04-.12,1.03-.43,2.07-.93,3.11,26.94,20.57,50.46,45.77,69.92,74.93ZM310.3,54.48c-35.9,22.5-67.58,52.62-91.97,87.44,5.54-2.97,12.23-5.83,19.97-8.56,20.1-30.29,44.45-56.26,72.35-77.2-.18-.59-.3-1.14-.36-1.68Zm3.32,6.68c-25.33,19.08-47.64,42.36-66.39,69.24,14.32-4.42,31.56-8.4,51.3-11.84l1.36-1.18c.84-.74,1.66-1.47,2.52-2.17,9.83-15.57,20.77-30.04,32.32-42.79-10.23-3.39-17.32-7.17-21.11-11.25Zm337.19,56.79c20.21,3.41,37.94,7.38,52.74,11.83-18.26-26.05-39.95-48.74-64.51-67.49-4.15,3.8-11.23,7.33-21.08,10.5,12.03,13.65,23.08,28.83,32.85,45.17Zm-53.15-35.17c13.95,7.14,27.31,15.51,39.83,24.94-8.05-12.11-16.62-23.23-25.54-33.15-5.04,1.4-10.74,2.74-16.98,3.98,.91,1.4,1.8,2.81,2.69,4.22Zm-256.91-8.53c-8.35,9.05-16.49,19.16-24.27,30.14,12-8.66,24.72-16.36,37.92-22.93,0,0,1.54-2.38,2.17-3.35-5.73-1.19-11.04-2.49-15.82-3.85Zm85.63,6.77c16.18,1.01,33.17,1.52,50.53,1.52s33.96-.5,49.93-1.47c-2.25-6.31-4.68-12.44-7.22-18.25-15-2.58-30.09-3.88-44.87-3.88-13.77,0-27.75,1.11-41.59,3.3-2.44,6.1-4.66,12.27-6.78,18.78Zm99.97-16.97c2.21,5.27,4.36,10.85,6.38,16.62,13.36-.93,26.01-2.21,37.71-3.8-14.26-5.54-29.06-9.84-44.09-12.81Zm-146.1,12.37c12.36,1.78,25.81,3.18,40.06,4.19,1.87-5.88,3.85-11.51,6.02-17.15-15.72,2.91-31.19,7.27-46.08,12.97Zm143.27-18.78c20.06,3.66,39.58,9.56,58.06,17.52,0,0,3.13-.49,3.82-.61-14.07-19.94-29.68-35.9-46.43-47.47-10.96-.87-22.32-1.5-33.81-1.87,6.48,8.92,12.65,19.81,18.36,32.43Zm-154.42,16.98c19.02-8.08,39.12-13.98,59.77-17.51,5.08-12.36,10.55-23.04,16.27-31.77-11.43,.42-22.6,1.09-33.25,1.97-16.47,11.42-31.86,27.17-45.78,46.82,.45,.07,2.98,.48,2.98,.48Zm180.75-46.6c14.98,11.77,28.98,27.03,41.67,45.41,5.85-1.12,11.27-2.34,16.13-3.61-15.96-16.91-33.39-30.8-51.82-41.29-1.82-.13-3.85-.32-5.99-.51Zm-204.65,41.54c4.53,1.21,9.5,2.36,14.81,3.43,12.49-18.01,26.27-33.02,41.01-44.68-1.66,.17-3.29,.34-4.91,.53-17.51,10.29-34.78,24.03-50.92,40.72Zm224.47-39.27c15.54,10.21,30.35,22.91,44.11,37.82,9.71-2.91,16.78-6.12,20.64-9.32-12.54-9.18-26.01-17.4-40.07-24.45-7.4-1.47-15.74-2.84-24.68-4.05Zm-251.4,27.5c2.56,2.58,8.25,6.15,20.79,10.02,13.82-14.6,28.61-27.15,44-37.36-10.43,1.43-19.92,3.08-28.29,4.92-12.45,6.4-24.82,13.97-36.5,22.42Zm156.48-4.64c13.84,0,27.93,1.11,41.94,3.3-5.9-12.46-12.25-23.03-18.88-31.45-6.79-.16-13.74-.25-20.9-.25-8.43,0-16.61,.12-24.53,.34-5.79,8.26-11.38,18.63-16.62,30.86,12.82-1.86,25.93-2.8,38.99-2.8Zm141.86-13.11c7.34,4.42,14.4,9.11,21.08,13.99,.02-.13,.02-.27,.02-.4,0-1.11-.55-2.31-1.64-3.57-5.14-2.97-10.86-6.12-16.72-9.11-.88-.3-1.79-.61-2.75-.92Zm-289.17,4.51c-3.3,1.79-6.58,3.64-9.78,5.53-.51,.61-.93,1.26-1.21,1.92,3.59-2.56,7.26-5.04,10.99-7.45Zm87.18-31.31c-13.26,3.17-26.3,7.37-38.96,12.55,6.11-.93,12.52-1.78,19.16-2.52,6.37-3.74,13.02-7.11,19.79-10.02Zm124.23,.51c6.49,2.76,12.91,5.94,19.23,9.51,5.34,.53,10.74,1.18,16,1.93-11.51-4.64-23.29-8.46-35.23-11.44Zm-129.42,8.04c.15-.01,.29-.02,.44-.04,.28-.19,.57-.39,.85-.58-.43,.2-.86,.41-1.29,.61Zm133.16-.15c-1.48-.69-2.97-1.36-4.47-2.01,.95,.61,1.9,1.24,2.83,1.87,.55,.05,1.09,.09,1.64,.14Zm-82.34-14.42c-12.91,2-25.7,6.55-38.05,13.56,8.79-.61,17.87-1.08,27.08-1.4,3.69-4.95,7.37-9.02,10.96-12.16Zm40.29,12.03c9.34,.27,18.77,.72,28.09,1.34-12.87-7.26-26.2-11.85-39.7-13.66l-.8-.02c2.26,1.76,4.55,3.81,6.84,6.13,1.78,1.81,3.66,3.9,5.57,6.21Zm-23.81-12.62c-1.17,0-2.32,.04-3.49,.08l-2.53,.07c-3.69,1.7-8.78,6.19-13.86,12.37,6.67-.17,13.37-.25,20.06-.25,5.28,0,10.57,.06,15.85,.16-.65-.71-1.28-1.37-1.89-1.98-6.75-6.84-11.69-9.47-14.14-10.45Z"/><path class="cls-1" d="M771.63,263.28c3.47-5.28,7.8-10.54,13.75-15.05l-27.21,2.59c5.25,3.07,9.77,7.19,13.46,12.47Z"/><g><path class="cls-2" d="M545.04,523.78c-.26-.39-26.22-39.23-39.01-54.84l-2.52-3.07-.78,3.9c-.08,.4-.18,.86-.28,1.36-.4-.5-.82-1.04-1.2-1.5l-1.7-2.07-.53,2.63c-.03,.15-2.45,12.12-4.53,19.32l-9.64-5.64,4.94-9.98-22.49-2.06-.43,.18c-.13,.05-.85,.36-2,.91l-1.77-.16-.29,.12c-.63,.26-15.61,6.58-27.29,18.35-10.88,10.97-21.84,15.83-29.14,18.54l-.77,.29-.05,.82c-.11,1.62-2.34,39.85,12.13,58.43l.73,.93,.99-.67s.59-.4,1.54-1.02c.18,.28,.36,.57,.56,.82l1.09,1.39,1.46-.99c8.83-5.96,32.86-20.59,44.19-21.75,11.6,1.96,22.94,10.82,25.76,18.14,1.33,3.45,4.24,6.24,8.19,7.86,2.66,1.09,5.68,1.63,8.96,1.63,.14,0,.3-.03,.44-.03,1.25,.18,2.51,.33,3.85,.33,5.53,0,11.76-1.5,18.28-4.45l.58-.26,.3-.55c.71-1.31,17.2-32.11,10.44-46.94Zm-48.67,41.5c-3.25-8.45-16.31-18.79-29.86-20.12-.37-.04-.77-.05-1.17-.05-12.87,0-40.6,17.9-46.35,21.7-12.01-16.69-11.18-49.36-10.94-54.94,7.51-2.85,18.42-7.91,29.28-18.85,10.45-10.53,24.06-16.73,26.18-17.66l17.13,1.57-4.22,8.48,18.33,10.73,.59-1.27c1.79-3.89,4.47-16.09,5.62-21.53,13.16,16.61,36.91,52.12,37.06,52.32,5.6,12.35-8.45,39.94-10.3,43.5-9.54,4.23-18.25,5.15-24.57,2.55-3.29-1.35-5.71-3.63-6.78-6.42Z"/><path class="cls-2" d="M528.13,578.44l.14-.66-2.17,.85s-1.64,.63-4.12,1.28c-4,.72-8.9,1.13-13.51,.13l-4.1-.89,1.12,2c-.49-.08-.98-.1-1.46-.2l-2.76-.6,1.38,2.47c1.52,2.7,9.33,16.24,14.11,17.53l.59,.16,.49-.36c.06-.04,.41-.33,.88-.78,.76,.59,1.5,1.09,2.18,1.27l.87,.23,.73-.53c.29-.21,7.11-5.31,10.19-20.44l.69-3.38-3.22,1.25s-.78,.3-2.05,.69Zm-11.28,19.19c-2.69-1.49-7.41-8.36-10.64-13.77,7.5,.89,14.99-.99,18.6-2.12-2.44,9.95-6.54,14.54-7.97,15.89Z"/></g><path class="cls-2" d="M410.17,509.66c-4.59-23.26-8.47-50.39-11.08-82.12-1.12-.03-2.23-.08-3.36-.12,2.66,32.25,6.61,59.85,11.31,83.46,.92-.34,1.99-.76,3.13-1.23Z"/><g><path class="cls-2" d="M520.86,580.77c1.32-3.21,2.63-6.53,3.94-10.02l.19-.5s2.37-.87,2.79-1.05c.56-1.07,2.26-4.39,4.16-8.77l2.23,.86c-2.28,6.87-4.63,13.32-6.98,19.15l-.2,.5-.51,.18c-.7,.25-2.18,.74-4.22,1.27l-2.31,.6,.91-2.21Z"/><path class="cls-2" d="M526.08,579.99c2.35-5.84,4.68-12.22,6.96-19.07-2.37,5.45-4.4,9.22-4.4,9.22-.94,.43-1.8,.68-2.72,1.04-1.31,3.51-2.63,6.84-3.96,10.06,1.99-.51,3.43-.99,4.12-1.24Z"/><path class="cls-2" d="M476.81,648.73c-146.67,0-275.01-99.68-312.1-242.41l-.65-2.51,2.33,1.13c1.54,.74,3.17,1.38,4.85,1.96l.6,.21,.17,.61c6.51,23.98,15.82,47.16,27.7,68.94,1.93-4.04,5.68-7.96,11.2-11.71-7.29-16.63-13.38-34.31-18.07-52.57l-.41-1.59,1.64,.1c1.18,.06,2.34,.13,3.45,.14h.92s.23,.89,.23,.89c4.48,17.24,10.27,34.05,17.21,49.97,5.57-3.14,12.52-6.2,20.72-9.11-7.76-14.29-14.25-29.37-19.32-44.83l-.31-.96,.89-.47c.98-.51,1.95-1.08,2.94-1.69l1.3-.81,.47,1.45c13.36,41.22,36.83,78.75,68.08,108.98-16.48-30.7-28.86-64.33-36.86-100.09l-.58-2.59,2.32,1.28c1.26,.69,2.52,1.33,3.78,1.94l.51,.25,.13,.55c8.92,38.82,23.01,74.88,41.9,107.21,30.84,5.13,67.42,8.91,105.86,10.96l1.01,.06s.39,3.29,.56,4.46l.2,1.44-1.45-.07c-36.53-1.85-70.02-5.12-99.62-9.72,34.32,27.74,75.13,46.51,118.41,54.45-2.16-5.41-4.3-11.31-6.4-17.57l-.3-.88,4.92-3.14,.48,1.45c2.48,7.47,5.14,14.63,7.91,21.31,13.74,2.16,27.64,3.25,41.32,3.25,10.58,0,21.51-.7,32.51-2.07l.74-.09,.41,.62c.65,1.01,1.36,2.07,2.1,3.12l1.13,1.62-1.96,.26c-11.8,1.54-23.55,2.32-34.94,2.32-12.88,0-25.85-.93-38.6-2.76,5.34,11.94,11.08,22.29,17.09,30.8,7.66,.2,15.55,.31,23.68,.31,6.98,0,13.78-.09,20.41-.24,5.61-7.21,11.04-15.97,16.15-26.06l.72-1.41,1.17,1.08c1.08,1,1.71,1.33,2.06,1.42l-.05,.19,1.36,1.02c-4.47,8.87-9.19,16.79-14.07,23.58,12.04-.37,23.82-.99,35.06-1.86,15.56-10.89,30.19-25.68,43.51-43.99-2.76-.44-5.62-.86-8.56-1.27-16.18,6.45-33.21,11.34-50.63,14.56l-2.16,.4,.84-2.03c.44-1.08,.87-2.3,1.28-3.6l.21-.68,.7-.13c42.11-8.1,81.89-26.49,115.34-53.28-29.89,4.45-63.56,7.57-100.16,9.28l-1.48,.06,.24-1.45c.82-5.07,.66-9.21-.48-12.31l-.13-.34,.09-.35c6.82-28.73,11.76-61.74,14.69-98.1l.09-1.09,1.09-.02,1.07,1.18-.04-1.2,3.63-.12-.11,1.33c-3.21,39.91-8.8,75.71-16.62,106.45,37.4-1.9,73.31-5.46,103.99-10.31,19.7-32.96,34.21-69.77,43.15-109.41l.32-1.39,1.31,.55c1.02,.43,2.05,.78,3.09,1.12l1.03,.34-.24,1.06c-8.11,35.72-20.76,69.29-37.63,99.91,29.07-27.65,51.76-61.86,65.84-99.4l.26-.7,5.72-.57v1.68c-4.52,12.3-9.71,23.95-15.45,34.64,8.8,2.97,16.28,6.1,22.26,9.32,7.6-17.58,13.81-36.41,18.47-55.99l.11-.47,4.46-2.91-.21,9.91c-4.66,18.37-10.64,35.9-17.81,52.4,6.54,4.18,10.85,8.58,12.87,13.12,11.62-21.24,20.82-43.85,27.35-67.23l.21-.76,7.14-.98-.47,1.75c-38.28,140.63-166.2,238.84-311.09,238.84Zm-1.38-6.68c1.08-.34,6.28-2.21,14.3-10.36,.85-.86,1.75-1.82,2.68-2.86-5.17,.09-10.35,.15-15.5,.15-6.4,0-12.81-.08-19.22-.22,1.83,2.25,3.63,4.28,5.3,5.96,5.29,5.32,8.71,6.89,9.93,7.32l1.01-.03,1.5,.04Zm24.69-13.39c-2.09,2.57-4.21,4.94-6.29,7.07-2.28,2.3-4.54,4.33-6.75,6.06,14.41-1.65,28.7-6.5,42.47-14.43-9.6,.6-19.47,1.03-29.43,1.3Zm-78.78-1.5c13.08,7.58,26.67,12.39,40.47,14.3-1-.86-1.96-1.76-2.89-2.7-1.91-1.92-4.94-5.23-8.63-10.22-9.91-.3-19.62-.77-28.95-1.39Zm153.42-4.15c-6.26,.85-12.86,1.62-19.71,2.3-7.03,4.09-14.32,7.69-21.69,10.74,14.02-3.18,27.88-7.53,41.4-13.04Zm-199.68-.56c11.33,4.67,22.97,8.54,34.8,11.61-6.38-2.82-12.7-6.05-18.92-9.67-5.39-.54-10.74-1.2-15.89-1.94Zm30.82,3.53c3.13,1.52,6.27,2.95,9.42,4.27-2.06-1.27-4.1-2.6-6.11-3.98-1.11-.09-2.21-.19-3.31-.29Zm5.32-5.32c11.06,.9,22.8,1.56,34.94,1.97-5.88-8.91-11.49-19.54-16.7-31.68-18.21-3.08-36.2-8.08-53.48-14.87-2.62,.39-5.2,.78-7.68,1.19,13.15,18.01,27.59,32.59,42.92,43.38Zm178.2-42.7c-11.99,16.86-25.09,30.97-39,42.02,1.14-.11,2.27-.22,3.39-.33,16.99-9.93,33.65-23.08,49.11-38.97-4.14-.95-8.67-1.86-13.5-2.72Zm-243.23,3.86c14.67,15.03,30.43,27.54,46.86,37.2,2.25,.19,4.76,.43,7.39,.68-13.68-10.92-26.57-24.81-38.37-41.33-5.79,1.08-11.12,2.24-15.89,3.45Zm263.14,.44c-13.34,14.05-27.63,26.13-42.52,35.96,10.27-1.27,19.78-2.76,28.34-4.45,12.6-6.4,25.1-13.98,36.92-22.45-4.29-3.14-12.1-6.24-22.75-9.05Zm-288.8,10.02c10.94,7.74,22.39,14.71,34.06,20.69,7.31,1.54,15.74,2.99,24.95,4.27-13.87-9.35-27.18-20.68-39.61-33.71-11.38,3.36-16.81,6.48-19.4,8.75Zm315.21,3.52c-6.18,4.44-12.59,8.67-19.17,12.65,1.51-.48,2.96-.98,4.33-1.47,4.44-2.31,8.97-4.8,13.42-7.38,.91-1,1.5-2.15,1.5-3.19,0-.19-.02-.39-.08-.6Zm-317.42,1.98c.33,.73,.89,1.49,1.71,2.27,3.11,1.77,6.41,3.6,9.78,5.38-3.88-2.45-7.72-5.01-11.48-7.65Zm-101.22-92.77c25.02,36.25,57.79,67.41,95.15,90.45,.07-.55,.2-1.12,.41-1.7-29.24-21.56-54.55-48.47-75.24-79.99-7.9-2.76-14.71-5.69-20.32-8.76Zm423.5,87.31c.51,1,.84,2,.97,3.01,37.38-23.08,70.16-54.33,95.19-90.7-6.27,3.48-14.13,6.82-23.47,9.97-20.14,30.49-44.6,56.63-72.69,77.72Zm-394.36-75.68c19.43,28.19,42.81,52.48,69.54,72.24,3.69-3.67,10.32-7.06,19.75-10.09-13-14.29-25.08-30.62-35.93-48.55l-2.1-1.74c-19.6-3.49-36.86-7.45-51.27-11.86Zm367.55,60.8c10.86,3.09,18.61,6.59,23.1,10.44,25.9-19.4,48.63-43.09,67.62-70.49-14.82,4.39-32.71,8.32-53.22,11.72l-1.05,.92c-.88,.78-1.76,1.55-2.67,2.3-4.53,7.41-9.08,14.19-13.64,20.45-6.12,8.38-12.89,16.67-20.14,24.67Zm-300.25-36.04c8.88,13.2,18.28,25.16,27.99,35.62,5.03-1.38,10.69-2.69,16.88-3.88-1.5-2.24-2.98-4.54-4.45-6.85-14.09-7.05-27.66-15.41-40.42-24.89Zm279.54,31.3c5.19,.96,10.04,1.99,14.44,3.07,7.81-8.43,15.13-17.31,21.76-26.39,1.52-2.09,3.02-4.22,4.49-6.37-11.28,8.21-23.26,15.58-35.71,21.97-1.64,2.6-3.29,5.2-4.98,7.72Zm-228.55-.67c.37-.06,.74-.12,1.1-.19-.6-.27-1.19-.54-1.79-.82,.22,.34,.46,.67,.68,1Zm222.46-.39c.39-.58,.78-1.16,1.17-1.74-1.05,.48-2.1,.95-3.16,1.42,.67,.11,1.33,.21,1.99,.32Zm123.62-114.79c-13.64,24.13-30.72,45.87-50.82,64.71,19.44-3.5,36.15-7.46,49.74-11.8,9.03-13.84,17.07-28.51,23.91-43.61-5.96-3.18-13.63-6.31-22.84-9.3Zm-469.44,52.09c12.99,4.31,29,8.26,47.65,11.77-19.44-18.38-36.04-39.5-49.37-62.84-8.52,2.91-15.66,5.99-21.27,9.16,6.63,14.5,14.35,28.6,22.98,41.9Zm497.28-39.85c-5.88,12.93-12.65,25.57-20.14,37.64,13.13-4.85,22.22-9.99,27.05-15.29,1.17-1.94,2.44-4.08,3.69-6.22,.09-.5,.2-1.31,.2-2.11,0-4.63-3.63-9.35-10.81-14.02Zm-525.2,1c-6.21,4.36-9.35,8.73-9.35,13.01,0,.38,.07,.75,.14,1.13,1.67,2.97,3.46,5.94,5.3,8.89,4.53,4.2,12.31,8.52,22.99,12.66-7.02-11.4-13.43-23.38-19.08-35.69Z"/><path class="cls-2" d="M782.16,410.2c-6.86,24.59-16.55,48.01-28.75,69.84-1.34-5.45-6.18-10.68-14.13-15.59,7.4-16.86,13.45-34.56,18.12-52.88l.16-7.64-2.16,1.41c-4.75,19.94-11.09,39.17-19.07,57.39-6.53-3.64-14.81-7.09-24.57-10.32,6.21-11.42,11.52-23.4,16.05-35.74-.22,.03-.45,.07-.66,.11l-3.08,.31c-15.23,40.61-40.04,76.58-71.76,105.03,18.71-32.29,32.63-68.23,41.26-106.23-1.07-.35-2.13-.72-3.17-1.16-8.93,39.62-23.63,76.98-43.58,110.24-30.9,4.92-67.08,8.56-106.3,10.49,7.31-28.26,13.45-63.69,16.99-107.82-.78,.02-1.53,.06-2.3,.08-.35,0-.71,.01-1.06,.02-3.17,39.44-8.43,71.79-14.72,98.28,1.32,3.57,1.33,8.09,.55,12.91,38.64-1.8,73.99-5.22,104.32-9.91-.02,.03-.03,.05-.05,.08-33.75,27.94-74.5,47.62-119.16,56.22-.42,1.33-.85,2.58-1.31,3.69,17.55-3.24,34.51-8.14,50.7-14.61,3.73,.52,7.37,1.06,10.81,1.63-13.63,19.05-28.83,34.63-45.2,46.03-11.79,.91-24.44,1.58-37.88,1.95,4.74-6.33,10.02-14.68,15.41-25.38-.32,.29-.55,.49-.55,.49-.75-.2-1.62-.83-2.55-1.7-5.88,11.59-11.61,20.32-16.62,26.7-6.83,.16-13.82,.25-21.01,.25-8.36,0-16.46-.12-24.31-.33-5.4-7.56-11.84-18.41-18.42-33.48,13.23,2.01,26.78,3.06,40.57,3.06,11.79,0,23.39-.82,34.78-2.31-.75-1.06-1.46-2.13-2.12-3.16-10.71,1.34-21.6,2.08-32.66,2.08-14.35,0-28.42-1.18-42.16-3.37-2.74-6.55-5.5-13.88-8.2-22-1.1,.69-2.02,1.28-2.83,1.81,2.37,7.08,4.78,13.62,7.19,19.51-46.81-8.19-89.46-28.6-124.49-57.88,30.02,4.86,65.22,8.43,103.83,10.39-.17-1.18-.31-2.33-.44-3.49-39.5-2.1-75.83-5.94-106.54-11.07-18.69-31.88-33.25-68.56-42.32-108.03-1.28-.63-2.56-1.27-3.84-1.97,8.64,38.66,22.53,74.74,40.4,106.4-33.74-30.83-59.52-70.21-73.92-114.67-1.01,.63-2.02,1.21-3.01,1.73,5.23,15.99,11.91,31.33,19.9,45.86-9.17,3.19-16.92,6.58-23,10.15-7.22-16.39-13.18-33.57-17.81-51.36-1.12-.02-2.31-.08-3.51-.15,4.75,18.48,10.9,36.32,18.41,53.31-6.82,4.47-11.09,9.19-12.51,14.1-12.41-22.31-22.21-46.27-29.04-71.45-1.73-.6-3.39-1.26-4.98-2.02,36.06,138.79,161.78,241.52,310.94,241.52s272.65-100.99,309.93-237.96c-1.51,.21-3.05,.41-4.58,.62Zm-72.1,45.22c10.04,3.22,18.46,6.64,24.94,10.22-7.11,15.84-15.39,30.92-24.69,45.14-14.77,4.74-33.18,9.01-54.32,12.67,21.49-19.54,39.77-42.53,54.07-68.03Zm-63.25,75.99c1.34-1.12,2.64-2.29,3.96-3.43,21.9-3.61,41.06-7.89,56.66-12.72-19.57,28.88-43.47,53.98-70.61,74.16-4.59-4.34-13.4-8.13-25.23-11.35,7.4-8.06,14.57-16.68,21.37-26,4.87-6.67,9.45-13.59,13.84-20.66Zm-12.74,59.96c-12.28,8.91-25.2,16.79-38.67,23.58-9.73,1.92-20.98,3.64-33.59,5.07,16.48-10.31,32.34-23.41,47.15-39.08,12.35,3.21,20.93,6.78,25.11,10.44Zm4.61-53.51c-2.73,4.15-5.52,8.24-8.43,12.23-7.09,9.72-14.58,18.69-22.33,27.01-5.15-1.28-10.8-2.47-16.86-3.56,2.1-3.07,4.14-6.26,6.17-9.48,14.63-7.5,28.5-16.27,41.44-26.21Zm-57.94,34.02c3.62-1.56,7.22-3.16,10.76-4.87-1.31,2-2.61,4.01-3.95,5.94-2.21-.37-4.52-.72-6.81-1.06Zm8.15,4.78c5.95,1.05,11.43,2.17,16.36,3.35-16.07,16.79-33.37,30.48-51.32,40.84-2.45,.24-4.94,.47-7.48,.69,15.33-11.54,29.58-26.7,42.43-44.88Zm-47.68,48.69c1.85-.14,3.68-.3,5.5-.45-5.91,3.09-11.9,5.75-17.92,8.09,4.21-2.29,8.35-4.83,12.42-7.64Zm-110.9-35.46c6.4,15.02,12.72,26.08,18.15,34.02-13.37-.42-25.97-1.13-37.66-2.08-16.13-11.3-31.13-26.67-44.6-45.41,3.16-.55,6.5-1.06,9.92-1.57,17.27,6.81,35.39,11.9,54.18,15.03Zm-86.4-8.71c5.49-1.46,11.74-2.84,18.71-4.12,12.68,17.87,26.72,32.8,41.81,44.22-4.12-.38-8.11-.79-11.98-1.22-17.22-10.13-33.52-23.25-48.54-38.88Zm40.67,37.94c-11.5-1.47-21.71-3.19-30.53-5.08-12.28-6.31-24.09-13.54-35.37-21.62,3.21-3.55,10.61-7.05,21.62-10.25,13.77,14.52,28.62,26.95,44.28,36.94Zm-14.74-46.76c-1.97,.32-3.95,.63-5.85,.97-1.18-1.7-2.33-3.45-3.49-5.2,3.09,1.45,6.19,2.89,9.34,4.23Zm-15.04-7c1.86,2.91,3.72,5.81,5.64,8.6-7.08,1.32-13.53,2.79-19.28,4.4-11.73-12.58-22.56-26.8-32.48-42.2,14.29,11.21,29.73,21.02,46.12,29.2Zm-114.77-108.94c14.02,24.75,31.81,47.1,52.63,66.21-20.42-3.7-38.12-7.97-52.25-12.69-8.9-13.71-16.85-28.2-23.73-43.4,6.03-3.54,13.87-6.92,23.35-10.12Zm-37.08,28.38c-.09-.57-.23-1.13-.23-1.7,0-5.11,3.92-10.07,11.05-14.8,6.3,13.88,13.48,27.18,21.46,39.83-12.29-4.48-21.48-9.31-26.88-14.39-1.85-2.95-3.64-5.93-5.4-8.95Zm110.61,112.84c-40.09-24.32-74.42-57.3-100.41-96.36,6.36,4.06,14.77,7.9,25.06,11.48,20.7,31.62,46.42,58.96,75.91,80.56-.43,1-.72,2.01-.72,3.06,0,.42,.09,.83,.16,1.25Zm-70.23-83.18c14.99,4.82,33.38,9.11,54.54,12.76,.92,.8,1.84,1.61,2.77,2.4,11.09,18.33,23.51,35.06,37.05,49.74-10.44,3.19-18.06,6.9-21.76,11.1-27.99-20.54-52.59-46.28-72.61-76Zm88.52,93.38c-4.27-2.22-8.48-4.53-12.64-6.93-1.54-1.5-2.38-3.02-2.38-4.52,0-.34,.1-.68,.18-1.02,7.8,5.57,15.85,10.74,24.13,15.49-3.44-.98-6.55-1.98-9.29-3.01Zm18.57,8.92c.9,.2,1.81,.41,2.74,.6,2.16,1.1,4.31,2.2,6.5,3.25-3.1-1.24-6.19-2.51-9.24-3.85Zm15.58,3.06c7.95,1.35,16.54,2.52,25.58,3.53,10.96,6.39,22.27,11.58,33.87,15.44-20.65-4.01-40.55-10.4-59.45-18.98Zm33.8,4.39c3.24,.32,6.51,.61,9.84,.89,6.8,4.71,13.81,8.68,20.97,11.93-10.51-3.19-20.8-7.51-30.81-12.82Zm64.15,18.74c-16.53-1.92-32.45-7.86-47.45-17.32,11.18,.81,22.75,1.4,34.43,1.75,3.51,4.78,6.55,8.24,8.85,10.55,2.05,2.07,4,3.68,5.87,5.06-.57-.02-1.13-.02-1.7-.04Zm11.49,.29c-.97,0-1.93-.06-2.89-.07-2.08-.72-5.63-2.81-10.39-7.61-1.87-1.88-4.25-4.54-6.96-8.06,7.24,.18,14.51,.28,21.74,.28,6.05,0,12.12-.07,18.19-.2-1.61,1.89-3.12,3.54-4.51,4.95-7.09,7.2-12.41,9.97-15.16,10.72Zm7.76-.13c2.87-1.89,6.15-4.54,9.79-8.23,1.97-2,4.18-4.45,6.56-7.41,11.8-.31,23.51-.86,34.86-1.64-15.07,9.44-31.06,15.35-47.66,17.19-1.18,.04-2.37,.07-3.56,.09Zm71.74-18.99c10.17-1.01,19.85-2.22,28.8-3.63-20.76,9.27-42.69,16-65.5,19.73,12.42-3.81,24.7-9.23,36.7-16.09Zm24.67,1.86c5.66-2.38,11.23-4.97,16.72-7.72,2.31-.45,4.54-.92,6.71-1.41-7.65,3.35-15.47,6.38-23.42,9.13Zm55.33-25.36c-4.47,2.6-9.01,5.09-13.61,7.47-3.86,1.41-8.37,2.78-13.52,4.09,9.82-5.5,19.33-11.58,28.47-18.22,.46,.81,.76,1.63,.76,2.44,0,1.41-.74,2.82-2.09,4.23Zm5.37-3.11c.06-.37,.15-.74,.15-1.12,0-1.52-.5-2.99-1.41-4.4,28.46-21.19,53.32-47.8,73.48-78.39,11.8-3.95,21.34-8.23,28.26-12.78-25.98,39.18-60.33,72.29-100.49,96.69Zm109.8-111.68c-1.26,2.15-2.54,4.3-3.85,6.42-5.42,5.96-15.99,11.62-30.79,16.78,8.39-13.21,15.92-27.13,22.48-41.68,8.09,5.01,12.52,10.3,12.52,15.76,0,.91-.12,1.82-.36,2.72Z"/></g><g><path class="cls-2" d="M188.36,569.96l10.48,12.97-5.78,4.81c-4.25,3.44-7.65,4.86-10.17,4.25-2.52-.61-6.03-3.69-10.52-9.24-4.12-5.09-6.03-9.13-5.72-12.11,.3-2.98,2.98-6.51,8.03-10.59,6.45-5.21,10.78-8.17,13.02-8.88,2.73-.85,5.13-.74,7.2,.35,2.07,1.09,4.72,3.63,7.95,7.63,4.23,5.23,6.41,9.06,6.52,11.49,.12,2.43-1.73,5.19-5.56,8.28l-4.57-5.65c1.85-1.66,2.7-3.05,2.57-4.16-.13-1.12-1.4-3.17-3.81-6.14-2.62-3.24-4.68-4.96-6.19-5.18-1.51-.22-3.76,.87-6.73,3.28l-2.97,2.37-3.74,3.1c-2.92,2.36-4.43,4.29-4.53,5.8-.1,1.51,1.12,3.83,3.66,6.97,2.46,3.05,4.37,4.71,5.71,4.99,1.34,.28,3.28-.6,5.79-2.63l1.23-.96-5.99-7.4,4.12-3.33Z"/><path class="cls-2" d="M227.34,586.34c4.85,4.88,7.17,8.82,6.94,11.83-.22,3.01-3.14,7.32-8.77,12.92-6.15,6.12-10.72,9.27-13.73,9.46-3,.18-7.2-2.44-12.59-7.85-4.85-4.87-7.2-8.81-7.04-11.82,.16-3,2.92-7.17,8.29-12.52,6.4-6.37,11.11-9.67,14.15-9.89,3.04-.23,7.28,2.39,12.74,7.87Zm-4.76,3.95c-3.41-3.42-5.83-4.98-7.28-4.69-1.45,.3-4.78,3.04-9.99,8.22-3.85,3.84-5.83,6.48-5.95,7.94-.11,1.46,1.47,3.84,4.76,7.14,3.15,3.16,5.47,4.61,6.99,4.36,1.51-.25,4.51-2.6,8.99-7.07,4.5-4.48,6.86-7.42,7.08-8.83,.22-1.41-1.31-3.77-4.6-7.07Z"/><path class="cls-2" d="M247.69,605.63l-20.15,24.12,13.63,11.38-4.12,4.94-19.15-15.99,24.28-29.06,5.51,4.6Z"/><path class="cls-2" d="M242.71,650.5l21.44-31.22,15.34,10.54c4.36,2.99,6.76,6.04,7.2,9.15,.43,3.1-.99,7.04-4.26,11.82-5.35,7.79-9.49,12.31-12.41,13.57s-6.85,.19-11.77-3.19l-15.53-10.66Zm9.35-.92l8.44,5.79c2.84,1.95,5.12,2.56,6.85,1.82,1.72-.73,4.12-3.32,7.17-7.78,3.16-4.6,4.8-7.79,4.91-9.55,.11-1.76-1.21-3.59-3.97-5.48l-8.81-6.05-14.59,21.25Z"/><path class="cls-2" d="M318.7,679.87l6.47,3.18-.57,1.17c-2.32,4.73-4.69,7.37-7.1,7.91-2.41,.54-6.56-.64-12.48-3.55-6.71-3.29-10.3-6.41-10.76-9.36s1.64-9.19,6.31-18.72c2.75-5.61,5.61-8.79,8.57-9.53,2.96-.74,7.77,.52,14.43,3.78,4.85,2.38,7.73,4.7,8.64,6.95,.92,2.25,.32,5.53-1.8,9.85l-.36,.79-6.47-3.18,.43-.88c1.09-2.23,1.37-3.85,.84-4.89-.54-1.03-2.3-2.28-5.29-3.75-4-1.96-6.65-2.65-7.93-2.07s-3.11,3.29-5.48,8.12c-3.19,6.51-4.73,10.54-4.59,12.08,.14,1.55,2.18,3.29,6.13,5.23,3.21,1.58,5.45,2.27,6.73,2.07,1.28-.19,2.48-1.42,3.58-3.68l.7-1.54Z"/><path class="cls-2" d="M354.73,667.94c6.45,2.39,10.21,4.99,11.27,7.83,1.07,2.83,.22,7.96-2.53,15.4-3.01,8.14-5.83,12.92-8.48,14.34-2.65,1.43-7.55,.82-14.72-1.83-6.45-2.39-10.24-4.98-11.36-7.76-1.12-2.79-.36-7.74,2.27-14.85,3.13-8.47,6.03-13.44,8.69-14.92,2.66-1.48,7.61-.88,14.86,1.79Zm-2.66,5.59c-4.53-1.68-7.39-2.07-8.58-1.19-1.2,.88-3.07,4.76-5.61,11.65-1.89,5.1-2.58,8.33-2.07,9.71,.51,1.37,2.95,2.86,7.32,4.48,4.18,1.54,6.9,1.89,8.17,1.02,1.27-.86,3-4.26,5.19-10.19,2.2-5.95,3.11-9.61,2.72-10.99-.39-1.38-2.77-2.87-7.14-4.49Z"/><path class="cls-2" d="M388.95,710.48l-15.83-4.05-4.08,6.46-7.37-1.88,21.58-33.57,10.45,2.68,3.01,39.86-7.23-1.85-.54-7.64Zm-.3-5.54l-1.45-20.73-11.12,17.52,12.57,3.22Z"/><path class="cls-2" d="M435.26,698.81l-6.94-1.06c.01-.35,.04-.61,.06-.78,.16-2.13-.11-3.52-.79-4.18-.68-.65-2.45-1.2-5.31-1.64-3.36-.51-5.61-.53-6.73-.07-1.13,.47-1.85,1.69-2.15,3.69-.36,2.36-.15,3.84,.62,4.44,.77,.61,3.49,1.39,8.17,2.37,5.53,1.16,9.01,2.5,10.45,4.03s1.86,4.32,1.24,8.36c-.76,4.97-2.21,8.04-4.35,9.2-2.14,1.16-6.49,1.25-13.03,.25-5.89-.89-9.69-2.2-11.4-3.92-1.71-1.72-2.24-4.75-1.58-9.11l.18-1.37,6.91,1.05-.09,.8c-.4,2.61-.18,4.28,.64,5.01,.82,.72,3.28,1.4,7.35,2.02,3.18,.48,5.26,.46,6.24-.09,.98-.54,1.66-2.04,2.03-4.49,.27-1.81,.12-3.06-.46-3.76-.58-.7-1.96-1.28-4.15-1.74l-3.88-.85c-5.88-1.24-9.53-2.65-10.98-4.19-1.45-1.55-1.85-4.46-1.2-8.74,.67-4.37,2.1-7.13,4.3-8.28,2.2-1.16,6.28-1.28,12.22-.37,5.63,.85,9.33,2.1,11.08,3.73,1.75,1.63,2.34,4.39,1.75,8.26l-.22,1.43Z"/><path class="cls-2" d="M457.37,695.72l-1.9,31.38-7.17-.44,1.9-31.38-10.91-.66,.39-6.42,29.38,1.78-.39,6.42-11.3-.68Z"/><path class="cls-2" d="M474.31,720.81l-.11,6.6c-.07,4.42-2.01,6.6-5.82,6.54-.2,0-.6-.02-1.17-.07l.05-2.97c2.03,.03,3.06-.81,3.09-2.51v-.84s-2.51-.04-2.51-.04l.11-6.83,6.35,.11Z"/><path class="cls-2" d="M522.25,717.67l-16.26,1.61-1.63,7.46-7.56,.75,8.81-38.92,10.74-1.06,16.45,36.43-7.43,.74-3.12-7Zm-2.17-5.11l-8.46-18.99-4.47,20.27,12.93-1.28Z"/><path class="cls-2" d="M555.93,680.75l7.04-1.45,5.09,24.67c1.06,5.16,.78,8.78-.86,10.86-1.64,2.07-5.52,3.74-11.64,5.01-6.47,1.33-10.87,1.42-13.21,.26-2.34-1.16-4.02-4.28-5.07-9.35l-5.17-25.08,7.04-1.45,5.17,25.08c.56,2.73,1.41,4.37,2.54,4.9,1.13,.53,3.5,.43,7.13-.32,3.71-.77,5.97-1.62,6.77-2.56,.79-.94,.89-2.86,.3-5.75l-5.12-24.81Z"/><path class="cls-2" d="M599.3,679.62l-6.69,2.11c-.14-.32-.24-.56-.29-.72-.8-1.97-1.65-3.11-2.56-3.39-.91-.29-2.73,0-5.48,.88-3.25,1.03-5.27,2-6.08,2.91-.81,.92-.91,2.34-.3,4.26,.72,2.27,1.56,3.51,2.52,3.71,.95,.2,3.74-.29,8.38-1.48,5.47-1.4,9.19-1.73,11.16-1s3.57,3.05,4.8,6.95c1.52,4.8,1.57,8.19,.16,10.17-1.41,1.99-5.27,3.98-11.58,5.98-5.68,1.79-9.67,2.3-11.96,1.51-2.3-.79-4.11-3.28-5.44-7.48l-.44-1.31,6.67-2.11,.27,.76c.79,2.52,1.72,3.92,2.79,4.21,1.06,.29,3.56-.19,7.49-1.44,3.07-.97,4.92-1.92,5.56-2.83,.64-.92,.59-2.56-.16-4.93-.55-1.75-1.24-2.8-2.07-3.17-.82-.37-2.32-.28-4.49,.27l-3.86,.96c-5.82,1.47-9.72,1.83-11.7,1.08-1.98-.75-3.63-3.19-4.93-7.32-1.33-4.21-1.27-7.32,.2-9.33,1.47-2,5.07-3.91,10.81-5.72,5.43-1.72,9.29-2.23,11.59-1.54,2.29,.69,4.03,2.91,5.21,6.65l.44,1.37Z"/><path class="cls-2" d="M617.72,667.09l12.17,28.98-6.62,2.78-12.17-28.98-10.08,4.23-2.49-5.94,27.14-11.39,2.49,5.93-10.44,4.38Z"/><path class="cls-2" d="M646.77,688.64l-17.9-33.37,16.45-8.83c4.09-2.2,7.29-3,9.6-2.41,2.31,.59,4.46,2.74,6.45,6.45,1.81,3.38,2.66,5.89,2.55,7.55-.11,1.65-1.24,3.36-3.38,5.12l.12,.22c3.83-1.75,6.83-.58,9.03,3.5l3.94,7.36-6.33,3.39-3.26-6.09c-1.85-3.44-4.46-4.25-7.85-2.43l-9.12,4.89,6.03,11.24-6.33,3.4Zm-2.56-19.98l9.09-4.88c2.17-1.16,3.4-2.32,3.69-3.48,.3-1.16-.18-2.9-1.43-5.23-1.28-2.38-2.41-3.76-3.39-4.12-.98-.37-2.51,0-4.58,1.12l-9.53,5.12,6.15,11.47Z"/><path class="cls-2" d="M696.89,650.27l-13.53,9.16,2.12,7.34-6.3,4.26-10.79-38.42,8.94-6.05,31.81,24.2-6.18,4.18-6.07-4.67Zm-4.35-3.46l-16.48-12.66,5.72,19.94,10.76-7.28Z"/><path class="cls-2" d="M695.78,612.72l19.9,24.33,13.74-11.24,4.08,4.98-19.3,15.8-23.98-29.31,5.56-4.55Z"/><path class="cls-2" d="M717.53,593.79l25.72,27.79-5.27,4.88-25.72-27.8,5.27-4.88Z"/><path class="cls-2" d="M760.76,593.37l-11.17,11.93,3.69,6.69-5.19,5.55-19.02-35.08,7.38-7.87,36.38,16.56-5.1,5.45-6.95-3.21Zm-5.01-2.41l-18.87-8.71,9.99,18.19,8.88-9.47Z"/><path class="cls-2" d="M747.94,555.87c1.93-2.4,4.44-3.77,7.53-4.11,3.09-.33,5.84,.47,8.26,2.41,2.42,1.94,3.8,4.46,4.15,7.56,.34,3.09-.45,5.84-2.38,8.24-1.96,2.43-4.47,3.81-7.57,4.15-3.09,.34-5.85-.47-8.28-2.42-2.42-1.94-3.8-4.46-4.14-7.55-.34-3.1,.47-5.86,2.42-8.29Zm1.2,.99c-1.65,2.05-2.32,4.4-2.01,7.04,.31,2.64,1.51,4.8,3.6,6.48,2.09,1.68,4.46,2.39,7.11,2.12,2.65-.26,4.8-1.43,6.44-3.48,1.65-2.05,2.31-4.39,2-7.03-.32-2.63-1.52-4.8-3.62-6.48-2.09-1.67-4.45-2.38-7.09-2.12-2.64,.26-4.78,1.41-6.43,3.46Zm9.05,14.13l-9.82-7.89,4.02-5.01c1.78-2.21,3.68-2.5,5.72-.86,1.48,1.19,1.96,2.4,1.44,3.65,.98-.75,2-.7,3.05,.15l2.18,1.75-1.66,2.07-1.82-1.45c-.92-.75-1.77-.64-2.54,.32l-2.11,2.63,3.2,2.58-1.66,2.07Zm-3.31-6.06l2.12-2.64c.88-1.09,.79-2.06-.25-2.89-1.02-.82-1.93-.72-2.74,.29l-2.22,2.76,3.09,2.48Z"/></g></g></g></svg>