<?xml version="1.0" encoding="utf-8"?>
<!-- Generator: Adobe Illustrator 27.1.0, SVG Export Plug-In . SVG Version: 6.00 Build 0)  -->
<svg version="1.1" id="Layer_2_00000034049203917172481390000007915483845248202119_"
	 xmlns="http://www.w3.org/2000/svg" xmlns:xlink="http://www.w3.org/1999/xlink" x="0px" y="0px" viewBox="0 0 799.5 799.5"
	 style="enable-background:new 0 0 799.5 799.5;" xml:space="preserve">
<style type="text/css">
	.st0{fill:#0054A6;}
</style>
<g>
	<path class="st0" d="M192.3,409.8c0-40.7-6.9-53.1-28.7-53.1c-0.9,0-2.1,0.3-3,0.3v106.2c1.2,0.3,2.4,0.3,3.6,0.3
		C183.2,463.4,192.3,454.8,192.3,409.8z"/>
	<path class="st0" d="M399.8,0C179,0,0,179,0,399.8s179,399.8,399.8,399.8c220.8,0,399.8-179,399.8-399.8S620.5,0,399.8,0z
		 M647,233.6c2.2-1.7,3.3-2.6,5.6-1.7c2.3,0.9,4.6,0.7,5.6,1.9c1,1.2,1,1.4,1,1.4l7.7-0.4v-1.2l0,0c0,0,2.1-3.5,3.5-3.5h4.4
		c0,0,4.2,1.9,4.1,3.5c-0.1,1.6,0.6,2.9,1.3,3.6c0.7,0.7,2.4,4,1.2,5c-1.2,1-2.9,1.4-3.7,1.4s-0.5-1-0.8,0c-0.3,1-0.9,2.3-0.9,2.3
		s1.3,0.2,2.3,1.4c1,1.2,3.5,2.8,3.5,2.8s3.1-0.4,6.4,2.1c3.2,2.4,8.5,8.6,10.3,10.9c1.8,2.2,5,7.1,5.4,8.7c0.4,1.6,0,3.6,0,4.8
		s-0.9,6.1-3.6,7.8c-2.7,1.7-4.3,3.8-7,4c-2.7,0.2-7.8,0-7.8,0l-3-0.5c0,0-0.6,0.5-0.8,1.9c-0.2,1.4-1,4-1.9,4c-0.8,0-0.9,0-0.9,0
		l0.9-1.6l-2.3,0.8l-2.3,1c0,0,2.7-2.2,2.7-3.2c0-1-0.8-1.4-0.8-1.4l-2,1.7c0,0,1.3-4.1,1.3-4.8c0-0.7-1.2,0.2-2.1-0.9
		c-0.8-1-0.8-1.4-0.8-1.4h-3.5l0.4-2h-2.1c0,0-1,1.4-0.6,2.1l0.4,0.7l-3-1.9c0.1,0.2-0.2,0.4-1.6,0.7c-2.5,0.5-4.4,0.5-4.4,0.5h-1.9
		l4-1.9c0,0-0.1-2.6,1-4.5c1.1-1.9,0.9-3.1,0.9-3.1s-4.6-7.3-5-9.4c-0.4-2.1-0.6-3.3-0.6-3.3s-2.3-0.2-3-3.8
		c-0.6-3.6-0.2-4.4-0.2-4.4s-2,0.1-2.7-3.9c-0.6-4-0.3-4.1-0.3-4.1l-5,0l1.2-2.9l-1.6-0.8l-0.1-1.3l-0.2-0.7
		C645.8,240,644.8,235.3,647,233.6z M581.6,163l1.1,3l1.4,1.8c0-0.1,0-0.2,0-0.2c0-1.8,1.3-4.4,1.3-4.4s1,3.8,2.1,6.6
		c1.2,2.9,3.9,1.5,7.8,1.5s-1.4-0.3,4.5-2.4c6-2.1,10.1-5.7,19.9-5.7s10.6,8.9,10.6,8.9l-2.8,4.2h2c2.8,0,3.7,8.5,3.7,8.5l0,0
		l-8.8,0.6c0,0-1.2,0.6-1.2,3.8s1.2,16.6,1.2,16.6s1.5-0.9,6.2,3.8c4.6,4.7,4.1,22.9-2.5,32.1c-6.5,9.2-12.9,12.1-12.9,12.1l3.5,2.3
		c0,0,2.8,2.5,4.6,5.8c1.8,3.3,0,4.9-1.8,6.4v-4.6c0-2.6-1.7-3.6-5.2-5.1c-3.5-1.6-3.4-0.6-5.6-0.6s-3.9,1.3-3.9,1.3
		s1.8,0.9,3.9,2.7c2.1,1.8,2.2,7.3,2.6,10.8c0.4,3.5-3.3,2.2-2.3,0.6c1-1.6-0.4-3.2-3.5-8.3c-3.1-5.1-2.3-4-4.5-4s-4.3,0.3-5.1,2.4
		c-0.8,2.1-1.5,4.3-2.6,2.5c-1.1-1.8-0.3-2.9-0.3-4.3c0-1.5-4.7,0.1-4.7,0.1s-17,20.2-18.9,21.1c-1.9,0.9-7.9,0.3-7.9,0.3
		s0.4,0.6,1.8,2c1.4,1.5-10.5,3.5-15.4,4.7c-4.9,1.2-2.4-1.2,3.5-7.3c5.9-6.1,6-6.6,6-6.6s-1-4.8,1.4-11.6
		c2.3-6.9,6.7-12.5,8.4-16.4c1.8-3.9,3.1-11.1,5.3-19.5c2.2-8.4,3.6-9.7,10.9-18.6c7.3-9,9.4-8.7,9.4-9.9s0.4-7.6,0.4-12.2
		s2.6-8.4,2.6-8.4s-0.4,0-4.7-0.9c-4.3-0.9-6.8-3-10.3-6.2c-3.5-3.1-3.2-4.9-3.2-6.7s1-3.6,1-3.6L581.6,163z M519.8,503.5h-74
		l-21.4-65.8c-3-8.9-3.6-18.3-3.6-18.3h-0.6c0,0-1.2,9.2-3.9,18.3L396,503.5h-74L269,318.1h82.4l14.2,82.8
		c1.8,10.5,2.7,20.8,2.7,20.8h0.3c0,0,1.5-10.2,4.2-20.8l22-82.8h58l21.7,82.8c2.7,10.5,3.3,20.8,3.3,20.8h0.6
		c0,0,0.9-10.2,2.7-20.8l14.5-82.8h77L519.8,503.5z M414.3,654.2l-1.2,0.6l-2.2,3.2c0,0-2.2,2.6-1.9,1.9c0.3-0.7-0.1,0-0.1,0
		s-1.3-2.8-1.4-4c-0.1-1.3-0.8-3.1-0.3-8.5c0.5-5.5,3.3-7.6,6.6-9.4c3.3-1.8,7.1-2.7,9.7-4.6c2.6-1.9,2-4.6,2-4.6l0,0
		c0,0,0.3-0.3-1-0.4c-1.2-0.1-2.4,0.1-4.7-0.2c-2.3-0.2-3.5-0.3-4.7-0.8c-1.2-0.5-1.5-1-1.5-1s-4.3,0-6.2-0.1
		c-1.9-0.1-2.6-1.4-2.6-1.4l1.4-0.1c0,0,2.3-0.3,4.1-0.4c1.8,0,4.2-0.7,4.2-0.7s4.2-0.7,6.4-2c2.2-1.3,7.8-2.8,7.8-2.8
		s2.9,0.3,3.9-0.6c1-0.9,2.8-3.5,5.5-5.4c2.6-1.9,8.2-3.7,10.5-4.5c2.3-0.8,12.1,1.3,12.1,1.3l-2.3,0.6c-2.2,0.6-2.5,1.2-4.6,3.2
		c-2.1,1.9-2,1.9-3.1,3.3c-1.2,1.4-1.8,1.6-1.8,1.6s0.6,2.1,0.3,2.7c-0.3,0.6,12.4,2,12.4,2s6.4,0.4,7.9,0.2
		c1.5-0.2,0.3,1.1,0.3,1.1s-1.2,0.2-4,0.4c-2.8,0.2-20,2.7-22.5,4.1c-2.5,1.4-2.1,2-4.4,5c-2.4,2.9-3.9,3-8.3,4.8
		c-4.5,1.8-7.4,2.9-7.4,3.4c0,0.5-2.3,2.7-2.3,2.7s-3.8,5.1-5.6,7C413.6,653.8,414.3,654.2,414.3,654.2z M414.4,537.3
		c1.4-2.8,7.6-17.5,7.6-17.5v0c8,9.1,20.3,35.5,20.3,35.5c3.8,8.1-6.8,26.1-6.8,26.1c-11.4,4.7-19,1.9-20.8-2.6
		c-1.8-4.5-9.7-10.5-17.8-11.3c-8.1-0.8-29.8,12.7-29.8,12.7c-8.8-10.7-7.1-33.4-7.1-33.4c3.8-1.3,11.2-4.1,18.5-10.8
		c7.3-6.8,16.8-10.4,16.8-10.4l12,1.1l-2.9,5.2L414.4,537.3z M434.1,586.9c-1.9,8.4-6,11.2-6,11.2c-2.8-0.7-8.2-9.8-8.2-9.8
		C426.6,589.6,434.1,586.9,434.1,586.9z M301.2,552.8c-1.4,0.3-2,0.2-2-0.4c0.1-0.6,1.2-0.8,2.5-0.7c1.3,0.1,2.3-0.1,2.8-0.3
		c0.4-0.2,2.3-0.9,2.3-0.9l0.4-0.6c0,0,0.2-0.2,0.3-0.5c0.1-0.2,0.5-3.3,0.5-3.3s-0.6-0.5-1.1-0.5s-3.1,0.4-3.1,0.4s-0.8,0.3-0.2,1
		c0.5,0.7,0.3,1.1-0.1,1.2c-0.4,0.1-1.4,0.6-1.6-0.6s-0.4-1.5-0.4-1.5s-3.2,0-3.9,0.1c-0.7,0.1-2.5,0.8-3.2,0.9
		c-0.7,0.1-1.8,0.3-1.6-0.3c0.1-0.7,1-0.7,1.6-0.8c0.6-0.1,3.1-1.2,3.1-1.2s1-0.2-0.1-0.5c-1.1-0.3-1.9-0.6-1.9-0.6
		s-0.1-0.4,0.7-0.3s3.3,0.2,3.3,0.2l2.7-0.4c0,0-0.6-1.1-1.6-1.7c-1.1-0.6-3.4-1.7-4.2-2.5c-0.9-0.8-4.8-4-5-4.4c-0.2-0.4-1.9-2-1-3
		c0.8-0.9,1.8-1.1,2.6-1.1s1.6,0.1,1.6,0.1l-0.1-0.3l0,0c0,0,1.3-1.3,2.3-1.3s2.8,0.8,3,1.3s0.5,0.9,0.5,0.9s1.7,0.5,2.3,0.8
		c0.6,0.3,3,1,5.2,1.9c2.3,0.9,5.5,1.5,6.2,1.5s2.4,0.2,3.2,0.3c0.8,0.1,2.3,0.7,3.2,1c0.9,0.3,3.9,0.8,4.4,0.9
		c0.5,0.2,1.5,0.6,1.5,0.6l2.6,0.3c0,0,1.7,0.7,1.4,1.1c-0.3,0.4-0.7,0.9-0.7,0.9l0.7,1.1c0,0,1.2,0.4,1.5,0.6
		c0.3,0.3,1.4,0.3,0.9,1.5c-0.6,1.2-1.5,2.2-1.8,2.7c-0.4,0.4-3,2.4-3.7,3c-0.8,0.6-2.7,1.8-4.2,1.8s-3.1-0.4-3.8,0.3
		c-0.7,0.7-2,1.6-2.5,1.8c-0.5,0.2-2.3-0.1-2.3-0.8s-1-0.7-1-0.7s-1.4,0.4-1.9,0.6c-0.6,0.2-2,0.6-3.3,1.4c-1.3,0.7-1.8,1.2-1.9,1.5
		c-0.1,0.3-1,0.7-1.5,0c-0.5-0.7,0.3-1.2,0.7-1.5c0.5-0.4,0.5-0.7,0.5-0.7S302.6,552.5,301.2,552.8z M268.3,287.3l-1.4,1.5l-0.2-1.3
		l0-0.9l-2.1,0.6l-1.9,1.2c0.1-1.5,0.1-1.3-1-1.5c-1.1-0.3-1.7,0.1-1.7,0.1l-1.8,1.7c0,0,0-0.6-0.6-2.7l-2,2c0,0,0.1-1.2,0.7-2
		c0.6-0.9,0.4-1.7,0.4-2.5c0.1-0.8,2.4-2.5,3.7-3.7c1.3-1.1,2.2-1.3,2.2-1.3s-2.3-1.5-3.9-3.3c-1.6-1.7-4-2.3-4-2.3l-1.8,4.7
		l-2.2,1.3c0,0-1.5,0.5-2.7,1.7c-1.3,1.1-2.9-0.3-2.9-0.3s-1,0.1-2.2,0.1c-1.2,0-2.8,0.9-5.2,0.4c-2.4-0.5-0.8-0.2-1.8-0.1
		c-1,0.2-3.4-0.1-3.4-0.1l2-1.1l-1.1-0.2l-4.6,0c0,0,1.4-0.5,2.9-1.1c1.5-0.5-0.4-1-0.4-1l-3.4,0.6l2.5-1.3l1.5-1.2
		c0,0,3.9-0.5,6.1-0.3c2.2,0.1,2.3,0.3,2.2-1.9c-0.1-2.2-1.3-3.9-1.3-3.9s-2.6,0.1-6.4,0.2c-3.9,0.1-7.9,2.8-10.5,3.2
		c-2.7,0.4-10.3-0.2-10.3-0.2s1,0.1-0.1,1.2c-1,1.1-18.5,9.1-18.5,9.1s-4.4,1.2-8.1,1.9c-3.7,0.7-3.2,1.1-13.8,1.3
		c-10.6,0.2-2.7-0.1-4.1,0.9c-1.4,1-3.3,0.8-3.3,0.8l0.9-0.7c0.9-0.7,0.5-0.9,0.5-0.9l-2.2,0.1l-6,2.3c0,0,2.4-1.8,4.2-4.4l-5.8,2.5
		l4.5-3.5l-2.7,1c0,0,0.1-0.8,2.5-2.6c1.9-1.3,2-1.5,2-1.5c0,0,0,0,0,0s0,0,0,0c0.4-0.1,3.8-0.7,6.3-2c2.7-1.3,5.9-3.2,5.9-3.2
		s-2.2-1.5-5-1.6c-2.8-0.1-5.2-1.4-8.4-1.3c-3.2,0.1-6.2,1.4-8.5,1.3c-2.3-0.1-5.8-0.4-6.3-1.2c-0.5-0.8-2.6-2.9-3.8-6.4
		c-1.3-3.5,0.8-6.6,1.1-7.9c0.4-1.4,1.8-2.4,3.1-4.5c1.3-2.1,1.4-3.8,1.4-3.8s2.4-3.1,3.6-5.5c1.3-2.3,3.4-3.5,4.9-5
		c1.5-1.5,3.8-3.1,5.3-4.8c1.5-1.8,5.4-5,6.6-5.8c1.2-0.8,1.9-2,3.3-4.1c1.4-2.1,2.6-2.8,3.8-2c1.2,0.7,1.4,4.4,1.4,4.4l0-0.1
		c0,0,2.9-0.4,5.6-1.5c2.7-1.2,5.4-1,10.7-1.6c5.3-0.6,15.6-4,24.5-7.5c8.8-3.5,16-2.8,24.1-3.2c8.1-0.4,11.8,2.2,17.2,4.5
		c5.4,2.3,11.3,3.8,15.1,5.5s12.5,9.3,15.4,12.4c2.9,3.1,2.4,9.3,1.5,12c-0.9,2.8-1.6,2-1.6,2s-0.6,2.8-2.4,6.1
		c-1.9,3.3-5.1,4.3-9.1,7c-4,2.7-0.4,3.6,0.3,8.2c0.7,4.6,2.6,4.5,2.4,7.3c-0.2,2.8-3,2.7-3.3,3.7c-0.3,1-1.9,0.1-3.1,2.1
		c-1.1,2-3.1,1.7-5.3,2.4C266.3,286.8,268.3,287.3,268.3,287.3z M312,185.6c0,0-5.3-0.3-9.5-2.2c-4.2-2-4-3.1-5.8-4.2
		c-1.7-1.1,0-2.6,0-2.6s2.9,0.5,4.4,1.8c1.5,1.3,1.9,1.5,1.9,1.5s-0.2-1-0.6-2.4c-0.4-1.4-1.1-2.5-1.1-2.5s0-0.4,2.2,0.4
		c2.2,0.8,3.1,2.1,4.8,3.4c1.8,1.3,6.3,0.9,6.3,0.9l-1-0.2c0,0-2.9-2.6-4-5.1c-1.1-2.5-1.1-2.3-1.1-3.1c0-0.8,0.4-2.8,0.2-4.4
		c-0.2-1.7,3.3-2.6,3.3-2.6l2.8,0.1c0,0,3.6-0.2,5.2,0c1.5,0.2,7.9,2.5,7.9,2.5l0,0.1c0,0,1.2,1,1.2,2c0,1,4,3,6.3,3.9
		c2.3,0.9,2.4,2.9,3.5,2.5c1.1-0.4,2.1-2.5,2.9-4c0.8-1.5,2-3.5,2.2-4.7c0.2-1.2,0.9-4.6,1.3-6.2c0.4-1.7,1.8-3.3,4.1-4.8
		c2.4-1.4,2.9-1.6,3.3,0c0.4,1.7-3.6,5.3-5.1,8.5c-1.5,3.2-1.7,4.9-2.4,6.6c-0.7,1.7-2.4,3.6-5.3,5.5c-2.9,1.8-1.8,1.8-1.8,1.8
		s0.9-0.5,3.8-1.6c2.9-1.1,2.9-2.2,5.1-5c2.2-2.8,1.3-2.7,2.2-3.7c0.9-1,2-3.5,3.4-5.4c1.5-1.9,1.8-1,1.8,0s-0.8,4.2-2.8,8.1
		c-2,3.8-4.9,6-7.1,7.3c-2.1,1.3-5.7,2.2-5.7,2.2s-0.9,1.1-1.4,2.9c-0.5,1.8-0.5,2.7-0.5,2.7l0.8,1.8l2.4,2.3c0,0,1.3,4.6,1.6,6.1
		c0.3,1.5,0.7,2,0.7,2l-2.7,1.8l-0.4-0.8c0,0,0.4-3.3-0.2-5.3s-1.6-3.5-2.4-5.1c-0.8-1.6-3.6-1.1-3.6-1.1s-2.3,0-4.6,1.2
		c-2.3,1.2-3.2,2-5.7,6.1c-2.6,4-2.7,7.2-2.7,7.2s-0.9,2.5-1.7,5.7c-0.7,3.2-1.9,2.9-3.4,2.3c-1.5-0.6-0.1-5.5,1-9.1
		c1.1-3.6,3.8-6.4,6-8.4c2.2-2,4.6-2.9,5.8-3.7c1.2-0.8-1.2-1.2-1.2-1.2s-0.7,0-3.3,0.5c-2.6,0.6-2.3,1.2-6.8,3.5
		c-4.5,2.2-3.1,2.4-3.1,2.4s-2,1.8-4.4,5.7c-2.5,3.9-5.2,6.2-5.2,6.2s-1-1.4,0.3-5c1.3-3.6,2.7-5.7,2.7-5.7s-3.8,3.3-5.7,4.9
		c-2,1.6-2.4,2.1-3.8,1.7c-1.3-0.4,0-1.5,1.1-3.7c1.1-2.2,1.3-2.4,1.3-2.4s-1.1,0.4-2.4,0c-1.3-0.4,0.7-1.8,0.7-1.8L297,194
		l-1.3-1.2c0,0,1.3-1.3,3-3.1c1.8-1.8,4.2-2,6.4-2.6c2.2-0.5,9.1-1.3,9.1-1.3L312,185.6z M537.2,107.4c-1.2-0.8-1.4-0.9-1.4-0.9
		c0,0,0,0,0,0s0,0,0,0c0.1,0,2.5,0.7,3.1,0.4c0.6-0.3,1.4-0.3,0.5-0.9c-0.9-0.6-0.9-0.6-0.9-0.6s4.3,2.1,5.7,2.6
		c1.4,0.5,4.1,1.2,6.2,2.4c2.1,1.2,7.3,4,7.7,4.9c0.3,0.9-0.3,4.7-1,6.7c-0.7,2-0.8,6.2-0.7,7.6c0.1,1.4,2.1,6.7,2.6,7.1
		s1.4,1,2.6,0.4c1.3-0.6,2.9-1.8,6.1-0.2c3.2,1.5,3.8,1.8,4.9,2.3c1.1,0.5,3.8,1.4,4.7,1.4c0.9,0.1,3.4,0.8,2.9,1l-0.5,0.2v0
		c0,0-1.5,0.3-3.4,0c-1.9-0.4-5.9-1.1-5.9-1.1s-0.6,0-1.7,0.2c-1.1,0.2-3.5,0.6-4.3,0.9c-0.8,0.3-2,0.7-1.2,1.3
		c0.8,0.6,4.5,2.4,5.5,2.8c1,0.4,3.7,1.5,3.7,1.5s-0.7,1.5-1.2,2.8c-0.5,1.2-0.7,3.8-2.3,4.9c-1.6,1.1-3.9,2.8-4.4,3.3
		c0,0,0.1-0.1-1.3,1.1c-1.1,0.9-0.9,0.1-0.7-0.3c-0.2,0.4-0.7,1.6-1.4,1.9c-0.9,0.4-1,0.3-1,0.3l1.5-2.4c0,0-1.6,0.5-2.4,1.3
		c-0.7,0.8-0.8,0.9-0.8,0.9l1.9-2.5c0,0-1.1,0.5-1.8,1.2s0.9-1.3,0.9-1.3l-1.4,1.2l1-1.7l-0.9-0.6c-0.6,0.9-0.1-0.1-0.1-0.1l0.1,0.1
		c0.1-0.2,0.2-0.4,0.4-0.7c1.2-1.9,3.1-5.8,2.6-6.9c-0.5-1.2-2.2-3.6-5-4.9c-2.8-1.4-3.6-1.2-5.8-1.6c-2.2-0.4-4.5-0.6-5.5-0.9
		c-1-0.3-1.2,0.2-2.6,0.1c-1.4,0-2,0.8-3.4-0.8c-1.3-1.7-1.6-2-1.6-2l0.5-2c0,0,4.5,1.1,4.9,0.8c0.4-0.3,2.7-1.4,2.7-1.4
		s0.2-5.4-0.6-7.7c-0.7-2.3,0.2-7,0.2-8.6c0-1.6-0.2-4.5,0.9-4.6c1,0,0.4-0.7,0.4-0.7s-0.1-0.1-2.7-1.7c-2.6-1.7-3.7-2.4-4.8-3.1
		c-1.1-0.7-1.4-0.9-1.4-0.9s-0.6-1.1-1.8-1.2s1.8-0.2,1.8-0.2l-2.6-1.1l3.2,0.4C537.7,108.3,538.6,108.3,537.2,107.4z M528,175.3
		c3.1,1,6.6-3.5,6.6-3.5h5.6c3.1,0,5,5,5,5l0,0c0,0,1.7,2.3,3.4,2.9c1.7,0.5,5.2,4,5.7,6.9c0.6,2.9,3.4,4.8,3.4,4.8s0.9,0.7,1.1,2.9
		c0.3,2.1,5.7,5.9,5.7,5.9s-0.3,2.9-0.3,5.2c0,2.2-0.2,2.5-0.2,2.5s-2,2.3-3.4,4.6c-1.4,2.3-7.6,5-11,4.3c-3.4-0.7-6.9,0-6.9,0
		s-3,0.7-7.3,1.4c-4.3,0.7-6-0.5-7.2-1.4c-1.2-0.9-6.3,2.9-6.3,2.9l-9.7,8.3c0,0,0.9,2.5,1.3,6.8c0.4,4.3-1.9,7.2-4.8,11.4
		c-2.9,4.2-2.5,25.8-2.5,25.8s0.7,6.4,1.9,8.8c1.2,2.3,9.1,7,8.3,8.7c-0.8,1.8-8.4,0-13.1,0c-4.7,0-7.5-2.7-7.5-2.7l-2.1,2.5
		c0,0-16.7-1-19.1-2c-2.4-1-1.4-7.9-1.4-11s0.3-14.9,0.3-18s-1-5.1-1-5.1l-9.2-0.6c0,0-8.8,0.2-11.8,0.6c-3.1,0.3-8.8-1.5-14.8-3.1
		c-6-1.6-6.9-3.1-10.8-4.2c-3.9-1-4.3-1.1-8.7-2.1c-4.4-1-3.2-1.4-8.7,0.8c-5.5,2.1-3.8,3.1-3.8,3.1s-2.4,15.2-2.4,16.7
		c0,1.5-1,12.3-1,12.3s5,5.5,7.6,6.3c2.5,0.8,8.1,4.5,6.4,5.7c-1.7,1.2-10.9,0-18.7,0s-6-6-6-6s-1.7-2-2.9-4c-1.2-2.1,0-2.5-3.2-4.1
		c-3.2-1.5-0.9-8.8-0.9-10.2s0-7.7-0.6-9.8c-0.6-2.1-3.1-3.9-3.1-3.9l-13.8,17.1c0,0-3.2,4.4-3.2,7.2s2.8,5.3,2.8,5.3
		s4.1,1.8,5.8,2.3c1.8,0.5,0.7,4.8,0.7,4.8s-4.1,1-5.6,1s-4.9-0.7-9.5-1.2c-4.6-0.5-2.8-2.1-4.1-3.4s-1-2.8-1.6-4.7
		c-0.6-1.9-4.3-10.7-5.3-13.3c-1.1-2.6,2.4-6,4.1-7.8c1.7-1.9,4.6-8.8,5.5-11.8c0.9-3,2-12.7,2.4-15.4c0.4-2.7,1.4-10.2,1.4-10.2
		l-7,10.2c0,0-7.9,10-12.6,13.1c-4.6,3.1-10.8,3.4-16.1,3.4c-5.3,0-11.6-3.7-13.2-4.6c-1.7-1-3.8-9.1-3.8-9.1s0-3.9,1.5-6.8
		c1.5-3,5.4-4,8.7-2.9c3.3,1.2,0.3,3.4-1.8,5.8c-2.2,2.5-0.9,3.3,0.3,5.6c1.2,2.3,3.2,3.6,7.7,4.3c4.6,0.7,9.3-2.1,12.4-3.6
		c3.1-1.5,9.4-10.7,14.4-17.9c5-7.2,9-19.5,10-20.5c1-1,4.5-5.2,4.5-5.2s7.9-3.2,12.3-4.3c4.4-1.1,7.7-1.8,11.2-1.8
		c3.4,0,4.3-0.6,9.4-1.6c5.1-1,8.9,1.9,13.4,2.6c4.6,0.8,20.6,2.6,20.6,2.6s12.4,1.4,23,2.1c10.6,0.7,23.3-4.5,26.1-6.1
		c2.8-1.6,2.1-1.5,6.5-4.1c4.4-2.6,10-2.1,15.1-3.1c5.1-1,14.3-1.6,14.3-1.6S524.9,174.3,528,175.3z M375.3,140.2
		c0.2,1.5,3.3-1.5,3.3-1.5l8.4-5.6c0,0,3.7-3,7.3-6.1c3.6-3.1,4-3.4,5.6-4.2c1.6-0.8,0-2.6,0-2.6s-4.9-0.2-4.6-1.3
		c0.3-1.1-3.9-1.7-3.9-1.7l-4.5-1.1l-0.1-2.8c0,0-0.2,1.2-2.2,0s0-4.9,0-4.9l1.5-2.9c0,0,0.8-0.1,0.1-1.4c-0.7-1.2,2.4-5.6,6.4-9.7
		c4-4.2,5-4.3,5-4.3l-0.3-1.6c0,0-1.3-2.2-1.5-5.3c-0.2-3.1,2.2-1.4,2.4-3.5c0.3-2.1,1.4-3.5,1.4-3.5h3.8c0,0,2.4,0,4.3,3.1
		c1.8,3.1,8.4,3.8,8.4,3.8v0c0,0,1-2.2,2.7-4.7c1.7-2.5,2.8,0,2.8,0h2.2c0,0,1,1.5,3.3,0.9c2.3-0.7,2.3,0,2.3,0s-1,2.5,0.7,2.7
		c1.7,0.3,4.7,0.9,4.7,0.9l0.3,2.5c0,0,1.4,2.5,2.3,1.4c1-1.1,15.7-1.1,23.9-1.7c8.2-0.5,17.6-0.4,29,1.7
		c11.5,2.1,20.4,13.6,25.8,20.9c5.3,7.2,1.3,10-0.6,15.4c-2,5.4-1.4,6.3,0.3,10.2c1.7,3.9,1,2.8,0,4.2s0,2.3,0.7,4.7
		c0.7,2.5,1.7,1.5,1.7,3.2s1.3,3.1-0.4,2.8c-1.7-0.3-2.3-1.5-2.3-1.5s-1.8,2.5-5.4,3.1c-3.6,0.5-1-0.3-2.4-1.8
		c-1.3-1.6-1.7-0.7-3.5-1.3c-1.8-0.6-0.4-2.6-0.4-2.6l-0.3-2c0,0-3.2-2.2-5.5-3.4c-2.3-1.2-1.7,1.2-1.7,1.2s2.3,10.8,3.3,13
		c1,2.2,1.7,3.3,1.7,3.3l1.7,3.1c0,0-1.4,3.9-3.4,4.5c-2,0.6-4.6-0.9-4.6-0.9l-0.7-2.6c0,0,0.9-0.7-0.4,0.2
		c-1.3,0.8-4.7-3.3-4.7-3.3s-0.7,0.3-3.3,0.3c-2.7,0-3.2-2.5-4.4-3.7c-1.2-1.1-2.7-7.3-2.7-7.3s-2.5-4.3-2.5-6.3s0.9-4.2-0.4-5.5
		c-1.3-1.4-1.7-4.1-4-5.4c-0.3-0.2-0.5-0.3-0.6-0.4l-1.3,3.6c0,0-1.2,0-0.5,4.4c0.7,4.4-4,11.2-6,17c-2,5.8-10.4,10.2-10.4,10.2
		s0.7-0.2-0.4,1.9c-1.1,2.1-4.4,4.1-4.4,4.1l-1.9-2c0,0-1.6,1.7-4.7,1.7s-0.3-2.8-0.3-2.8l-2.4,2.2c0,0-0.7-0.8-0.3-2.5
		c0.3-1.7,2.3-1.9,2.3-1.9l-0.4-20.7c0,0-0.4-4.8-0.4-7.1c0-2.2-2.1-2.8-5.8-4.2c-3.7-1.4-8.4,3.1-8.4,3.1s-29.5,13-31.5,13
		s-5.8-0.5-8.4-1.9c-1.4-0.7-1.8-1-1.8-1.2c-0.6,0.3-2.9,1.2-4.7,1.2c-2.2,0-7.5,1.2-7.5,1.2s-3,2.4-4.4,3.4c-1.4,1-2.1,0-3.3-2.1
		l-2.5,1.5c0,0,0-1.7,3.2-4c3.2-2.2,1.9-3.5,1.9-3.5l-5.1-0.3l7.5-2L375.3,140.2z M306.4,99.9c1.2-1.2,2.6-1.6,3.7-1.5
		c1.2,0.1,2.3,0.1,2.3,0.1l-0.1-0.5c0,0,1.9-1.9,3.2-1.9s4,1,4.3,1.9s0.7,1.2,0.7,1.2s2.5,0.7,3.3,1.1c0.9,0.4,4.2,1.3,7.5,2.6
		c3.2,1.3,8,2.1,9,2.1s3.5,0.3,4.5,0.5c1.1,0.2,3.3,0.9,4.6,1.4c1.2,0.5,5.6,1.1,6.3,1.3c0.7,0.2,2.2,0.8,2.2,0.8l3.7,0.4
		c0,0,2.4,1,2,1.5c-0.4,0.6-1,1.2-1,1.2l1,1.5c0,0,1.7,0.5,2.2,0.9c0.4,0.4,2.1,0.4,1.2,2.1c-0.8,1.7-2.1,3.1-2.6,3.7
		c-0.5,0.6-4.3,3.4-5.3,4.2c-1.1,0.8-3.9,2.5-6,2.5c-2.2,0-4.5-0.5-5.5,0.4s-2.9,2.2-3.6,2.5c-0.8,0.2-3.3-0.2-3.3-1.1
		S339,128,339,128s-2,0.6-2.8,0.8c-0.8,0.2-2.9,0.9-4.7,1.9s-2.6,1.6-2.8,2.1s-1.4,0.9-2.2,0c-0.8-0.9,0.4-1.6,1.1-2.1
		c0.7-0.5,0.8-1,0.8-1s-4.3-0.7-6.3-0.3c-2,0.4-2.9,0.2-2.8-0.6c0.1-0.8,1.8-1.1,3.6-1c1.9,0.1,3.4-0.1,3.9-0.4
		c0.6-0.3,3.4-1.2,3.4-1.2l0.6-0.8c0,0,0.3-0.3,0.4-0.6c0.1-0.3,0.7-4.6,0.7-4.6s-0.9-0.7-1.6-0.7s-4.4,0.6-4.4,0.6
		s-1.1,0.5-0.3,1.4c0.8,0.9,0.4,1.6-0.1,1.6c-0.5,0.1-2,0.9-2.3-0.8c-0.3-1.7-0.6-2-0.6-2s-4.6,0-5.6,0.2c-1,0.2-3.5,1.1-4.5,1.3
		c-1,0.2-2.6,0.4-2.4-0.5c0.2-0.9,1.5-1,2.3-1.1c0.8-0.2,4.4-1.6,4.4-1.6s1.4-0.3-0.2-0.7c-1.6-0.4-2.7-0.8-2.7-0.8s-0.1-0.5,1-0.4
		c1.1,0.1,4.7,0.2,4.7,0.2l3.9-0.6c0,0-0.8-1.6-2.4-2.4c-1.6-0.8-4.8-2.4-6.1-3.5c-1.3-1.1-6.9-5.5-7.2-6.1
		C307.5,103.5,305.2,101.2,306.4,99.9z M106.5,265.2c1.9-10.3,2.7-15.9,5.3-22.7c1.9-5.1,6.1-16.6,17.6-29.6
		c22.9-25.8,43.6-25.7,47.1-33.6c1.8-4,2.7-7.7,3.2-10.3c-0.1-1.2,0.1-2.5,0.5-3.9c0-0.1,0-0.2,0-0.2l0.1,0
		c3.4-10,19.1-23.9,23.5-26.2c5.1-2.8,29.9-8.6,29.9-8.6s4.1-1.4,12.1-3.2s10.5-1.1,10.5-1.1s3.2-1.5,6-1.7c2.8-0.3,8.7-2.8,8.7-2.8
		s1.8-0.7,3.8-2.7c2-2,4.7-0.5,4.7-0.5l1.2,0.5l2-0.2c0,0,2.3,0.1,3.5,2c1.1,1.9,0,2.4,0,2.4s3.4,2.5,5.2,3.5
		c1.8,0.9,4.3,2.1,5.5,4.5c1.2,2.5,1.3,2.6,4.6,5.8l0,0c3.3,3.3,3.5,4.8,2.9,7.9c-0.2,1.2-8.7,2.9-8.7,2.9c-2.8,0.3-3.6,0.4-5-0.6
		c-1.4-1-4-1.7-5.9-2.5s-1.3,0.3-4.3-0.6c-3-1-4.3-1.7-5.6-1.6l-2.8,0.3c0,0-0.2,0.9,0.2,3c0.3,2.2-2.1,6.4-4.3,10.2
		c-2.2,3.8-2.6,6.5-2.6,6.5l1.8,0.5c1.8,0.5,8.8,0.7,8.8,0.7s0.8-0.1,0.4-1.3c-0.4-1.2,6.5-2.7,9.6-0.8c3.1,1.8,1,6.6,0,8.5
		c-1,2-8.1,2.7-11.3,3c-2.7,0.3-5.1-0.6-5.8-0.9c0.5,0.7,1.6,2.7,4.1,7.7c5.2,10.3-2.8,11.2-6.4,12.9c-3.6,1.7-7.2-2.2-7.8-3.4
		c-0.6-1.1,1.4-1.9,1.3-2.5c-0.1-0.6,1.4-1.7,2.4-2.8c1-1.1-1.9-4.8-3.7-5.9c-1.8-1.1-7.2-3.4-7.2-3.4s-0.1,6.4,0,10.6
		c0.1,4.2-5.3,7.1-6.2,7.2c-0.9,0.1,5.1,2.3,8.2,2.3c3.2,0.1,9.4,0.6,14.4,3.1c5,2.5,2.9,5.9,1.4,6.7c-1.5,0.8-3.1-1-4.3-1.7
		c-1.3-0.7-8.9-1.7-8.9-1.7s-6.7-0.1-9.4,1s-16.5,2.9-21.6,2.2c-5.1-0.7-14.4,0.7-18.5-0.5c-9.5-2.7-16.1-5.3-20.7-7.8
		c-11.5,1.6-26.9,8-42.4,19.7c-23.7,17.9-22.8,38.8-25,48.9c-2.2,10,1.2,9.1-8.5,14.5C100.4,284.4,104.6,275.5,106.5,265.2z
		 M77.9,325.4c21.4-6.7,46.5-11.3,79.4-11.3c92.4,0,119.2,46.6,119.2,97.3c0,50.7-26,96.2-115,96.2c0,0,0,0,0,0h0c0,0,0,0,0,0
		c-34.7,0-62.5-3.8-83.6-11.3V325.4z M205.3,629.5c-1.7,0.3-1.7,1.3-3.1,3.2s-0.1,1.9-1.4,2.9c-1.3,1-1.5,2.5-2.3,1.4
		c-0.8-1.1-0.2-2.2-0.2-2.2s-3,0.5-5.5-1.2c-2.6-1.7-0.4-0.7,0-2.4c0.4-1.7-0.5-1.3-1.2-2.7c-0.6-1.4,1.7-1.8,1.7-1.8l1.3-1.3
		c0,0-0.2-3.1-0.8-5.1c-0.5-2-1.9-0.3-1.9-0.3s-6.7,7.7-7.7,9.5c-1.1,1.9-1.5,2.9-1.5,2.9l-1.2,2.8c0,0-3.8,1.5-5.4,0.7
		c-1.6-0.8-2-3.1-2-3.1l1.5-1.9c0,0,1,0.2-0.4-0.1c-1.4-0.3-0.3-4.6-0.3-4.6s-0.6-0.2-2.2-1.7c-1.6-1.5,0-3.3,0.1-4.6
		c0.1-1.3,3.8-5.8,3.8-5.8s1.7-4,3.2-5.2c1.5-1.2,3.7-1.9,3.9-3.5c0.2-1.6,2-3.4,1.7-5.4c0-0.2-0.1-0.4-0.1-0.6l-3.4,1.4
		c0,0-0.7-0.7-3.6,2.3c-2.9,3-10.8,4.3-16.3,6.5c-5.5,2.2-13.9,0.1-13.9,0.1s0.6,0.3-1.6,0.9c-2.2,0.6-5.7-0.1-5.7-0.1l0.4-2.2
		c0,0-2.2,0.1-4.1-1.7c-1.9-1.8,1.9-1.8,1.9-1.8l-3,0c0,0,0.2-0.9,1.7-1.7c1.5-0.8,2.8,0.2,2.8,0.2l15.2-12.4c0,0,3.4-3.1,5-4.4
		c1.7-1.3,0.8-2.8-0.3-5.7c-1.2-2.9-7.3-2.9-7.3-2.9s-27.3-9.1-28.5-10.2c-1.2-1.1-3.1-3.5-3.6-5.8c-0.3-1.2-0.3-1.6-0.2-1.7
		c-0.6-0.2-2.6-1-3.7-2c-1.3-1.2-5.4-3.5-5.4-3.5s-3.6-0.3-5.2-0.5c-1.6-0.2-1.2-1.2-0.4-3.1l-2.6-0.6c0,0,1.3-1,4.8-0.5
		c3.6,0.5,3.8-1,3.8-1l-2.8-3.1l6,3.1l4,2.8c-1,1,3.1,1,3.1,1l9.1,1.5c0,0,4.5,0.4,9,0.6c4.5,0.2,4.9,0.3,6.5,0.7
		c1.5,0.4,1.9-1.5,1.9-1.5s-2.8-2.9-1.8-3.4c1-0.5-1.1-3.2-1.1-3.2l-1.9-3.2l2-1.7c0,0-1,0.6-1.3-1.2c-0.3-1.8,3.6-2.9,3.6-2.9
		l3.1-0.8c0,0,0.5,0.4,1.1-0.8c0.5-1.1,5.6-1.9,11.1-2.1c5.5-0.2,6.2,0.3,6.2,0.3l1-1.1c0,0,0.9-2.1,3.1-3.9c2.2-1.9,2.3,0.4,4-0.7
		s3.4-1.2,3.4-1.2l0.8,0.8l1.4,1.4c0,0,1.4,1.4,0.2,4.2c-1.2,2.9,2.1,7,2.1,7l0,0c0,0,2.3-0.7,5.1-1.3c2.9-0.5,1.7,1.6,1.7,1.6
		l1.3,1.3c0,0-0.5,1.5,1.3,2.4c1.9,1,1.4,1.3,1.4,1.3s-2.4,0.9-1.6,2c0.8,1.1,2.2,3.1,2.2,3.1l-1.7,1.7c0,0-1.1,2.2,0.4,2.1
		c1.4-0.1,10.2,8.2,15.5,12.5c5.3,4.3,10.8,9.7,16.1,17.4s2,19.6-0.2,26.8c-2.2,7.3-6.7,6.6-11.9,8.7c-5.2,2.1-5.6,2.9-7.4,6.1
		C206.6,630.4,207,629.3,205.3,629.5z M276.9,667.2c-0.9,1.4-6,1.1-9.1,2.2c-3.1,1.1-4.5,2.1-6.1,2.7c-1.6,0.6-4.1,0.8-7.2,0
		c-3.1-0.7-2.4,0-2.4,0s0.9,0.2,3.5,1.4c2.6,1.2,3.4,0.5,6.7,0.1c3.3-0.3,2.7-0.9,4-1c1.3-0.1,3.7-1,5.9-1.2
		c2.2-0.2,1.8,0.5,1.1,1.2c-0.7,0.7-3.4,2.2-7.4,3.4c-3.9,1.2-7.3,0.7-9.6,0.1c-2.3-0.6-5.2-2.4-5.2-2.4s-1.3,0.1-2.9,1
		c-1.6,0.9-2.2,1.4-2.2,1.4l-0.7,1.7l-0.1,3.1c0,0-2.4,3.9-3.2,5c-0.9,1.2-1,1.8-1,1.8l-3-0.6l0.3-0.8c0,0,2.5-1.9,3.5-3.7
		c1-1.8,1.4-3.3,2-4.9c0.6-1.6-1.5-3.1-1.5-3.1s-1.5-1.6-3.8-2.3c-2.3-0.8-3.4-0.8-7.9,0.2c-4.4,0.9-6.7,2.9-6.7,2.9s-2.3,1-5,2.6
		c-2.6,1.6-3.2,0.7-3.8-0.8c-0.5-1.5,3.8-3.7,7-5.3c3.2-1.6,6.9-1.6,9.7-1.5c2.8,0.2,5,1.2,6.3,1.5c1.3,0.3,0.1-1.6,0.1-1.6
		s-0.4-0.5-2.5-1.9c-2.1-1.4-2.4-0.7-6.8-2.3c-4.4-1.5-3.6-0.5-3.6-0.5s-2.5-0.1-6.8,0.8c-4.3,0.9-7.6,0.6-7.6,0.6s0.3-1.6,3.6-3.1
		c3.3-1.5,5.7-1.9,5.7-1.9s-4.7-0.4-7-0.7c-2.4-0.3-3-0.3-3.6-1.4c-0.6-1.1,1-1,3.3-1.7c2.2-0.7,2.5-0.7,2.5-0.7s-1-0.5-1.6-1.6
		c-0.6-1.1,1.7-0.8,1.7-0.8l-1.2-0.5l0.1-1.7c0,0,1.7,0,4.1,0c2.4,0,4.1,1.5,5.9,2.6c1.8,1.1,6.7,5.3,6.7,5.3l-1.3-1.7
		c0,0-3.2-3.7-4.5-7.8c-1.3-4.1-0.5-4.7-0.8-6.6c-0.3-1.9,1.8-1.7,1.8-1.7s1.4,2.3,1.5,4.2s0.2,2.3,0.2,2.3s0.6-0.8,1.3-2
		c0.7-1.2,1.1-2.4,1.1-2.4s0.3-0.3,1.1,1.8c0.8,2,0.5,3.5,0.7,5.5c0.2,2,3.4,4.8,3.4,4.8l-0.5-0.8c0,0,0-3.6,1-6
		c1.1-2.4,0.9-2.3,1.5-2.8s2.2-1.5,3.2-2.7c1-1.2,3.9,0.5,3.9,0.5l1.7,1.9c0,0,2.4,2.3,3.3,3.5c0.8,1.2,3.3,7,3.3,7l0,0
		c0,0,0,1.5-0.6,2.1c-0.7,0.6,0.5,4.6,1.3,6.8c0.8,2.2-0.5,3.5,0.5,4c1,0.5,3-0.2,4.6-0.7c1.6-0.5,3.7-1,4.7-1.6s3.8-2.4,5.2-3.2
		c1.4-0.8,3.4-1,6-0.3C277.3,665.6,277.7,665.8,276.9,667.2z M279.3,598.4c0,0-1.3,17-1.8,23.5s3.5,10.7-0.5,13.7
		c-4.1,3-6.7,4-6.6,0c0.1-4,1.2-6.7,1.2-6.7l-2.2-1l-1.1-38.4c0,0-11.8-8.8-16.2-13.9s-10.3-15.2-9.7-23.3c0.7-8.2,1.3-8.6,1.3-8.6
		l-9.5-0.2c0,0-2,0.1-2.4,0.2c-0.4,0.2-1.1-5.8,1.9-7.3c3-1.5,1.7-1,1.7-1l-0.1-1.5l0,0c0,0,1.7-5.6,8.7-5.6s10.1,1.7,13.3,5.6
		c3.2,3.9,12,9.8,16,14.3c4,4.5,4.5,9.1,5.8,15.7c1.3,6.6,0,20.2,0,23.4s5.5,6,7.8,11.6c2.2,5.5,2.8,8.6,2.8,8.6L279.3,598.4z
		 M500.5,711.1c-5.5,3.2-19.1,11.9-38.1,12.7c-19,0.7-37.2,2.5-56.5-3.9c-19.2-6.4-39.7-23.3-39.7-23.3s-3.1,8.2-2.5,9.4
		c0.6,1.2,7.3,11.7,6.2,14.1s-1.1,2.9-1.1,2.9s-52.5,2.2-55.4,2.2s-5-4.2-0.8-5.2c4.2-1.1,32-0.6,32-0.6s6.2-0.3,7.8-1.1
		c1.6-0.9,4.8-1.8,4.8-3s4-10.1-0.4-13.7c-4.4-3.6-9.1-5-9.1-5l-1.1,12.5c0,0-1.4,3.2-4.5,3.7c-3.1,0.4-31.1,0.6-41.1-0.2
		c-10.1-0.9-10.3-4.1-10.3-4.1l-0.8-2c0,0,7.1,0.2,14.2,0.9c7.1,0.7,21.3,0.7,21.3,0.7h8.2c0,0,2.3,0.3,3.2-2.3
		c0.9-2.7,0.6-18.3,0.6-18.3s-9.1-6.1-10.8-9.8s-1.7-11.9-0.8-18.3c0.8-6.3,0.6-13.6-2.5-15.8c-3-2.3-4.3-1-4.8,0
		c-0.5,1,0.7,5.2,1.6,6.8s2,4.2,1.7,5.9c-0.3,1.7-2,3.8-2,3.8s-2.8,1.2-5.1-4.5c-2.3-5.8-3.7-16.5-2.6-18.2c1.1-1.7,1.3-2.6,1.6-5.8
		c0.2-3.2-1.5-12.9-1-18.6c0.5-5.7,1.2-6.1,3.1-13.2c1.9-7.1,1.1-12,1.1-12s-5.4-0.7-6.8-0.2c-1.4,0.5-9.6,1-7.8-2.9
		c1.8-3.9,15.8-10.3,16.9-11.2c1.1-0.9,5.8-4.6,8.2-5.4c2.4-0.7,3.7-0.5,4-1.4c0.3-0.9,3.2-5.4,3.2-5.4l0,0c0,0,2.5-3.5,5.3-3.9
		c2.8-0.4,6.8,0,5.7,2c-1.1,2-2.9,4.3-4.2,5.1c-1.2,0.8-2.7,2.9-2.7,2.9s-0.6,0.7-0.3,2.2c0.4,1.5,2.4,0.6,2.9,3
		c0.5,2.4,2.2,3.8,0.5,6.7c-1.7,2.9-3.4,8.9-4.9,10.2c-1.4,1.3-1.7,3.4-1.4,4.5c0.3,1.1,2.8,5.5,2.8,5.5s38.6,31.8,39.2,32.7
		s6.6,6.7,9.6,15.7c3.1,9,3.1,9.8,2.6,20.2c-0.6,10.5-0.4,21.3,1.1,24.2c1.5,2.9,15.7,12.4,25,16.1c9.4,3.7,8.5,4.5,23.8,6.7
		c15.3,2.2,25.2,2.7,37.8,0c12.6-2.7,24.1-8.5,25.5-7.8C504.4,707.6,506.1,707.9,500.5,711.1z M577.2,644.2c2.2,4,9.4,6,12.1,7
		c2.7,1.1,3.4,3.5,3.4,3.5l3,0.8c0,0,1.7-0.2,6.1-0.7c4.4-0.5,6.3,1.2,6.3,1.2s2,2.2,0.3,1.9c-1.8-0.3-3.4,0.1-3.4,0.1l1.1,1.1
		l-1.1,0.2c0,0-3.3,0.2-9,0.4c-5.7,0.3-10-2.6-10-2.6l-15.7-6.7l-8.6-5.1c0,0,0.1,0.3,0.4,1.4c0.4,1.6,2.5,5.7,6.3,8.3s5.5,7,5.5,7
		s2,0.3,5.5,2.3c3.5,2,3.5,2.9,3.5,2.9l0.9,2.8c0,0,0.1,0.8-2-0.6c-2.1-1.4-1.7,0-1.7,0l0.6,2.7c0,0-0.1-0.4-1.8-1.8
		c-1.7-1.4-2.8-1.4-2.8-1.4s0.6,2.6,1,4c0.2,0.2,0.3,0.4,0.3,0.7c0,0.2-0.1-0.1-0.3-0.7c-0.4-0.5-1.4-1.2-3-2.7
		c-2.2-2.1-2.7-3-2.7-3l0.2,2.7c0,0-0.8-0.5-1.4-1.7c-0.6-1.3-3.5-4.1-3.5-4.1s-1.9-2.7-2.9-4.8c-0.9-2.1-11.1-5.2-11.1-5.2
		l-11.8-4.2c0,0-5.4,3.5-9.8,4.9c-4.5,1.4-9.2,2.2-9.2,2.2s-0.2,0.2-0.2,2.7c-0.1,2.4-11,9.1-12.3,11c-1.3,2,1.2,3,1.2,3
		s7.1,1.6,10.1,1.8s6,3.1,6,3.1l-3,1.3c0,0-14.9-0.3-19-2.2c-4.1-1.9-5.6-2.5-5-5c0.5-2.5,1.4-3.7,1.4-3.7l-0.9-4.4
		c0,0-0.5,0.8-5.8,2.6c-5.3,1.8-2,2.2-1.8,3.7s3.2,2.8,3.2,2.8s4.4,2.6,4.2,3.7c-0.2,1.1-3.9,0.1-3.9,0.1l-5.8-1.9L484,671
		c0,0-1.7-3.1,0-4.1c1.7-1,4.5-4.2,4.9-6.3c0.5-2.2-2.7-4.2-2.7-4.2s-15,13.7-20.2,15.7c-5.2,2-14.7,0.1-14.7,0.1s-8.7-5.8-11-8.3
		c-2.3-2.5,2.4-3.4,2.4-3.4s2.2,2.5,6.6,4.9s9,2.1,13.1,0.4c4.1-1.7,8.7-11.5,8.7-11.5s12.6-19.6,19.5-29.3
		c6.9-9.8,26.6-17.9,35.3-19.9c8.8-2,27.9-2.5,27.9-2.5s0.7,1,0.7-0.1c0-1.1,1.6-3,3.8-3.3s3.3,2.5,3.3,2.5s0.9-0.1,2.7-1.4
		c1.9-1.3,7.2-3.3,9.7-3.6c2.5-0.3,7-1.7,7-1.7l1.1-1.3l3.3,0.8l2.9,4.2l0-0.1c0,0,2.3,2.1,4.2,3.9c1.8,1.8,4,4.9,4,4.9
		s8.5,5.6,11.2,7.8c2.7,2.3,2.8,4.1,0.4,5.9c-2.4,1.8-6.3,2-6.3,2s-0.8,1.6-2.2,3.3c-1.4,1.8-7,1.1-9.2,1.7c-2.2,0.6-3.1,0.9-6,2.8
		c-2.9,2-12.4,3.4-12.4,3.4l-0.1,1.6C572,636.5,575,640.2,577.2,644.2z M653,627c-2.5,2.1-4.8,2.5-6,1.3c-1.2-1.3-1-1.8,0.9-2.7
		c1.9-0.9,3.8-3.6,2.5-7.3c-1.3-3.8-7.1-14.3-20.2-21c-13.1-6.7-44.5-19.8-44.5-19.8l-14.8,0c-5,0-4.5-2.6-9.6-2.7
		c-5.1-0.1-6.8,2.7-10.1,1.6c-3.3-1.1-7.9-1.7-7.9-1.7l-0.7,5l-0.2,1.5c0,0-11.9,0.7-13.3-0.4c-1.4-1.1,2.9-3.1,4-3.1
		c1.1,0,1.8-2.9,1.8-2.9s-3.2-0.6-7.5-3.5l-4.3-2.8c0,0-5.8,3-7.3,4.8c-1.5,1.7-4.4,4.5-4.4,4.5l-0.4,1.4l-12.1,0
		c0,0,1.4-3.4,3.3-3.4s3.7-8.7,3.7-8.7L492,577.7c0,0-1.8,1-4,1c-2.3,0-3-2.4-5.1-5.1c-2-2.7-2.4-4.5-4-5.9c-1.6-1.3-3.3-8.4-3.3-11
		s1.6-6.4,1.6-6.4l0,0c0,0-3.4,0-6.3-2.9c-2.8-3-2.9-4.3-2.9-4.3s5.2,1.3,7.7,1.3c2.5,0,14.2-13.1,26.8-15.5
		c12.6-2.4,33.9-5.2,42.8-0.1c8.8,5.1,20.8,13.2,26,21.2c5.2,8.1,7.5,15,16.9,19.7c9.4,4.7,42.7,18.5,46.2,21.5
		c3.5,3,16.4,12.6,18.4,22C655,622.7,655.5,624.9,653,627z M691.5,535.9c-0.4,0.8-7.7,6.6-9.4,8.1c-1.6,1.5-5.9,3.6-7.9,4.7
		c-2.1,1.1-3.1,3.2-3.1,3.2l5.1,0.8c0,0,4.7-0.2,6.1-0.3c1.4-0.1,1.2,0.5,1.2,0.5s-1.5,0.5-3.5,1.1c-2.1,0.6-0.3,1-0.3,1
		s4.7,2,5.8,2.2c1,0.2,2.7,0.3,3,1.5c0.2,1.2-1.8,0.9-3.1,0.7c-1.3-0.2-4.6-1.5-5.9-1.8c-1.3-0.2-7.3-0.2-7.3-0.2s-0.4,0.4-0.8,2.7
		c-0.4,2.3-2.3,1.2-3,1.1c-0.6-0.1-1.2-1-0.2-2.2c1-1.2-0.4-1.9-0.4-1.9s-4.8-0.8-5.7-0.8c-0.9,0-2,1-2,1s0.8,5.7,0.9,6.2
		c0.1,0.5,0.5,0.9,0.5,0.9l0.8,1.1c0,0,3.6,1.2,4.4,1.7c0.8,0.5,2.7,0.7,5.1,0.5c2.4-0.1,4.6,0.2,4.7,1.3c0.1,1.1-1,1.3-3.7,0.8
		c-2.6-0.5-8.2,0.4-8.2,0.4s0.1,0.7,1,1.3s2.4,1.6,1.4,2.9c-1,1.2-2.5,0.7-2.8,0c-0.2-0.7-1.2-1.5-3.6-2.9c-2.4-1.4-5.1-2.2-6.2-2.5
		c-1-0.3-3.6-1.1-3.6-1.1s-1.9,0-1.9,1.2c0,1.2-3.3,1.8-4.4,1.4c-1-0.3-3.4-2-4.7-3.3c-1.3-1.3-4.3-0.5-7.2-0.5
		c-2.8,0-6.4-2.3-7.8-3.4c-1.4-1.1-6.3-4.8-6.9-5.6c-0.7-0.8-2.4-2.7-3.4-5c-1-2.3,1-2.3,1.6-2.8c0.6-0.5,2.8-1.2,2.8-1.2l1.3-2.1
		c0,0-0.8-0.8-1.3-1.6c-0.5-0.8,2.6-2,2.6-2l4.9-0.5c0,0,1.9-0.8,2.8-1.1c0.9-0.3,6.5-1.1,8.2-1.8c1.6-0.7,4.5-1.7,5.9-1.9
		s4.6-0.7,5.9-0.7c1.3,0,7.4-1.1,11.7-2.8c4.2-1.7,8.6-2.9,9.7-3.5c1.1-0.5,4.3-1.4,4.3-1.4s0.5-0.5,0.8-1.6
		c0.3-1.1,3.8-2.5,5.6-2.5c1.8,0,4.1,2.4,4.2,2.5l0,0l0,0c0,0,0,0,0,0l-0.1,0.6c0,0,1.4,0,3-0.1c1.5-0.1,3.3,0.3,4.9,2
		C695,532.1,691.9,535.1,691.5,535.9z M715.7,389.8v40.7h-48.3v73h-83V318.1h140.1v41.8h-57.1v29.9H715.7z"/>
</g>
</svg>
