<?xml version="1.0" encoding="UTF-8"?><svg id="Layer_1" xmlns="http://www.w3.org/2000/svg" viewBox="0 0 100 100"><defs><style>.cls-1{fill:#0054a6;}</style></defs><g id="Layer_2"><path class="cls-1" d="M49.69,90c-22.09,0-40-17.91-40-40S27.6,10,49.69,10s40,17.91,40,40c-.02,22.08-17.92,39.98-40,40Zm0-74.42c-19.01,0-34.42,15.41-34.42,34.42s15.41,34.42,34.42,34.42,34.42-15.41,34.42-34.42c-.02-19-15.42-34.4-34.42-34.42Z"/><path class="cls-1" d="M49.69,67.68c-1.54,0-2.79-1.25-2.79-2.79v-18.6c0-1.54,1.25-2.79,2.79-2.79s2.79,1.25,2.79,2.79v18.6c0,1.54-1.25,2.79-2.79,2.79Z"/><circle class="cls-1" cx="49.69" cy="35.12" r="3.72"/></g></svg>