<?xml version="1.0" encoding="UTF-8"?><svg id="Layer_2" xmlns="http://www.w3.org/2000/svg" viewBox="0 0 1359.19 409.29"><defs><style>.cls-1{opacity:.2;}.cls-1,.cls-2{fill:#0054a6;}</style></defs><g id="Layer_1-2"><g><g><path class="cls-2" d="M119.04,78.91C54.09,84.3,0,93,0,105.58c2.94,.78,2.94-.34,1.35,2.2,1.75,.41,3.51,.79,5.26,1.19-2.92-3.06,.54-1.19-.95,1.11,0-12.79,51.2-23.69,113.37-31.17Zm332.63,.02c62.99,7.59,114.98,18.61,114.98,31.15,.56-1.77-2.97-2.65-.23,.54,1.8-.41,3.6-.79,5.39-1.21-1.24-2.07-.45-.82,.82-3.83,0-12.35-55.06-21.16-120.96-26.65Z"/><path class="cls-2" d="M460.56,172.11c4.04-6.84,9.96-14.21,23.23-17.03,1.91-.2,3.81-.41,5.69-.62,1.87-.21,3.73-.42,5.57-.63,1.83-.21,3.65-.43,5.44-.65,1.79-.22,3.57-.44,5.32-.66l.6-20.79,.37-12.95c14.13-.39,15.29-.43,19.57,2.91l.3,.27c3.58,4.34,6.96,8.45,6.96,17.74l-.59,18.39,1.37-2.16,.1-.15c4.47-5.43,7.12-7.72,13.09-9.7,.01,0,.02,0,.02,0,0,0,.03,0,.04,0,0,0,.02,0,.03,0,.01,0,.02,0,.03,0l1.1-32.06c1.34-.21,2.65-.43,3.95-.65,1.29-.22,2.57-.44,3.83-.65,1.26-.22,2.49-.44,3.7-.66,1.21-.22,2.41-.45,3.58-.67,.51-.1,1.01-.19,1.52-.29,.5-.1,1-.2,1.5-.3,.49-.1,.98-.2,1.47-.3,.49-.1,.97-.2,1.45-.3l-3.53,95.72c-1.34,18.56-9.97,28.2-16.96,30.82-.41,.11-.82,.23-1.23,.34-.41,.11-.82,.22-1.23,.34-.42,.11-.83,.22-1.25,.34-.42,.11-.84,.22-1.26,.33-5.27,.62-6.58,.2-11.71-3.77l-.22-.2-1.77-2.23-.31,9.64c-2.11,.48-4.25,.96-6.44,1.43-2.19,.47-4.42,.94-6.68,1.4-2.27,.46-4.58,.92-6.93,1.37-2.35,.45-4.75,.89-7.17,1.33l1.34-46.79c-1.22,.19-2.44,.37-3.68,.56-1.23,.18-2.48,.37-3.73,.55-1.26,.18-2.52,.36-3.79,.54-1.27,.18-2.56,.36-3.85,.53l-1.26,47.14c-2.59,.41-5.21,.81-7.87,1.21-2.67,.4-5.37,.79-8.1,1.17-2.74,.38-5.51,.76-8.32,1.12-2.81,.37-5.66,.72-8.54,1.07l.21-9.47-1.66,1.94-.28,.31c-5.62,5.16-10.34,8.21-19.15,9.55-.7,.07-1.41,.14-2.12,.21-.71,.07-1.41,.14-2.13,.21-.71,.07-1.42,.14-2.14,.21-.72,.07-1.43,.14-2.15,.21-7.25,.08-15.04-.67-23.48-10.62q-2.38,1.22-6.01,5.04l-.53,.54c-9.11,7.07-14.89,8.17-21.5,8.88-6.96,.39-14.02,.73-21.16,1.03-7.16,.3-14.4,.55-21.71,.74-7.32,.2-14.72,.35-22.18,.46-7.47,.1-14.99,.15-22.56,.15-11.07,0-22.03-.11-32.84-.33-10.81-.22-21.46-.54-31.95-.96-10.45-.42-20.72-.94-30.78-1.56-10.02-.61-19.82-1.32-29.38-2.11-12.74-1.82-19.33-8.35-24.1-14.49-7.42,6.77-11.51,10.5-23.31,9.59-.65-.08-1.29-.16-1.93-.24-.64-.08-1.28-.16-1.92-.25-.64-.09-1.28-.17-1.91-.25-.63-.08-1.27-.17-1.9-.25-4.93-1.11-10.53-2.36-17.9-11.27l-.12-.16c-6.42-9.57-6.9-14.96-7.4-20.67l-.51-18.61c-1.18-.16-2.35-.33-3.52-.5-1.16-.17-2.32-.33-3.47-.51-1.15-.17-2.29-.34-3.42-.51-1.13-.17-2.25-.34-3.36-.52l1.35,46.74c-2.41-.44-4.77-.88-7.1-1.34-2.33-.45-4.61-.91-6.86-1.37-2.24-.46-4.45-.93-6.62-1.41-2.16-.47-4.28-.95-6.37-1.44l-.28-8.56c-2.24,2.33-6.41,6.68-13.12,5.23-1.88-.5-3.73-1.01-5.53-1.52-1.8-.51-3.56-1.02-5.28-1.54-1.71-.52-3.39-1.04-5.02-1.57-1.63-.53-3.22-1.06-4.77-1.59L2.94,110.01c1.57,.33,3.18,.65,4.83,.98,1.65,.33,3.35,.65,5.08,.96,1.74,.32,3.52,.64,5.34,.95,1.83,.32,3.7,.63,5.6,.94,12.98,4.08,19.61,18.58,20.28,30.33l.43,13.36c5.4-5.39,8.82-6.21,14.92-6.11,2.37,.32,4.77,.64,7.22,.95,2.45,.32,4.94,.63,7.46,.93,2.53,.31,5.1,.6,7.7,.9,2.61,.29,5.26,.59,7.94,.87l.15,5.63c5.52-3.17,8.33-4.15,15.17-4.1,.61,.06,1.23,.12,1.85,.17,.62,.06,1.24,.12,1.86,.17,.62,.06,1.24,.11,1.87,.17,.62,.05,1.25,.11,1.88,.17,4.75,.77,15.88,2.55,24.81,17.36q4.36-6.82,7.76-9.81l.62-.49c4.71-2.37,8.23-3.79,20.56-3.22,8.36,.47,16.9,.88,25.6,1.25,8.73,.37,17.61,.69,26.63,.96,9.04,.27,18.22,.48,27.51,.65,9.31,.16,18.72,.27,28.23,.32,10.44,.45,16.52,2.43,24.12,7.85v-10.73c23.33,4.51,24.72,4.78,32.56,10.02l1.99,1.69,.08-12.24c22.91,4.22,23.35,4.3,31.43,9.53l2.17,1.89,.13-12.3c22.13,3.86,23.93,4.18,30.28,7.92l.54,.37c1.33,1.25,3.01,3.02,4.17,4.44q2.57-.21,5.96-3.65l.16-.15c8.64-7.03,14.9-8.35,20.55-9.11,.7-.05,1.39-.1,2.08-.14,.69-.05,1.38-.1,2.07-.14,.69-.05,1.38-.1,2.06-.15,.69-.05,1.37-.1,2.05-.15,4.11-.01,16.63-.04,23.9,12.85m42.16-59.01l-.17,6.12-.79,28.11c-1.43,.17-2.88,.34-4.34,.51-1.46,.17-2.93,.34-4.42,.5-1.49,.16-2.98,.33-4.49,.49-1.51,.16-3.03,.32-4.57,.48-9.45,1.61-17.82,6.68-24.5,12.44-5.2-4.66-11.55-8.89-22.65-8.36-.68,.05-1.37,.1-2.05,.14-.69,.05-1.37,.1-2.06,.14-.69,.05-1.38,.09-2.07,.14-.69,.04-1.39,.09-2.08,.14-3.84,.5-14.03,1.82-23.97,10.48l-.24,.22-2.47-.54-.74-.65c-3.57-2.22-7.61-4.73-18.05-6.65l-22.22-3.93-.08,8.53c-4.08-1.72-6.2-2.51-10.72-3.46l-23.2-4.31-.04,8.57c-4.14-1.7-6.27-2.5-10.84-3.5l-23.93-4.65v7.61c-4.05-1.42-9.09-3.2-17.77-3.34-9.51-.05-18.94-.16-28.25-.31-9.3-.16-18.48-.37-27.53-.63-9.03-.26-17.92-.57-26.65-.93-8.71-.36-17.25-.77-25.62-1.22-13.04-.57-16.51,.73-22.53,3.47l-1.02,.57c-1.4,1.16-3.18,2.81-4.46,4.11-6.66-7.18-15.88-10.79-25.8-11.89-.62-.05-1.25-.11-1.88-.16-.62-.06-1.25-.11-1.87-.17-.62-.05-1.24-.11-1.86-.17-.62-.06-1.23-.11-1.85-.17-3.27-.1-5.85-.17-10.65,1.35l-.06-2.38c-3.11-.31-6.18-.63-9.21-.96-3.01-.33-5.98-.66-8.9-.99-2.91-.34-5.77-.68-8.59-1.03-2.81-.35-5.56-.7-8.27-1.07-4.25-.18-6.19-.26-11.32,2.21l-.1-3.22c-1.78-22.15-14.16-33.5-24.23-36.48-2.18-.34-4.31-.69-6.38-1.04-2.07-.35-4.08-.7-6.04-1.06-1.96-.36-3.86-.71-5.71-1.08-1.84-.36-3.63-.72-5.36-1.09L5.04,235.91c1.71,.62,3.48,1.24,5.3,1.85,1.83,.62,3.71,1.22,5.63,1.83,1.94,.61,3.92,1.2,5.97,1.8,2.05,.6,4.14,1.19,6.29,1.77,2.78,.36,5.66,.74,9.76-1.3l.13,3.85c2.61,.64,5.29,1.27,8.04,1.89,2.75,.62,5.57,1.23,8.45,1.84,2.89,.61,5.84,1.2,8.85,1.79,3.02,.59,6.11,1.16,9.25,1.72l-1.33-46.76c.43,.07,.86,.13,1.3,.2,.43,.07,.87,.13,1.31,.2,.44,.07,.88,.13,1.32,.2,.44,.07,.88,.13,1.32,.19l.36,12.93c.65,9.65,2.8,15.85,8.52,24.59l.18,.25c6.8,8.36,12.14,11.78,21.18,13.55,.63,.09,1.27,.17,1.9,.26,.63,.09,1.27,.17,1.91,.25s1.28,.16,1.92,.25c.64,.08,1.29,.16,1.94,.25,9.33,.73,14.89-.86,22.04-6.31,8.98,2.56,15.83,9.91,25.33,11.29,9.55,.81,19.35,1.53,29.36,2.15,10.05,.62,20.31,1.15,30.76,1.58,10.47,.43,21.12,.76,31.92,.98,10.81,.22,21.76,.33,32.82,.33,7.57,0,15.08-.05,22.54-.16,7.45-.1,14.85-.26,22.16-.46,7.31-.21,14.55-.46,21.7-.76,7.14-.3,14.19-.65,21.15-1.04,5.16-.56,13.79-1.49,24.19-9.73l.85-.69,2.01-2.18c7.94,6.84,14.33,9.11,24.43,8.7,.71-.07,1.43-.14,2.15-.21,.71-.07,1.43-.14,2.14-.21,.71-.07,1.42-.15,2.13-.22,.71-.07,1.41-.15,2.12-.22,3.94-.62,8.85-1.4,16.01-6.09l-.09,4.32c3.74-.45,7.44-.9,11.08-1.38,3.63-.47,7.2-.95,10.72-1.46,3.5-.5,6.96-1.01,10.35-1.53,3.38-.52,6.71-1.06,9.98-1.6l1.28-46.96c.55-.08,1.09-.16,1.63-.24,.54-.08,1.08-.16,1.62-.24,.54-.08,1.08-.16,1.61-.24,.54-.08,1.07-.16,1.6-.24l-1.32,46.81c3.17-.56,6.28-1.13,9.33-1.71,3.04-.58,6.01-1.17,8.93-1.77,2.91-.6,5.75-1.21,8.53-1.83,2.77-.62,5.48-1.24,8.12-1.88l.14-4.32c3.17,1.46,5.91,2.73,10.32,1.67,.42-.12,.84-.23,1.26-.34,.42-.11,.83-.23,1.25-.34,.41-.11,.83-.23,1.24-.34,.41-.12,.82-.23,1.22-.34,16.51-7.1,19.3-30.13,19.77-37.03l3.76-100.91c-1.97,.41-4,.82-6.11,1.22-2.11,.41-4.29,.8-6.53,1.2-2.26,.4-4.57,.79-6.96,1.18-2.4,.39-4.86,.78-7.39,1.16l-1.1,32.66c-2.21,1.13-4.49,2.3-7.61,5.13l.25-7.58c-.18-6.28-.36-12.78-7.62-21.41l-.39-.45-.12-.13c-4.24-3.3-5.79-4.03-12.61-4.34l-13.74,.31"/><path class="cls-2" d="M515.15,130.67l-3.07,102.97c.93-.17,1.85-.34,2.76-.52,.91-.17,1.82-.35,2.72-.53,.9-.18,1.8-.35,2.69-.53,.89-.18,1.77-.35,2.65-.53l2.84-90.65c0-.1-.33-10.3-10.58-10.21"/><path class="cls-2" d="M163.96,237.4c-3.34-.43-5.59-2.9-5.87-6.45l-.3-17.8c.18-3.5,2.36-5.64,5.68-5.59h.02c.78,.06,1.56,.11,2.35,.16,.79,.05,1.57,.1,2.36,.16,.79,.05,1.58,.1,2.37,.15,.79,.05,1.59,.1,2.38,.15l.45,29.9c-.79-.06-1.58-.11-2.37-.16-.79-.06-1.57-.11-2.36-.17-.78-.06-1.57-.11-2.35-.17-.78-.06-1.56-.12-2.34-.18m24.02-62.63c-1.83-.09-3.64-.17-5.46-.26-1.81-.09-3.61-.18-5.41-.28-1.79-.1-3.58-.19-5.36-.29-1.77-.1-3.54-.2-5.3-.3-12.06-.65-16.19,.37-18.55,8.02,1.99,.15,3.99,.28,6.01,.42,2.02,.14,4.04,.27,6.09,.41,2.04,.13,4.09,.26,6.16,.38,2.06,.13,4.14,.25,6.23,.37l.23,15.3c-.98-.06-1.96-.12-2.93-.18-.98-.06-1.95-.13-2.92-.19-.97-.06-1.94-.13-2.9-.19-.96-.07-1.93-.13-2.89-.19-8.1-.32-18.02,5.74-18.18,13.75l.33,17.42c.53,9.16,9.98,16.37,18.47,17.35,2.85,.23,5.71,.45,8.6,.66,2.89,.21,5.8,.42,8.73,.62,2.94,.2,5.9,.39,8.87,.57,2.98,.18,5.98,.36,9,.52l-.11-9.18c-.66-.03-1.32-.07-1.98-.1-.66-.04-1.31-.07-1.97-.11-.66-.04-1.31-.07-1.97-.11-.65-.04-1.31-.08-1.96-.11l-.83-64.29"/><path class="cls-2" d="M80.54,166.17c-1.81-.22-3.6-.44-5.37-.66-1.77-.22-3.52-.45-5.25-.68-1.73-.23-3.44-.46-5.13-.69-1.69-.23-3.36-.47-5.01-.71-5.12-.5-12.73,2.64-12.69,13.34l1.71,54.37c.86,.18,1.74,.36,2.62,.54,.88,.18,1.77,.36,2.65,.53,.89,.18,1.79,.36,2.7,.53,.91,.18,1.81,.35,2.73,.52l-1.67-55.38h0c.02-3.35,1.52-5.38,3.92-5.31,.59,.09,1.17,.17,1.77,.26,.59,.09,1.19,.17,1.78,.25,.6,.09,1.2,.17,1.8,.26,.6,.08,1.21,.17,1.81,.25l.42,14.75c.96,.14,1.93,.28,2.91,.42,.98,.14,1.96,.28,2.94,.42,.99,.14,1.98,.27,2.98,.41,1,.14,2.01,.27,3.02,.41l-.64-23.83"/><path class="cls-2" d="M505.03,164.64c-1.72,.23-3.46,.46-5.21,.68-1.76,.22-3.54,.45-5.33,.67-1.8,.22-3.61,.44-5.45,.65-1.84,.21-3.69,.43-5.56,.64-5.95,.91-15.65,6.47-16.29,17.49l-1.33,56.02c1.11-.14,2.22-.28,3.32-.43,1.1-.15,2.2-.29,3.29-.43,1.08-.15,2.17-.3,3.25-.44,1.07-.15,2.15-.3,3.21-.45l1.44-56.41c.24-3.4,2.15-5.97,4.86-6.54,.65-.08,1.3-.16,1.95-.23,.65-.08,1.29-.16,1.93-.23,.64-.08,1.28-.16,1.92-.24,.64-.08,1.27-.16,1.91-.24l-.4,14.83c1.01-.13,2.01-.27,3.01-.41,1-.14,1.99-.27,2.98-.41,.98-.14,1.96-.28,2.94-.42,.97-.14,1.94-.28,2.9-.42l.68-23.69"/><path class="cls-2" d="M20.66,215.97l-2.9-82.4c.44,.09,.89,.17,1.34,.26,.45,.09,.9,.17,1.36,.26,.46,.09,.91,.17,1.37,.26,.46,.08,.93,.17,1.39,.25,2.89,1.02,3.53,4.5,3.66,6.48,0,0,0,0,0,0h0l2.43,71.42h0s0,0,0,0h0c.01,3.24-1.28,5.21-3.2,4.9-.46-.12-.93-.24-1.39-.36-.46-.12-.92-.23-1.37-.35-.46-.12-.91-.24-1.36-.36-.45-.12-.89-.24-1.34-.36m3.54-90.3c-1.33-.23-2.64-.46-3.93-.69-1.29-.23-2.55-.46-3.8-.7-1.25-.23-2.47-.47-3.68-.71-1.2-.24-2.39-.48-3.55-.71l3.59,99.25c1.16,.35,2.33,.71,3.52,1.05,1.19,.35,2.41,.7,3.64,1.04,1.23,.34,2.49,.69,3.76,1.03,1.28,.34,2.57,.68,3.89,1.02,5.24,1.05,11.08-3.96,11.05-12.24l-2.33-71.08c-.61-9.98-8.13-16.46-12.17-17.28"/><path class="cls-2" d="M102.91,198.51l-.36-14.79c.07-3.5,1.93-5.62,4.86-5.54,.28,.03,.56,.06,.83,.08,.28,.03,.56,.05,.83,.08,.28,.03,.56,.06,.84,.08,.28,.03,.56,.06,.84,.08h0c3,.49,5.09,3.07,5.33,6.61l.33,14.85c-1.15-.12-2.29-.24-3.43-.36-1.14-.12-2.27-.24-3.39-.36-1.13-.12-2.25-.24-3.36-.37-1.11-.12-2.22-.25-3.33-.38m9.88-28.9c-.63-.06-1.25-.12-1.88-.18-.62-.06-1.24-.12-1.86-.18-.62-.06-1.24-.12-1.85-.18-.61-.06-1.23-.12-1.84-.18-8.97-.53-15.54,5.36-15.63,14.01l1.01,38.99c.43,8.02,6.42,17.21,15.69,18.73,.63,.08,1.26,.16,1.9,.24,.64,.08,1.27,.16,1.91,.24,.64,.08,1.28,.16,1.92,.24,.64,.08,1.29,.16,1.93,.24,9.36,.9,16.72-5.15,16.76-13.79l-.11-5.14c-1.17-.12-2.35-.23-3.51-.35-1.16-.12-2.32-.24-3.48-.36-1.16-.12-2.3-.24-3.45-.36-1.14-.12-2.28-.24-3.42-.37l.13,5.74c-.07,3.47-2.04,5.6-5.01,5.42-.27-.03-.55-.06-.82-.1-.27-.03-.55-.07-.82-.1-.27-.03-.55-.07-.82-.1-.27-.03-.55-.07-.82-.1-2.94-.54-4.92-3.06-5.17-6.59l-.42-17.47c2.2,.26,4.41,.51,6.64,.76,2.24,.25,4.5,.49,6.78,.74,2.28,.24,4.59,.48,6.91,.71,2.33,.23,4.68,.46,7.04,.68l-.48-23.38c-.46-8.57-8.51-16.9-17.24-17.83"/><path class="cls-2" d="M429.23,235.75c-4.25,.15-5.39-3.53-5.47-4.96-.05-.8,.71-42.61,.73-42.9,.03-.65,.14-2.64,1.75-4.47,1.56-1.78,3.27-2,4.01-2.1h.01s0,0,0,0c.32-.02,.64-.05,.96-.07,.32-.02,.64-.05,.95-.07,.32-.02,.63-.05,.95-.07,.31-.03,.63-.05,.95-.07,3.08,.07,5.06,2.24,5.18,5.66l-.85,42.18c-.24,3.5-2.35,6.01-5.5,6.54-.31,.03-.61,.06-.92,.09-.31,.03-.61,.06-.92,.09-.3,.03-.61,.06-.92,.08-.31,.03-.61,.06-.92,.08m7.19-64.09c-.68,.05-1.37,.1-2.05,.16-.69,.05-1.37,.1-2.06,.15-.69,.05-1.38,.1-2.07,.15-.69,.05-1.38,.1-2.08,.15-8.65,.93-18.15,7.31-18.71,17.31l-.65,39.95c.13,9.13,7.9,16.12,17.3,15.57,.72-.07,1.44-.13,2.15-.2,.72-.06,1.43-.13,2.14-.2,.71-.07,1.42-.14,2.13-.21,.71-.07,1.41-.14,2.12-.21,9.71-1.23,17.34-8.76,17.75-17.5l.88-40.23c-.1-9.54-8.81-15.4-16.87-14.89"/><path class="cls-2" d="M546.49,217.61c-1.98,.32-3.25-1.61-3.24-4.9l1.35-39.96c.23-3.36,1.62-5.86,3.61-6.51,.47-.1,.94-.19,1.41-.3,.47-.1,.93-.2,1.4-.29,.46-.1,.92-.2,1.38-.3,.46-.1,.91-.2,1.36-.3l-1.59,45.44c-.21,3.39-1.55,5.9-3.49,6.56-.18,.04-.36,.09-.54,.14-.18,.04-.36,.09-.55,.14-.18,.05-.36,.1-.55,.14-.18,.05-.37,.09-.55,.14m16.95-94.58c-.66,.13-1.33,.27-2,.4-.67,.13-1.36,.27-2.05,.4-.69,.13-1.38,.27-2.08,.4-.7,.13-1.41,.26-2.13,.39l-1.11,31.78c-.56,.12-1.12,.24-1.69,.36-.57,.12-1.14,.24-1.71,.35-.57,.12-1.15,.23-1.73,.35-.58,.12-1.17,.23-1.76,.35-5.52,1.39-11.55,8.28-12.09,17.41l-1.25,38.27c-.08,9.18,5.57,14.16,10.9,13.05,.42-.1,.84-.21,1.26-.32,.42-.11,.84-.22,1.25-.33,.42-.11,.83-.22,1.24-.32,.41-.11,.82-.22,1.23-.33,5.43-1.77,10.22-9.66,10.68-17.6l3.06-84.62"/><path class="cls-2" d="M274.26,176.98c-6.1-.03-12.17-.09-18.19-.18-6.02-.08-12-.19-17.92-.32-5.92-.13-11.79-.28-17.61-.46-5.81-.18-11.56-.37-17.25-.59l.1,9.33c.54,.02,1.08,.04,1.62,.06,.54,.02,1.08,.04,1.62,.07,.54,.02,1.08,.04,1.63,.06,.54,.02,1.08,.04,1.63,.06l.65,64.37c1.36,.06,2.72,.12,4.09,.18,1.37,.06,2.74,.12,4.11,.17,1.37,.06,2.75,.11,4.13,.16,1.38,.05,2.76,.1,4.15,.15l-.51-64.5c1.42,.04,2.83,.08,4.25,.12,1.42,.04,2.84,.07,4.27,.11,1.43,.03,2.86,.07,4.29,.1,1.43,.03,2.87,.06,4.31,.09l.37,64.6c1.41,.04,2.82,.07,4.24,.1,1.42,.03,2.84,.06,4.25,.09,1.43,.03,2.85,.06,4.27,.08,1.43,.02,2.86,.05,4.29,.07l-.22-64.66c.89,.01,1.79,.02,2.68,.03,.9,0,1.79,.02,2.69,.03,.9,0,1.8,.01,2.69,.02,.9,0,1.8,.01,2.7,.02,3.83,.22,6.4,2.58,6.7,6.18l.07,58.55c.7,0,1.39,0,2.09,.01,.7,0,1.4,0,2.1,0,.7,0,1.4,0,2.09,0h2.1c.77,0,1.55,0,2.33,0,.77,0,1.55,0,2.33,0,.77,0,1.55,0,2.32,0,.78,0,1.55,0,2.32,0q.02-59.82-.59-61.92c-.74-2.52-6.51-11.95-21.19-12.17"/><path class="cls-2" d="M379.06,175.06l-.71,58.23c-.23,3.56-2.58,6.04-6.12,6.45-.84,.04-1.68,.08-2.52,.12-.84,.04-1.68,.08-2.53,.12-.84,.04-1.69,.08-2.53,.12-.85,.04-1.69,.08-2.54,.11l.49-48.71c-1.08-8.23-6.7-13.37-16.69-15.29l-.5,64.65c-1.37,.05-2.73,.09-4.11,.13-1.37,.04-2.75,.09-4.13,.12-1.38,.04-2.76,.08-4.15,.12-1.38,.04-2.77,.07-4.16,.1l.27-48.76c-1.15-8.28-6.99-13.53-17.35-15.61-.1,24.65-.2,49.29-.3,73.94,5.42-.08,10.8-.18,16.15-.31,5.34-.13,10.64-.28,15.9-.46,5.26-.18,10.47-.38,15.64-.61,5.16-.22,10.27-.47,15.33-.74,9.21-.73,19.23-6.97,19.65-17.07l.59-41.69c-.04-12.25-8.72-13.76-15.69-14.98"/><path class="cls-2" d="M413.47,160.25c-1.59-8.9-3.64-17.65-6.11-26.02-19.83,4.61-45.27,8-73.69,9.8,.31,4.1,.58,8.32,.82,12.66l.05,.91-3.47-.64-.03-.56c-.23-4.17-.48-8.22-.78-12.16-14.91,.88-30.35,1.32-45.9,1.32s-30.39-.43-45.05-1.27c-.41,4.94-.78,10.07-1.1,15.37l-.04,.69-3.44-.08,.05-.74c.32-5.32,.68-10.48,1.09-15.44-29.66-1.85-56.02-5.4-76.32-10.29-2.38,7.67-4.41,15.67-6.02,23.79l-.1,.48-.48,.08c-.73,.13-1.42,.28-2.07,.45l-1.1,.29,.22-1.12c1.65-8.42,3.75-16.76,6.25-24.8-4.25-1.09-8.24-2.26-11.87-3.47-5.15,9.46-9.38,19.69-12.58,30.41l-.28,.93-.81-.54c-.76-.51-1.24-.83-1.74-1.12l-.49-.29,.16-.54c3.19-10.56,7.37-20.65,12.42-30.02-4.82-1.76-8.91-3.6-12.17-5.48-4.32,9.9-7.92,20.48-10.68,31.45l-.17,.67-.68-.15c-.64-.14-1.28-.28-1.95-.39l-.76-.13,.19-.75c2.86-11.35,6.59-22.31,11.1-32.57-3.22-2.23-5.43-4.57-6.59-6.98-6.7,12.24-12.06,25.27-15.93,38.73l-.15,.52h-.54c-.87,0-1.73,.05-2.63,.15l-1.05,.11,.29-1.02c4.58-16.25,11.29-31.86,19.93-46.39,.44-.99,1-1.92,1.68-2.75C156.37,45.94,217.57,11.6,284.59,11.6c87.47,0,164.05,59.44,186.24,144.54l.14,.53-.47,.27c-.76,.43-1.51,.9-2.26,1.37l-.83,.53-.24-.96c-3.97-15.45-9.88-30.33-17.56-44.28-1.18,2.71-3.71,5.35-7.55,7.88,5.23,11.97,9.35,24.7,12.26,37.84l.38,1.72-1.47-.97c-.74-.49-1.53-.95-2.35-1.38l-.29-.15-.08-.32c-2.82-12.2-6.66-23.95-11.42-34.92-3.51,1.94-7.9,3.83-13.09,5.64,4.45,8.31,8.18,17.06,11.11,26.04l.28,.87-3.56,.24-.17-.53c-2.92-8.84-6.61-17.42-10.98-25.51-3.67,1.17-7.7,2.3-11.99,3.37,2.45,8.32,4.48,16.94,6.06,25.63l.1,.55-.51,.23c-.43,.2-.88,.43-1.33,.66l-1.36,.7-.17-.95Zm-173.87-19.45c14.68,.88,29.74,1.32,44.76,1.32s30.71-.46,45.64-1.37c-2.49-30.36-7.33-56.39-14.4-77.41-10.15,.67-20.57,1.01-30.96,1.01s-20.98-.35-31.23-1.03c-6.45,21-11.1,47.06-13.81,77.48Zm-78.99-10.39c20.28,4.78,46.36,8.3,75.55,10.18,2.69-30.35,7.28-56.43,13.67-77.53-10.41-.78-20.15-1.92-28.98-3.39-13.72,5.92-26.51,13.74-38.03,23.24-9.13,14.52-16.65,30.55-22.21,47.5ZM319.11,63.09c7,21.16,11.81,47.21,14.3,77.45,27.93-1.84,53.12-5.2,72.95-9.73-5.08-16.34-11.93-31.86-20.37-46.13-11.8-10.06-25.12-18.43-39.43-24.7-8.42,1.33-17.65,2.37-27.45,3.1Zm74.83,28.9c6.37,12.09,11.66,24.86,15.75,38.05,4.03-.98,7.79-2.01,11.23-3.07-7.33-12.87-16.39-24.62-26.98-34.98Zm-247.83,34.45c3.39,1.09,7.15,2.15,11.18,3.17,4.48-13.69,10.3-26.92,17.31-39.39-11.21,10.63-20.78,22.79-28.5,36.22Zm247.04-39.97c12.37,11.46,22.82,24.71,31.11,39.42,5.41-1.82,9.92-3.71,13.41-5.64-4.2-9.25-9.13-18.18-14.66-26.58-8.19-2.65-18.23-5.07-29.87-7.2ZM130.28,119.81c3.24,1.87,7.44,3.71,12.5,5.49,8.14-14.3,18.31-27.2,30.25-38.37-11.12,2.12-20.72,4.51-28.56,7.13-5.33,8.15-10.11,16.81-14.2,25.75Zm298.01-24.32c4.61,7.36,8.76,15.07,12.37,22.95,4.18-2.82,6.29-5.66,6.29-8.47,0-.43-.07-.9-.22-1.46-.78-1.27-1.66-2.7-2.56-4.12-2.9-3.02-8.27-6.03-15.88-8.89Zm-289.12,.48c-6.07,2.37-10.62,4.85-13.54,7.38-1.24,2.01-2.58,4.2-3.88,6.43,.02,2.8,1.9,5.49,5.6,8.15,3.48-7.56,7.45-14.94,11.82-21.96Zm286.08-5.21c5.51,1.88,10.18,3.88,13.92,5.97-14.57-20.92-33.54-39.03-55.09-52.55-.07,.61-.26,1.23-.56,1.85,16.08,12.28,30.12,27.32,41.74,44.72ZM185.2,44.11c-21.43,13.43-40.33,31.41-54.89,52.19,3.3-1.77,7.3-3.48,11.92-5.11,12-18.08,26.53-33.58,43.19-46.08-.1-.35-.18-.68-.21-1Zm1.98,3.99c-15.12,11.39-28.43,25.28-39.62,41.33,8.55-2.64,18.84-5.01,30.62-7.07l.81-.7c.5-.44,.99-.88,1.5-1.3,5.87-9.29,12.4-17.93,19.29-25.54-6.11-2.03-10.34-4.28-12.6-6.71Zm201.25,33.9c12.07,2.04,22.64,4.41,31.48,7.06-10.9-15.55-23.84-29.09-38.5-40.29-2.48,2.27-6.7,4.38-12.58,6.27,7.18,8.15,13.77,17.21,19.61,26.96Zm-31.72-20.99c8.32,4.26,16.3,9.26,23.77,14.89-4.81-7.23-9.92-13.87-15.24-19.78-3.01,.84-6.41,1.63-10.14,2.38,.54,.83,1.07,1.68,1.61,2.52Zm-153.34-5.09c-4.99,5.4-9.84,11.44-14.48,17.99,7.16-5.17,14.76-9.76,22.63-13.69,0,0,.92-1.42,1.29-2-3.42-.71-6.59-1.49-9.44-2.3Zm51.11,4.04c9.66,.6,19.8,.91,30.16,.91s20.27-.3,29.8-.88c-1.35-3.77-2.79-7.43-4.31-10.89-8.95-1.54-17.96-2.31-26.78-2.31-8.22,0-16.57,.66-24.82,1.97-1.45,3.64-2.78,7.32-4.05,11.21Zm59.67-10.13c1.32,3.15,2.6,6.48,3.81,9.92,7.97-.55,15.53-1.32,22.51-2.27-8.51-3.3-17.35-5.87-26.31-7.65Zm-87.2,7.38c7.38,1.06,15.4,1.9,23.91,2.5,1.12-3.51,2.3-6.87,3.59-10.24-9.38,1.74-18.62,4.34-27.5,7.74Zm85.51-11.21c11.97,2.19,23.63,5.7,34.66,10.45,0,0,1.87-.29,2.28-.36-8.4-11.9-17.72-21.43-27.71-28.33-6.54-.52-13.32-.89-20.18-1.12,3.87,5.32,7.55,11.82,10.96,19.36Zm-92.17,10.14c11.35-4.82,23.35-8.34,35.67-10.45,3.03-7.38,6.3-13.75,9.71-18.96-6.82,.25-13.49,.65-19.84,1.18-9.83,6.82-19.02,16.22-27.32,27.95,.27,.04,1.78,.29,1.78,.29Zm107.88-27.81c8.94,7.02,17.29,16.13,24.87,27.1,3.49-.67,6.72-1.39,9.63-2.15-9.53-10.1-19.93-18.38-30.93-24.64-1.09-.08-2.3-.19-3.57-.31Zm-122.15,24.79c2.7,.72,5.67,1.41,8.84,2.05,7.45-10.75,15.68-19.71,24.48-26.67-.99,.1-1.97,.21-2.93,.31-10.45,6.14-20.76,14.34-30.39,24.3Zm133.98-23.44c9.27,6.09,18.12,13.68,26.33,22.58,5.79-1.74,10.02-3.65,12.32-5.56-7.48-5.48-15.52-10.39-23.92-14.6-4.42-.88-9.39-1.7-14.73-2.42Zm-150.05,16.41c1.53,1.54,4.93,3.67,12.41,5.98,8.25-8.72,17.07-16.2,26.26-22.3-6.22,.85-11.89,1.84-16.88,2.94-7.43,3.82-14.81,8.34-21.79,13.38Zm93.4-2.77c8.26,0,16.67,.66,25.03,1.97-3.52-7.44-7.31-13.75-11.27-18.77-4.05-.09-8.2-.15-12.47-.15-5.03,0-9.91,.07-14.64,.21-3.46,4.93-6.79,11.12-9.92,18.42,7.65-1.11,15.47-1.67,23.27-1.67Zm84.67-7.83c4.38,2.64,8.59,5.43,12.58,8.35,.01-.08,.01-.16,.01-.24,0-.66-.33-1.38-.98-2.13-3.07-1.77-6.48-3.65-9.98-5.43-.52-.18-1.07-.37-1.64-.55Zm-172.6,2.69c-1.97,1.07-3.93,2.18-5.84,3.3-.31,.36-.56,.75-.72,1.15,2.14-1.53,4.33-3.01,6.56-4.44Zm52.04-18.69c-7.91,1.89-15.7,4.4-23.25,7.49,3.65-.56,7.47-1.06,11.44-1.51,3.8-2.23,7.77-4.24,11.81-5.98Zm74.15,.31c3.87,1.65,7.71,3.55,11.48,5.68,3.19,.31,6.41,.7,9.55,1.15-6.87-2.77-13.9-5.05-21.03-6.83Zm-77.25,4.8c.09,0,.17-.01,.26-.02,.17-.12,.34-.23,.51-.35-.26,.12-.51,.24-.77,.37Zm79.48-.09c-.89-.41-1.77-.81-2.67-1.2,.57,.37,1.13,.74,1.69,1.12,.33,.03,.65,.06,.98,.08Zm-49.15-8.61c-7.7,1.19-15.34,3.91-22.71,8.09,5.25-.37,10.67-.64,16.16-.83,2.2-2.95,4.4-5.38,6.54-7.26Zm24.05,7.18c5.57,.16,11.2,.43,16.76,.8-7.68-4.33-15.64-7.07-23.69-8.15h-.48c1.35,1.04,2.72,2.27,4.08,3.65,1.06,1.08,2.18,2.33,3.33,3.71Zm-14.21-7.53c-.7,0-1.39,.02-2.08,.05l-1.51,.04c-2.2,1.01-5.24,3.69-8.27,7.38,3.98-.1,7.98-.15,11.97-.15,3.15,0,6.31,.03,9.46,.1-.39-.42-.76-.82-1.13-1.18-4.03-4.08-6.98-5.65-8.44-6.24Z"/><path class="cls-1" d="M460.56,168.74c2.07-3.15,4.66-6.29,8.21-8.98l-16.24,1.54c3.13,1.83,5.83,4.29,8.03,7.44Z"/><g><path class="cls-2" d="M325.31,324.22c-.15-.23-15.65-23.42-23.28-32.73l-1.51-1.83-.47,2.33c-.05,.24-.1,.51-.17,.81-.24-.3-.49-.62-.71-.89l-1.01-1.24-.31,1.57c-.02,.09-1.46,7.23-2.7,11.53l-5.75-3.37,2.95-5.95-13.42-1.23-.26,.11c-.08,.03-.51,.22-1.2,.54l-1.06-.1-.17,.07c-.38,.16-9.32,3.93-16.29,10.95-6.49,6.55-13.03,9.45-17.39,11.07l-.46,.17-.03,.49c-.06,.97-1.4,23.79,7.24,34.87l.44,.56,.59-.4s.35-.24,.92-.61c.11,.17,.22,.34,.34,.49l.65,.83,.87-.59c5.27-3.56,19.61-12.29,26.37-12.98,6.93,1.17,13.69,6.46,15.38,10.83,.79,2.06,2.53,3.73,4.89,4.69,1.59,.65,3.39,.97,5.35,.97,.09,0,.18-.02,.26-.02,.75,.11,1.5,.2,2.3,.2,3.3,0,7.02-.89,10.91-2.66l.35-.16,.18-.33c.42-.78,10.27-19.17,6.23-28.02Zm-29.05,24.77c-1.94-5.04-9.74-11.21-17.82-12.01-.22-.02-.46-.03-.7-.03-7.68,0-24.24,10.68-27.66,12.95-7.17-9.96-6.67-29.46-6.53-32.79,4.48-1.7,11-4.72,17.48-11.25,6.24-6.29,14.36-9.99,15.62-10.54l10.22,.93-2.52,5.06,10.94,6.4,.35-.76c1.07-2.32,2.67-9.6,3.36-12.85,7.85,9.91,22.03,31.11,22.12,31.23,3.34,7.37-5.04,23.84-6.15,25.96-5.7,2.53-10.89,3.07-14.67,1.52-1.97-.81-3.41-2.17-4.05-3.83Z"/><path class="cls-2" d="M315.22,356.85l.08-.4-1.3,.51s-.98,.37-2.46,.77c-2.39,.43-5.31,.67-8.06,.07l-2.45-.53,.67,1.19c-.29-.05-.58-.06-.87-.12l-1.65-.36,.83,1.47c.91,1.61,5.57,9.69,8.42,10.47l.35,.09,.29-.21s.24-.2,.53-.47c.45,.35,.9,.65,1.3,.76l.52,.14,.44-.32c.17-.13,4.24-3.17,6.08-12.2l.41-2.02-1.92,.75s-.47,.18-1.22,.41Zm-6.73,11.46c-1.61-.89-4.42-4.99-6.35-8.22,4.48,.53,8.95-.59,11.1-1.27-1.46,5.94-3.9,8.68-4.76,9.48Z"/></g><path class="cls-2" d="M244.82,315.79c-2.74-13.88-5.05-30.08-6.62-49.01-.67-.02-1.33-.05-2-.07,1.59,19.25,3.95,35.72,6.75,49.82,.55-.2,1.19-.46,1.87-.74Z"/><g><path class="cls-2" d="M310.88,358.24c.79-1.91,1.57-3.9,2.35-5.98l.11-.3s1.41-.52,1.66-.62c.33-.64,1.35-2.62,2.49-5.24l1.33,.51c-1.36,4.1-2.76,7.95-4.17,11.43l-.12,.3-.3,.11c-.42,.15-1.3,.44-2.52,.76l-1.38,.36,.54-1.32Z"/><path class="cls-2" d="M314,357.77c1.4-3.49,2.79-7.29,4.15-11.38-1.42,3.25-2.63,5.5-2.63,5.5-.56,.25-1.08,.4-1.62,.62-.78,2.09-1.57,4.08-2.36,6,1.19-.31,2.05-.59,2.46-.74Z"/><path class="cls-2" d="M284.59,398.8c-87.54,0-164.14-59.5-186.28-144.69l-.39-1.5,1.39,.67c.92,.44,1.89,.83,2.89,1.17l.36,.13,.1,.36c3.88,14.31,9.44,28.15,16.53,41.15,1.15-2.41,3.39-4.75,6.68-6.99-4.35-9.92-7.98-20.48-10.79-31.38l-.24-.95,.98,.06c.7,.04,1.4,.08,2.06,.08h.55s.14,.53,.14,.53c2.67,10.29,6.13,20.32,10.27,29.83,3.32-1.88,7.47-3.7,12.37-5.44-4.63-8.53-8.51-17.53-11.53-26.76l-.18-.58,.53-.28c.58-.31,1.16-.64,1.75-1.01l.77-.48,.28,.87c7.97,24.6,21.98,47,40.64,65.05-9.83-18.33-17.23-38.4-22-59.74l-.35-1.54,1.39,.76c.75,.41,1.5,.79,2.26,1.16l.31,.15,.08,.33c5.32,23.17,13.74,44.7,25.01,63.99,18.41,3.06,40.24,5.32,63.18,6.54l.6,.03s.23,1.96,.33,2.66l.12,.86-.86-.04c-21.81-1.11-41.79-3.06-59.46-5.8,20.48,16.56,44.84,27.76,70.67,32.5-1.29-3.23-2.57-6.75-3.82-10.49l-.18-.53,2.94-1.87,.29,.86c1.48,4.46,3.07,8.73,4.72,12.72,8.2,1.29,16.5,1.94,24.66,1.94,6.31,0,12.84-.41,19.4-1.23l.44-.06,.24,.37c.39,.6,.81,1.23,1.25,1.86l.68,.97-1.17,.15c-7.04,.92-14.06,1.39-20.85,1.39-7.69,0-15.43-.55-23.04-1.65,3.19,7.13,6.61,13.3,10.2,18.38,4.57,.12,9.28,.18,14.14,.18,4.17,0,8.23-.05,12.18-.14,3.35-4.3,6.59-9.53,9.64-15.55l.43-.84,.7,.64c.64,.6,1.02,.79,1.23,.85l-.03,.12,.81,.61c-2.67,5.3-5.49,10.02-8.4,14.07,7.19-.22,14.22-.59,20.92-1.11,9.29-6.5,18.02-15.32,25.97-26.25-1.65-.26-3.36-.52-5.11-.76-9.66,3.85-19.82,6.77-30.22,8.69l-1.29,.24,.5-1.21c.26-.64,.52-1.37,.76-2.15l.13-.4,.42-.08c25.13-4.84,48.88-15.81,68.84-31.8-17.84,2.66-37.94,4.52-59.78,5.54l-.88,.04,.14-.87c.49-3.03,.39-5.5-.29-7.35l-.08-.2,.05-.21c4.07-17.15,7.02-36.85,8.77-58.55l.05-.65h.65s.64,.69,.64,.69l-.02-.71,2.17-.07-.06,.79c-1.91,23.82-5.25,45.19-9.92,63.54,22.32-1.13,43.75-3.26,62.07-6.16,11.76-19.68,20.42-41.64,25.76-65.3l.19-.83,.78,.33c.61,.25,1.22,.47,1.84,.67l.62,.21-.14,.63c-4.84,21.32-12.39,41.36-22.46,59.63,17.35-16.5,30.89-36.92,39.3-59.33l.16-.41,3.41-.34v1c-2.7,7.34-5.8,14.29-9.22,20.68,5.25,1.77,9.72,3.64,13.29,5.56,4.54-10.49,8.24-21.73,11.03-33.42l.07-.28,2.66-1.74-.13,5.91c-2.78,10.96-6.35,21.43-10.63,31.27,3.9,2.49,6.48,5.12,7.68,7.83,6.94-12.68,12.42-26.17,16.32-40.13l.13-.45,4.26-.59-.28,1.05c-22.85,83.93-99.2,142.56-185.68,142.56Zm-.82-3.99c.64-.2,3.75-1.32,8.54-6.18,.51-.52,1.04-1.08,1.6-1.7-3.09,.05-6.18,.09-9.25,.09-3.82,0-7.65-.05-11.47-.13,1.09,1.34,2.17,2.56,3.16,3.56,3.16,3.18,5.2,4.11,5.93,4.37l.6-.02,.89,.02Zm14.74-7.99c-1.25,1.53-2.51,2.95-3.75,4.22-1.36,1.37-2.71,2.59-4.03,3.62,8.6-.99,17.13-3.88,25.35-8.61-5.73,.36-11.62,.62-17.57,.78Zm-47.02-.89c7.81,4.52,15.92,7.39,24.16,8.54-.6-.52-1.17-1.05-1.73-1.61-1.14-1.14-2.95-3.12-5.15-6.1-5.92-.18-11.71-.46-17.28-.83Zm91.57-2.48c-3.73,.51-7.67,.97-11.77,1.37-4.19,2.44-8.54,4.59-12.95,6.41,8.37-1.9,16.64-4.5,24.71-7.78Zm-119.18-.33c6.76,2.79,13.71,5.1,20.77,6.93-3.81-1.68-7.58-3.61-11.29-5.77-3.21-.32-6.41-.71-9.48-1.16Zm18.4,2.11c1.87,.91,3.74,1.76,5.62,2.55-1.23-.76-2.45-1.55-3.65-2.38-.66-.06-1.32-.11-1.98-.17Zm3.18-3.18c6.6,.54,13.61,.93,20.86,1.18-3.51-5.32-6.86-11.66-9.97-18.91-10.87-1.84-21.61-4.82-31.92-8.88-1.57,.23-3.1,.47-4.58,.71,7.85,10.75,16.46,19.45,25.62,25.89Zm106.36-25.49c-7.16,10.06-14.98,18.49-23.28,25.08,.68-.06,1.36-.13,2.03-.2,10.14-5.93,20.09-13.77,29.31-23.26-2.47-.56-5.17-1.11-8.06-1.62Zm-145.17,2.3c8.76,8.97,18.16,16.44,27.97,22.2,1.34,.11,2.84,.26,4.41,.41-8.16-6.52-15.86-14.81-22.9-24.67-3.46,.64-6.64,1.34-9.48,2.06Zm157.06,.26c-7.96,8.38-16.49,15.59-25.38,21.46,6.13-.76,11.81-1.65,16.92-2.66,7.52-3.82,14.98-8.34,22.04-13.4-2.56-1.87-7.22-3.73-13.58-5.4Zm-172.37,5.98c6.53,4.62,13.36,8.78,20.33,12.35,4.36,.92,9.39,1.78,14.89,2.55-8.28-5.58-16.22-12.34-23.64-20.12-6.79,2-10.03,3.87-11.58,5.22Zm188.14,2.1c-3.69,2.65-7.52,5.18-11.44,7.55,.9-.29,1.76-.58,2.58-.88,2.65-1.38,5.35-2.86,8.01-4.41,.54-.6,.9-1.28,.9-1.91,0-.11-.01-.23-.05-.36Zm-189.46,1.18c.2,.44,.53,.89,1.02,1.36,1.86,1.06,3.83,2.15,5.84,3.21-2.31-1.46-4.61-2.99-6.85-4.57Zm-60.41-55.37c14.93,21.63,34.49,40.24,56.79,53.99,.04-.33,.12-.67,.24-1.01-17.45-12.87-32.56-28.93-44.91-47.75-4.71-1.65-8.78-3.4-12.13-5.23Zm252.77,52.11c.3,.6,.5,1.2,.58,1.8,22.31-13.78,41.88-32.43,56.82-54.14-3.74,2.08-8.44,4.07-14.01,5.95-12.02,18.2-26.62,33.8-43.38,46.39Zm-235.38-45.17c11.6,16.82,25.55,31.32,41.51,43.12,2.2-2.19,6.16-4.21,11.79-6.02-7.76-8.53-14.97-18.27-21.44-28.98l-1.25-1.04c-11.7-2.08-22-4.45-30.6-7.08Zm219.38,36.29c6.48,1.84,11.11,3.94,13.79,6.23,15.46-11.58,29.03-25.72,40.36-42.07-8.85,2.62-19.52,4.97-31.77,6.99l-.63,.55c-.53,.46-1.05,.92-1.59,1.37-2.71,4.42-5.42,8.47-8.14,12.2-3.65,5-7.69,9.95-12.02,14.72Zm-179.21-21.51c5.3,7.88,10.91,15.01,16.71,21.26,3-.82,6.38-1.6,10.07-2.32-.9-1.34-1.78-2.71-2.66-4.09-8.41-4.21-16.51-9.2-24.12-14.86Zm166.85,18.68c3.1,.58,5.99,1.19,8.62,1.83,4.66-5.03,9.03-10.33,12.99-15.75,.91-1.25,1.8-2.52,2.68-3.8-6.74,4.9-13.89,9.3-21.31,13.11-.98,1.55-1.97,3.1-2.97,4.61Zm-136.41-.4c.22-.04,.44-.07,.66-.11-.36-.16-.71-.32-1.07-.49,.13,.2,.27,.4,.41,.6Zm132.78-.23c.23-.35,.47-.69,.7-1.04-.63,.29-1.25,.57-1.89,.85,.4,.06,.79,.13,1.19,.19Zm73.79-68.51c-8.14,14.4-18.34,27.38-30.33,38.63,11.6-2.09,21.58-4.46,29.69-7.04,5.39-8.26,10.19-17.02,14.27-26.03-3.56-1.9-8.13-3.76-13.63-5.55Zm-280.19,31.09c7.75,2.57,17.31,4.93,28.44,7.03-11.61-10.97-21.51-23.58-29.46-37.51-5.08,1.74-9.35,3.57-12.69,5.47,3.96,8.66,8.57,17.07,13.71,25.01Zm296.81-23.78c-3.51,7.72-7.55,15.26-12.02,22.47,7.84-2.9,13.26-5.96,16.14-9.13,.7-1.16,1.45-2.43,2.2-3.71,.06-.3,.12-.78,.12-1.26,0-2.76-2.17-5.58-6.45-8.37Zm-313.47,.6c-3.71,2.6-5.58,5.21-5.58,7.77,0,.23,.04,.45,.08,.67,1,1.77,2.06,3.55,3.16,5.31,2.71,2.51,7.35,5.08,13.72,7.55-4.19-6.8-8.01-13.95-11.39-21.3Z"/><path class="cls-2" d="M466.84,256.43c-4.1,14.68-9.88,28.66-17.16,41.68-.8-3.25-3.69-6.37-8.43-9.3,4.42-10.06,8.03-20.63,10.82-31.56l.1-4.56-1.29,.84c-2.83,11.9-6.62,23.38-11.38,34.26-3.9-2.17-8.84-4.23-14.66-6.16,3.71-6.82,6.87-13.96,9.58-21.33-.13,.02-.27,.04-.39,.06l-1.84,.18c-9.09,24.24-23.9,45.71-42.83,62.69,11.17-19.27,19.48-40.72,24.63-63.41-.64-.21-1.27-.43-1.89-.69-5.33,23.64-14.11,45.95-26.01,65.8-18.44,2.94-40.04,5.11-63.44,6.26,4.36-16.87,8.03-38.01,10.14-64.35-.46,.01-.91,.03-1.38,.05-.21,0-.42,0-.63,.01-1.89,23.54-5.03,42.85-8.78,58.66,.79,2.13,.79,4.83,.33,7.71,23.06-1.08,44.16-3.11,62.26-5.92,0,.02-.02,.03-.03,.05-20.14,16.68-44.47,28.42-71.12,33.55-.25,.79-.51,1.54-.78,2.2,10.47-1.93,20.6-4.86,30.26-8.72,2.23,.31,4.4,.63,6.45,.97-8.14,11.37-17.21,20.67-26.98,27.47-7.03,.54-14.59,.94-22.61,1.17,2.83-3.78,5.98-8.76,9.2-15.15-.19,.17-.33,.29-.33,.29-.45-.12-.97-.5-1.52-1.01-3.51,6.92-6.93,12.13-9.92,15.94-4.07,.09-8.25,.15-12.54,.15-4.99,0-9.82-.07-14.51-.19-3.22-4.51-7.07-10.99-11-19.98,7.9,1.2,15.98,1.82,24.21,1.82,7.04,0,13.96-.49,20.76-1.38-.45-.64-.87-1.27-1.27-1.88-6.39,.8-12.89,1.24-19.49,1.24-8.56,0-16.96-.7-25.16-2.01-1.64-3.91-3.28-8.28-4.89-13.13-.65,.41-1.2,.76-1.69,1.08,1.42,4.23,2.85,8.13,4.29,11.64-27.94-4.89-53.4-17.07-74.3-34.55,17.92,2.9,38.93,5.03,61.98,6.2-.1-.7-.19-1.39-.27-2.08-23.58-1.26-45.26-3.54-63.59-6.61-11.16-19.03-19.85-40.92-25.26-64.48-.77-.37-1.53-.76-2.29-1.18,5.16,23.08,13.45,44.61,24.11,63.51-20.14-18.4-35.52-41.91-44.12-68.44-.6,.37-1.21,.72-1.8,1.03,3.12,9.54,7.11,18.7,11.88,27.37-5.47,1.9-10.1,3.93-13.73,6.06-4.31-9.78-7.87-20.04-10.63-30.66-.67,0-1.38-.05-2.09-.09,2.84,11.03,6.5,21.68,10.99,31.82-4.07,2.67-6.62,5.49-7.46,8.41-7.4-13.32-13.26-27.62-17.33-42.65-1.03-.36-2.03-.75-2.97-1.21,21.52,82.84,96.56,144.15,185.59,144.15s162.74-60.27,184.99-142.03c-.9,.13-1.82,.25-2.73,.37Zm-43.04,26.99c5.99,1.92,11.02,3.96,14.89,6.1-4.25,9.45-9.19,18.45-14.74,26.94-8.81,2.83-19.8,5.38-32.42,7.56,12.83-11.66,23.74-25.38,32.27-40.61Zm-37.75,45.36c.8-.67,1.57-1.37,2.36-2.05,13.07-2.15,24.51-4.71,33.82-7.59-11.68,17.24-25.94,32.22-42.14,44.26-2.74-2.59-8-4.85-15.06-6.77,4.42-4.81,8.7-9.96,12.76-15.52,2.9-3.98,5.64-8.11,8.26-12.33Zm-7.6,35.79c-7.33,5.32-15.04,10.02-23.08,14.08-5.81,1.15-12.52,2.17-20.05,3.02,9.84-6.15,19.3-13.97,28.14-23.33,7.37,1.91,12.49,4.05,14.99,6.23Zm2.75-31.94c-1.63,2.47-3.29,4.92-5.03,7.3-4.23,5.8-8.7,11.15-13.33,16.12-3.08-.77-6.45-1.47-10.06-2.12,1.25-1.83,2.47-3.74,3.68-5.66,8.73-4.47,17.01-9.71,24.73-15.64Zm-34.58,20.31c2.16-.93,4.31-1.89,6.42-2.91-.78,1.19-1.56,2.39-2.36,3.54-1.32-.22-2.7-.43-4.07-.64Zm4.86,2.85c3.55,.63,6.82,1.29,9.77,2-9.59,10.02-19.92,18.19-30.63,24.38-1.46,.14-2.95,.28-4.46,.41,9.15-6.89,17.66-15.94,25.33-26.79Zm-28.46,29.06c1.1-.09,2.19-.18,3.28-.27-3.53,1.84-7.1,3.43-10.69,4.83,2.51-1.36,4.98-2.89,7.41-4.56Zm-66.19-21.16c3.82,8.96,7.59,15.57,10.83,20.31-7.98-.25-15.5-.67-22.48-1.24-9.63-6.74-18.58-15.92-26.62-27.1,1.89-.33,3.88-.63,5.92-.94,10.31,4.07,21.13,7.1,32.34,8.97Zm-51.57-5.2c3.28-.87,7.01-1.7,11.17-2.46,7.57,10.67,15.95,19.58,24.96,26.4-2.46-.22-4.84-.47-7.15-.73-10.28-6.05-20.01-13.87-28.97-23.2Zm24.28,22.65c-6.86-.88-12.96-1.9-18.22-3.03-7.33-3.76-14.38-8.08-21.11-12.9,1.92-2.12,6.33-4.21,12.9-6.12,8.22,8.67,17.08,16.08,26.43,22.05Zm-8.8-27.91c-1.18,.19-2.36,.38-3.49,.58-.7-1.01-1.39-2.06-2.08-3.1,1.85,.87,3.69,1.73,5.58,2.53Zm-8.98-4.18c1.11,1.74,2.22,3.47,3.37,5.13-4.22,.79-8.08,1.67-11.51,2.62-7-7.51-13.47-15.99-19.39-25.19,8.53,6.69,17.74,12.55,27.53,17.43Zm-68.5-65.02c8.37,14.77,18.98,28.11,31.41,39.52-12.19-2.21-22.75-4.76-31.19-7.58-5.31-8.18-10.06-16.83-14.16-25.9,3.6-2.11,8.28-4.13,13.94-6.04Zm-22.13,16.94c-.06-.34-.14-.67-.14-1.01,0-3.05,2.34-6.01,6.59-8.83,3.76,8.28,8.04,16.22,12.81,23.77-7.34-2.67-12.82-5.56-16.04-8.59-1.1-1.76-2.17-3.54-3.22-5.34Zm66.02,67.35c-23.93-14.52-44.42-34.2-59.93-57.51,3.8,2.42,8.81,4.72,14.96,6.85,12.35,18.87,27.71,35.19,45.31,48.08-.26,.6-.43,1.2-.43,1.83,0,.25,.05,.5,.1,.75Zm-41.92-49.65c8.94,2.87,19.92,5.44,32.56,7.62,.55,.48,1.1,.96,1.65,1.43,6.62,10.94,14.03,20.92,22.11,29.69-6.23,1.91-10.78,4.12-12.99,6.63-16.71-12.26-31.39-27.62-43.34-45.36Zm52.83,55.74c-2.55-1.32-5.06-2.7-7.54-4.14-.92-.9-1.42-1.8-1.42-2.7,0-.2,.06-.41,.11-.61,4.66,3.32,9.46,6.41,14.4,9.24-2.05-.58-3.91-1.18-5.55-1.8Zm11.09,5.32c.54,.12,1.08,.24,1.63,.36,1.29,.66,2.57,1.31,3.88,1.94-1.85-.74-3.69-1.5-5.51-2.3Zm9.3,1.82c4.74,.8,9.87,1.51,15.27,2.11,6.54,3.81,13.29,6.91,20.21,9.22-12.32-2.39-24.2-6.21-35.48-11.33Zm20.18,2.62c1.93,.19,3.89,.37,5.87,.53,4.06,2.81,8.24,5.18,12.52,7.12-6.27-1.9-12.41-4.48-18.39-7.65Zm38.29,11.18c-9.87-1.15-19.37-4.69-28.32-10.34,6.68,.49,13.58,.83,20.55,1.04,2.09,2.85,3.91,4.92,5.28,6.3,1.22,1.23,2.39,2.2,3.51,3.02-.34-.01-.68-.01-1.01-.03Zm6.86,.17c-.58,0-1.15-.04-1.73-.04-1.24-.43-3.36-1.68-6.2-4.54-1.12-1.12-2.54-2.71-4.16-4.81,4.32,.11,8.66,.16,12.97,.16,3.61,0,7.23-.04,10.86-.12-.96,1.13-1.86,2.11-2.69,2.95-4.23,4.3-7.41,5.95-9.05,6.4Zm4.63-.08c1.71-1.13,3.67-2.71,5.84-4.91,1.18-1.19,2.5-2.66,3.92-4.42,7.04-.18,14.03-.51,20.81-.98-9,5.63-18.54,9.16-28.44,10.26-.71,.02-1.42,.04-2.12,.05Zm42.82-11.33c6.07-.6,11.85-1.32,17.19-2.17-12.39,5.53-25.48,9.55-39.1,11.78,7.42-2.27,14.75-5.51,21.91-9.61Zm14.73,1.11c3.38-1.42,6.7-2.97,9.98-4.61,1.38-.27,2.71-.55,4-.84-4.57,2-9.24,3.81-13.98,5.45Zm33.02-15.14c-2.67,1.55-5.38,3.04-8.12,4.46-2.3,.84-4.99,1.66-8.07,2.44,5.86-3.29,11.53-6.91,16.99-10.88,.27,.49,.45,.97,.45,1.46,0,.84-.44,1.68-1.25,2.52Zm3.21-1.86c.03-.22,.09-.44,.09-.67,0-.91-.3-1.78-.84-2.63,16.99-12.65,31.82-28.53,43.86-46.79,7.05-2.36,12.74-4.91,16.87-7.63-15.51,23.39-36.01,43.15-59.98,57.71Zm65.54-66.66c-.75,1.29-1.51,2.56-2.3,3.83-3.24,3.56-9.54,6.94-18.38,10.02,5.01-7.89,9.5-16.19,13.42-24.88,4.83,2.99,7.47,6.15,7.47,9.41,0,.54-.07,1.09-.22,1.62Z"/></g></g><rect class="cls-2" x="649.33" width="10.84" height="409.29"/><g><path class="cls-2" d="M749.17,23.22h17.44V92.71h37.33v15.76h-54.77V23.22Z"/><path class="cls-2" d="M816.84,23.22h57.35v15.76h-39.91v17.31h29.32v14.85h-29.32v21.57h41.46v15.76h-58.9V23.22Z"/><path class="cls-2" d="M927.54,21.67c15.24,0,27.21,6.16,35.91,18.47l-12.4,10.2c-6.03-8.35-13.95-12.53-23.77-12.53-8.27,0-14.9,2.63-19.89,7.88-5,5.25-7.49,12.01-7.49,20.28s2.58,15.16,7.75,20.41c5.34,5.34,12.23,8.01,20.67,8.01,9.99,0,17.48-3.53,22.47-10.59v-6.97h-23.51v-15.11h40.94v25.19c-3.96,6.97-9.52,12.57-16.66,16.79-7.06,4.22-15.07,6.33-24.02,6.33-12.74,0-23.55-4.22-32.42-12.66-8.78-8.52-13.17-19.03-13.17-31.52s4.39-23.03,13.17-31.39c8.79-8.52,19.59-12.79,32.42-12.79Z"/><path class="cls-2" d="M991.6,34.46c8.79-8.52,19.46-12.79,32.03-12.79s23.29,4.26,32.16,12.79c8.87,8.35,13.3,18.82,13.3,31.39s-4.44,22.99-13.3,31.52c-8.96,8.44-19.68,12.66-32.16,12.66s-23.16-4.22-32.03-12.66c-8.78-8.52-13.17-19.03-13.17-31.52s4.39-23.03,13.17-31.39Zm51.79,11.24c-5.25-5.25-11.84-7.88-19.76-7.88s-14.34,2.63-19.5,7.88c-5.17,5.34-7.75,12.1-7.75,20.28s2.54,14.9,7.62,20.15c5.17,5.17,11.67,7.75,19.5,7.75s14.51-2.63,19.76-7.88c5.25-5.25,7.88-11.97,7.88-20.15s-2.58-14.81-7.75-20.15Z"/><path class="cls-2" d="M1076.49,32.63c0-5.32,1.88-9.86,5.65-13.63,3.77-3.77,8.26-5.65,13.48-5.65s9.76,1.88,13.48,5.65c3.77,3.77,5.65,8.31,5.65,13.63s-1.88,9.89-5.65,13.7c-3.72,3.77-8.21,5.65-13.48,5.65s-9.71-1.88-13.48-5.65c-3.77-3.81-5.65-8.38-5.65-13.7Zm9.11,10.39c2.71,2.81,6.05,4.22,10.01,4.22s7.38-1.38,10.09-4.14,4.07-6.22,4.07-10.39-1.38-7.63-4.14-10.39c-2.71-2.81-6.05-4.22-10.02-4.22s-7.3,1.41-10.01,4.22c-2.71,2.76-4.07,6.2-4.07,10.32s1.35,7.58,4.07,10.39Zm9.86-6.55h-2.11v5.65h-5.27V23.21h7.83c2.16,0,3.97,.6,5.42,1.81,1.46,1.16,2.18,2.84,2.18,5.05s-.98,3.91-2.94,5.12l4.97,6.93h-5.8l-4.29-5.65Zm.45-8.66h-2.56v4.14h2.56c.9,0,1.54-.34,1.92-1.02s.38-1.37,0-2.07c-.38-.7-1.02-1.05-1.92-1.05Z"/><path class="cls-2" d="M789.72,160.4c8.09,0,15.44,1.87,22.02,5.62,6.59,3.75,11.77,8.93,15.57,15.57l-13.18,9.3c-6.12-9.56-14.25-14.34-24.41-14.34-8.01,0-14.59,2.63-19.76,7.88-5.17,5.34-7.75,12.1-7.75,20.28s2.58,14.98,7.75,20.15c5.17,5.17,11.75,7.75,19.76,7.75,10.16,0,18.3-4.78,24.41-14.34l13.18,9.3c-3.7,6.63-8.87,11.82-15.5,15.57-6.63,3.75-14.04,5.62-22.22,5.62-12.66,0-23.42-4.22-32.29-12.66-8.7-8.53-13.05-19.03-13.05-31.52s4.39-23.03,13.17-31.39c8.79-8.52,19.55-12.79,32.29-12.79Z"/><path class="cls-2" d="M842.16,161.95h57.35v15.76h-39.91v17.31h29.32v14.85h-29.32v21.57h41.46v15.76h-58.9v-85.25Z"/><path class="cls-2" d="M946.4,217.1h-12.79v30.09h-17.44v-85.25h32.03c8.95,0,16.32,2.54,22.09,7.62,5.77,5,8.65,11.63,8.65,19.89,0,5.34-1.31,10.12-3.94,14.34-2.63,4.22-6.31,7.49-11.04,9.82l24.15,33.58h-19.63l-22.09-30.09Zm1.81-39.78h-14.6v24.41h14.6c4.05,0,7.21-1.1,9.49-3.29,2.28-2.2,3.42-5.15,3.42-8.85s-1.16-6.67-3.49-8.91c-2.33-2.24-5.47-3.36-9.43-3.36Z"/><path class="cls-2" d="M984.24,161.95h72.07v15.76h-27.38v69.49h-17.44v-69.49h-27.25v-15.76Z"/><path class="cls-2" d="M1067.81,161.95h17.44v85.25h-17.44v-85.25Z"/><path class="cls-2" d="M1104.75,161.95h56.06v15.76h-38.62v21.31h31.65v15.76h-31.65v32.42h-17.44v-85.25Z"/><path class="cls-2" d="M1173.85,161.95h17.44v85.25h-17.44v-85.25Z"/><path class="cls-2" d="M1210.79,161.95h57.35v15.76h-39.91v17.31h29.32v14.85h-29.32v21.57h41.46v15.76h-58.9v-85.25Z"/><path class="cls-2" d="M1284.8,161.95h27.9c13.78,0,24.97,3.88,33.58,11.62,8.61,7.75,12.92,17.95,12.92,30.61s-4.35,22.99-13.05,31c-8.7,8.01-19.85,12.02-33.45,12.02h-27.9v-85.25Zm27.77,15.76h-10.33v53.73h10.33c8.53,0,15.46-2.46,20.8-7.36,5.25-4.99,7.88-11.58,7.88-19.76s-2.58-14.77-7.75-19.51c-5.17-4.73-12.14-7.1-20.92-7.1Z"/><path class="cls-2" d="M774.61,299.13c13.77,0,23.59,5.38,29.45,16.15l-11.88,9.17c-4.39-6.54-9.82-9.82-16.27-9.82-3.1,0-5.64,.71-7.62,2.13-1.98,1.42-2.97,3.38-2.97,5.88,0,2.33,.71,4.16,2.13,5.49,1.42,1.34,4.02,2.86,7.81,4.59l9.69,4.26c7.32,3.27,12.66,6.83,16.02,10.66,3.36,3.83,5.04,8.59,5.04,14.27,0,7.75-2.8,13.95-8.4,18.6-5.6,4.65-12.4,6.97-20.41,6.97-15.42,0-26.74-6.29-33.97-18.86l12.01-9.04c5.94,8.26,12.92,12.4,20.92,12.4,3.7,0,6.65-.82,8.85-2.46,2.2-1.63,3.29-3.66,3.29-6.07s-.52-4.13-1.55-5.42c-.86-1.29-1.83-2.26-2.91-2.91-1.08-.65-3.21-1.7-6.39-3.17l-9.17-4.13c-6.89-3.19-12.06-6.72-15.5-10.6-3.45-3.87-5.17-8.52-5.17-13.95,0-7.23,2.63-13.04,7.88-17.43,5.25-4.48,11.63-6.72,19.12-6.72Z"/><path class="cls-2" d="M813.36,300.68h72.07v15.76h-27.38v69.49h-17.44v-69.49h-27.25v-15.76Z"/><path class="cls-2" d="M901.19,311.92c8.79-8.52,19.46-12.79,32.03-12.79s23.29,4.27,32.16,12.79c8.87,8.35,13.3,18.82,13.3,31.39s-4.44,22.99-13.3,31.52c-8.96,8.44-19.68,12.66-32.16,12.66s-23.16-4.22-32.03-12.66c-8.78-8.53-13.17-19.03-13.17-31.52s4.39-23.04,13.17-31.39Zm51.79,11.24c-5.25-5.25-11.84-7.88-19.76-7.88s-14.34,2.63-19.5,7.88c-5.17,5.34-7.75,12.1-7.75,20.28s2.54,14.9,7.62,20.15c5.17,5.17,11.67,7.75,19.5,7.75s14.51-2.63,19.76-7.88c5.25-5.25,7.88-11.97,7.88-20.15s-2.58-14.81-7.75-20.15Z"/><path class="cls-2" d="M1023.64,355.83h-12.79v30.09h-17.44v-85.25h32.03c8.95,0,16.32,2.54,22.09,7.62,5.77,5,8.65,11.63,8.65,19.89,0,5.34-1.31,10.12-3.94,14.34-2.63,4.22-6.31,7.49-11.04,9.82l24.15,33.58h-19.63l-22.09-30.09Zm1.81-39.78h-14.6v24.41h14.6c4.05,0,7.21-1.1,9.49-3.29,2.28-2.2,3.42-5.15,3.42-8.85s-1.16-6.67-3.49-8.91c-2.33-2.24-5.47-3.36-9.43-3.36Z"/><path class="cls-2" d="M1076.08,300.68h57.35v15.76h-39.91v17.31h29.32v14.85h-29.32v21.57h41.46v15.76h-58.9v-85.25Z"/></g></g></g></svg>