<?xml version="1.0" encoding="utf-8"?>
<svg id="Layer_2" viewBox="0 0 1107.31 639.62" xmlns="http://www.w3.org/2000/svg">
  <defs>
    <style>.cls-1{fill:#0054a6;}</style>
  </defs>
  <g style="" transform="matrix(2.499438, 0, 0, 2.492424, -158.570129, -330.626251)">
    <path class="st0" d="M488.48,279.12c1.46-2.91,2.19-7.2,2.2-12.87c0-6.35-0.72-11.04-2.15-14.06c-1.43-3.02-3.79-4.53-7.06-4.54 c0,12.03,0,24.06,0,36.09C484.68,283.56,487.02,282.03,488.48,279.12z M466.84,234.01c4.02-0.23,8.03-0.44,12.05-0.6 c17.96-0.71,26.94,10.26,26.94,31.82c0,21.64-8.98,32.25-26.94,32.96c-4.02,0.17-8.03,0.37-12.05,0.6 C466.84,277.2,466.84,255.61,466.84,234.01z M433.62,236.66c4.88-0.48,9.75-0.93,14.63-1.33c0,16.97,0,33.93,0,50.9 c5.19-0.43,10.38-0.81,15.58-1.13c0,4.63,0,9.26,0,13.88c-10.07,0.63-20.14,1.46-30.21,2.46 C433.62,279.84,433.62,258.25,433.62,236.66z M64.77,286.14c4.02,0,8.03-0.04,12.05-0.12c17.96-0.39,26.94,9.7,26.94,31.33 c0,21.55-8.98,33.06-26.94,33.45c-4.02,0.08-8.03,0.12-12.05,0.12C64.77,329.33,64.77,307.74,64.77,286.14z M86.41,331.82 c1.46-2.92,2.19-7.22,2.2-12.9c0-6.36-0.72-11.03-2.15-14.04c-1.43-3.01-3.79-4.52-7.06-4.56c0,12.03,0,24.06,0,36.09 C82.61,336.28,84.95,334.73,86.41,331.82z M106.77,284.79c5.54-0.35,11.07-0.75,16.61-1.22c6.65-0.56,11.83,0.59,15.53,3.51 s5.55,7.39,5.55,13.44c0,3.64-0.89,7.04-2.67,10.19s-4.36,5.7-7.75,7.62c3.64,9.34,7.29,18.65,10.93,27.95 c-5.34,0.58-10.67,1.11-16.01,1.59c-2.67-8.98-5.34-17.98-8-26.99c0.14,1.84,0.29,3.68,0.43,5.52c0,7.37,0,14.75,0,22.12 c-4.88,0.4-9.75,0.75-14.63,1.05C106.77,327.98,106.77,306.38,106.77,284.79z M123.2,310.52c1.72-0.14,3.07-0.89,4.04-2.24 c0.98-1.35,1.46-2.64,1.46-3.88c0-0.37,0-0.74,0-1.11c0-1.6-0.46-3.01-1.38-4.23c-0.92-1.21-2.24-1.75-3.96-1.6 c-0.66,0.06-1.32,0.11-1.98,0.16c0,4.35,0,8.7,0,13.05C122,310.62,122.6,310.57,123.2,310.52z M147.13,281.26 c10.93-1.2,21.86-2.59,32.79-4.12c0,4.63,0,9.25,0,13.88c-6.05,0.85-12.11,1.65-18.16,2.4c0,3.86,0,7.71,0,11.57 c5.31-0.66,10.61-1.36,15.92-2.09c0,4.32,0,8.64,0,12.96c-5.31,0.73-10.61,1.43-15.92,2.09c0,4.16,0,8.33,0,12.49 c6.05-0.75,12.11-1.56,18.16-2.4c0,4.63,0,9.26,0,13.88c-10.93,1.53-21.86,2.92-32.79,4.12 C147.13,324.45,147.13,302.86,147.13,281.26z M195.41,274.89c5.54-0.84,11.07-1.7,16.61-2.6c4.3,20.9,8.61,41.79,12.91,62.66 c-4.85,0.81-9.7,1.61-14.54,2.39c-0.34-2.26-0.69-4.52-1.03-6.78c-3.59,0.57-7.17,1.14-10.76,1.68c-0.37,2.37-0.75,4.74-1.12,7.11 c-4.99,0.76-9.98,1.5-14.97,2.21C186.8,319.36,191.1,297.13,195.41,274.89z M207.2,317.02c-0.8-5.27-1.61-10.54-2.41-15.82 c-0.26-1.93-0.52-3.87-0.78-5.8c-0.26,2.01-0.52,4.03-0.77,6.04c-0.83,5.53-1.66,11.06-2.5,16.58 C202.89,317.7,205.05,317.36,207.2,317.02z M230.69,269.19c5.82-0.99,11.65-2,17.47-3.03c2.24,9.88,4.48,19.76,6.71,29.63 c0.37,2.19,0.75,4.37,1.12,6.56c0.37-2.32,0.75-4.64,1.12-6.96c2.21-10.67,4.42-21.33,6.63-32c5.82-1.05,11.65-2.1,17.47-3.15 c0.77,21.45,1.55,42.91,2.32,64.36c-4.88,0.88-9.75,1.77-14.63,2.65c-0.11-6.03-0.23-12.05-0.34-18.08 c0.03-3.98,0.06-7.97,0.09-11.95c-2.32,10.45-4.65,20.89-6.97,31.33c-3.82,0.68-7.63,1.36-11.45,2.04 c-2.38-9.73-4.76-19.46-7.14-29.19c0.06,4.09,0.11,8.19,0.17,12.28c-0.09,6.06-0.17,12.12-0.26,18.18 c-4.88,0.85-9.75,1.69-14.63,2.52C229.14,312.64,229.92,290.92,230.69,269.19z M284.82,259.58c4.88-0.88,9.75-1.77,14.63-2.65 c1.26,11.53,2.52,23.05,3.79,34.58c2.04-12.12,4.07-24.24,6.11-36.36c4.22-0.76,8.43-1.51,12.65-2.25 c2.07,11.48,4.13,22.97,6.2,34.45c1.23-12.06,2.47-24.12,3.7-36.18c4.88-0.84,9.75-1.68,14.63-2.49 c-3.01,22.1-6.02,44.2-9.04,66.31c-5.25,0.9-10.5,1.81-15.75,2.74c-2.04-10.84-4.07-21.68-6.11-32.51 c-2.01,11.56-4.02,23.11-6.02,34.67c-5.25,0.94-10.5,1.89-15.75,2.84C290.85,301.67,287.83,280.63,284.82,259.58z M352.21,304.74 c-3.79-5.17-5.68-13.06-5.68-23.67c0-10.61,1.89-19.14,5.68-25.56c3.79-6.42,9.18-10.2,16.18-11.29 c6.94-1.08,12.32,1.03,16.14,6.28c3.81,5.25,5.72,13.19,5.72,23.8s-1.91,19.08-5.72,25.43c-3.82,6.35-9.2,10.04-16.14,11.12 C361.39,311.94,355.99,309.92,352.21,304.74z M363.7,292.8c1.12,2.79,2.68,4.02,4.69,3.71s3.57-2.03,4.69-5.16 s1.68-7.35,1.68-12.66c0-1.42,0-2.84,0-4.26c0-5.3-0.56-9.36-1.68-12.15s-2.68-4.03-4.69-3.72c-2.01,0.31-3.57,2.04-4.69,5.18 c-1.12,3.14-1.68,7.36-1.68,12.67c0,1.42,0,2.84,0,4.26C362.02,285.97,362.58,290.01,363.7,292.8z M393.26,241.48 c5.54-0.76,11.07-1.49,16.61-2.17c6.66-0.82,11.83,0.25,15.53,3.15c3.7,2.9,5.55,7.39,5.55,13.44c0,3.64-0.89,7.03-2.67,10.18 s-4.36,5.71-7.75,7.69c3.64,9.27,7.29,18.57,10.93,27.89c-5.34,0.54-10.67,1.13-16.01,1.76c-2.67-8.91-5.34-17.81-8-26.7 c0.14,1.83,0.29,3.67,0.43,5.5c0,7.37,0,14.75,0,22.12c-4.88,0.61-9.75,1.25-14.63,1.93C393.26,284.67,393.26,263.08,393.26,241.48 z M409.69,266.26c1.72-0.21,3.07-1.01,4.04-2.39c0.97-1.38,1.46-2.69,1.46-3.92c0-0.37,0-0.74,0-1.11c0-1.6-0.46-3-1.38-4.19 c-0.92-1.19-2.24-1.67-3.96-1.46c-0.66,0.08-1.32,0.16-1.98,0.25c0,4.35,0,8.7,0,13.05C408.49,266.41,409.09,266.34,409.69,266.26z " style="fill: rgb(42, 54, 63);"/>
    <g>
      <g>
        <path class="st0" d="M350.98,373.25c0,4.62,0,9.24,0,13.86c0,0.44,0,0.45-0.41,0.45c-2.41,0-4.82,0-7.24,0 c-0.42,0-0.42,0-0.42-0.46c0-1.6,0-3.2,0-4.79c0-0.42-0.03-0.46-0.42-0.46c-0.66-0.01-1.31-0.01-1.97,0 c-0.31,0-0.35,0.05-0.35,0.38c0,0.67,0,1.35-0.01,2.02c0,0.4-0.05,0.45-0.43,0.46c-0.64,0.01-1.27,0-1.91,0.01 c-0.33,0-0.37,0.05-0.37,0.4c0,0.67,0,1.35,0,2.02c0,0.37-0.04,0.43-0.38,0.43c-1.56,0-3.12,0-4.68,0 c-0.28,0-0.33-0.05-0.33-0.37c0-0.66,0-1.32,0-1.99c0-0.4-0.07-0.48-0.45-0.49c-0.61-0.01-1.23,0-1.84-0.01 c-0.37,0-0.43-0.06-0.44-0.46c-0.01-0.64,0-1.28-0.01-1.92c0-0.39-0.07-0.47-0.43-0.48c-0.64-0.01-1.27-0.01-1.91,0 c-0.38,0-0.44,0.08-0.44,0.49c0,1.59,0,3.17,0,4.76c0,0.43-0.03,0.46-0.45,0.46c-2.38,0-4.76,0-7.14,0c-0.04,0-0.09,0-0.13,0 c-0.38-0.01-0.4-0.03-0.4-0.43c0-9.23,0-18.46,0-27.7c0-0.08,0-0.16,0-0.24c0-0.23,0.1-0.36,0.33-0.37c0.1,0,0.19-0.01,0.29-0.01 c2.77,0,5.54,0,8.3,0c0.47,0,0.55,0.07,0.55,0.57c0,1.54,0,3.08,0,4.62c0,0.46,0.1,0.57,0.53,0.57c1.01,0,2.02,0,3.04,0.01 c0.41,0,0.52,0.11,0.52,0.55c0,1.53,0,3.06,0,4.59c0,0.55,0.08,0.63,0.6,0.63c1.39,0,2.78,0,4.17,0c0.11,0,0.22,0,0.32-0.01 c0.29-0.03,0.39-0.15,0.4-0.47c0.01-0.44,0-0.89,0-1.34c0-1.08,0-2.17,0-3.25c0-0.71,0-0.71,0.68-0.71c0.92,0,1.83,0,2.75,0 c0.09,0,0.17,0,0.26-0.01c0.3-0.03,0.37-0.1,0.37-0.43c0-1.2,0-2.4,0-3.59c0-0.43,0-0.87,0-1.3c0.01-0.39,0.04-0.43,0.41-0.43 c2.84,0,5.69,0,8.53,0c0.45,0,0.47,0.02,0.47,0.5c0,2.15,0,4.29,0,6.44C350.98,368.25,350.98,370.75,350.98,373.25L350.98,373.25 z" style="fill: rgb(42, 54, 63);"/>
        <path class="st0" d="M388.47,373.22c0-4.56,0-9.13,0-13.69c0-0.69,0.01-0.71,0.67-0.71c7.72,0,15.44,0,23.16,0 c0.6,0,0.6,0,0.6,0.66c0,0.58,0,1.16,0,1.75c0,0.44,0.03,0.47,0.44,0.47c1.51,0,3.02,0,4.52,0c0.39,0,0.43,0.04,0.43,0.44 c0,3.71,0,7.42,0,11.13c0,0.31-0.03,0.34-0.34,0.34c-1.52,0-3.04,0-4.56,0c-0.46,0-0.49,0.03-0.49,0.53c0,1.44,0,2.88,0,4.31 c0,0.09,0.01,0.18,0.01,0.27c0.01,0.21,0.12,0.3,0.31,0.3c0.43-0.01,0.86,0,1.29,0c1.14,0,2.28,0,3.42,0 c0.33,0,0.35,0.02,0.35,0.37c0,2.6,0,5.2,0,7.81c0,0.35-0.02,0.37-0.35,0.37c-4.24,0-8.49,0-12.73,0c-0.4,0-0.41-0.01-0.41-0.45 c0-2.51,0-5.02,0-7.53c0-0.54-0.05-0.6-0.58-0.6c-1.45,0-2.91,0-4.36,0c-0.53,0-0.58,0.06-0.58,0.6c0,2.49,0,4.98,0,7.46 c0,0.5-0.02,0.52-0.49,0.52c-3.26,0-6.53,0-9.79,0c-0.55,0-0.55,0-0.55-0.58C388.47,382.39,388.47,377.81,388.47,373.22z M403.38,371.8c1.16,0,2.33,0,3.49,0c0.58,0,0.66-0.09,0.66-0.68c0-1.49,0-2.99,0-4.48c0-0.56-0.09-0.67-0.61-0.67 c-2.35,0-4.69,0-7.04,0c-0.44,0-0.57,0.13-0.57,0.58c0,1.55,0,3.1,0,4.65c0,0.46,0.13,0.59,0.55,0.59 C401.03,371.8,402.21,371.8,403.38,371.8z" style="fill: rgb(42, 54, 63);"/>
        <path class="st0" d="M384.63,374.67c0,4.13,0,8.26,0,12.39c0,0.06,0,0.11,0,0.17c-0.01,0.3-0.03,0.32-0.32,0.33 c-0.02,0-0.04,0-0.06,0c-3.28,0-6.57,0-9.85,0c-0.1,0-0.19,0-0.29,0c-0.16,0-0.24-0.08-0.23-0.25c0-0.13,0-0.25,0-0.38 c0-1.53,0-3.06,0-4.59c0-0.43-0.05-0.49-0.46-0.5c-0.29-0.01-0.58,0-0.87,0c-2.05,0-4.09,0-6.14,0c-0.12,0-0.24,0-0.36,0 c-0.32,0.02-0.39,0.09-0.39,0.44c0,1.6,0,3.2-0.01,4.79c0,0.45-0.04,0.48-0.46,0.48c-3.28,0-6.57,0-9.85,0c-0.05,0-0.11,0-0.16,0 c-0.32-0.02-0.35-0.04-0.35-0.38c0-1.32,0-2.65,0-3.97c0-6.94,0-13.88,0-20.82c0-0.06,0-0.11,0-0.17 c0.01-0.44,0.08-0.52,0.49-0.52c1.4,0,2.8,0,4.2,0c0.09,0,0.17,0,0.26,0c0.4-0.01,0.48-0.08,0.48-0.5c0-0.57,0-1.14,0-1.71 c0-0.1,0-0.21,0.01-0.31c0.01-0.23,0.13-0.35,0.35-0.36c0.06,0,0.13,0,0.19,0c5.97,0,11.93,0,17.9,0c0.04,0,0.09,0,0.13,0 c0.35,0.01,0.4,0.06,0.41,0.45c0,0.07,0,0.14,0,0.21c0,0.57,0,1.14,0,1.71c0,0.48,0.03,0.51,0.47,0.51c0.56,0,1.12,0,1.68,0 c0.88,0,1.77,0,2.65,0c0.59,0,0.6,0,0.6,0.62c0,2.13,0,4.27,0,6.4C384.63,370.7,384.63,372.68,384.63,374.67z M373.86,371.65 c0-1.28,0-2.56,0-3.83c0-0.45-0.05-0.51-0.48-0.52c-0.56-0.01-1.12,0-1.68,0c-1.82,0-3.64,0-5.46,0c-0.59,0-0.61,0.03-0.6,0.63 c0,0.86,0,1.71,0,2.57c0,1.69,0,3.38,0,5.06c0,0.45,0.13,0.58,0.53,0.58c2.36,0,4.71,0,7.07,0c0.53,0,0.62-0.1,0.62-0.66 C373.86,374.21,373.86,372.93,373.86,371.65z" style="fill: rgb(42, 54, 63);"/>
        <path class="st0" d="M422.13,373.23c0-4.57,0-9.13,0-13.7c0-0.71,0.01-0.72,0.69-0.72c3.19,0,6.38,0,9.56,0 c0.51,0,0.58,0.06,0.58,0.61c0,1.53,0,3.06,0,4.59c0,0.46,0.1,0.56,0.53,0.56c1.48,0,2.95,0,4.43,0c0.46,0,0.55-0.11,0.55-0.58 c0-1.52,0-3.04,0-4.55c0-0.07,0-0.14,0-0.21c0.02-0.37,0.08-0.42,0.43-0.42c3.28,0,6.57,0,9.85,0c0.09,0,0.17,0,0.26,0 c0.14,0,0.22,0.09,0.22,0.23c0.01,0.11,0.01,0.23,0.01,0.34c0,3.46,0,6.92,0,10.37c0,0.51-0.02,0.53-0.52,0.53 c-2.35,0-4.7,0-7.04,0c-0.48,0-0.55,0.07-0.55,0.57c0,1.55,0,3.1,0,4.66c0,0.1,0.01,0.21,0.02,0.31 c0.03,0.24,0.16,0.31,0.38,0.31c0.66-0.01,1.31,0,1.97,0c1.78,0,3.55,0,5.33,0c0.39,0,0.41,0.02,0.41,0.42c0,3.54,0,7.07,0,10.61 c0,0.37-0.01,0.39-0.36,0.39c-3.33,0-6.66,0-9.98,0c-0.43,0-0.43-0.01-0.43-0.46c0-1.58,0-3.15,0-4.73 c0-0.45-0.06-0.53-0.47-0.53c-1.53-0.01-3.06,0-4.59,0c-0.38,0-0.45,0.08-0.45,0.49c0,1.59,0,3.17,0,4.76 c0,0.43-0.03,0.47-0.44,0.47c-3.3,0-6.59,0-9.89,0c-0.08,0-0.15-0.01-0.23-0.01c-0.19,0-0.28-0.08-0.28-0.29 c0-0.07,0-0.14,0-0.21C422.13,382.45,422.13,377.84,422.13,373.23z" style="fill: rgb(42, 54, 63);"/>
        <path class="st0" d="M453.1,373.23c0-4.56,0-9.13,0-13.69c0-0.71,0.01-0.72,0.69-0.72c7.72,0,15.44,0,23.16,0 c0.02,0,0.04,0,0.06,0c0.49,0,0.52,0.03,0.52,0.54c0,1.54,0,3.08,0,4.62c0,0.51-0.02,0.54-0.51,0.54c-3.12,0-6.25,0-9.37,0 c-0.13,0-0.26,0-0.39,0c-0.5,0-0.6,0.1-0.6,0.65c0,1.54,0,3.08,0,4.62c0,0.45,0.11,0.56,0.54,0.56c1.4,0,2.8,0,4.2,0 c0.11,0,0.22,0,0.32,0.01c0.29,0.03,0.38,0.13,0.38,0.44c0,1.6,0,3.2,0,4.79c0,0.4-0.11,0.49-0.54,0.49c-1.37,0-2.74,0-4.1,0 c-0.8,0-0.8,0-0.8,0.85c0,1.36,0,2.72,0,4.07c0,0.11,0,0.23,0,0.34c0.02,0.45,0.09,0.53,0.52,0.53c3.24,0,6.48,0,9.72,0 c0.63,0,0.63,0,0.63,0.64c0,1.48,0,2.97,0,4.45c0,0.58,0,0.59-0.54,0.59c-5.17,0-10.34,0-15.51,0c-2.61,0-5.21,0-7.82,0 c-0.56,0-0.57,0-0.57-0.6C453.11,382.38,453.11,377.81,453.1,373.23z" style="fill: rgb(42, 54, 63);"/>
        <path class="st0" d="M492.27,358.82c3.4,0,6.81,0,10.21,0c0.61,0,0.64,0.02,0.64,0.67c0,2.43,0,4.86,0,7.29 c0,0.57-0.05,0.63-0.58,0.63c-1.38,0-2.76,0-4.13,0c-0.68,0-0.72,0.04-0.72,0.79c0,4.27,0,8.54,0,12.8c0,2.07,0,4.13,0.01,6.2 c0,0.25-0.08,0.36-0.31,0.36c-0.06,0-0.13,0-0.19,0c-3.25,0-6.5,0-9.76,0c-0.05,0-0.11,0-0.16,0c-0.4-0.01-0.43-0.04-0.43-0.45 c0-4.6,0-9.2,0-13.8c0-1.75,0-3.49,0-5.24c0-0.07,0-0.14,0-0.21c-0.03-0.34-0.15-0.46-0.47-0.46c-1.42,0-2.84,0-4.26,0 c-0.7,0-0.71-0.01-0.71-0.74c0-2.37,0-4.75,0-7.12c0-0.02,0-0.05,0-0.07c0-0.63,0.04-0.66,0.61-0.66 C485.42,358.82,488.84,358.82,492.27,358.82z" style="fill: rgb(42, 54, 63);"/>
      </g>
      <g>
        <path class="st0" d="M371.98,340.68c0,4.59,0,9.18,0,13.77c0,0.1,0,0.21,0,0.31c0,0.19-0.08,0.27-0.25,0.27 c-0.09,0-0.17,0-0.26,0c-3.24,0-6.48,0-9.73,0c-0.08,0-0.15,0-0.23,0c-0.29-0.01-0.32-0.04-0.33-0.33c-0.01-0.17,0-0.34,0-0.51 c0-1.45,0-2.9,0-4.35c0-0.45-0.06-0.52-0.48-0.52c-0.57-0.01-1.14,0-1.71,0c-0.47,0-0.53-0.06-0.53-0.58c0-1.36,0-2.72,0-4.07 c0-0.22,0-0.43,0-0.65c-0.01-0.3-0.1-0.44-0.38-0.44c-0.68-0.02-1.36-0.02-2.04,0c-0.29,0.01-0.36,0.13-0.36,0.52 c0,2.28,0,4.57,0,6.85c0,1.21,0,2.42,0,3.63c0,0.43-0.04,0.47-0.44,0.47c-3.31,0-6.61,0-9.92,0c-0.09,0-0.17-0.01-0.26-0.01 c-0.14-0.01-0.21-0.09-0.22-0.24c0-0.07,0-0.14,0-0.21c0-9.18,0-18.35,0-27.53c0-0.76,0-0.76,0.72-0.76c3.2,0,6.4,0,9.6,0 c0.44,0,0.52,0.08,0.53,0.56c0,1.54,0,3.08,0,4.62c0,0.48,0.09,0.58,0.55,0.58c0.56,0,1.12,0,1.68,0c0.39,0,0.49,0.11,0.5,0.53 c0,1.52,0,3.04,0,4.55c0,0.1-0.01,0.21,0.01,0.31c0.04,0.23,0.15,0.37,0.39,0.37c0.64,0,1.27,0.01,1.91,0 c0.36-0.01,0.48-0.15,0.48-0.57c0-2.79,0-5.57,0-8.36c0-0.7,0-1.39,0-2.09c0-0.48,0.05-0.52,0.5-0.52c3.23,0,6.46,0,9.69,0 c0.59,0,0.59,0,0.59,0.65c0,2.13,0,4.27,0,6.4C371.98,335.77,371.98,338.23,371.98,340.68L371.98,340.68z" style="fill: rgb(42, 54, 63);"/>
        <path class="st0" d="M390.35,340.69c0-3.62,0-7.24,0-10.85c0-0.05,0-0.09,0-0.14c0.01-0.47,0.08-0.55,0.54-0.55 c1.45,0,2.91,0,4.36,0c0.49,0,0.55-0.06,0.55-0.56c0-0.59,0-1.19,0-1.78c0-0.45,0.09-0.53,0.52-0.53c5.99,0,11.97,0,17.96,0 c0.47,0,0.5,0.03,0.51,0.55c0,0.57,0,1.14,0,1.71c0,0.62,0,0.62,0.6,0.62c1.44,0,2.89,0,4.33,0c0.44,0,0.47,0.03,0.47,0.51 c0,2.55,0,5.09,0,7.64c0,0.42-0.05,0.47-0.45,0.47c-2.92,0-5.84,0-8.76,0c-0.43,0-0.48-0.06-0.48-0.51c0-0.57,0-1.14,0-1.71 c0-0.58-0.07-0.66-0.64-0.66c-1.53,0-3.06,0-4.59,0c-0.82,0-1.64,0-2.46,0c-0.41,0-0.53,0.12-0.53,0.55c0,3.49,0,6.98,0,10.48 c0,0.48,0.1,0.57,0.56,0.57c2.35,0,4.7,0,7.04,0c0.04,0,0.09,0,0.13,0c0.4-0.01,0.48-0.08,0.48-0.5c0.01-0.65,0.01-1.3,0-1.95 c0-0.36-0.07-0.45-0.41-0.46c-0.41-0.02-0.82-0.01-1.23-0.01c-0.24,0-0.47-0.01-0.71,0c-0.24,0.01-0.34-0.12-0.35-0.34 c-0.01-0.16-0.01-0.32-0.01-0.48c0-0.52,0-1.05,0-1.57c0-0.38,0.06-0.45,0.41-0.45c3.87,0,7.73,0,11.6,0 c0.35,0,0.39,0.05,0.39,0.41c0,3.54,0,7.08,0,10.61c0,0.41-0.02,0.43-0.4,0.43c-1.52,0-3.04,0-4.55,0 c-0.43,0-0.44,0.02-0.44,0.46c0,0.66,0,1.32,0,1.99c0,0.39-0.02,0.41-0.38,0.41c-1.43,0-2.86,0-4.3,0c-4.58,0-9.15,0-13.73,0 c-0.58,0-0.58,0-0.58-0.63c0-0.56,0-1.12,0-1.68c0-0.51-0.04-0.55-0.51-0.56c-1.39,0-2.78,0-4.17,0c-0.08,0-0.15,0-0.23,0 c-0.53-0.01-0.54-0.02-0.54-0.58C390.35,347.95,390.35,344.32,390.35,340.69z" style="fill: rgb(42, 54, 63);"/>
        <path class="st0" d="M451.15,340.67c0,4.61,0,9.22,0,13.83c0,0.06,0,0.11,0,0.17c-0.01,0.33-0.03,0.35-0.33,0.35 c-3.36,0-6.72,0-10.08,0c-0.35,0-0.38-0.03-0.38-0.42c0-1.14,0-2.28,0-3.42c0-2.35,0-4.7,0-7.05c0-0.49-0.08-0.58-0.54-0.58 c-1.48,0-2.95,0-4.43,0c-0.46,0-0.54,0.09-0.54,0.59c0,3.46,0,6.92,0,10.37c0,0.49-0.02,0.51-0.5,0.52c-3.26,0-6.53,0-9.79,0 c-0.55,0-0.55,0-0.55-0.58c0-9.12,0-18.24,0-27.36c0-0.81,0-0.81,0.77-0.81c3.17,0,6.33,0,9.5,0c0.51,0,0.57,0.06,0.57,0.61 c0,3.36,0,6.71,0,10.07c0,0.14,0,0.27,0,0.41c0.02,0.29,0.16,0.44,0.43,0.45c0.41,0.01,0.82,0,1.23,0c1.08,0,2.15,0,3.23,0 c0.52,0,0.62-0.11,0.62-0.66c0-3.38,0-6.76,0-10.13c0-0.74,0-0.74,0.69-0.74c3.21,0,6.42,0,9.63,0c0.46,0,0.47,0.01,0.47,0.53 c0,3.45,0,6.89,0,10.34C451.15,338.31,451.15,339.49,451.15,340.67L451.15,340.67z" style="fill: rgb(42, 54, 63);"/>
        <path class="st0" d="M465.84,326.27c3.41,0,6.83,0,10.24,0c0.62,0,0.64,0.02,0.64,0.67c0,2.45,0,4.91,0,7.36 c0,0.49-0.07,0.57-0.54,0.57c-1.43,0-2.86,0-4.3,0c-0.52,0-0.6,0.08-0.6,0.64c0,2.27,0,4.54,0,6.81c0,4.09,0,8.17,0,12.26 c0,0.4-0.03,0.44-0.43,0.45c-1.57,0-3.14,0-4.72,0c-1.71,0-3.42,0-5.14,0c-0.1,0-0.19,0-0.29-0.01c-0.18-0.01-0.28-0.09-0.27-0.3 c0-0.08,0-0.16,0-0.24c0-6.23,0-12.46,0-18.69c0-0.1,0-0.21,0-0.31c-0.01-0.5-0.1-0.6-0.56-0.6c-1.39,0-2.78,0-4.17,0 c-0.09,0-0.17,0-0.26,0c-0.37-0.02-0.45-0.1-0.45-0.5c0-1.78,0-3.56,0-5.34c0-0.72,0-1.44,0-2.16c0-0.56,0.05-0.6,0.57-0.6 C458.99,326.27,462.41,326.27,465.84,326.27L465.84,326.27z" style="fill: rgb(42, 54, 63);"/>
        <path class="st0" d="M375.81,340.73c0-4.58,0-9.15,0-13.73c0-0.72,0.01-0.73,0.68-0.73c3.17,0,6.33,0,9.5,0 c0.63,0,0.66,0.03,0.66,0.69c0,7.82,0,15.63,0,23.45c0,1.38,0,2.76,0,4.14c0,0.43-0.04,0.47-0.45,0.47c-3.29,0-6.59,0-9.88,0 c-0.09,0-0.17-0.01-0.26-0.01c-0.18,0-0.25-0.1-0.25-0.28c0-0.11,0-0.23,0-0.34C375.81,349.84,375.81,345.28,375.81,340.73z" style="fill: rgb(42, 54, 63);"/>
      </g>
    </g>
    <g>
      <path class="st0" d="M179.94,208.64c2.15-1.17,2.05-2.66-0.15-3.7c-1.38-0.65-2.97-1.08-4.5-1.17c-0.66-0.04-1.31-0.05-1.97-0.04 c-0.23,0.26-0.37,0.53-0.65,0.62c-0.66,0.22-1.43,0.32-2.11,0.52c-1.23,0.36-1.39,0.82-0.6,1.44c1.24,0.98,1.23,0.97-0.56,1.73 c-0.47,0.2-0.81,0.52-1.37,0.89c1.79,0.45,3.6,0.75,3.02,2.19c1.02-0.13,2.03-0.27,3.04-0.45 C176.11,210.34,178.14,209.62,179.94,208.64z" style="fill: rgb(42, 54, 63);"/>
      <path class="st0" d="M132.28,262.48c-4.11,4.4-9.14,6.56-15.23,6.01c1.99-0.77,4.47-0.35,5.97-2.37c-0.65-0.01-1.3,0.02-1.82,0.31 c-1.84,1-3.88,1.05-5.87,1.31c-0.69,0.09-1.39,0.15-2.06,0.33c-0.44,0.12-0.82,0.43-1.53,0.82c2.76,1.37,4.99,3.12,8.02,2.24 c0.54-0.16,1.14-0.22,1.69-0.16c0.72,0.08,1.42,0.33,2.13,0.51c-0.01,0.1-0.01,0.21-0.02,0.31c0.68-0.31,1.37-0.61,2.21-0.99 c-0.62-0.25-1.08-0.43-1.97-0.79c2.23-0.72,4.03-1.3,5.71-1.84c0.54-1.79,2.55-2.45,3.47-4.01c0.92-1.57,2.29-2.89,3.17-4.47 c0.92-1.64,1.61-3.43,2.19-5.23c0.56-1.74,0.84-3.56,1.24-5.35c0.94,7.76-2.06,13.93-7.85,18.98c0.13,0.17,0.26,0.34,0.39,0.51 c0.42-0.16,0.91-0.23,1.26-0.48c5.19-3.79,7.66-9,8.16-15.34c0.32-4.11-1.45-7.53-3.16-11.01c-0.09-0.19-0.35-0.29-0.82-0.66 c-0.03,0.75-0.16,1.23-0.06,1.66c0.94,4.08,0.53,8.04-1.06,11.89C135.29,257.39,134.36,260.26,132.28,262.48z" style="fill: rgb(42, 54, 63);"/>
      <path class="st0" d="M125.33,233.78c-3.82-0.19-7.19,1.35-10.37,3.17c-3.47,1.99-6.09,4.83-7.69,8.59 c-1.3,3.07-1.85,6.3-2.16,9.55c-0.19,2.03,0.17,4.14,0.51,6.18c0.34,2.01,1.74,3.31,3.58,4.1c2.19,0.94,4.48,1.29,6.85,1.03 c0.57-0.05,1.13-0.1,1.7-0.17c0.25-0.03,0.49-0.11,0.73-0.19c5.16-1.58,9.12-4.67,12.01-9.25c2.85-4.52,3.61-9.57,3.56-14.69 C134,236.86,130.36,234.04,125.33,233.78z M121.54,260.75c-1.59,0.62-3.09,1.24-4.87,1.2c-1.37-0.03-2.22-0.55-2.59-1.72 c-0.34-1.07-0.65-2.24-0.54-3.32c0.31-3.25,0.7-6.53,3.79-9.01c0.14,0.52,0.4,0.95,0.31,1.28c-0.21,0.71-0.65,1.36-0.9,2.06 c-0.45,1.27-0.03,1.9,1.28,2.06c2.06,0.25,2.03,0.24,1.66,2.36c-0.1,0.56,0.04,1.15,0.08,1.97c1.88-0.76,3.58-1.75,4.9,0.54 C123.97,259.5,122.91,260.22,121.54,260.75z M114.81,246.38c-3.34,4.72-4.79,10.1-2.75,15.9c-1.88,0.01-3.05-0.95-3.36-2.75 c-0.81-4.72-0.36-9.27,1.66-13.67c1.08-2.34,2.75-4.05,4.86-5.41c2.84-1.81,5.75-3.44,9.27-3.35c2.16,0.05,4.1,0.52,5.4,2.82 C123.6,239.43,118.34,241.4,114.81,246.38z" style="fill: rgb(42, 54, 63);"/>
      <path class="st0" d="M179.71,256.12c0.95-0.45,1.94-0.84,2.9-1.27c0.39-0.17,0.76-0.38,1.14-0.57c-1.64-0.16-3.14,0.15-4.62,0.08 c-1.61-0.07-3.27-0.3-4.8-0.81c-1.41-0.47-2.66-1.39-3.98-2.11c-0.1,0.17-0.2,0.33-0.31,0.5c1.12,2.34,3.28,3.33,5.86,3.98 c-0.66,0.36-1.12,0.62-1.73,0.96c0.83,1.65,2.09,1.6,3.36,1.42c0.93-0.13,1.99-0.17,1.77-1.62 C179.28,256.51,179.52,256.21,179.71,256.12z" style="fill: rgb(42, 54, 63);"/>
      <path class="st0" d="M186.46,241.59c0-3.63-3.59-7.62-8.39-6.4c-3.68,0.93-6.47,3.08-8.01,6.63c-0.98,2.27-0.82,4.49,0.81,6.4 c1.05,1.23,2.23,2.43,3.55,3.35c2.43,1.7,6.15,1.45,8.54-0.34C186.23,248.78,186.77,245.34,186.46,241.59z M172.54,243.37 c0.44-3.26,2.84-4.57,5.5-5.55c3.2-1.17,4.61,0.27,6.16,3.88c-1.97-1.75-3.7-3.4-6.27-2.59 C175.61,239.83,173.92,241.38,172.54,243.37z M180.24,249.23c-1.35,1.33-4.43,0.67-5.06-1.1c-0.25-0.7,0.28-1.76,0.62-2.59 c0.3-0.73,0.93-0.64,1.6-0.33c1.26,0.58,2.54,0.56,3.84,0.05c0.47-0.18,1.03-0.12,1.54-0.17c0.06,0.16,0.13,0.31,0.19,0.47 C182.07,246.79,181.31,248.17,180.24,249.23z" style="fill: rgb(42, 54, 63);"/>
      <path class="st0" d="M183.31,205.41c0.38-0.69,0.5-1.44,0.4-2.15c-2.34-0.94-4.93-1.46-7.78-1.48c2.59,0.43,5,1.46,7.02,3.61 C183.01,205.45,183.18,205.41,183.31,205.41z" style="fill: rgb(42, 54, 63);"/>
      <path class="st0" d="M228.48,198.06c0.4,0.3,0.95,0.29,1.32-0.04c7.71-6.6,15.04-13.65,22.51-20.53c1.09-1,2.83-2.68,3.79-3.81 c1.11-1.3,1.97-1,2.86,0.22c-2.05,4.5-4.18,8.97-6.12,13.51c-1.98,4.64-4.16,9.22-4.94,14.28c-1.42,9.2,4.19,15.3,13.49,14.63 c0.66-0.05,1.33-0.08,2.28-0.13c-1.27,1.61-2.4,2.91-3.37,4.32c-1.87,2.71-2.97,5.6-1.18,8.78c1.9,3.39,5.04,4.97,8.73,4.59 c2.97-0.31,5.97-1.2,8.75-2.34c5.56-2.27,10.99-4.87,16.47-7.34c0.37-0.16,0.75-0.3,1.12-0.45c0.05,0.09,0.1,0.19,0.15,0.28 c-3.06,2.5-6.22,4.91-9.16,7.54c-2.79,2.49-5.49,5.09-7.99,7.87c-2.36,2.62-3.96,5.77-4.38,9.32c-0.16,1.37-0.09,2.72,0.18,4.02 c1.45-0.28,2.89-0.56,4.34-0.84c-0.42-2.02-0.15-4.2,0.87-6.13c1.19-2.24,2.64-4.4,4.37-6.22c5.97-6.28,12.95-11.38,20.03-16.33 c0.54-0.38,1.15-0.66,1.98-1.13c1.73,3.48,3.38,6.78,5,10.03c-3.3,2.55-7.28,3.43-9.8,6.39c0.32,0.4,0.25,0.31,0.56,0.71 c3.22-1.72,6.44-3.45,9.85-5.27c0.46,1.38,0.84,2.53,1.21,3.67c0.51,1.57,0.96,3.17,1.58,4.7c0.16,0.38,0.89,0.52,1.36,0.78 c0.18-0.43,0.51-0.85,0.52-1.29c0.02-0.59-0.15-1.21-0.31-1.79c-0.67-2.41-1.37-4.82-2.08-7.29c2.65-1.65,5.55-2.82,7.7-5.02 c-0.28-0.38-0.22-0.3-0.5-0.68c-2.66,1.3-5.33,2.61-8.03,3.93c-1.83-3.41-3.63-6.75-5.63-10.47c7.04-3.9,13.96-7.75,20.89-11.59 c0.76-0.42,1.79-0.71,2.16-1.36c0.44-0.77,0.61-1.98,0.33-2.81c-0.35-1.06-1.47-1.03-2.46-0.58c-1.19,0.54-2.38,1.08-3.57,1.62 c-7.06,3.2-14.12,6.4-21.29,9.66c-2.37-2.68-4.59-5.39-7.31-7.57c-0.13,0.12-0.25,0.24-0.38,0.36c2.04,2.55,4.08,5.09,6.19,7.74 c-0.59,0.34-0.95,0.58-1.33,0.76c-8.21,3.84-16.41,7.7-24.64,11.49c-1.73,0.79-3.56,1.52-5.41,1.84c-1.48,0.26-3.15,0.11-4.6-0.32 c-2.75-0.82-3.73-3.21-2.48-5.78c0.6-1.23,1.46-2.37,2.38-3.39c4.2-4.66,8.47-9.25,12.72-13.87c0.71-0.77,1.55-1.48,2.01-2.38 c0.28-0.54,0.18-1.63-0.21-2.06c-0.4-0.43-1.41-0.59-2.05-0.44c-0.6,0.14-1.08,0.83-1.58,1.31c-1.69,1.64-3.29,3.38-5.06,4.91 c-2.95,2.56-6.25,4.45-10.29,4.62c-6.45,0.27-10.42-3.96-9.69-10.34c0.11-0.95,0.35-1.88,0.6-2.81c2.1-7.88,5.75-15.12,9.38-22.36 c0.33-0.66,0.72-1.3,1.2-2.15c2.44,1.89,4.64,3.58,6.83,5.29c1.44,1.12,2.85,2.29,4.33,3.37c0.27,0.2,0.99,0.23,1.13,0.05 c0.26-0.35,0.47-1,0.31-1.34c-0.28-0.61-0.79-1.17-1.32-1.58c-2.61-2.02-5.26-4-7.91-5.97c-0.81-0.6-1.68-1.12-2.56-1.7 c4.86-8.88,9.64-17.45,16.03-25.03c2.75-3.26,5.18-6.77,7.75-10.18c0.42-0.56,1.06-1.12,1.11-1.73c0.07-0.74-0.19-1.7-0.68-2.21 c-0.26-0.27-1.53,0-1.96,0.43c-1.05,1.03-1.87,2.29-2.78,3.45c-6.27,8.02-12.5,16.08-18.85,24.04c-2.21,2.77-4.73,5.3-6.83,7.62 c-3.34-0.68-6.25-1.26-9.15-1.85c2.42,1.3,5.25,1.6,7.39,3.5c-0.23,0.36-0.34,0.62-0.52,0.79c-8.13,7.88-16.22,15.8-24.44,23.59 c-0.3,0.29-0.62,0.56-0.95,0.83c-0.53,0.42-0.51,1.24,0.03,1.65C228.46,198.05,228.47,198.06,228.48,198.06z" style="fill: rgb(42, 54, 63);"/>
      <path class="st0" d="M313.11,182.16c-2.46,2.03-4.87,4.12-7.24,6.27c-0.25,0.22-0.07,0.91-0.1,1.38c0.53-0.02,1.23,0.16,1.57-0.1 c1.83-1.44,3.62-2.95,5.34-4.51c0.8-0.72,1.43-1.62,2.14-2.44c-0.11-0.2-0.22-0.4-0.33-0.6 C314.02,182.14,313.38,181.93,313.11,182.16z" style="fill: rgb(42, 54, 63);"/>
      <path class="st0" d="M288.95,193.48c3.59-2.76,7.19-5.51,10.75-8.32c11.48-9.08,22.95-18.17,34.4-27.29 c0.87-0.69,1.6-1.58,2.29-2.46c0.19-0.24,0.12-0.92-0.09-1.17s-0.86-0.42-1.14-0.27c-1,0.51-2,1.07-2.87,1.78 c-11.08,9.01-22.15,18.05-33.2,27.1c-3.57,2.92-7.1,5.9-10.63,8.88c-0.65,0.55-1.81,1.05-0.6,2.32 C288.22,193.85,288.63,193.72,288.95,193.48z" style="fill: rgb(42, 54, 63);"/>
      <path class="st0" d="M78.22,269.64c0.36,0.52,0.72,1.04,1.07,1.56c0.65,0.99,0.83,1.93,0.58,3.06c-0.29,1.31-0.58,2.77-0.78,4.27 c0.74-0.02,1.49-0.03,2.23-0.05c0.25-1.88,0.54-3.78,0.83-5.62c0.22-1.37,0.44-2.79,0.64-4.19c0.07-0.51,0.08-1.02,0.08-1.61 c0-0.29,0-0.59,0.01-0.91l0.01-0.26l-0.25,0.07c-1.74,0.51-1.92,1.67-2.1,2.78c-0.03,0.2-0.06,0.41-0.11,0.62 c-1.2-1.94-2.07-3.79-1.44-6.2c1.95-7.43,4.76-14,8.6-20.09c1.72-2.73,2.48-3.33,5.14-3.77c-1.74,2.18-3.44,4.46-3.61,7.47 l-0.01,0.16l0.16,0.04c1.41,0.32,1.88-0.51,2.11-1.15c0.97-2.76,2.66-5.16,4.3-7.47c0.9-1.28,1.84-2.6,2.64-3.97 c1.21-2.07,2.82-3.96,4.38-5.79c0.54-0.64,1.1-1.29,1.64-1.95c0.62-0.75,1.38-1.5,2.4-2.36c1.19-1,2.36-2.01,3.54-3.02 c3.08-2.65,6.27-5.39,9.59-7.83c3.27-2.4,6.83-4.52,10.28-6.57c0.84-0.5,1.69-1,2.53-1.51c1.02-0.62,2.23-0.99,3.4-1.36l0.44-0.14 c2.08-0.66,4.2-1.3,6.25-1.93c1.84-0.56,3.69-1.12,5.53-1.7c0.4-0.13,0.8-0.25,1.19-0.38c3.03-0.97,6.17-1.97,9.45-2.06 c0.6-0.02,1.2-0.12,1.73-0.29c3.34-1.08,6.85-1.08,10.25-1.08h0.79c1.13,0,2.29,0.21,3.42,0.42l0.19,0.03 c0.56,0.02,1.12,0.05,1.68,0.11c0.06,0.01,0.11,0.01,0.17,0.02l0.11,0.01c0.97,0.05,2.01,0.19,3.18,0.42h0.04 c0.06,0,0.12,0,0.18,0h0.04c1.97,0.15,4.01,0.3,5.98,0.64c0.63,0.11,1.26,0.21,1.9,0.3c2.62,0.4,5.33,0.82,7.79,2.01 c0.28,0.14,0.6,0.17,0.81,0.18c5.41,0.15,10.12,2.52,14.48,4.93c2,1.11,4.11,2.11,6.14,3.08l0.3,0.14l1.38,0.16 c0.46,0.05,0.77-0.47,0.5-0.84c-0.71-1-1.76-1.41-2.77-1.82c-0.8-0.32-1.63-0.65-2.29-1.28c2.09-0.55,3.77-0.95,5.48-0.35 c1.92,0.67,3.48,1.38,4.76,2.18c1.61,1,3.13,2.23,4.6,3.41l0.54,0.44c2.03,1.62,2.19,2.54,0.87,4.91 c-0.5,0.89-0.02,1.43,0.46,1.87c0.46,0.42,0.91,0.84,1.36,1.27c1.01,0.95,2.05,1.93,3.15,2.8c5.64,4.43,10.62,10.32,15.65,18.54 c1.59,2.6,3.21,5.13,4.86,7.7c1.51,2.35,2.58,4.85,3.29,7.58c0.8-0.15,1.59-0.31,2.39-0.46c0-0.01-0.01-0.02-0.01-0.03 c-0.05-0.13-0.11-0.26-0.15-0.4c-0.94-3.06-2.61-5.75-4.1-8.03c-1.12-1.72-2.2-3.5-3.25-5.23c-2.11-3.48-4.29-7.09-6.93-10.32 l-0.58-0.71c-2.43-2.98-4.94-6.06-8.11-8.49l-0.31-0.24c-1.97-1.51-4.01-3.07-5.46-5.12c0.98-2.51,0.57-5.15-1-6.45 c-0.31-0.26-0.63-0.52-0.94-0.78c-2.51-2.1-5.11-4.26-8.2-5.65c-3.2-1.44-6.5-1.27-10.36,0.53c-0.16-0.09-0.33-0.18-0.51-0.27 c-0.48-0.26-1.03-0.55-1.57-0.85c-3.56-2.03-7.01-3.39-10.54-4.16c-3.52-0.77-7.3-1.58-11.06-2.31c-1.81-0.35-3.67-0.56-5.47-0.76 l-0.32-0.04c-0.56-0.06-1.14-0.08-1.69-0.1c-0.56-0.02-1.14-0.04-1.7-0.11l-0.2-0.02c-1.89-0.22-3.85-0.45-5.74-0.82 c-3.3-0.64-6.51-0.3-10.07,0.17c-1.75,0.23-3.51,0.57-5.21,0.9c-1.53,0.3-3.12,0.6-4.68,0.83c-3.03,0.44-5.91,1.46-8.7,2.46 l-0.39,0.14c-1.08,0.38-2.19,0.72-3.27,1.05c-0.75,0.23-1.53,0.47-2.29,0.72c-0.69,0.23-1.4,0.44-2.1,0.66 c-1.8,0.55-3.66,1.12-5.38,1.93c-2.21,1.05-4.32,2.42-6.36,3.73c-0.36,0.24-0.73,0.47-1.1,0.71c-0.47,0.3-0.93,0.6-1.4,0.89 c-2.57,1.64-5.22,3.33-7.67,5.2c-1.47,1.13-2.86,2.4-4.2,3.64c-1.12,1.03-2.29,2.1-3.49,3.07c-3.12,2.52-5.55,5.16-7.45,8.07 c-0.41,0.63-0.9,1.22-1.37,1.8c-0.16,0.19-0.31,0.38-0.46,0.57l-0.28,0.35c-1.03,1.28-2.09,2.61-3.15,3.89l-0.14,0.17 c-0.35,0.42-0.71,0.86-1.14,1.06c-1.05,0.47-2.18,0.84-3.36,1.11c-1.51,0.35-2.6,1.19-3.45,2.66c-0.62,1.07-1.27,2.14-1.91,3.18 c-0.85,1.39-1.73,2.84-2.53,4.29c-2.11,3.81-3.56,7.3-4.42,10.66c-0.13,0.52-0.26,1.05-0.38,1.58c-0.3,1.27-0.61,2.59-1.06,3.83 c-0.58,1.57-0.47,2.89,0.34,4.13C77.43,268.51,77.83,269.09,78.22,269.64z" style="fill: rgb(42, 54, 63);"/>
      <path class="st0" d="M339.5,225.58c5.03-2.3,10.09-4.57,14.47-8.17c-5.58,1.29-10.68,3.76-15.65,6.51 c-0.31,0.17-0.31,0.89-0.45,1.35C338.42,225.39,339.09,225.77,339.5,225.58z" style="fill: rgb(42, 54, 63);"/>
      <path class="st0" d="M200.03,258.86c-0.16-0.32-0.31-0.65-0.47-0.97c-0.21,0.18-0.43,0.36-0.64,0.53 c0.11,0.43,0.14,0.91,0.35,1.28c0.68,1.21,1.33,2.45,2.17,3.55c0.61,0.81,1.26,1.57,1.94,2.27c0.6-0.1,1.2-0.2,1.81-0.3 C203.16,263.64,201.38,261.52,200.03,258.86z" style="fill: rgb(42, 54, 63);"/>
      <path class="st0" d="M211.28,263.42c-0.06,0.08-0.12,0.15-0.18,0.23c0.23,0.15,0.46,0.3,0.69,0.45c0.29-0.05,0.57-0.1,0.86-0.15 C212.19,263.77,211.74,263.59,211.28,263.42z" style="fill: rgb(42, 54, 63);"/>
      <path class="st0" d="M150.27,213.91c1.71,1.59,3.4,3.21,5.75,3.84c0.48,0.13,0.98,0.26,1.4,0.51c1.61,0.96,3.22,1.5,5.17,0.93 c1.25-0.36,2.66-0.48,3.95-0.3c3.08,0.43,5.95,0.01,8.93-0.9c3.65-1.11,6.82-2.91,9.72-5.25c0.76-0.61,1.61-1.35,1.85-2.78 c-1.33,0.82-2.41,1.43-3.44,2.13c-4.03,2.72-8.28,4.79-13.3,4.76c-0.76,0-1.51,0.14-2.27,0.17c-0.44,0.02-0.99,0.14-1.3-0.07 c-2.39-1.56-5.23-0.15-7.69-1.21c-0.15-0.07-0.38-0.01-0.56,0.03c-2.75,0.48-4.95-0.54-6.89-2.41c-0.35-0.34-0.89-0.49-1.72-0.93 C150.09,213.26,150.06,213.71,150.27,213.91z" style="fill: rgb(42, 54, 63);"/>
      <path class="st0" d="M219.24,226.6c-0.67,0.19-1.37,0.26-2.04,0.46c-3.7,1.06-7.29,2.41-9.57,5.72 c-3.01,4.38-4.57,9.25-3.98,16.23c0.03,1.61,1.13,4.48,2.85,7.12c2.15,3.29,4.73,6.14,8.3,7.45c5.72-0.99,11.45-2.01,17.18-3.06 c1.25-1.04,2.41-2.3,3.46-3.8c0.17-0.25,0.46-0.42,0.66-0.65c0.65-0.76,1.42-1.46,1.89-2.32c2.36-4.28,2.81-8.86,1.94-13.61 C238.1,230.05,227.78,224.21,219.24,226.6z M233.06,252.53c-1.59,2.47-4.02,3.89-6.95,5.35c0.27-2.15,0.47-3.83,0.71-5.51 c0.21-1.45,0.16-1.69-0.71-2.63c-0.62,1.8-1.06,3.68-1.9,5.38c-1.74,3.53-3.3,4.17-6.99,3.37c-2.03-0.44-3.38-1.51-4.48-3.13 c-1.47-2.17-1.06-4.57,1.42-6.5c-0.38,1.74-0.71,3.2-1.03,4.65c1.45,0.92,2.26-0.16,3.06-0.66c1.75-1.1,2.35-3.13,1.64-5.11 c-0.42-1.18-0.95-2.32-1.44-3.47c-0.5-1.18-1.44-1.55-2.63-1.3c-0.98,0.21-1.95,0.48-2.91,0.79c-0.62,0.2-1.23,0.53-1.67-0.21 c-0.42-0.7-0.88-1.4-0.29-2.27c1.25-1.82,3.02-2.82,5.11-3.3c1.72-0.4,3.47-0.68,5.18-1.1c4.59-1.14,8.79-0.18,11.38,4.65 c0.09,0.17,0.16,0.35,0.29,0.49c2.3,2.37,2.82,5.36,2.84,8.48C233.7,251.17,233.44,251.95,233.06,252.53z M236.71,249.99 c-0.14-1.45-0.2-2.91-0.43-4.34c-0.91-5.52-3.79-9.5-9.14-11.51c-0.65-0.24-1.33-0.44-1.91-0.8c-2.07-1.29-4.35-1.55-6.71-1.58 c-2.37-0.02-4.56,0.71-6.71,1.61c-0.61,0.26-1.22,0.52-1.84,0.78c-0.07-0.15-0.15-0.31-0.22-0.46c1.01-1.41,2.46-2.32,4.08-2.81 c2.71-0.81,5.47-1.48,8.23-2.09c2.14-0.47,4.12-0.14,6.18,0.88c3.17,1.56,5.83,3.59,7.57,6.62c0.89,1.55,1.65,3.36,1.8,5.11 C237.88,244.26,237.73,247.17,236.71,249.99z" style="fill: rgb(42, 54, 63);"/>
      <path class="st0" d="M189,206.69c-1.06-1.94-2.13-3.87-3.28-5.74c-0.31-0.5-0.9-0.92-1.45-1.16c-1.27-0.55-2.55-1.04-3.95-1.57 c-0.68-0.14-1.37-0.28-2.06-0.39c-0.92-0.15-1.87-0.16-2.79-0.1c-0.63,0.04-1.29,0.13-1.9-0.09c-5.1,0.01-10.08,0.77-14.9,2.51 c-0.99,0.36-1.92,0.96-2.79,1.58c-1.08,0.76-2.08,1.65-3.11,2.48c-0.1,0.08-0.21,0.15-0.3,0.24c-1.39,1.34-2.35,5.14-1.73,7.2 c0.43-0.25,0.82-0.48,1.24-0.73c7.49,3.72,15.39,4.02,23.4,2.06c3.29-0.8,6.51-2.03,9.01-4.57c1.01-1.02,1.76-2,0.98-3.48 c-0.07-0.13,0.02-0.36,0.05-0.54c0.01-0.04,0.09-0.08,0.31-0.25c1.24,2.06,2.59,4.05,2.58,6.52c-0.01,0.92-0.48,1.95-1.03,2.73 c-1.41,2-3.51,3.22-5.56,4.47c-0.66,0.4-1.26,0.91-2.13,1.55c1.61,0.6,2.64-0.16,3.51-0.66c1.69-0.96,3.35-2.07,4.74-3.42 C190.48,212.75,190.77,209.92,189,206.69z M183,209c-1.23,1.09-3.85,1.44-5.35,1.96c-2.42,0.83-4.84,1.68-7.4,1.94 c-0.07,0.01-0.13,0.02-0.2,0.03c-0.13-0.57-0.4-1.09-0.84-1.52c0.58,0.02,1.18-0.01,1.81-0.14c0.02-0.04,0.02-0.08,0.04-0.12 c-2.05,0.25-4.11,0.41-6.17,0.42c-2.17,0.01-4.37-0.53-6.52-0.99c-1.3-0.28-1.6-1.2-0.74-2.24c1.29-1.57,2.83-2.92,4.87-3.39 c1.9-0.43,3.86-0.66,5.97-1.01c1.55-0.05,3.19-0.18,4.85-0.2c0.02-0.02,0.03-0.04,0.06-0.07c-1.23-0.07-2.32,0.02-3.33,0.2 c0.3-0.5,0.44-1.04,0.45-1.59c0.73-0.13,1.48-0.24,2.24-0.33c1.1-0.12,2.16-0.17,3.19-0.17c-1.49-0.24-3.04-0.29-4.62-0.23 c-3.88,0.16-7.69,0.71-11.16,2.6c-2.25,1.23-4.23,2.77-4.97,5.42c-0.03,0.1-0.19,0.15-0.29,0.23c-1.86-0.7-2.06-1.06-1.54-2.7 c0.62-1.97,2.31-3.1,3.6-4.55c0.11-0.12,0.35-0.12,0.53-0.17c3.37-0.82,6.73-1.66,10.1-2.45c0.66-0.15,1.38-0.15,2.06-0.14 c2.39,0.05,4.81,0.39,7.04-0.91c0.24-0.14,0.63-0.17,0.9-0.08c1.24,0.43,2.49,0.87,3.69,1.41c1.41,0.63,2.27,1.79,2.44,3.05 c0,0,0,0,0.01,0C184.01,205.65,184.08,208.05,183,209z" style="fill: rgb(42, 54, 63);"/>
      <path class="st0" d="M84.97,267.74l-0.09,0.35c-0.19,0.74-0.38,1.47-0.58,2.21c-0.44,1.64-0.89,3.33-1.22,5.02 c-0.21,1.07-0.39,2.11-0.56,3.13c0.59-0.02,1.18-0.04,1.77-0.06c0-0.02,0-0.03,0.01-0.05c0.16-0.98,0.32-1.99,0.37-2.99 c0.07-1.35,0.33-2.71,0.57-4.03c0.13-0.69,0.26-1.4,0.37-2.11c0.06-0.4-0.08-0.82-0.41-1.19L84.97,267.74z" style="fill: rgb(42, 54, 63);"/>
      <path class="st0" d="M199.15,240.18c-0.8,4.99,0.13,9.85,1.49,14.6c0.61,2.15,1.55,4.33,2.86,6.12c1.14,1.56,2.55,2.82,4.1,3.91 c0.83-0.14,1.66-0.28,2.49-0.42c-3.28-1.88-5.81-4.55-7.29-8.34c-1.54-3.95-1.9-8.09-2.23-12.26c-0.32-4.06,0.41-7.78,3.05-11.02 c0.32-0.39,0.38-1,0.56-1.51c-0.21-0.07-0.42-0.14-0.63-0.21C201.02,233.56,199.71,236.7,199.15,240.18z" style="fill: rgb(42, 54, 63);"/>
    </g>
  </g>
</svg>