<?xml version="1.0" encoding="utf-8"?>
<!-- Generator: Adobe Illustrator 27.1.0, SVG Export Plug-In . SVG Version: 6.00 Build 0)  -->
<svg version="1.1" id="Layer_1" xmlns="http://www.w3.org/2000/svg" xmlns:xlink="http://www.w3.org/1999/xlink" x="0px" y="0px"
	 viewBox="0 0 100 100" style="enable-background:new 0 0 100 100;" xml:space="preserve">
<style type="text/css">
	.st0{fill:#FFFFFF;}
	.st1{fill:#0054A6;}
</style>
<path class="st0" d="M50,90c-22.1,0-40-17.9-40-40C10,72.1,27.9,90,50,90z"/>
<path class="st0" d="M10,50c0-22.1,17.9-40,40-40C27.9,10,10,27.9,10,50z"/>
<path class="st0" d="M50,10c22.1,0,40,17.9,40,40C90,27.9,72.1,10,50,10z"/>
<path class="st0" d="M90,50c0,22.1-17.9,40-40,40C72.1,90,90,72.1,90,50z"/>
<path class="st1" d="M59,50L40.7,31.8c-1-1-1-2.6,0-3.5s2.6-1,3.5,0l20,20c1,1,1,2.6,0,3.5l-20,20c-0.5,0.5-1.1,0.7-1.8,0.7
	s-1.3-0.2-1.8-0.7c-1-1-1-2.6,0-3.5L59,50L59,50z"/>
<path class="st1" d="M50,90c22.1,0,40-17.9,40-40S72.1,10,50,10S10,27.9,10,50S27.9,90,50,90z M15,50c0-19.3,15.7-35,35-35
	s35,15.7,35,35S69.3,85,50,85S15,69.3,15,50z"/>
</svg>
