<?xml version="1.0" encoding="utf-8"?>
<!-- Generator: Adobe Illustrator 27.1.0, SVG Export Plug-In . SVG Version: 6.00 Build 0)  -->
<svg version="1.1" id="Layer_1" xmlns="http://www.w3.org/2000/svg" xmlns:xlink="http://www.w3.org/1999/xlink" x="0px" y="0px"
	 viewBox="0 0 100 100" style="enable-background:new 0 0 100 100;" xml:space="preserve">
<style type="text/css">
	.st0{fill:#FFFFFF;}
	.st1{fill:#0054A6;}
</style>
<path class="st0" d="M50,90c22.1,0,40-17.9,40-40C90,72.1,72.1,90,50,90z"/>
<path class="st0" d="M90,50c0-22.1-17.9-40-40-40C72.1,10,90,27.9,90,50z"/>
<path class="st0" d="M50,10c-22.1,0-40,17.9-40,40C10,27.9,27.9,10,50,10z"/>
<path class="st0" d="M10,50c0,22.1,17.9,40,40,40C27.9,90,10,72.1,10,50z"/>
<path class="st1" d="M41,50l18.2-18.2c1-1,1-2.6,0-3.5s-2.6-1-3.5,0l-20,20c-1,1-1,2.6,0,3.5l20,20c0.5,0.5,1.1,0.7,1.8,0.7
	s1.3-0.2,1.8-0.7c1-1,1-2.6,0-3.5L41,50L41,50z"/>
<path class="st1" d="M90,50c0-22.1-17.9-40-40-40S10,27.9,10,50s17.9,40,40,40S90,72.1,90,50z M50,85c-19.3,0-35-15.7-35-35
	s15.7-35,35-35s35,15.7,35,35S69.3,85,50,85z"/>
</svg>
