<?xml version="1.0" encoding="UTF-8"?><svg id="Layer_1" xmlns="http://www.w3.org/2000/svg" viewBox="0 0 1187.83 639.62"><defs><style>.cls-1{fill:#0054A6;}</style></defs><g id="Layer_1-2"><g><g><path class="cls-1" d="M763.48,572.25c0,29.63-22.92,55.65-57.56,55.65s-57.57-26.02-57.57-55.65,22.93-55.67,57.57-55.67,57.56,26.01,57.56,55.67m-126.84,0c0,38.93,29.48,67.37,69.28,67.37s69.28-28.44,69.28-67.37-29.31-67.4-69.28-67.4-69.28,28.44-69.28,67.4"/><path class="cls-1" d="M83.97,558.35l-31.51-.53c-15.59-.18-30.63-4.65-30.63-20.95,0-11.09,12.71-27.57,46.2-27.57,22.56,0,34.73,8.59,46.91,16.11l7.51-9.13c-6.98-4.66-23.09-19.17-55.32-19.17-41.54,0-57.48,22.03-57.48,39.57,0,26.31,23.46,33.12,42.8,33.32l30.79,.53c23.45,.53,34.73,13.42,34.73,25.61,0,19.87-23.82,28.82-51.57,28.82-36.34,0-48.88-16.83-58.01-23.99l-8.41,8.78c9.48,8.95,25.96,27.39,66.42,27.39,47.63,0,63.74-21.85,63.74-41s-16.48-37.24-46.2-37.79"/></g><polygon class="cls-1" points="436.14 502.85 385.46 566.77 334.81 502.85 319.04 502.85 379.39 578.59 379.39 637.14 391.56 637.14 391.56 578.59 451.9 502.85 436.14 502.85"/><polygon class="cls-1" points="1073.94 502.85 1073.94 515.03 1124.79 515.03 1124.79 637.14 1136.96 637.14 1136.96 515.03 1187.83 515.03 1187.83 502.85 1073.94 502.85"/><path class="cls-1" d="M589.4,540.99c0,21.48-14.14,26.13-32.77,26.13h-59.27v-52.09h59.27c18.63,0,32.77,4.47,32.77,25.96m-91.45-38.14l-12.73,10.22-.02,124.08h12.17v-57.83h59.27c36.35,0,44.95-18.44,44.95-38.32s-8.6-38.14-44.95-38.14h-58.68Z"/><polygon class="cls-1" points="273.57 502.85 191.56 585.03 191.56 502.97 179.39 512.74 179.39 637.14 191.56 637.14 191.56 602.22 232.21 561.57 283.06 637.14 297.74 637.14 241.34 552.27 290.58 502.85 273.57 502.85"/><polygon class="cls-1" points="827.29 513.07 827.29 637.14 839.47 637.14 839.47 503.41 827.29 513.07"/><polygon class="cls-1" points="1011.77 513.09 1011.77 619.41 1011.42 619.41 917.92 503.25 905.42 513.4 905.42 637.13 917.59 637.13 917.59 521.11 917.95 521.11 1011.77 637.13 1023.94 637.13 1023.91 503.25 1011.77 513.09"/><g><path class="cls-1" d="M441.75,258.71c.91,27.14,4.44,51.55,10.29,72.49h101l-111.29-72.49Z"/><path class="cls-1" d="M552.43,337.01h-98.67c5.85,18.86,13.68,34.67,23.25,46.9l75.43-46.9Z"/><path class="cls-1" d="M505.97,407.41l85.02-26.24v-16.21l-109.76,24.01c7.37,8.2,15.64,14.42,24.74,18.44"/><path class="cls-1" d="M453.05,186.65c-7.23,21.13-11.54,43-11.44,65.04l109.77,71.51-98.33-136.55Z"/></g><polygon class="cls-1" points="590.99 387.23 515.69 410.37 590.99 410.37 590.99 387.23"/><g><path class="cls-1" d="M732.4,180.01c-8.43-22.57-20.04-44.19-33-64.17l-65.82,201.4,98.82-137.23Z"/><path class="cls-1" d="M745.97,251.86l.25-.17c.1-22.05-4.22-43.92-11.45-65.04l-98.32,136.55,109.52-71.33Z"/><path class="cls-1" d="M590.99,0c-12.13,10.3-60.11,52.7-98.51,109.71l98.51,161.22V0Z"/><path class="cls-1" d="M488.42,115.84c-12.96,19.98-24.57,41.61-32.99,64.17l98.82,137.24-65.82-201.41Z"/><path class="cls-1" d="M596.84,0V270.92l98.5-161.23C656.95,52.7,608.96,10.29,596.84,0"/><path class="cls-1" d="M706.59,388.96l-109.75-24.01v16.21l85.02,26.24c9.1-4.02,17.36-10.25,24.73-18.44"/></g><polygon class="cls-1" points="590.99 282.06 500.41 133.81 564.91 331.2 590.99 331.2 590.99 282.06"/><polygon class="cls-1" points="590.99 359.01 590.99 337.01 563.43 337.01 493.87 380.24 590.99 359.01"/><path class="cls-1" d="M746.08,258.7l-111.29,72.5h101.01c5.85-20.95,9.38-45.36,10.28-72.5"/><polygon class="cls-1" points="687.41 133.81 596.84 282.05 596.84 331.2 622.9 331.2 687.41 133.81"/><polygon class="cls-1" points="596.84 387.23 596.84 410.37 672.13 410.37 596.84 387.23"/><polygon class="cls-1" points="624.39 337.01 596.84 337.01 596.84 359.01 693.96 380.26 624.39 337.01"/><path class="cls-1" d="M734.06,337.01h-98.68l75.43,46.9c9.56-12.24,17.39-28.05,23.25-46.9"/></g></g></svg>