<?xml version="1.0" encoding="UTF-8"?><svg id="Layer_1" xmlns="http://www.w3.org/2000/svg" viewBox="0 0 145.59 90"><defs><style>.cls-1{fill:#0054a6;}</style></defs><path class="cls-1" d="M143.45,90H2.14c-1.18,0-2.14-.96-2.14-2.14v-28.56c0-1.18,.95-2.13,2.12-2.14,6.28-.05,11.39-5.5,11.39-12.15s-5.11-12.1-11.39-12.15c-1.18-.01-2.12-.97-2.12-2.14V2.14C0,.96,.96,0,2.14,0H143.45c1.18,0,2.14,.96,2.14,2.14V30.74c0,1.16-.92,2.11-2.08,2.14-6.26,.19-11.16,5.51-11.16,12.12s4.9,11.93,11.16,12.12c1.16,.04,2.08,.98,2.08,2.14v28.59c0,1.18-.96,2.14-2.14,2.14ZM4.29,85.71H141.31v-24.51c-7.57-1.25-13.24-8-13.24-16.2s5.67-14.95,13.24-16.2V4.29H4.29V28.73c7.62,1.15,13.51,8.03,13.51,16.27s-5.89,15.12-13.51,16.27v24.45Z"/></svg>