<?xml version="1.0" encoding="UTF-8"?><svg id="Layer_2" xmlns="http://www.w3.org/2000/svg" viewBox="0 0 1088.99 511.85"><defs><style>.cls-1{fill:#0054a6;}</style></defs><g id="Layer_1-2"><g><path class="cls-1" d="M73.87,134.8c2.89,.03,5.69,.57,8.38,1.6,11.36,4.37,23.02,8.6,34.63,12.55,2.84,.96,5.42,2.44,7.68,4.32,2.99-.22,5.97,.14,8.81,1.02,11.61,3.6,23.72,7.12,36.02,10.46,10.1,2.75,17.22,11.63,17.7,22.1l.27,5.8s6.83-.78,12.97-1.47c6.14-.7,17.8,3.42,17.8,3.42,1.01-.48,4.37,.19,8.61,.81,4.24,.62,32.79,6.62,39.68,8.33,6.89,1.71,11.11,9.34,11.11,9.34,0,0,17.17-2.77,23.12-3.73,5.95-.96,10.5,2.08,10.5,2.08,0,0,3.79-.72,7.83-.38,4.03,.34,83.21,7.24,86.68,7.79,3.47,.56,4.85,1.96,4.85,1.96,0,0,2.22-1.91,4.86-1.76,2.64,.15,80.97,3.03,86.43,3.23,5.46,.2,7.66,1.21,7.66,1.21,0,0,2.93-2.02,8.11-3.42,5.18-1.4,38.38-9.71,38.38-9.71l11.46,2.63,8.25-4.83s37.29,.16,42.43,.19c5.15,.02,7.11,1.87,7.11,1.87,0,0,5.28-1.92,10.35-2.28,5.08-.35,36.31-2.05,44.33-2.5,17.72-.78,18.38,18.05,18.38,18.05,0,0,23.27-8.68,37.96-9.76,14.69-1.07,34.13,4.51,34.13,4.51,0,0,2.09-9.34,16.66-11.71,14.58-2.37,72.29-12.58,78.64-13.71,6.35-1.12,10.26-1.17,10.26-1.17,0,0,3.24-1.53,7.84-2.79,4.61-1.26,49.51-12.49,73.16-19.72,1.33-8.89,7.47-16.3,16.12-19.2,20.6-6.92,40.09-13.23,49.95-16.4,15.87-25.25,22.8-50.37,17.93-69.3-10.96-42.5-53.11-31.87-58.4-5.52-7.17,35.61-4.5,58.2-22.7,71.19-18.22,12.98-33.82-17.49-23.43-27.57,9.92-9.6,19.48-.62,23.16-9.52,6.31-15.33-9.63-30.11-34.38-23.06-30.48,8.67-20.15,49.03-20.1,63.03,.05,16.2-20.23,35.78-30.25,42.56-20.28,13.75-60.19,20.04-57.56,4.45,2.63-15.61,23.86-23.72,40.38-34.24,16.5-10.49,34.89-26.21,20.19-38.18-28.8-23.45-51.95,33.6-104.38,51.06-47.52,15.81-36.66-35.9-75.34-40.61-10.38-1.27-21.13,2.69-25.44,8.86-4.3,6.16-5.8,22.78,31.12,29.03,18.76,3.18-.69,26.66-13.18,30.48-8.97,2.74-30.13,7.73-57.83,10.57-31.61,3.24-66.81,4.01-79.77,4.13-10.13,0-54.37,.19-92.12-3.34-33.63-3.14-56.93-7.97-67.45-11.48-12.78-4.26-23.89-22.39-4.54-25.66,38.04-6.44,36.5-23.56,32.06-29.91-4.44-6.35-15.52-10.43-26.21-9.13-39.84,4.86-28.65,58.13-77.61,41.84-54-17.99-77.86-76.76-107.54-52.6-15.14,12.33,3.82,28.52,20.81,39.33,17.01,10.84,38.91,19.2,41.6,35.28,2.7,16.06-38.39,9.58-59.3-4.58-10.32-6.99-31.21-27.16-31.15-43.85,.04-14.43,10.67-56-20.72-64.94-25.5-7.27-41.92,7.96-35.42,23.75,3.79,9.18,13.65-.08,23.86,9.81,10.7,10.38-5.36,41.77-24.13,28.4-18.78-13.38-16.01-36.65-23.38-73.34-5.46-27.15-48.89-38.1-60.18,5.68-4.4,17.08,.54,39.07,12.82,61.75,1.21,.05,2.39,.1,3.62,.14,6.06,.21,11.68,2.66,15.88,6.74Z"/><path class="cls-1" d="M113.62,56.63c4.62-9.15,7.61-25.05,5.31-36.19C116.88,10.51,108.78,.48,97.47,.02c-17.28-.7-18.15,17.08-5.95,25.35,19.85,13.49,23.36,28.34,22.1,31.26Z"/><path class="cls-1" d="M125.94,122.45c-.68,3.77,2.41,7.47,6.87,8.27,4.48,.8,8.66-1.62,9.32-5.39,.67-3.76-2.41-7.47-6.88-8.26-4.48-.8-8.65,1.62-9.32,5.38Z"/><path class="cls-1" d="M417.69,99.2c-1.03,5.83,3.04,11.4,9.12,12.49,6.07,1.09,11.83-2.75,12.86-8.55,1.04-5.82-3.05-11.39-9.12-12.48-6.07-1.07-11.82,2.75-12.85,8.54Z"/><path class="cls-1" d="M6.34,39.86c-1.38,7.76,3.94,15.22,11.88,16.63,7.96,1.42,15.53-3.73,16.92-11.51,1.39-7.78-3.94-15.23-11.89-16.66-7.95-1.41-15.53,3.74-16.91,11.54Z"/><path class="cls-1" d="M232.77,178.2c-.22,4.69,3.49,8.68,8.27,8.89,4.81,.23,8.88-3.39,9.08-8.08,.23-4.69-3.49-8.68-8.27-8.9-4.8-.22-8.86,3.39-9.08,8.08Z"/><path class="cls-1" d="M310.71,86.38c.94-4.88,.26-12.68-2.26-17.57-2.27-4.34-7.36-7.95-12.66-6.68-8.15,1.92-6.22,10.3,.53,12.58,11.01,3.69,14.58,10.14,14.39,11.67Z"/><path class="cls-1" d="M298.59,125.93c-.15,3.24,2.42,5.97,5.71,6.14,3.32,.15,6.12-2.34,6.28-5.59,.16-3.23-2.41-5.98-5.72-6.13-3.3-.16-6.1,2.35-6.27,5.58Z"/><path class="cls-1" d="M146.84,41.53c-.14,3.24,2.41,5.98,5.71,6.14,3.31,.16,6.11-2.33,6.27-5.58,.15-3.23-2.41-6-5.71-6.15-3.31-.15-6.11,2.36-6.27,5.58Z"/><path class="cls-1" d="M330.41,134.16c-12.88-51.29,29.59-54.48,40.45-43.37,12.97,13.25,2.65,30.16-11.52,28.15-23.08-3.29-28.02,11.52-28.93,15.22Z"/><path class="cls-1" d="M970.94,54.97c-4.45-8.88-7.36-24.31-5.13-35.13,2-9.63,9.85-19.37,20.83-19.82,16.75-.68,17.6,16.58,5.77,24.61-19.26,13.1-22.67,27.51-21.47,30.34Z"/><path class="cls-1" d="M959,118.86c.65,3.66-2.35,7.25-6.68,8.03-4.35,.78-8.39-1.57-9.05-5.23-.64-3.65,2.33-7.25,6.68-8.02,4.34-.78,8.4,1.57,9.05,5.22Z"/><path class="cls-1" d="M675.81,96.29c1.02,5.66-2.95,11.07-8.83,12.12-5.91,1.06-11.49-2.67-12.51-8.3-1-5.65,2.97-11.05,8.86-12.11,5.88-1.04,11.48,2.67,12.48,8.29Z"/><path class="cls-1" d="M1075.09,38.69c1.33,7.53-3.83,14.77-11.54,16.15-7.72,1.38-15.08-3.62-16.43-11.17-1.35-7.56,3.84-14.79,11.56-16.17,7.71-1.37,15.07,3.63,16.41,11.2Z"/><path class="cls-1" d="M855.29,172.97c.22,4.55-3.39,8.43-8.03,8.63-4.65,.22-8.59-3.29-8.79-7.84-.22-4.55,3.37-8.43,8.03-8.64,4.65-.21,8.59,3.29,8.8,7.85Z"/><path class="cls-1" d="M779.64,83.85c-.91-4.73-.24-12.31,2.2-17.05,2.2-4.22,7.13-7.72,12.31-6.49,7.89,1.86,6.03,10-.53,12.21-10.7,3.58-14.17,9.84-13.97,11.33Z"/><path class="cls-1" d="M791.41,122.23c.15,3.14-2.33,5.79-5.56,5.96-3.21,.15-5.93-2.27-6.09-5.42-.13-3.14,2.37-5.8,5.56-5.95,3.22-.16,5.95,2.28,6.09,5.42Z"/><path class="cls-1" d="M938.72,40.31c.13,3.15-2.35,5.8-5.56,5.96-3.21,.15-5.93-2.26-6.09-5.41-.13-3.14,2.33-5.82,5.54-5.97,3.24-.15,5.95,2.29,6.1,5.42Z"/><path class="cls-1" d="M760.54,130.22c12.49-49.79-28.72-52.88-39.27-42.1-12.58,12.86-2.56,29.28,11.18,27.33,22.42-3.19,27.2,11.18,28.09,14.77Z"/><path class="cls-1" d="M943.16,254.51l-1.49,27.96,4.11-1.21c4.83-1.42,9.61-2.88,14.34-4.35,.14-.04,.28-.05,.43-.07,.25-.04,.49-.07,.73-.12l2.28-.46,2.38-38.74-5.65,1.72c-5.56,1.7-11.12,3.39-16.77,5.01l-3.78,1.08,2.01,3.38c1.05,1.76,1.54,3.76,1.42,5.81Z"/><path class="cls-1" d="M483.63,291.41l-4.12-.12,1.12,3.97c.24,.85,.37,1.75,.38,2.66l.22,23.31,.03,.39c.06,.46,.09,.93,.09,1.41,0,1.1-.17,2.17-.5,3.16l-1.28,3.87,4.07,.12c7.38,.21,14.77,.38,22.16,.52l3.08,.06,.11-38.77-2.98-.06c-7.4-.14-14.86-.31-22.38-.52Z"/><path class="cls-1" d="M1082.08,135.56c-4.49-4.56-10.72-7.17-17.06-7.17-.5,0-1,.01-1.43,.04-13.22,.75-28.55,1.92-28.55,1.92-1.86,.14-3.72,.51-5.36,1.03-.17,.06-27.3,8.7-56.65,18.55-8.64,2.9-14.79,10.3-16.12,19.2-23.66,7.23-68.56,18.46-73.16,19.72-4.61,1.26-7.84,2.79-7.84,2.79,0,0-3.91,.05-10.26,1.17-6.35,1.12-64.07,11.34-78.64,13.71-14.58,2.37-16.66,11.71-16.66,11.71,0,0-19.44-5.58-34.13-4.51-14.69,1.07-37.96,9.76-37.96,9.76,0,0-.66-18.83-18.38-18.05-8.01,.45-39.25,2.14-44.33,2.5-5.08,.35-10.35,2.28-10.35,2.28,0,0-1.96-1.85-7.11-1.87-5.15-.02-42.43-.19-42.43-.19l-8.25,4.83-11.46-2.63s-33.21,8.3-38.38,9.71c-5.18,1.4-8.11,3.42-8.11,3.42,0,0-2.2-1.01-7.66-1.21-5.46-.2-83.79-3.08-86.43-3.23-2.64-.15-4.86,1.76-4.86,1.76,0,0-1.38-1.41-4.85-1.96-3.47-.56-82.64-7.45-86.68-7.79-4.03-.34-7.83,.38-7.83,.38,0,0-4.56-3.04-10.5-2.08-5.95,.96-23.12,3.73-23.12,3.73,0,0-4.22-7.63-11.11-9.34-6.89-1.71-35.44-7.71-39.68-8.33-4.24-.62-7.61-1.28-8.61-.81,0,0-11.66-4.12-17.8-3.42-6.14,.7-12.97,1.47-12.97,1.47l-.27-5.8c-.48-10.46-7.6-19.34-17.7-22.1-12.3-3.35-24.41-6.87-36.02-10.46-2.84-.88-5.82-1.24-8.81-1.02-2.26-1.88-4.85-3.36-7.68-4.32-11.61-3.95-23.27-8.18-34.63-12.55-2.68-1.03-5.49-1.57-8.38-1.6-4.19-4.08-9.82-6.53-15.88-6.74-11.36-.39-21.86-.97-32.1-1.76-6.95-.54-13.86,2.03-18.77,6.88C2.17,138.09-.41,144.89,.05,151.85l9.02,137.46c.56,8.78,5.9,16.54,13.89,20.25,16.18,7.48,25.68,11.63,35.52,13.91,1.48,3.3,4.98,6.31,11.59,8.03,21.71,5.67,59.06,16.32,59.67,32.01,.09,2.31-2.06,3.77-3.96,3.81-.88,.02-2.38-.25-2.47-.46-2.01-4.19-8.18-6.82-11.26-2.06-1.97,3.02-1.48,7.97,2.08,11.24,4.56,4.16,14.2,6.98,29.53,3.52,30.8-6.97,61.46-8.24,70.35-5.49,8.9,2.75,15.24,15.18,1.77,16.75-26.5,3.1-26.06,14.99-23.22,19.53,2.85,4.55,10.36,7.76,17.79,7.24,27.7-1.95,21.86-39.15,55.1-26.16,9.69,3.79,16.84,8.79,22.53,13.82,.02-2.04,.06-3.78,.12-4.85,.34-3.71,.91-6.78,1.72-9.27,.92-2.81,3.13-7.79,7.95-11.67,.36-.26,.54-.38,.78-.54l.58-.47c.16-.11,.29-.23,.45-.33,3.85-2.36,7.27-4.21,9.7-5.27,1.44-.62,3.64-1.51,6.22-2.02,1.72-.34,8.36-1.3,15.08,2.4-.78-1.87-1.24-3.88-1.28-5.96l-1.88-82.18-4.28-.51,1.84,66.2c.22,8.19-5.47,15.17-13.53,16.59l-34.36,6.04c-4.76,.82-9.53-.47-13.16-3.42-2.71-2.2-4.63-5.23-5.51-8.59l-26.68,3.88c-.77,.12-1.55,.18-2.37,.18-3.8,0-7.52-1.34-10.46-3.78-.11-.09-.21-.18-.32-.27-1.77,.61-3.47,.85-5.11,.77-1.17,.01-2.32-.1-3.75-.43l-33.25-7.75c-1.9-.44-3.7-1.23-5.35-2.35-1.9,.17-3.8,.01-5.68-.48-2.98-.8-6.21-1.56-9.82-2.39-9.76-2.28-20.74-4.85-29.91-9.16-3.46-1.62-10.15-6.21-27.29-18.33l-3.13-2.22c-.84-.59-1.62-1.15-2.32-1.64-31.66-.11-36.36-1.79-66.95-15.92-5.46-2.53-9.09-7.82-9.47-13.81L7.55,150.29c-.32-4.73,1.44-9.37,4.83-12.72,3.34-3.3,8.07-5.05,12.77-4.69,10.39,.8,20.99,1.38,32.42,1.78,5.22,.18,9.96,2.8,12.88,7.01,2.96-.55,6.06-.27,8.88,.82,11.45,4.41,23.2,8.66,34.9,12.65,2.97,1.01,5.56,2.84,7.5,5.26,3-.82,6.23-.77,9.19,.15,11.54,3.58,23.74,7.13,36.27,10.54,6.88,1.87,11.73,7.92,12.05,15.05l.64,13.98,26.22-2.98c4.53-.52,9.07,.89,12.5,3.84,.17,.15,.35,.3,.51,.45,2.61-.84,5.42-1.02,8.08-.51l34.6,6.48c6.35,1.18,11.26,5.89,12.83,11.93l27.65-5.08c3.7-.67,7.53,0,10.84,1.83,1.79-.39,3.6-.46,5.41-.21,28.64,3.55,58.29,6.49,88.09,8.74,1.86,.15,3.67,.62,5.41,1.41,1.89-.6,3.83-.84,5.8-.73,28.93,1.7,59.09,2.87,89.66,3.48,1.18,.02,2.38,.19,3.63,.52,1.08-.65,2.24-1.16,3.44-1.54l40.47-12.69c4.95-1.54,10.38-.64,14.54,2.38,2.69-1.96,5.91-3.05,9.3-3.13l40.33-.83c.17-.01,.46-.02,.76-.02,3.05,0,6.13,1.01,8.77,2.82,2.64-2.1,5.86-3.32,9.3-3.5l40.12-2.13c.3-.02,.65-.03,1-.03,4.13,0,8.24,1.69,11.28,4.63,3.26,3.18,5.07,7.59,4.96,12.13l-.1,4.18c14.89-6.58,30.25-13.12,48.4-13.12,8.83,0,18.82,2.75,27.65,5.19,1.12,.31,2.2,.6,3.24,.88,1.8-5.96,6.86-10.45,13.24-11.39,28.91-4.25,57.44-9.3,84.82-15,1.71-.36,3.5-.41,5.33-.18,1.59-1.04,3.32-1.78,5.14-2.21,27.54-6.43,54.69-13.79,80.68-21.87l.2-3.2c.42-6.69,4.79-12.39,11.15-14.52,28.9-9.71,56.24-18.42,56.43-18.48,1.16-.38,2.43-.63,3.71-.72,.14,0,15.39-1.17,28.38-1.91,.32-.02,.66-.03,1.01-.03,4.31,0,8.54,1.78,11.61,4.89,3.3,3.37,5,7.98,4.67,12.67l-4.53,62.88c-.16,2.12-.73,4.2-1.67,6.11,.65,2.02,.92,4.15,.77,6.24-2.1,29.78-4.3,57.03-4.32,57.3-.41,5.12-3.25,9.81-7.6,12.55-.11,.07-14.02,8.88-35.09,18.58-3.07,1.4-6.49,1.82-9.78,1.22-1.87,2.43-4.4,4.3-7.31,5.38-11.51,4.25-23.3,8.36-35.05,12.22-1.68,.54-3.39,.8-5.11,.8h-.05c-1.59,1.24-3.36,2.17-5.27,2.76-26.34,8.03-53.81,15.35-81.67,21.75-5.03,1.14-10.29-.15-14.18-3.39-3.91-3.27-6.09-8.26-5.85-13.35l3.58-75.93-2.73,.55-3.14,73.03c-.26,5.97-3.74,11.33-9.09,13.98l-34.59,17.17c-5.08,2.54-11.38,2.19-16.18-.93-4.83-3.11-7.69-8.62-7.47-14.38l3-77.14-4.02,.61-2.13,71.48c-.18,6.28-4.02,11.98-9.78,14.52l-12.59,5.53c6.96,4.22,14.84,10.26,23.99,18.4,3.13,2.73,6.73,6.38,10.91,11.06,2.12-1,4.28-1.95,6.49-2.82,33.24-12.99,27.4,24.21,55.1,26.15,7.42,.52,14.93-2.69,17.78-7.24,2.84-4.55,3.29-16.43-23.21-19.53-13.49-1.57-7.14-14,1.76-16.75,8.89-2.75,39.55-1.49,70.35,5.49,15.33,3.46,24.96,.63,29.53-3.53,3.55-3.26,4.04-8.21,2.07-11.24-3.08-4.75-9.23-2.12-11.25,2.07-.1,.2-1.6,.47-2.47,.45-1.9-.04-4.06-1.5-3.96-3.81,.61-15.68,37.96-26.34,59.67-32,7.5-1.96,11.02-5.56,12.1-9.38,1.49-.85,2.89-1.83,4.17-2.97,3.45-.01,6.79-.75,9.95-2.2,21.27-9.79,35.41-18.7,35.97-19.06,6.38-4.01,10.54-10.89,11.15-18.41,0,0,2.2-27.22,4.33-57.39,.15-2.08,.03-4.17-.36-6.2,.68-1.98,1.12-4.06,1.26-6.14l4.52-62.89c.5-6.9-1.99-13.67-6.85-18.61Z"/><path class="cls-1" d="M395.99,291.82l1.14,62.28c.16-.01,.31-.04,.47-.05,.75-.04,1.56-.06,2.4-.06,.64,0,1.38,.02,2.17,.06l-.93-61.82-5.25-.41Z"/><path class="cls-1" d="M863.66,440.38c1.9,5.4,9.7,19.18,19.64,24.95,11.88,6.89,21.43,4.64,25.91,1.07,5.81-4.63,7.84-18.87-10.89-16-19.26,2.99-30.3-5.48-34.66-10.01Z"/><path class="cls-1" d="M806.4,466.84c.9,3.62,.68,9.5-1.01,13.26-1.54,3.35-5.22,6.24-9.25,5.51-6.18-1.14-5.07-7.51-.1-9.47,8.12-3.18,10.57-8.17,10.36-9.31Z"/><path class="cls-1" d="M846.02,464.28c-7.69,38.97,24.3,39.73,32.02,30.99,9.2-10.44,.81-22.72-9.73-20.67-17.2,3.35-21.47-7.58-22.29-10.32Z"/><path class="cls-1" d="M851.68,487.62c1.42,2.18,16.32,20.88,28.19,2.96"/><path class="cls-1" d="M870.02,453.91c6.05,11.68,29.56,25.17,43.2,10.05-13.29,13.36-33.31,3.93-43.2-10.05Z"/><path class="cls-1" d="M214.44,432.44c-1.9,5.4-9.71,19.19-19.65,24.95-11.88,6.9-21.42,4.64-25.91,1.06-5.8-4.63-7.84-18.87,10.89-15.99,19.26,2.98,30.31-5.48,34.67-10.02Z"/><path class="cls-1" d="M245,492.95c-.89,3.62-.68,9.5,1.02,13.27,1.54,3.34,5.21,6.24,9.25,5.51,6.17-1.14,5.06-7.5,.1-9.47-8.13-3.18-10.56-8.16-10.36-9.31Z"/><path class="cls-1" d="M255.62,463.76c.23-2.42-1.59-4.57-4.06-4.82-2.48-.24-4.68,1.52-4.92,3.94-.24,2.42,1.58,4.57,4.06,4.83,2.46,.24,4.67-1.52,4.92-3.95Z"/><path class="cls-1" d="M232.07,456.36c7.68,38.97-24.3,39.72-32.02,30.99-9.21-10.45-.82-22.73,9.73-20.68,17.2,3.35,21.46-7.56,22.29-10.31Z"/><path class="cls-1" d="M226.41,479.68c-1.42,2.19-16.32,20.89-28.19,2.97"/><path class="cls-1" d="M208.07,445.97c-6.05,11.68-29.56,25.18-43.2,10.06,13.29,13.35,33.3,3.92,43.2-10.06Z"/><path class="cls-1" d="M822.47,471.69c-.23-2.42,1.6-4.57,4.05-4.83,2.49-.24,4.69,1.53,4.92,3.95,.24,2.42-1.57,4.57-4.06,4.82-2.46,.25-4.66-1.52-4.91-3.95Z"/><path class="cls-1" d="M772.96,469.8c4.68,1.62-.49,7.09-7.3,10.06-7.77,3.36-14.15-3.94-7.78-9.76,2.55-2.32,10.38-1.92,15.08-.3Z"/><g><path class="cls-1" d="M691.9,369.04c.14-.13,.55-.58,1.08-1.42l7.95-12.45,13.59,3.53,3.2,.39c1.85,.26,3.9,.55,5.65,.74l.99-43.73,16.72-1.77-1.2,47.16c2.87,.49,5.67,1.11,8.41,1.85l26.77-11.76,3.25-109.25c-10.08-2.1-24.67-7.5-34.62-7.5-19.18,0-36.3,9.74-53.76,16.92l-2.18,120.19,1.42-.12c.67-.78,1.41-1.54,2.23-2.29l.49-.48Zm33.75-99.97l16.41-.35-1.85,17.64-15.39,.3,.82-17.59Z"/><path class="cls-1" d="M788.93,264.7l25.8-3.91-3.76,96.95,34.58-17.17,3.71-85.85,25.12-5.08,1.6-35.48c-28.53,5.95-57.08,10.95-85.77,15.17l-1.28,35.39Z"/><path class="cls-1" d="M430.84,373.82c25.62,1.36,51.21,2.31,76.84,2.83l-.15-35.58c-17.74-.33-35.47-.83-53.2-1.54l-.18-17.14,16.77,.66-.23-25.02-16.82-.64-.18-15.6v-1.74c17.87,.72,35.75,1.26,53.64,1.59l-.16-36.5c-30.12-.6-60.19-1.74-90.29-3.5l1.3,87.5,.46,30.2c5.14,3.77,9.08,9.18,12.2,14.48Z"/><path class="cls-1" d="M880.57,344.38c27.04-6.2,53.85-13.29,80.55-21.44l2.05-36.16c-15.86,4.94-31.76,9.47-47.76,13.69l.86-17.25,15.24-4.07,1.35-25.19-15.28,4.1,.9-17.63c16.12-4.27,32.15-8.88,48.13-13.87l2.15-37.1c-27.18,8.46-54.44,15.79-81.95,22.22l-6.25,132.7Z"/><polygon class="cls-1" points="305.24 230.36 270.39 236.76 274.26 357.29 308.61 351.25 305.24 230.36"/><path class="cls-1" d="M1064.59,151.38c-13.01,.74-28.1,1.89-28.1,1.89,0,0-27.09,8.63-56.16,18.39l-9.09,147.8c11.55-3.79,23.03-7.77,34.48-12l3.91-59.28,16.01-6.2-4.01,59.36c19.82-9.12,33.22-17.56,33.22-17.56,0,0,2.18-27.11,4.31-57.15l-28.83,.51c9.97-4.11,19.87-8.39,29.74-12.88l4.53-62.88Zm-36.35,62.01l-15.6,6.09,1.23-18.5,15.63-6.13-1.26,18.53Z"/><path class="cls-1" d="M126.08,176.19l5.48,108.5-16.85-5.38-5.75-108.67c-11.9-4.06-23.73-8.34-35.5-12.87l6.32,109.06-16.16-6.39-6.6-109.42c-11.04-.38-22.06-.97-33.11-1.81l5.27,80.39,3.74,57.02c30.48,14.09,32,14.42,65.12,14.42,.51,0,30.24,21.67,34.66,23.74,10.62,5,25.59,7.51,36.97,10.56l-6.77-148.46c-12.31-3.35-24.58-6.91-36.82-10.7Z"/><polygon class="cls-1" points="224.18 217.01 226.3 271.22 210.21 267.83 207.95 213.42 174.69 217.2 180.21 338.05 213.46 345.81 211.28 292.98 227.31 296.36 229.38 349.09 263.03 344.19 258.8 223.49 224.18 217.01"/><path class="cls-1" d="M343.48,270.52l2.2,96.39,35.16-7.69-1.57-85.13,26.65,2.09-.54-35.23c-29.68-2.25-59.29-5.15-88.91-8.83l.93,35.29,26.08,3.12Z"/><path class="cls-1" d="M546.08,374.36l3.88-5.1,1.28-.84c5.15-3.36,10.49-5.47,16.77-6.63l4.13-1.79h1.84c6.4,0,11.54,1.73,15.63,5.22,2.59-.82,5.09-1.35,7.42-1.35,7.03,0,15.14,3.98,23.05,7.14l12.06,.42,.91,.45c1.02-.07,2.29-.12,3.65-.12,3.38,0,6.44,.34,9.09,.99,3.35-1.45,7.58-3.2,11.82-4.91l1-.35,6.15-1.32,1.51,.2c3.47,.43,6.61,1.43,9.39,2.88l3.36-142.25-40.12,2.12-1.92,106.1-19.12,.66,1.69-106.04-40.36,.83-1.13,106.04-18.98,.13,.85-106.17-40.48,12.7-.39,132.8,21.91,.22h4.07c.17-.36,.32-.76,.5-1.11l.53-.93Z"/></g><path class="cls-1" d="M634.63,427.73c1.63-5.69,2.79-10.08,3.46-13.21-5.03,2.51-10.86,5.08-17.45,7.69,5.25,1.82,9.95,3.64,13.99,5.51Z"/><path class="cls-1" d="M724.08,400.73c.49,2.28,.52,4.84-.32,7.54-.8,2.28-2.27,6.36-4.23,11.84-1.21,3.37-2.03,6.16-2.41,8.41-.72,4.47-1.22,8.55-1.5,12.27,5.81-2.26,11.85-5.02,18.11-8.23,7.95-4.06,15.44-8.44,22.41-13.14-4.72-4.58-9.92-8.5-15.61-11.81-5.58-3.2-11.08-5.47-16.46-6.89Z"/><path class="cls-1" d="M505.78,415.02c-5.12,2.76-10.81,5.14-16.24,4.95-1.41-.04-3.51-.3-6.38-.93-1.51-.33-2.12-.42-2.42-.44-3.88-.13-8.97,.96-15.73,4.35l-1.98,1.03c3.84,1.17,8.37,2.03,13.68,2.48,5.57,.43,11.62,.2,18.3-.64,6.6-.9,14.4-3.49,23.61-8.22-1.36-.57-3.26-1.1-5.94-1.43-2.56-.33-4.88-.72-6.9-1.16Z"/><path class="cls-1" d="M809.67,414.12c0-.09,0-.19,0-.3l-.04-2.59-4.13-7.81-.91-1.17c-4.46-5.03-8.24-8.88-11.53-11.74-10.99-9.78-20.17-16.57-28.1-20.75-11.47-5.93-24.49-9.18-38.71-9.67-1.8-.06-5.46-.56-8.53-.99l-3.2-.39-13.59-3.53-7.95,12.45c-.53,.84-.95,1.29-1.08,1.42l-.49,.48c-1.7,1.53-3.08,3.16-4.09,4.82l-2.33,3.78c-3.6-6.39-10.26-10.69-18.71-11.74l-1.51-.2-6.15,1.32-1,.35c-4.24,1.71-8.47,3.46-11.82,4.91-2.66-.66-5.71-.99-9.09-.99-1.36,0-2.63,.06-3.65,.12l-.91-.45-22.17-.77c-4.41-.14-9.57,0-15.34,.41-.98-1.46-1.9-2.67-2.83-3.73-4.4-4.94-10.24-7.34-17.83-7.34h-1.84l-4.13,1.79c-6.29,1.16-11.63,3.27-16.77,6.63l-1.28,.84-3.88,5.1-.53,.93c-1.09,2.09-1.99,4.46-2.74,7.22-.03,.01-.06,.03-.09,.04-7.24-3.09-14.5-4.79-21.61-5.03-6.05-.19-11.88,.57-18.07,2.37-4.81-1.35-9.67-2.13-14.49-2.3-10.91-.34-22.5,2.36-34.72,8.07-3.92,1.94-9.23,4.53-15.75,7.69-1.78-7.46-3.36-12.34-5.03-15.59-4.81-9-11.78-19.69-23.08-22.62-3.66-.94-7.43-1.14-9.95-1.14-.84,0-1.66,.02-2.4,.06-2.5,.12-4.99,.49-7.35,1.1-.44,.12-1.11,.31-1.92,.6-1.25,.44-2.37,.93-3.43,1.5-1.79,.96-3.41,2.12-4.83,3.45l-2.37,1.3-20.81,10.68-10.87-4.37-7.06,12.93c-1.58-2.31-3.58-4.5-5.99-6.49-7.47-5.48-15.56-4.3-17.48-3.92-2.58,.51-4.78,1.4-6.22,2.02-2.43,1.06-5.84,2.91-9.7,5.27-6.11,3.99-8.74,9.86-9.76,13.01-.81,2.48-1.38,5.56-1.72,9.27-.09,1.55-.14,4.42-.14,7.71-.88,4.97-1.59,9.17-2.16,13.32l-.09,.96c-.08,2.22-.12,4.37-.12,6.34l.02,3.6c0,1.44-.2,2.04-.22,2.08l-3.17,8.68,4.45,8.09c1.95,3.53,4.28,6.83,6.93,9.83l5.49,6.21,8.29,.61c1,.07,1.99,.1,2.97,.1,11.94,0,23.91-5.12,35.56-15.21,3.05-2.6,6.33-5.83,9.99-9.81,14.41,13.81,26.93,26.2,37.24,36.87l.88,.92,4.64,2.65,.84,.36c2.74,1.06,5.7,1.7,8.6,1.85,7.79,.33,14.3-3.26,18.48-6.36l11.75-9.67,1.17-6.88c9.37,3.36,19.35,5.21,29.68,5.49,2.05,.07,4.06,.1,6.07,.1,20.44,0,37.22-3.49,51.26-10.64l2.19-1.08c1.59-.79,3.08-1.53,4.47-2.23,.85,.13,1.7,.23,2.55,.28,3.81,14.11,13.6,22.12,27.22,22.12,.84,0,1.72-.03,2.61-.09l.7-.05,4.6-1.44c1.4-.46,3.22-1.1,4.83-1.88,5.74-2.81,9.78-7.66,12.04-14.47l.25-1c.06-.29,.11-.58,.16-.87,9.93,2.6,20.47,6.37,31.39,11.26,2.7,5.23,6.99,9.02,13.08,11.59l1.32,.44c1.84,.47,3.89,.71,6.09,.71h.35c1.65-.01,3.11-.16,4.26-.27,4.03-.49,8.44-1.26,12.78-2.25,4.78-1.12,9.3-2.23,13.49-3.32,3.86,9.31,12.86,12.74,15.78,13.63l.24,.07c2,.45,4.23,.7,6.47,.7,3.52,0,6.93-.59,10.01-1.75,36.97-15.77,69.9-33.26,97.86-52l11.67-7.82-3.21-13.74Zm-13.42,14.16c-27.83,18.65-60.16,35.75-96.29,51.17-3.52,1.32-7.68,1.39-10.93,.65-3.57-1.08-9.77-4.4-10.85-11.76-.02-1.89-.02-3.3,0-4.62-5.6,1.74-13.32,3.73-22.8,5.96-4.26,.97-8.29,1.65-11.79,2.07-1.59,.17-4.72,.49-7.53-.22-5.74-2.42-7.76-5.68-8.78-7.75-.32-.65-.67-1.44-1.01-2.36-17.3-8-33.3-13.22-47.91-15.82l.24,1.07c.54,2.07,1.37,5.68,.64,9.34-1.94,5.84-5.28,8.13-7.49,9.21-1.08,.53-2.35,.98-3.67,1.41l-.75,.26-2.4,.82c-16,1.1-20.01-11.59-21.27-18.39-.27-1.41-.48-2.8-.66-4.17-2,.36-4.22,.64-6.36,.56-1.3-.07-2.87-.26-4.62-.85-2.65,1.41-5.85,2.97-9.47,4.76-14.51,7.42-32.36,10.3-53.08,9.61-9.87-.26-19.27-2.05-28.23-5.43-3.05-1.15-5.96-2.46-8.73-3.92-.47,3.24-1.04,6.81-1.69,10.69l-.71,4.18-9.08,7.49c-2.63,1.94-7.21,4.64-12.53,4.43-1.95-.11-3.93-.53-5.76-1.25l-3.2-1.82c-11.26-11.63-25.64-25.89-44.21-43.53-5.62,6.67-10.69,12.03-15.22,15.91-9.63,8.33-20.42,13.8-32.12,12.98l-4.64-.34-3.08-3.49c-2.23-2.52-4.17-5.28-5.81-8.24l-2.51-4.54,1.78-4.87c.42-1.16,.76-2.8,.76-5.14l-.02-3.65c0-1.85,.05-3.86,.13-5.97,.58-4.26,1.3-8.47,2.25-13.83-.02-3.68,.03-6.44,.1-7.9,.21-2.2,.58-4.84,1.32-7.09,.65-2.02,2.33-5.82,6.09-8.28,3.51-2.13,6.45-3.72,8.46-4.6,1.15-.51,2.69-1.11,4.39-1.44,1.43-.3,6.18-.79,10.36,2.27,2.41,2,5.85,5.64,6.62,10.83l.84,4.16,1.89-4.15,4.24-1.71c1.97-.79,3.09-1.47,3.66-1.92l5.21-9.53,7.55,3.05,13.84-8.05,.38,18.63c6.74,7.1,15.44,15.72,26.01,26.19-1.33-11.15-5.4-22.23-12.12-32.65-.91-1.72-2.07-5.2-2.82-7.65l-1.57-5.1,2.92-4.48c1.41-2.16,3.25-3.53,4.85-4.38,.8-.43,1.55-.73,2.16-.95,.62-.21,1.11-.35,1.39-.42,1.62-.43,3.51-.69,5.38-.79,2.98-.15,6.72,.04,9.68,.81,7.43,1.92,12.9,9.71,17.43,18.14,2.16,4.22,4.33,13.2,6.61,24.37,11.38-5.5,20.12-9.74,25.94-12.62,10.31-4.83,20.67-7.48,30.53-7.17,5,.17,9.97,1.11,14.81,2.71,5.67-1.87,11.46-2.99,17.75-2.78,7.47,.26,14.83,2.4,21.98,5.99,2.8-1.39,5.37-2.57,7.7-3.54,.6-3.22,1.47-6.59,2.96-9.46l2.66-3.52c5.03-3.28,9.73-4.71,14.59-5.5l.76-.37,2.52-1.1c4.67,0,8.26,1.08,11.17,4.38,.83,.94,1.57,1.99,2.17,2.86l2.83,4.26c7.66-.74,14.15-1.01,19.51-.81l20.26,.7,1.03,.5c.4,.05,.97,.08,2.24,.03,3.43-.25,7.97-.31,11.58,.92,.53,.21,1.09,.46,1.62,.71l2.12-1.17c2.76-1.21,7-2.99,12.41-5.16l4.21-.89c7.47,.91,12.81,5.32,13.73,12.38l-.04,3.65c-1.44,4.69-2.35,9.03-3.14,14.35-.44,3.42-.73,6.38-.93,9.11l-.86,3.08-.41,2.09-2.4,8.63-1.68,5.94c4.16-.83,7.94-1.42,11.21-1.74,.55-3.98,1.21-7.85,1.95-11.61,1.04-5.23,2.29-10.47,3.79-15.71l1.29-4.44,4-2.29c2.13-1.23,4.57-2.69,6.71-4.07l-9.95-5.08,6.49-10.5c.8-1.33,1.96-2.42,2.51-2.92l.82-.79c.59-.62,1.41-1.56,2.27-2.9l4.44-6.98,7.91,2.05,.7,.09,3.05,.37c4.26,.6,7.47,1,9.35,1.06,12.71,.42,24.44,3.26,34.9,8.66,7.41,3.92,16.26,10.59,26.3,19.51,3.17,2.76,6.74,6.46,10.76,11.01l2.84,5.35c.03,1.51,.03,1.8,.24,2.72l1.81,7.68-6.56,4.39Z"/><path class="cls-1" d="M547.85,413.11c.99,2.02,1.62,4,1.85,5.89l.1,.86-.59,.64-1.12,1.18c1.71-.45,3.51-.88,5.41-1.26,1.13-4.61,1.97-8.49,2.54-11.63-1.06,.31-2.59,1.01-4.72,2.28l-3.48,2.04Zm41.44-10.49c-6.39-.11-11.89,.68-16.56,2.34-1.04,4.99-1.81,9.09-2.27,12.31,17.74-3.76,31.94-8.38,42.65-13.8l-7.33-.28-16.48-.57Zm-84.78,2.22l-1.02,.6c-5.66,3.29-10.29,5.15-13.64,5.04-1.04-.03-2.59-.27-4.7-.71-1.83-.4-3.16-.62-4.05-.65-5.94-.2-12.73,1.54-20.39,5.38-7.4,3.8-13.19,6.82-17.4,9.06,7.16,6.93,17.92,11.12,32.65,12.36,6.16,.47,12.92,.24,20.29-.69,8.26-1.12,17.51-4.34,27.8-9.75,2.16-1.12,4.58-3.1,7.23-6.03,.06-.09,.46-.61-.44-2.66-2.31-5.35-7.68-8.86-16.94-10.04-4.04-.53-7.24-1.13-9.39-1.91Zm191.93,65.78c-1.59,.6-3.31,.68-4.97,.29-1.93-.58-3.58-1.83-3.9-3.96,.11-6.51,.41-12.48,.86-18.22-2.04,1.41-4.21,2.54-6.91,3.73-4.49,1.97-14.01,4.6-28.28,7.98-3.91,.86-7.51,1.49-10.72,1.87-1.72,.18-3.19,.24-4.15,0-1.43-.67-2.1-1.78-2.57-2.74-.5-1.01-1.03-2.41-1.58-4.21l-.25-.83c-23.74-11.4-45.56-17.98-65.29-19.85-.2,2.55-.15,6.04,.07,10.83-.01,.49,.11,1.45,.64,3.52,.51,1.96,.8,3.75,.53,5.1-.54,1.53-1.59,2.18-2.35,2.56-.72,.35-1.58,.62-2.44,.91-.82,.27-1.4,.47-1.79,.69-6.88,.47-9.17-4.33-10.36-10.74-.86-4.51-1.11-8.85-.74-13.01l-5.97,.32c-.81,.11-2.13,.35-4.01,.73-2.07,.43-3.83,.67-5.2,.6-.78-.02-1.6-.17-2.4-.48-1.03-.4-1.69-1.26-2.13-2.16-3.25,1.94-8,4.48-14.25,7.59-12.59,6.43-28.75,9.25-48.51,8.59-8.87-.24-17.24-1.83-25.15-4.82-8.03-3.03-14.66-7.1-19.85-12.26-.07,1.51-.15,3.06-.27,4.56-.48,5.47-1.5,12.72-3.04,21.77l-.11,.7-6.15,5.07c-2.04,1.51-4.18,2.52-6.23,2.42-.92-.05-1.85-.25-2.77-.6l-.66-.46c-11.88-12.27-28.75-28.93-51.09-49.95-8.24,10.37-15.05,17.93-20.51,22.62-8.7,7.52-17.09,11.28-25.25,10.68l-.78-.05-.51-.58c-1.76-2-3.3-4.17-4.6-6.53l-.42-.77,.3-.8c.88-2.39,1.34-5.19,1.34-8.43l-.03-3.67c0-1.74,.06-3.6,.14-5.57,.5-3.35,1.25-7.73,2.27-13.38-.03-3.86,0-6.57,.08-8.02,.17-1.9,.45-3.55,.87-4.84,.4-1.21,1.04-2.47,2.14-3.17,3.04-1.85,5.46-3.18,7.2-3.94,.9-.39,1.73-.7,2.45-.84,.59-.11,1.74-.23,2.66,.44,1.59,1.32,2.78,2.91,3.07,4.77,.25,1.61-.06,4.02-.67,6.89-.73,3.3-1.15,5.47-1.24,6.53-.1,1.1-.62,5.36-1.54,12.76-.74,6.1-.83,10.21-.46,12.59,5.29-.75,13.23-8.53,24.22-25.87l-.49-.8c-.61-1.1-1.14-2.18-1.27-3.09-.12-.8-.03-1.59,.3-2.33l.33-.7,.71-.28c4.9-1.97,7.74-4.26,9-6.69l.8-1.54,1.6,.65c.23,.09,1.79,.7,1.92,.7,.49,0,.96-.13,1.46-.41l2.79-1.64,.06,3.24c.02,.94,.11,2.2,.3,3.78,9.9,9.85,24.8,24.49,44.31,43.92,.91-6.95,1.13-13.66,.63-20.11-1-13.88-5.56-27.19-13.68-39.8-.38-.71-1.06-2.79-1.92-5.63l-.26-.85,.48-.74c.71-1.08,2-1.53,2.9-1.76,1.03-.27,2.24-.42,3.44-.48,2.39-.13,5.08,.07,6.82,.52,2.94,.76,6.71,4.6,11.39,13.35,1.5,2.94,3.48,10.77,5.97,23.03,.74,3.89,1.28,7.69,1.62,11.37,3.49-1.91,7.3-3.85,11.43-5.81,11.47-5.55,20.2-9.79,26.06-12.67,9.38-4.39,18.13-6.5,26.1-6.24,4.38,.15,8.79,1.03,13.22,2.6l.79,.53c.44,.5,.86,1.01,1.21,1.52,5.03-3.39,10.84-4.94,17.32-4.73,7.16,.26,14.57,2.71,22.17,7.25,6.64-3.53,12.03-5.96,16.06-7.17,.32-1.14,.66-2.81,1.05-4.98,.54-3.04,1.24-5.52,2.13-7.25l.65-.72c2.66-1.74,6.43-2.88,11.12-3.5,.54-.26,.82-.46,.92-.57l1.34-.55c.43,0,1.26,.21,2.14,1.18,.41,.45,.86,1.08,1.35,1.82l.58,.85-3.96,9.18,12.84-1.36c8.11-.88,14.94-1.21,20.46-1.01l18.19,.62c.95,.47,2.7,.73,6.21,.6,3.41-.25,6.16-.19,7.78,.35,3.04,1.19,4.45,3.88,4.45,7.22v.98l-.79,.57c-9.75,6.98-28.08,14.8-54.56,23.47l18.61,5.61c15.37,4.75,25.99,9.23,31.04,13.62,4.36-14.33,6.95-23.86,7.68-28.58l1.77-11.39,.85-5.4,1-6.42,.95-.43c2.7-1.19,6.69-2.85,11.96-4.96l.95-.11c2.27,.27,3.77,1.73,4.07,4.01l-.07,.8c-1.23,3.94-2.25,8.82-3.13,14.65-.46,3.63-.79,6.87-.98,9.76l-.58,1.24-.46,2.45-2.29,8.2c-1.66,5.9-3.73,13.17-5.61,19.56,3.46,.14,8.18-.4,14.79-1.72,6.65-1.31,11.72-1.94,15.1-1.81,.98,.03,1.93,.17,2.77,.44,.71-6.8,1.68-13.3,2.88-19.47,.99-4.99,2.18-9.97,3.6-14.93l.22-.74,.67-.38c2.45-1.4,4.96-2.92,7.36-4.49,3.48-1.86,6.34-3.12,8.11-3.24l1.03-.08,.61,.83c1.21,1.59,1.85,3.47,1.25,5.41-.79,2.27-2.18,6.14-4.12,11.57-1.45,4.01-2.4,7.39-2.85,10.07-1.76,11.03-2.31,20.03-1.75,27.07,9.98-2.84,20.66-7.17,32.05-13.03,11.76-6,22.54-12.7,32.3-20.08-7.11-8.79-15.49-15.97-25.08-21.53-11.46-6.56-22.92-9.84-34.18-10.01-1.67-.06-4.25-1.11-7.37-2.72l-1.84-.93,1.07-1.75c.06-.11,.36-.44,.89-.93,.3-.28,.7-.65,1.17-1.15,.96-.99,2.21-2.44,3.47-4.42l.75-1.16,1.33,.35c.5,.12,2.12,.33,4.81,.64,4.74,.68,8.17,1.06,10.25,1.13,11.48,.39,21.77,2.92,30.81,7.59,6.42,3.4,14.61,9.5,24.44,18.23,2.72,2.37,6.01,5.76,9.93,10.17l.49,1.22c0,.44,.13,1.3,.46,2.72l.3,1.28-1.1,.72c-27.26,18.26-58.86,35.03-94.54,50.24Z"/></g></g></svg>